<?xml version="1.0" encoding="UTF-8"?>
<svg width="10px" height="8px" viewBox="0 0 10 8" version="1.1" xmlns="http://www.w3.org/2000/svg" xmlns:xlink="http://www.w3.org/1999/xlink">
    <!-- Generator: sketchtool 51.2 (57519) - http://www.bohemiancoding.com/sketch -->
    <title>F6C3462C-7F32-4340-B33C-5E485F991A62</title>
    <desc>Created with sketchtool.</desc>
    <defs></defs>
    <g id="Авторизация" stroke="none" stroke-width="1" fill="none" fill-rule="evenodd">
        <g id="01_login" transform="translate(-620.000000, -451.000000)" fill="#0D51B6" fill-rule="nonzero">
            <g id="Group-2" transform="translate(560.000000, 208.000000)">
                <g id="Group" transform="translate(55.000000, 236.000000)">
                    <path d="M8.87979374,14.4992927 L9.00012091,14.4993374 C9.17215473,14.5074559 9.33654577,14.4408023 9.46042267,14.3084113 L14.8207447,8.61703538 C15.0597518,8.36160129 15.0597518,7.9474608 14.8207447,7.69202671 L14.3524775,7.19157557 C14.1134704,6.93614148 13.7259633,6.93614148 13.4869562,7.19157557 L9.03127125,11.9161387 L6.63759605,9.21149523 C6.37355267,8.92930414 5.94545376,8.92930414 5.68141038,9.21149523 L5.19803254,9.72809566 C4.93398915,10.0102867 4.93398915,10.4678089 5.19803254,10.75 L8.37179255,14.2883436 C8.5084433,14.4343863 8.69006408,14.508105 8.87979374,14.4992927 Z" id="Combined-Shape"></path>
                </g>
            </g>
        </g>
    </g>
</svg>