<?xml version="1.0" encoding="UTF-8"?>
<svg width="14px" height="16px" viewBox="0 0 14 16" version="1.1" xmlns="http://www.w3.org/2000/svg" xmlns:xlink="http://www.w3.org/1999/xlink">
    <!-- Generator: sketchtool 52 (66869) - http://www.bohemiancoding.com/sketch -->
    <title>C4F23679-F2CF-4CC8-9245-07EB3F4095AE</title>
    <desc>Created with sketchtool.</desc>
    <g id="Price" stroke="none" stroke-width="1" fill="none" fill-rule="evenodd">
        <g id="02.0_Price_uslugi" transform="translate(-1093.000000, -570.000000)" fill="#5E6777">
            <g id="Group-11-Copy" transform="translate(340.000000, 310.000000)">
                <path d="M759.999999,260 C756.521233,260 753,261.0992 753,263.2 L753,272.799999 C753,274.9008 756.521233,276 759.999999,276 C763.478766,276 767,274.9008 767,272.799999 L767,263.2 C767,261.0992 763.478766,260 759.999999,260 Z M759.999999,261.6 C763.536477,261.6 765.444444,262.73552 765.444444,263.2 C765.444444,263.6652 763.536477,264.8 759.999999,264.8 C756.463522,264.8 754.555555,263.6652 754.555555,263.2 C754.555555,262.73552 756.463522,261.6 759.999999,261.6 Z M759.999999,274.4 C756.463522,274.4 754.555555,273.2652 754.555555,272.799999 L754.555555,271.68008 C755.906011,272.418 757.957556,272.799999 759.999999,272.799999 C762.042443,272.799999 764.093988,272.418 765.444444,271.68008 L765.444444,272.799999 C765.444444,273.2652 763.536477,274.4 759.999999,274.4 Z M759.999999,271.2 C756.463522,271.2 754.555555,270.0652 754.555555,269.6 L754.555555,268.48008 C755.906011,269.217999 757.957556,269.6 759.999999,269.6 C762.042443,269.6 764.093988,269.217999 765.444444,268.48008 L765.444444,269.6 C765.444444,270.0652 763.536477,271.2 759.999999,271.2 Z M759.999999,268 C756.463522,268 754.555555,266.8652 754.555555,266.4 L754.555555,265.28008 C755.906011,266.018 757.957556,266.4 759.999999,266.4 C762.042443,266.4 764.093988,266.018 765.444444,265.28008 L765.444444,266.4 C765.444444,266.8652 763.536477,268 759.999999,268 Z" id="Shape"></path>
            </g>
        </g>
    </g>
</svg>