<?xml version="1.0" encoding="UTF-8"?>
<svg width="108px" height="50px" viewBox="0 0 108 50" version="1.1" xmlns="http://www.w3.org/2000/svg">
    <!-- Generator: sketchtool 51.2 (57519) - http://www.bohemiancoding.com/sketch -->
    <title>0E0F64C5-9260-4FF7-82FA-C20322C2AFA3</title>
    <desc>Created with sketchtool.</desc>
    <defs></defs>
    <g id="Профиль-животного" stroke="none" stroke-width="1" fill="none" fill-rule="evenodd">
        <g id="01.0_animal_prof" transform="translate(-30.000000, -25.000000)" fill="#FFFFFF">
            <g id="Group-3" transform="translate(30.000000, 25.000000)">
                <path
                    d="M86.9840247,23.5121929 C86.9840247,23.6823425 87.1233725,23.8217924 87.2999878,23.8275161 C88.1101496,23.8550938 88.918151,23.9300221 89.3421357,23.112055 C89.769361,22.2888844 89.8617194,21.3486385 89.3097292,20.542639 C88.8247123,19.8349829 88.0523581,19.9234399 87.2972873,19.9541397 C87.1217522,19.9609041 86.9840247,20.1003539 86.9840247,20.2694629 L86.9840247,23.5121929 Z M86.9834846,29.7291597 C86.9834846,29.901911 87.1282335,30.0424015 87.3075493,30.0450032 C87.5203518,30.0476049 87.7153307,30.0496862 87.9103097,30.0397999 C88.91329,29.990368 89.4361144,29.5657744 89.5452162,28.6015929 C89.6132698,27.9995649 89.5819435,27.3819269 89.5371146,26.7752159 C89.4933659,26.1773505 89.0823438,25.793343 88.5103695,25.6700236 C88.1290534,25.5878106 87.7272131,25.5930139 87.3183515,25.5857292 C87.1341747,25.5826072 86.9834846,25.7241384 86.9834846,25.9015728 L86.9834846,29.7291597 Z M84.9840052,31.3999565 L84.9840052,18.5268598 C84.9840052,18.3525475 85.1303745,18.2104959 85.3113106,18.2110163 C86.6577995,18.2193416 87.9961868,18.066363 89.3075687,18.4118657 C90.6940257,18.7771411 91.4874441,19.7574529 91.5916849,21.1639194 C91.6149096,21.4776816 91.6014069,21.7945658 91.6154497,22.1093687 C91.6575781,23.0490944 91.4107488,23.8566549 90.6502769,24.4560812 C90.4898649,24.583043 90.4844638,24.8140719 90.6410951,24.9451964 C90.6421753,24.9457168 90.6432555,24.9467574 90.6437956,24.9477981 C91.2001067,25.4129779 91.5673801,25.9858671 91.5943855,26.7054909 C91.621931,27.4511315 91.632193,28.2009347 91.5900646,28.9455346 C91.5079682,30.4097583 90.5292928,31.5399267 89.0164506,31.6866613 C87.7985074,31.8047774 86.5605801,31.7282881 85.3096903,31.7152797 C85.1292943,31.7131984 84.9840052,31.5732281 84.9840052,31.3999565 Z M71.9240349,24.9845338 L71.9267354,24.9845338 C71.9267354,24.1879003 71.934297,23.3907466 71.9240349,22.5935928 C71.9170135,22.0638914 71.9191739,21.5300274 71.8538209,21.0055293 C71.7771256,20.3904929 71.2748252,19.9867127 70.6207546,19.9310368 C69.8451597,19.8649542 69.2099929,20.162586 69.020415,20.7495243 C68.915094,21.0747339 68.89511,21.4353263 68.8929495,21.7803087 C68.8826875,23.922009 68.8859281,26.0637093 68.8897089,28.2054096 C68.890249,28.4536096 68.9140137,28.7028502 68.9410191,28.9500095 C68.9993508,29.4885566 69.3320572,29.8246932 69.8402987,30.0000462 C70.9550814,30.3840537 71.8867675,29.7341549 71.9175536,28.5207328 C71.9472595,27.3426936 71.9240349,26.1636137 71.9240349,24.9845338 Z M73.9143324,25.0277216 C73.9143324,26.2713231 73.9310758,27.5149246 73.9110918,28.7585261 C73.8705837,31.2608188 71.6815265,32.182853 69.9137534,31.9705562 C68.1162744,31.7540967 66.9561227,30.5989522 66.9118339,28.8032749 C66.8486413,26.2676808 66.857283,23.7289646 66.9102135,21.1933704 C66.94262,19.6578608 67.7722257,18.5859699 69.1646238,18.1972794 C70.6531611,17.7810111 72.0266554,17.9912266 73.1419782,19.1380457 C73.7355567,19.7483991 73.8932682,20.5086091 73.9100115,21.2974375 C73.9353966,22.5405186 73.9164928,23.7841201 73.9164928,25.0277216 L73.9143324,25.0277216 Z M65.4675314,31.5060008 C65.5123604,31.6522151 65.3962372,31.7989496 65.2374455,31.797909 C64.7059793,31.7942666 64.2150213,31.7843802 63.7251434,31.8067547 C63.40756,31.821324 63.3238433,31.6771912 63.2509287,31.4222268 C62.7572701,29.6973151 62.2333655,27.9802085 61.7575305,26.2511341 C61.6505891,25.8614029 61.4739738,25.7412054 61.0834758,25.7750272 C60.8118016,25.7984423 60.5368867,25.7880356 60.2268647,25.7828323 C60.0945383,25.7812713 59.9854365,25.8842977 59.9854365,26.0112595 L59.9854365,31.5471073 C59.9854365,31.6730285 59.8790353,31.7750142 59.7483292,31.7750142 L58.2365672,31.7750142 C58.1058611,31.7750142 58,31.6730285 58,31.5471073 L58,18.4700392 C58,18.3441181 58.1058611,18.241612 58.2365672,18.241612 L59.7359067,18.241612 C59.8666128,18.241612 59.9730141,18.3441181 59.9730141,18.4700392 L59.9730141,23.7956716 C59.9730141,23.9195114 60.0761747,24.0209768 60.2047203,24.0240988 C60.5665926,24.0319038 60.9057803,24.0527172 61.2368665,24.0110904 C61.8007391,23.9403248 62.0410871,23.5079261 62.1226434,23.0333803 C62.2852158,22.0858496 62.3867561,21.1279122 62.5288045,20.1762188 C62.7605108,18.6152128 63.5798544,17.9585496 65.1877555,18.069381 C65.3119803,18.0782267 65.4091998,18.1776107 65.4091998,18.2978082 L65.4091998,19.5414097 C65.4091998,19.6532818 65.3249429,19.7505845 65.2099,19.7661946 C64.4661714,19.8671396 64.3684119,20.4811354 64.2971177,21.1169852 C64.2134009,21.8589834 64.168572,22.6082663 64.0227429,23.3393374 C63.9314646,23.7951512 63.6668118,24.2161025 63.5182821,24.6651519 C63.4637312,24.8311389 63.4788542,25.0429154 63.5312447,25.2141057 C64.1691121,27.3126182 64.8199421,29.4074883 65.4669913,31.5039195 L65.4675314,31.5060008 Z M99.3772319,20.0408276 L96.3072587,20.0408276 C96.0750123,20.0408276 95.8870548,20.2219043 95.8870548,20.4456485 L95.8870548,23.6280195 C95.8870548,23.8512434 96.0750123,24.0328404 96.3072587,24.0328404 L98.907338,24.0328404 C99.1395844,24.0328404 99.3275419,24.2139171 99.3275419,24.4376613 L99.3275419,25.3872733 C99.3275419,25.6110175 99.1395844,25.7920942 98.907338,25.7920942 L96.3099593,25.7920942 C96.0777129,25.7920942 95.8897553,25.9731709 95.8897553,26.1969151 L95.8897553,29.5395495 C95.8897553,29.7632937 96.0777129,29.9443704 96.3099593,29.9443704 L99.4317828,29.9443704 C99.663489,29.9443704 99.8519867,30.1254471 99.8519867,30.3491913 L99.8519867,31.3549995 C99.8519867,31.5782234 99.663489,31.7598204 99.4317828,31.7598204 L94.300758,31.7598204 C94.0685116,31.7598204 93.8805541,31.5782234 93.8805541,31.3549995 L93.8805541,18.6421661 C93.8805541,18.4184219 94.0685116,18.2373452 94.300758,18.2373452 L99.3772319,18.2373452 C99.6089381,18.2373452 99.7974358,18.4184219 99.7974358,18.6421661 L99.7974358,19.6360067 C99.7974358,19.8592305 99.6089381,20.0408276 99.3772319,20.0408276 Z M108,18.5781649 L108,19.6958452 C108,19.8836863 107.841748,20.0366649 107.646229,20.0366649 L105.876296,20.0366649 C105.680777,20.0366649 105.522525,20.1891231 105.522525,20.3774845 L105.522525,31.4366922 C105.522525,31.6250536 105.364274,31.7775118 105.168755,31.7775118 L103.862774,31.7775118 C103.667255,31.7775118 103.509003,31.6250536 103.509003,31.4366922 L103.509003,20.3910133 C103.509003,20.2026519 103.350751,20.0501936 103.155232,20.0501936 L101.384219,20.0501936 C101.18924,20.0501936 101.030988,19.8977354 101.030988,19.709374 L101.030988,18.5781649 C101.030988,18.3898035 101.18924,18.2373452 101.384219,18.2373452 L107.646229,18.2373452 C107.841748,18.2373452 108,18.3898035 108,18.5781649 Z M78.29855,24.2504967 C78.29855,24.4794442 78.4908284,24.6646836 78.7284759,24.6657243 C78.8851072,24.6662446 79.0325566,24.6662446 79.179466,24.6626023 C79.1864874,24.6626023 79.1929687,24.6626023 79.19945,24.6626023 C80.2429384,24.6365855 81.0709237,23.8144557 81.0795655,22.8091678 C81.0849665,22.2732223 81.0698435,21.7367566 81.0487793,21.2018518 C81.0266349,20.641971 80.6842065,20.2241417 80.1603019,20.0961392 C79.7087717,19.9858281 79.2329366,19.9670961 78.7571016,19.9395183 C78.508652,19.9249489 78.29855,20.114351 78.29855,20.3542256 L78.29855,24.2504967 Z M78.2872078,26.8303194 L78.2872078,31.3478709 C78.2872078,31.5768185 78.0943893,31.7630985 77.8562017,31.7630985 L76.7295367,31.7630985 C76.4913491,31.7630985 76.2979905,31.5768185 76.2979905,31.3478709 L76.2979905,18.6142241 C76.2979905,18.3857969 76.490809,18.2000372 76.7284564,18.1989965 C76.9439595,18.1984762 77.156762,18.1979559 77.3701046,18.2010779 C78.2823468,18.2125252 79.1962093,18.1979559 80.105751,18.2484284 C81.5246143,18.32856 82.7031297,19.257879 82.9143119,20.6060679 C83.0709432,21.6092744 83.124954,22.6593112 83.0072104,23.6651194 C82.8127716,25.3322739 81.5635021,26.3302771 79.810312,26.4083274 C79.4533007,26.4239375 79.0957492,26.4187341 78.7230748,26.4145714 C78.4827268,26.4119697 78.2872078,26.5987701 78.2872078,26.8303194 Z M22.2744086,13.1865598 C21.7408659,13.5329442 20.9403301,16.3053506 20.7624826,16.840672 C20.2293834,16.808739 20.0510924,16.5572665 19.8732448,16.5253335 C19.6949537,16.493844 19.6062517,16.1474596 19.3388151,16.178949 C19.0722655,16.2104385 19.0722655,15.8640541 19.0288015,15.6746736 C18.98312,15.4861801 18.7170139,16.0215016 18.5835174,15.8951001 C18.1386767,15.7066066 18.3165243,14.9819046 18.8061595,14.2886922 C18.0056237,15.0763731 17.338141,14.4150937 17.7377436,14.1946672 C17.3829355,14.1631777 17.29379,13.8797722 17.6055776,13.6269692 C17.5159885,13.5329442 17.1154989,13.4389192 17.42773,13.2495387 C17.7377436,13.0601582 19.5614572,12.4623013 20.407231,12.1469628 C21.2521178,11.8320678 21.1186212,11.5797083 21.2068797,11.4537504 C21.2964688,11.3282359 21.3412633,11.2018344 20.8511846,10.9503619 C20.361993,10.6980024 20.5398405,10.3516179 20.0954434,10.099702 C19.6506027,9.84822949 20.2293834,9.81629648 19.6949537,9.40693301 C19.1614111,8.99712603 19.7397483,8.93414703 19.4731987,8.68223105 C19.2062056,8.43031507 19.0288015,8.27242407 19.1614111,7.92648311 C19.2949076,7.57965512 18.4948154,7.23327065 18.7170139,6.91837567 C18.938769,6.60303718 18.7170139,5.84684573 18.938769,5.65835226 C18.2721733,4.96469628 18.2278223,4.46130783 18.2278223,4.46130783 C18.2278223,4.46130783 18.4500208,4.7442698 18.7609214,4.7442698 C17.8712401,3.79958487 18.2721733,3.23321743 18.2721733,3.23321743 C18.2721733,3.23321743 18.6283119,3.54766889 19.4731987,3.67407039 C18.894418,3.23321743 18.6283119,2.82296693 18.8061595,2.47702597 C18.98312,2.91787894 19.8280068,3.10681592 19.8280068,3.10681592 C19.8280068,3.10681592 19.4284042,2.28764547 19.6062517,1.878282 C19.6506027,2.38255748 20.3176419,2.79192095 20.3176419,2.79192095 C20.3176419,2.79192095 19.9184828,1.91021502 20.1397944,1.50040803 C20.628986,3.10681592 22.8970968,4.05194437 23.4306395,4.58726582 C23.9646256,5.12258728 25.1208565,5.65835226 25.2987041,6.06771573 C25.4769951,7.26476015 26.4992859,8.05199759 26.4992859,8.05199759 C28.8121912,6.91837567 29.7462235,7.8945501 29.7462235,7.8945501 C29.7462235,7.8945501 30.8137524,7.92648311 30.8137524,8.05199759 C29.0782973,8.68223105 28.9456878,9.3435105 28.7682837,9.81629648 C28.5899926,10.2886389 27.6116093,11.5491059 26.2775309,11.8005783 C24.943009,12.0524943 22.8083948,12.8397318 22.2744086,13.1865598 M39.3930121,34.8145224 C39.8547061,32.0013128 35.3495303,26.1238646 35.3495303,26.1238646 C34.2194665,27.5071849 31.6338026,26.7416797 31.6338026,26.7416797 L29.5639409,27.1328591 C28.2165571,27.0445998 27.9163008,27.9218706 27.9163008,27.9218706 C26.5937536,28.3964306 25.8247071,28.0074688 25.4623593,27.7058792 C25.4330876,27.6384651 25.363013,27.5054109 25.2202028,27.2654698 C24.6276733,26.2551448 25.4219999,24.7126029 25.3953893,24.6070466 C25.3953893,24.6070466 29.1177697,21.2265825 29.131075,21.0194614 C29.1448238,20.8127838 29.2605799,19.8317308 29.2605799,19.8317308 C30.3622591,19.6960155 31.5743722,17.850997 31.5743722,17.850997 C30.4753541,16.4490491 31.0465952,15.4608998 31.3712446,15.0825823 C31.149046,15.6165732 32.7057665,17.2482614 32.7057665,17.2482614 L33.538235,17.251366 L34.0150084,14.7330932 L35.3038488,18.0940427 C39.6404907,19.366928 49.3098983,27.3852186 49.3098983,27.3852186 C49.5059297,27.3776788 49.7423206,27.3887667 50,27.4162645 L50,16.3621204 C50,15.0200468 48.9023125,13.9227931 47.5611379,13.9227931 L36.0773304,13.9227931 L36.0773304,2.43888376 C36.0773304,1.09769728 34.9796429,0 33.6384683,0 L16.3619752,0 C15.0203571,0 13.9226696,1.09769728 13.9226696,2.43888376 L13.9226696,13.9227931 L2.43930564,13.9227931 C1.09768754,13.9227931 0,15.0200468 0,16.3621204 L0,28.187092 C0.946450589,28.0926235 1.79000683,27.967996 2.43531405,27.8163142 C3.69177821,27.5209339 5.31591226,26.4981905 6.62559763,25.5180244 C7.44165624,24.9077491 8.13574958,24.3134402 8.54200484,23.9227044 C8.7637599,23.7093741 8.92298003,23.4397176 9.09151388,23.154538 C9.29508502,22.8090406 9.5265973,22.4174177 9.89825878,22.0936524 L10.5599759,21.5170842 L10.7985843,22.3615349 L11.1844381,23.7262276 C11.6776214,24.178612 12.7451502,25.2213135 13.0560508,25.8236056 C13.2458731,26.1926093 13.5297196,26.3779982 13.7572403,26.5270189 C13.984761,26.6764831 14.2969921,26.8800561 14.2978791,27.2747836 C14.3000967,28.1298787 13.2046267,28.914455 12.624959,29.2098354 C12.2169297,29.4178435 11.814666,29.4480024 11.4403435,29.4488894 C11.3507544,29.4488894 11.2602783,29.4475589 11.1675847,29.4462284 L11.1627061,29.4457848 C11.0757781,29.4444543 10.9870761,29.4426802 10.8970436,29.4426802 C10.6584351,29.4435673 10.3737016,29.4559857 10.0756628,29.5420274 C9.78649423,29.6262951 9.36515962,30.1026292 9.00192483,31.8962 C8.92741513,32.2620991 8.80500634,32.6949688 8.67505788,33.1517882 C8.46483408,33.8937873 8.22711266,34.7320288 8.23642637,35.1906223 C8.23642637,35.197275 8.23642637,35.2043713 8.23686988,35.2114675 C8.2461836,35.4616094 8.34952145,35.7600944 8.49454926,36.0772069 L13.8481599,36.0772069 C14.1688177,35.7144124 14.3772674,35.3773418 14.4508901,35.085066 L14.4610909,35.0451497 L14.4766137,35.0070075 C14.6792978,34.515594 14.9799977,34.0632096 15.299325,33.5851015 C15.6998146,32.9828094 16.1140531,32.3614462 16.3335906,31.6407359 C16.4976893,31.1023098 16.6054623,30.4969131 16.7105742,29.9110311 C16.8808821,28.960137 17.0573991,27.9759793 17.4853863,27.2126916 C17.8366464,26.5864498 18.2451192,26.2520402 18.69883,26.2196636 C18.7835405,26.213898 18.8682509,26.2187766 18.9516308,26.2347431 L19.331719,26.30881 L19.4035676,26.6897885 L19.4310652,26.8357047 C19.642176,27.9577952 19.7672459,28.6208487 20.0945564,29.4404627 C20.3983608,29.5171906 20.7110354,29.5579939 21.0379024,29.6005712 C21.6832096,29.6848389 22.3502488,29.7717677 23.0288193,30.1416584 C23.3720961,30.3292648 23.6129221,30.5705365 23.8253635,30.7829797 C24.0830428,31.0411049 24.2400454,31.1896821 24.4742188,31.2411297 C24.7203669,31.2939079 25.0303804,31.3045522 25.450828,31.2748368 C25.7187081,31.2548787 26.0003371,31.2216151 26.2482592,31.1910126 L26.2717653,31.1887951 C26.5458545,31.1555315 26.8048644,31.1244855 27.0550041,31.106745 C27.5632667,31.0699333 28.1371688,31.074812 28.5434241,31.3879329 C29.2100198,31.9019657 28.911981,33.0142989 28.5323363,34.0339377 C28.2449418,34.8069827 27.8054232,35.7605379 27.225312,36.869323 C26.8620772,37.563866 25.7129425,37.7701001 24.2577858,38.0313298 C23.5002705,38.1674886 22.7179187,38.3071956 22.1688532,38.510325 C21.4503668,39.1769266 20.4511385,41.6100447 19.9078386,46.4119713 C19.7393048,47.8986304 18.915263,49.0193904 18.1005349,50 L33.6384683,50 C34.9796429,50 36.0773304,48.9027462 36.0773304,47.5606727 L36.0773304,36.0772069 L39.4342585,36.0772069 C39.3952296,35.3121452 39.3930121,34.8145224 39.3930121,34.8145224"
                    id="Fill-1"></path>
            </g>
        </g>
    </g>
</svg>
