<?xml version="1.0" encoding="UTF-8"?>
<svg width="12px" height="12px" viewBox="0 0 12 12" version="1.1" xmlns="http://www.w3.org/2000/svg" xmlns:xlink="http://www.w3.org/1999/xlink">
    <!-- Generator: sketchtool 51.3 (57544) - http://www.bohemiancoding.com/sketch -->
    <title>40BE1986-0583-41C1-A363-5CDD3A78225F</title>
    <desc>Created with sketchtool.</desc>
    <defs></defs>
    <g id="Профиль-владельца" stroke="none" stroke-width="1" fill="none" fill-rule="evenodd">
        <g id="01.1_add_user_ip" transform="translate(-613.000000, -767.000000)" fill="#5E6777">
            <g id="Group-12" transform="translate(340.000000, 201.000000)">
                <g id="Group-16" transform="translate(20.000000, 527.000000)">
                    <path d="M253.137373,49.0867705 L256.896034,45.328109 C257.079197,45.1449457 257.079197,44.8479792 256.896034,44.6648158 L253.144448,40.9132295 C252.961284,40.7300661 252.961284,40.4330997 253.144448,40.2499363 L254.249936,39.1444476 C254.4331,38.9612843 254.730066,38.9612843 254.91323,39.1444476 L258.664816,42.896034 C258.847979,43.0791973 259.144946,43.0791973 259.328109,42.896034 L263.08677,39.1373725 C263.269934,38.9542092 263.5669,38.9542092 263.750064,39.1373725 L264.862627,40.2499363 C265.045791,40.4330997 265.045791,40.7300661 264.862627,40.9132295 L261.103966,44.671891 C260.920803,44.8550543 260.920803,45.1520208 261.103966,45.3351842 L264.862627,49.0938456 C265.045791,49.277009 265.045791,49.5739755 264.862627,49.7571388 L263.757139,50.8626275 C263.573975,51.0457908 263.277009,51.0457908 263.093846,50.8626275 L259.335184,47.103966 C259.152021,46.9208027 258.855054,46.9208027 258.671891,47.103966 L254.91323,50.8626275 C254.730066,51.0457908 254.4331,51.0457908 254.249936,50.8626275 L253.137373,49.7500637 C252.954209,49.5669003 252.954209,49.2699339 253.137373,49.0867705 Z" id="+-copy-4"></path>
                </g>
            </g>
        </g>
    </g>
</svg>