<?xml version="1.0" encoding="UTF-8"?>
<svg width="11px" height="11px" viewBox="0 0 11 11" version="1.1" xmlns="http://www.w3.org/2000/svg" xmlns:xlink="http://www.w3.org/1999/xlink">
    <!-- Generator: sketchtool 51.2 (57519) - http://www.bohemiancoding.com/sketch -->
    <title>D65CA693-D41C-49FB-B244-16F56A18677C</title>
    <desc>Created with sketchtool.</desc>
    <defs></defs>
    <g id="Профиль-животного" stroke="none" stroke-width="1" fill="none" fill-rule="evenodd">
        <g id="01.4_animal_prof_history" transform="translate(-978.000000, -605.000000)" fill="#9A9AA9">
            <g id="Group-2-Copy" transform="translate(460.000000, 280.000000)">
                <path d="M522.477281,335.985281 L522.477281,331.985281 C522.477281,331.709139 522.253424,331.485281 521.977281,331.485281 L517.985281,331.485281 C517.709139,331.485281 517.485281,331.261424 517.485281,330.985281 L517.485281,329.985281 C517.485281,329.709139 517.709139,329.485281 517.985281,329.485281 L521.977281,329.485281 C522.253424,329.485281 522.477281,329.261424 522.477281,328.985281 L522.477281,324.985281 C522.477281,324.709139 522.701139,324.485281 522.977281,324.485281 L523.985281,324.485281 C524.261424,324.485281 524.485281,324.709139 524.485281,324.985281 L524.485281,328.985281 C524.485281,329.261424 524.709139,329.485281 524.985281,329.485281 L528.985281,329.485281 C529.261424,329.485281 529.485281,329.709139 529.485281,329.985281 L529.485281,330.985281 C529.485281,331.261424 529.261424,331.485281 528.985281,331.485281 L524.985281,331.485281 C524.709139,331.485281 524.485281,331.709139 524.485281,331.985281 L524.485281,335.985281 C524.485281,336.261424 524.261424,336.485281 523.985281,336.485281 L522.977281,336.485281 C522.701139,336.485281 522.477281,336.261424 522.477281,335.985281 Z" id="+-copy-12" transform="translate(523.485281, 330.485281) rotate(45.000000) translate(-523.485281, -330.485281) "></path>
            </g>
        </g>
    </g>
</svg>