<?xml version="1.0" encoding="UTF-8"?>
<svg width="18px" height="18px" viewBox="0 0 18 18" version="1.1" xmlns="http://www.w3.org/2000/svg" xmlns:xlink="http://www.w3.org/1999/xlink">
    <!-- Generator: sketchtool 51.3 (57544) - http://www.bohemiancoding.com/sketch -->
    <title>F4C12281-C286-4C60-BA26-7F09D1A5B5D5</title>
    <desc>Created with sketchtool.</desc>
    <defs></defs>
    <g id="Профиль-владельца" stroke="none" stroke-width="1" fill="none" fill-rule="evenodd">
        <g id="01.2_add_user_KFH_prof" transform="translate(-1086.000000, -1224.000000)" fill="#2F3540">
            <g id="Group-11-Copy-2" transform="translate(340.000000, 1122.000000)">
                <path d="M761.503992,108.837521 L751.38739,118.954123 L747.2106,119.97216 C746.685392,120.100173 746.155852,119.778182 746.02784,119.252974 C745.99072,119.100679 745.99072,118.941695 746.02784,118.7894 L747.045877,114.61261 L757.162479,104.496008 L761.503992,108.837521 Z M750.621012,116.826159 L758.605158,108.842013 L757.157987,107.394842 L749.173841,115.378988 L750.621012,116.826159 Z M762.229824,108.11169 L757.891156,103.767331 L759.371799,102.286688 C759.754049,101.904437 760.373799,101.904437 760.75605,102.286688 L763.713312,105.243951 C764.095563,105.626201 764.095563,106.245951 763.713312,106.628201 L762.229824,108.11169 Z" id="Shape-Copy-3"></path>
            </g>
        </g>
    </g>
</svg>