<?xml version="1.0" encoding="UTF-8"?>
<svg width="22px" height="19px" viewBox="0 0 22 19" version="1.1" xmlns="http://www.w3.org/2000/svg" xmlns:xlink="http://www.w3.org/1999/xlink">
    <!-- Generator: sketchtool 51.2 (57519) - http://www.bohemiancoding.com/sketch -->
    <title>48237C5E-470F-416D-BD00-95FAA0BD785F</title>
    <desc>Created with sketchtool.</desc>
    <defs></defs>
    <g id="Профиль-животного" stroke="none" stroke-width="1" fill="none" fill-rule="evenodd">
        <g id="01.0_animal_prof" transform="translate(-934.000000, -695.000000)" fill="#0D51B6">
            <g id="Group-18" transform="translate(934.000000, 695.000000)">
                <path d="M13.75,0 L12.25,0 L5.25,0 C4,0 3,1 3,2.25 L3,9 C5,9 5.75,9 7,9 L16,9 C17.25,9 17.5,9 19,9 L19,6.75 L19,5.25 C19,2.34375 16.65625,0 13.75,0 Z M17.4375,4.625 C17.21875,4.5625 17,4.5 16.75,4.5 L15.25,4.5 C14.84375,4.5 14.5,4.15625 14.5,3.75 L14.5,2.25 C14.5,2 14.4375,1.78125 14.375,1.5625 C15.9375,1.84375 17.15625,3.0625 17.4375,4.625 Z M17,9 L5,9 C5,8.78611111 5,6.68611111 5,2.7 C5,2.32083333 5.31510417,2 5.6875,2 L12.1875,2 C12.5598958,2 12.875,2.32083333 12.875,2.7 L12.875,4.1 C12.875,5.26666667 13.7916667,6.2 14.9375,6.2 L16.3125,6.2 C16.6848958,6.2 17,6.52083333 17,6.9 C17,7.96666667 17,8.66666667 17,9 Z M6,13 L16,13 C16.5522847,13 17,13.4477153 17,14 L17,17 L5,17 L5,14 C5,13.4477153 5.44771525,13 6,13 Z M2,11 L2,17 L20,17 L20,11 L2,11 Z M2,9 L20,9 C21.1045695,9 22,9.8954305 22,11 L22,17 C22,18.1045695 21.1045695,19 20,19 L2,19 C0.8954305,19 0,18.1045695 0,17 L0,11 C0,9.8954305 0.8954305,9 2,9 Z" id="Shape-Copy"></path>
            </g>
        </g>
    </g>
</svg>