<?xml version="1.0" encoding="UTF-8"?>
<svg width="16px" height="13px" viewBox="0 0 16 13" version="1.1" xmlns="http://www.w3.org/2000/svg" xmlns:xlink="http://www.w3.org/1999/xlink">
    <!-- Generator: sketchtool 52.2 (67145) - http://www.bohemiancoding.com/sketch -->
    <title>304ECE60-98A7-4949-91DC-52484D587CB3</title>
    <desc>Created with sketchtool.</desc>
    <g id="Price" stroke="none" stroke-width="1" fill="none" fill-rule="evenodd">
        <g id="01.4_Price_Uslugi_filter" transform="translate(-1091.000000, -620.000000)" fill="#9A9AA9" fill-rule="nonzero">
            <g id="Group-11-Copy" transform="translate(340.000000, 437.000000)">
                <path d="M759,192.854072 C758.547413,192.853357 758.100991,192.738262 757.695,192.517619 L761.7075,188.080299 C762.154379,189.110087 762.092538,190.320506 761.543596,191.288382 C760.994654,192.256258 760.034948,192.846997 759,192.854072 Z M763.92,185.650666 C765.236313,186.619178 766.298519,187.952611 767,189.517119 C765.504517,192.887638 762.401776,195.026833 759,195.032744 C757.96116,195.033036 756.9304,194.831391 755.955,194.437057 L756.75,193.560072 C757.480367,193.799134 758.23816,193.92081 759,193.921346 C761.841117,193.927333 764.464744,192.24415 765.865,189.517119 C765.2178,188.26787 764.301655,187.213678 763.1975,186.447674 L763.92,185.650666 Z M761.13,187.170221 L762.28,185.901627 L763.03,185.074283 L763.95,184.05665 C764.108751,183.837775 764.093434,183.522357 763.914394,183.323443 C763.735354,183.124529 763.449539,183.105387 763.25,183.278947 L762.05,184.602697 C761.073553,184.204945 760.040893,184.001392 759,184.001494 C755.598224,184.007406 752.495483,186.1466 751,189.517119 C751.702803,191.080863 752.766891,192.41259 754.085,193.378057 L753.335,194.2054 C753.200153,194.344017 753.145375,194.553231 753.192458,194.749813 C753.23954,194.946395 753.380848,195.09846 753.560164,195.145512 C753.739481,195.192564 753.927722,195.126972 754.05,194.97483 L754.9725,193.957197 L755.7225,193.129854 L756.8725,191.86126 L761.13,187.170221 Z M754.805,192.586564 C753.699406,191.821624 752.782237,190.767241 752.135,189.517119 C753.950133,185.993715 757.729528,184.318509 761.25,185.476924 L760.305,186.519377 C759.899039,186.298642 759.452597,186.183541 759,186.182924 C757.967868,186.191769 757.011187,186.781013 756.462822,187.745637 C755.914458,188.710261 755.850235,189.91688 756.2925,190.945666 L754.805,192.586564 Z" id="Shape-Copy-2"></path>
            </g>
        </g>
    </g>
</svg>