<?xml version="1.0" encoding="UTF-8"?>
<svg width="16px" height="16px" viewBox="0 0 16 16" version="1.1" xmlns="http://www.w3.org/2000/svg" xmlns:xlink="http://www.w3.org/1999/xlink">
    <!-- Generator: sketchtool 51.2 (57519) - http://www.bohemiancoding.com/sketch -->
    <title>173F637C-2703-4ADA-81CB-89CBF8D9DD0B</title>
    <desc>Created with sketchtool.</desc>
    <defs></defs>
    <g id="Профиль-животного" stroke="none" stroke-width="1" fill="none" fill-rule="evenodd">
        <g id="01.1_animal_prof_add_mer" transform="translate(-497.000000, -202.000000)" fill="#2F3540" fill-rule="nonzero">
            <g id="Group-2-Copy-2" transform="translate(340.000000, 144.000000)">
                <path d="M162,58 C162.552285,58 163,58.4477153 163,59 L163,61 C163,61.5522847 162.552285,62 162,62 C161.447715,62 161,61.5522847 161,61 L161,59 C161,58.4477153 161.447715,58 162,58 Z M168,58 C168.552285,58 169,58.4477153 169,59 L169,61 C169,61.5522847 168.552285,62 168,62 C167.447715,62 167,61.5522847 167,61 L167,59 C167,58.4477153 167.447715,58 168,58 Z M162,64 C162.552285,64 163,64.4477153 163,65 C163,65.5522847 162.552285,66 162,66 C161.447715,66 161,65.5522847 161,65 C161,64.4477153 161.447715,64 162,64 Z M165,64 C165.552285,64 166,64.4477153 166,65 C166,65.5522847 165.552285,66 165,66 C164.447715,66 164,65.5522847 164,65 C164,64.4477153 164.447715,64 165,64 Z M162,68 C162.552285,68 163,68.4477153 163,69 C163,69.5522847 162.552285,70 162,70 C161.447715,70 161,69.5522847 161,69 C161,68.4477153 161.447715,68 162,68 Z M165,68 C165.552285,68 166,68.4477153 166,69 C166,69.5522847 165.552285,70 165,70 C164.447715,70 164,69.5522847 164,69 C164,68.4477153 164.447715,68 165,68 Z M168,64 C168.552285,64 169,64.4477153 169,65 C169,65.5522847 168.552285,66 168,66 C167.447715,66 167,65.5522847 167,65 C167,64.4477153 167.447715,64 168,64 Z M159,62.5 L159,71.5 C159,71.7761424 159.223858,72 159.5,72 L170.5,72 C170.776142,72 171,71.7761424 171,71.5 L171,62.5 C171,62.2238576 170.776142,62 170.5,62 L159.5,62 C159.223858,62 159,62.2238576 159,62.5 Z M159,60 L171,60 C172.104569,60 173,60.8954305 173,62 L173,72 C173,73.1045695 172.104569,74 171,74 L159,74 C157.895431,74 157,73.1045695 157,72 L157,62 C157,60.8954305 157.895431,60 159,60 Z" id="Rectangle-2"></path>
            </g>
        </g>
    </g>
</svg>