<?xml version="1.0" encoding="UTF-8"?>
<svg width="16px" height="18px" viewBox="0 0 16 18" version="1.1" xmlns="http://www.w3.org/2000/svg" xmlns:xlink="http://www.w3.org/1999/xlink">
    <!-- Generator: sketchtool 51.2 (57519) - http://www.bohemiancoding.com/sketch -->
    <title>FAD7C41E-D26E-4E71-B5B5-5B8C39218EFF</title>
    <desc>Created with sketchtool.</desc>
    <defs></defs>
    <g id="Профиль-животного" stroke="none" stroke-width="1" fill="none" fill-rule="evenodd">
        <g id="01.0_animal_prof" transform="translate(-984.000000, -696.000000)" fill="#0D51B6">
            <g id="Group-19" transform="translate(984.000000, 696.000000)">
                <path d="M7,11.1666667 L7,7 C7,6.44771525 7.44771525,6 8,6 C8.55228475,6 9,6.44771525 9,7 L9,11.1666667 L10.5725362,9.85621981 C10.5862056,9.84482869 10.6004732,9.83417537 10.6152783,9.82430531 C10.8450427,9.67112908 11.1554773,9.73321601 11.3086536,9.96298036 L11.7567528,10.6351291 C11.8959433,10.8439149 11.8588235,11.1235295 11.6699799,11.2887676 L8.3292523,14.2119042 C8.14073931,14.3768531 7.85926069,14.3768531 7.6707477,14.2119042 L4.33002009,11.2887676 C4.14117653,11.1235295 4.1040567,10.8439149 4.24324725,10.6351291 L4.69134643,9.96298036 C4.70121649,9.94817527 4.71186981,9.9339076 4.72326094,9.92023825 C4.90004298,9.70809981 5.21532533,9.67943777 5.42746378,9.85621981 L7,11.1666667 Z M10.75,0 L9.25,0 L2.25,0 C1,0 0,1 0,2.25 L0,15.75 C0,17 1,18 2.25,18 L13.75,18 C15,18 16,17 16,15.75 L16,6.75 L16,5.25 C16,2.34375 13.65625,0 10.75,0 Z M14.4375,4.625 C14.21875,4.5625 14,4.5 13.75,4.5 L12.25,4.5 C11.84375,4.5 11.5,4.15625 11.5,3.75 L11.5,2.25 C11.5,2 11.4375,1.78125 11.375,1.5625 C12.9375,1.84375 14.15625,3.0625 14.4375,4.625 Z M14,15.3 C14,15.6791667 13.6848958,16 13.3125,16 L2.6875,16 C2.31510417,16 2,15.6791667 2,15.3 L2,2.7 C2,2.32083333 2.31510417,2 2.6875,2 L9.1875,2 C9.55989583,2 9.875,2.32083333 9.875,2.7 L9.875,4.1 C9.875,5.26666667 10.7916667,6.2 11.9375,6.2 L13.3125,6.2 C13.6848958,6.2 14,6.52083333 14,6.9 L14,15.3 Z" id="Shape"></path>
            </g>
        </g>
    </g>
</svg>