<?xml version="1.0" encoding="UTF-8"?>
<svg width="16px" height="14px" viewBox="0 0 16 14" version="1.1" xmlns="http://www.w3.org/2000/svg" xmlns:xlink="http://www.w3.org/1999/xlink">
    <!-- Generator: sketchtool 51.2 (57519) - http://www.bohemiancoding.com/sketch -->
    <title>0D7F909B-C4DE-45E3-B4DE-4874D794C488</title>
    <desc>Created with sketchtool.</desc>
    <defs></defs>
    <g id="Профиль-животного" stroke="none" stroke-width="1" fill="none" fill-rule="evenodd">
        <g id="01.0_animal_prof" transform="translate(-30.000000, -249.000000)" fill="#0D51B6" fill-rule="nonzero">
            <path d="M35,249 C35.5522847,249 36,249.447715 36,250 L36,253 C36,253.552285 35.5522847,254 35,254 C34.4477153,254 34,253.552285 34,253 L34,250 C34,249.447715 34.4477153,249 35,249 Z M41,249 C41.5522847,249 42,249.447715 42,250 L42,253 C42,253.552285 41.5522847,254 41,254 C40.4477153,254 40,253.552285 40,253 L40,250 C40,249.447715 40.4477153,249 41,249 Z M35,256 L41,256 C41.5522847,256 42,256.447715 42,257 C42,257.552285 41.5522847,258 41,258 L35,258 C34.4477153,258 34,257.552285 34,257 C34,256.447715 34.4477153,256 35,256 Z M32,253.5 L32,260.5 C32,260.776142 32.2238576,261 32.5,261 L43.5,261 C43.7761424,261 44,260.776142 44,260.5 L44,253.5 C44,253.223858 43.7761424,253 43.5,253 L32.5,253 C32.2238576,253 32,253.223858 32,253.5 Z M32,251 L44,251 C45.1045695,251 46,251.895431 46,253 L46,261 C46,262.104569 45.1045695,263 44,263 L32,263 C30.8954305,263 30,262.104569 30,261 L30,253 C30,251.895431 30.8954305,251 32,251 Z" id="Rectangle-2"></path>
        </g>
    </g>
</svg>