<?xml version="1.0" encoding="UTF-8"?>
<svg width="20px" height="24px" viewBox="0 0 20 24" version="1.1" xmlns="http://www.w3.org/2000/svg" xmlns:xlink="http://www.w3.org/1999/xlink">
    <!-- Generator: sketchtool 51.2 (57519) - http://www.bohemiancoding.com/sketch -->
    <title>6F739013-FC82-45D9-8CEB-5136E04BD9C9</title>
    <desc>Created with sketchtool.</desc>
    <defs></defs>
    <g id="Профиль-животного" stroke="none" stroke-width="1" fill="none" fill-rule="evenodd">
        <g id="01.0_animal_prof" transform="translate(-250.000000, -38.000000)" fill="#FFFFFF" fill-rule="nonzero">
            <path d="M252.272727,59.3 L256.524064,59.3 C256.951872,60.8818182 258.368984,62 260,62 C261.631016,62 263.048128,60.8545455 263.475936,59.3 L267.727273,59.3 C268.983957,59.3 270,58.2636364 270,56.9818182 C270,56.2181818 269.625668,55.4818182 268.983957,55.0454545 C268.368984,54.6090909 267.352941,53.1909091 267.352941,48.4181818 C267.352941,43.8363636 264.705882,41.9 262.647059,41.0818182 C262.673797,40.9454545 262.673797,40.8363636 262.673797,40.7272727 C262.673797,39.2272727 261.470588,38 260,38 C258.529412,38 257.326203,39.2272727 257.326203,40.7272727 C257.326203,40.8363636 257.326203,40.9727273 257.352941,41.0818182 C255.294118,41.9 252.647059,43.8363636 252.647059,48.4181818 C252.647059,53.1909091 251.631016,54.6090909 251.016043,55.0454545 C250.374332,55.4818182 250,56.2181818 250,56.9818182 C250,58.2636364 251.016043,59.3 252.272727,59.3 Z M260,60.3636364 C259.251337,60.3636364 258.582888,59.9272727 258.235294,59.3 L261.737968,59.3 C261.417112,59.9272727 260.748663,60.3636364 260,60.3636364 Z M260.001015,39.8461538 C260.519867,39.8461538 260.834969,40.3403263 260.909091,40.7692308 C260.143167,40.6620047 259.585054,40.7048951 259.090909,40.7692308 C259.140324,40.3403263 259.482163,39.8461538 260.001015,39.8461538 Z M254.855511,48.4281906 C254.855511,44.8882966 257.009605,43.521165 258.804683,43.0084907 L258.852552,42.9840777 C258.852552,42.9840777 259.355174,42.8131862 260.049271,42.8131862 C260.408286,42.8131862 260.815171,42.8620124 261.222055,42.9840777 C263.041067,43.496752 265.195161,44.8638835 265.195161,48.4037776 C265.195161,50.9915622 265.262863,52.4228284 265.909091,53.6923077 L254.090909,53.6923077 C254.761072,52.4472415 254.855511,51.0159753 254.855511,48.4281906 Z M253.131313,55.5384615 L266.868687,55.5384615 C266.868687,55.5384615 267.727273,56 267.727273,56.4615385 C267.727273,57.1872079 267.222222,57.3846154 266.868687,57.3846154 L253.131313,57.3846154 C252.777778,57.3846154 252.272727,57.1872079 252.272727,56.4615385 C252.272727,56 253.131313,55.5384615 253.131313,55.5384615 Z" id="Shape"></path>
        </g>
    </g>
</svg>