<?xml version="1.0" encoding="UTF-8"?>
<svg width="18px" height="25px" viewBox="0 0 18 25" version="1.1" xmlns="http://www.w3.org/2000/svg" xmlns:xlink="http://www.w3.org/1999/xlink">
    <!-- Generator: Sketch 53.2 (72643) - https://sketchapp.com -->
    <title>7z</title>
    <desc>Created with Sketch.</desc>
    <g id="Page-1" stroke="none" stroke-width="1" fill="none" fill-rule="evenodd">
        <g id="7z" fill-rule="nonzero">
            <path d="M18,21.3513514 L18,8.55309405 C18,7.63575442 17.6846936,6.74628874 17.106923,6.03376285 L13.4149254,1.4806688 C12.655419,0.544020252 11.5138882,2.44301764e-15 10.3080025,2.66453526e-15 L2,1.77635684e-15 C0.8954305,1.97926296e-15 -1.3527075e-16,0.8954305 0,2 L0,21.3513514 C2.09738034e-15,22.4559209 0.8954305,23.3513514 2,23.3513514 L16,23.3513514 C17.1045695,23.3513514 18,22.4559209 18,21.3513514 Z" id="Shape-Copy-2" fill="#EEF0F2"></path>
            <path d="M0,13 L18,13 L18,22.027027 C18,23.1315965 17.1045695,24.027027 16,24.027027 L2,24.027027 C0.8954305,24.027027 1.3527075e-16,23.1315965 0,22.027027 L0,13 Z" id="Rectangle-path-Copy-2" fill="#4A4A4A"></path>
            <path d="M9.2109375,15.8398438 L6.9375,21 L5.94140625,21 L8.2109375,16.0742188 L5.26953125,16.0742188 L5.26953125,15.3125 L9.2109375,15.3125 L9.2109375,15.8398438 Z M11.046875,20.2421875 L13.296875,20.2421875 L13.296875,21 L9.8671875,21 L9.8671875,20.3789062 L12.0117188,17.5390625 L9.90625,17.5390625 L9.90625,16.7734375 L13.2148438,16.7734375 L13.2148438,17.375 L11.046875,20.2421875 Z" fill="#FFFFFF"></path>
        </g>
    </g>
</svg>