<?xml version="1.0" encoding="UTF-8"?>
<svg width="18px" height="25px" viewBox="0 0 18 25" version="1.1" xmlns="http://www.w3.org/2000/svg" xmlns:xlink="http://www.w3.org/1999/xlink">
    <!-- Generator: Sketch 53.2 (72643) - https://sketchapp.com -->
    <title>gif</title>
    <desc>Created with Sketch.</desc>
    <g id="Page-1" stroke="none" stroke-width="1" fill="none" fill-rule="evenodd">
        <g id="gif" fill-rule="nonzero">
            <path d="M18,21.3513514 L18,8.55309405 C18,7.63575442 17.6846936,6.74628874 17.106923,6.03376285 L13.4149254,1.4806688 C12.655419,0.544020252 11.5138882,2.44301764e-15 10.3080025,2.66453526e-15 L2,1.77635684e-15 C0.8954305,1.97926296e-15 -1.3527075e-16,0.8954305 0,2 L0,21.3513514 C2.09738034e-15,22.4559209 0.8954305,23.3513514 2,23.3513514 L16,23.3513514 C17.1045695,23.3513514 18,22.4559209 18,21.3513514 Z" id="Shape-Copy-6" fill="#EEF0F2"></path>
            <path d="M0,13 L18,13 L18,22.027027 C18,23.1315965 17.1045695,24.027027 16,24.027027 L2,24.027027 C0.8954305,24.027027 1.3527075e-16,23.1315965 0,22.027027 L0,13 Z" id="Rectangle-path-Copy-6" fill="#9013FE"></path>
            <path d="M4.3203125,18.8554688 C4.3203125,18.1992155 4.47460783,17.6751322 4.78320312,17.2832031 C5.09179842,16.8912741 5.50129953,16.6953125 6.01171875,16.6953125 C6.49349199,16.6953125 6.87239445,16.8632796 7.1484375,17.1992188 L7.19140625,16.7734375 L8.046875,16.7734375 L8.046875,20.8710938 C8.046875,21.425784 7.87435068,21.8632796 7.52929688,22.1835938 C7.18424307,22.5039079 6.71875293,22.6640625 6.1328125,22.6640625 C5.82291512,22.6640625 5.52018377,22.59961 5.22460938,22.4707031 C4.92903498,22.3417962 4.70442785,22.1731781 4.55078125,21.9648438 L5,21.3945312 C5.29166813,21.7408871 5.65103953,21.9140625 6.078125,21.9140625 C6.39323074,21.9140625 6.64192617,21.8287769 6.82421875,21.6582031 C7.00651133,21.4876294 7.09765625,21.2369808 7.09765625,20.90625 L7.09765625,20.6210938 C6.82421738,20.9257828 6.4596377,21.078125 6.00390625,21.078125 C5.50911211,21.078125 5.10481928,20.8815124 4.79101562,20.4882812 C4.47721197,20.0950501 4.3203125,19.5507847 4.3203125,18.8554688 Z M5.265625,18.9375 C5.265625,19.3619813 5.35221268,19.6959623 5.52539062,19.9394531 C5.69856857,20.1829439 5.93880055,20.3046875 6.24609375,20.3046875 C6.62890816,20.3046875 6.91275949,20.1406266 7.09765625,19.8125 L7.09765625,17.953125 C6.91796785,17.6328109 6.63672066,17.4726562 6.25390625,17.4726562 C5.94140469,17.4726562 5.69856857,17.5963529 5.52539062,17.84375 C5.35221268,18.0911471 5.265625,18.4557268 5.265625,18.9375 Z M9.95125,21 L9.00203125,21 L9.00203125,16.7734375 L9.95125,16.7734375 L9.95125,21 Z M8.9434375,15.6757812 C8.9434375,15.5299472 8.989661,15.4088546 9.08210938,15.3125 C9.17455776,15.2161454 9.30671789,15.1679688 9.47859375,15.1679688 C9.65046961,15.1679688 9.78328078,15.2161454 9.87703125,15.3125 C9.97078172,15.4088546 10.0176563,15.5299472 10.0176563,15.6757812 C10.0176563,15.8190111 9.97078172,15.9381506 9.87703125,16.0332031 C9.78328078,16.1282557 9.65046961,16.1757812 9.47859375,16.1757812 C9.30671789,16.1757812 9.17455776,16.1282557 9.08210938,16.0332031 C8.989661,15.9381506 8.9434375,15.8190111 8.9434375,15.6757812 Z M11.2384375,21 L11.2384375,17.4765625 L10.5939063,17.4765625 L10.5939063,16.7734375 L11.2384375,16.7734375 L11.2384375,16.3867188 C11.2384375,15.9179664 11.3686445,15.5559909 11.6290625,15.3007812 C11.8894805,15.0455716 12.2540602,14.9179688 12.7228125,14.9179688 C12.88948,14.9179688 13.0665616,14.941406 13.2540625,14.9882812 L13.230625,15.7304688 C13.1264578,15.7096353 13.0053653,15.6992188 12.8673438,15.6992188 C12.4142165,15.6992188 12.1876563,15.9322893 12.1876563,16.3984375 L12.1876563,16.7734375 L13.0470313,16.7734375 L13.0470313,17.4765625 L12.1876563,17.4765625 L12.1876563,21 L11.2384375,21 Z" fill="#FFFFFF"></path>
        </g>
    </g>
</svg>