<?xml version="1.0" encoding="UTF-8"?>
<svg width="18px" height="25px" viewBox="0 0 18 25" version="1.1" xmlns="http://www.w3.org/2000/svg" xmlns:xlink="http://www.w3.org/1999/xlink">
    <!-- Generator: Sketch 53.2 (72643) - https://sketchapp.com -->
    <title>jpg</title>
    <desc>Created with Sketch.</desc>
    <g id="Page-1" stroke="none" stroke-width="1" fill="none" fill-rule="evenodd">
        <g id="jpg" fill-rule="nonzero">
            <path d="M18,21.3513514 L18,8.55309405 C18,7.63575442 17.6846936,6.74628874 17.106923,6.03376285 L13.4149254,1.4806688 C12.655419,0.544020252 11.5138882,2.44301764e-15 10.3080025,2.66453526e-15 L2,1.77635684e-15 C0.8954305,1.97926296e-15 -1.3527075e-16,0.8954305 0,2 L0,21.3513514 C2.09738034e-15,22.4559209 0.8954305,23.3513514 2,23.3513514 L16,23.3513514 C17.1045695,23.3513514 18,22.4559209 18,21.3513514 Z" id="Shape-Copy-4" fill="#EEF0F2"></path>
            <path d="M0,13 L18,13 L18,22.027027 C18,23.1315965 17.1045695,24.027027 16,24.027027 L2,24.027027 C0.8954305,24.027027 1.3527075e-16,23.1315965 0,22.027027 L0,13 Z" id="Rectangle-path-Copy-4" fill="#417505"></path>
            <path d="M5.4765625,15.7734375 L5.4765625,20.375 C5.4765625,20.8072938 5.3691417,21.1373687 5.15429688,21.3652344 C4.93945205,21.5931001 4.62500207,21.7070312 4.2109375,21.7070312 C4.03645746,21.7070312 3.86849039,21.6848961 3.70703125,21.640625 L3.70703125,20.890625 C3.80599008,20.9140626 3.91796813,20.9257812 4.04296875,20.9257812 C4.35807449,20.9257812 4.51953121,20.753908 4.52734375,20.4101562 L4.52734375,15.7734375 L5.4765625,15.7734375 Z M4.4453125,14.6757812 C4.4453125,14.5299472 4.491536,14.4088546 4.58398438,14.3125 C4.67643275,14.2161454 4.80859289,14.1679688 4.98046875,14.1679688 C5.15234461,14.1679688 5.28515578,14.2161454 5.37890625,14.3125 C5.47265672,14.4088546 5.51953125,14.5299472 5.51953125,14.6757812 C5.51953125,14.8190111 5.47265672,14.9381506 5.37890625,15.0332031 C5.28515578,15.1282557 5.15234461,15.1757812 4.98046875,15.1757812 C4.80859289,15.1757812 4.67643275,15.1282557 4.58398438,15.0332031 C4.491536,14.9381506 4.4453125,14.8190111 4.4453125,14.6757812 Z M10.1114063,17.9296875 C10.1114063,18.5833366 9.96297024,19.1048158 9.66609375,19.4941406 C9.36921727,19.8834655 8.97078375,20.078125 8.47078125,20.078125 C8.00723727,20.078125 7.63614723,19.9257828 7.3575,19.6210938 L7.3575,21.625 L6.40828125,21.625 L6.40828125,15.7734375 L7.28328125,15.7734375 L7.32234375,16.203125 C7.60099098,15.8645816 7.97989344,15.6953125 8.4590625,15.6953125 C8.97469008,15.6953125 9.37898291,15.8873679 9.67195313,16.2714844 C9.96492334,16.6556009 10.1114063,17.1887987 10.1114063,17.8710938 L10.1114063,17.9296875 Z M9.16609375,17.8476562 C9.16609375,17.4257791 9.08211022,17.0911471 8.91414063,16.84375 C8.74617104,16.5963529 8.50593906,16.4726562 8.1934375,16.4726562 C7.80541473,16.4726562 7.52677168,16.6328109 7.3575,16.953125 L7.3575,18.828125 C7.52937586,19.1562516 7.81062305,19.3203125 8.20125,19.3203125 C8.50333485,19.3203125 8.73966061,19.1985689 8.91023438,18.9550781 C9.08080815,18.7115873 9.16609375,18.3424504 9.16609375,17.8476562 Z M10.668125,17.8554688 C10.668125,17.1992155 10.8224203,16.6751322 11.1310156,16.2832031 C11.4396109,15.8912741 11.849112,15.6953125 12.3595313,15.6953125 C12.8413045,15.6953125 13.220207,15.8632796 13.49625,16.1992188 L13.5392188,15.7734375 L14.3946875,15.7734375 L14.3946875,19.8710938 C14.3946875,20.425784 14.2221632,20.8632796 13.8771094,21.1835938 C13.5320556,21.5039079 13.0665654,21.6640625 12.480625,21.6640625 C12.1707276,21.6640625 11.8679963,21.59961 11.5724219,21.4707031 C11.2768475,21.3417962 11.0522404,21.1731781 10.8985938,20.9648438 L11.3478125,20.3945312 C11.6394806,20.7408871 11.998852,20.9140625 12.4259375,20.9140625 C12.7410432,20.9140625 12.9897387,20.8287769 13.1720313,20.6582031 C13.3543238,20.4876294 13.4454688,20.2369808 13.4454688,19.90625 L13.4454688,19.6210938 C13.1720299,19.9257828 12.8074502,20.078125 12.3517188,20.078125 C11.8569246,20.078125 11.4526318,19.8815124 11.1388281,19.4882812 C10.8250245,19.0950501 10.668125,18.5507847 10.668125,17.8554688 Z M11.6134375,17.9375 C11.6134375,18.3619813 11.7000252,18.6959623 11.8732031,18.9394531 C12.0463811,19.1829439 12.2866131,19.3046875 12.5939063,19.3046875 C12.9767207,19.3046875 13.260572,19.1406266 13.4454688,18.8125 L13.4454688,16.953125 C13.2657804,16.6328109 12.9845332,16.4726562 12.6017188,16.4726562 C12.2892172,16.4726562 12.0463811,16.5963529 11.8732031,16.84375 C11.7000252,17.0911471 11.6134375,17.4557268 11.6134375,17.9375 Z" fill="#FFFFFF"></path>
        </g>
    </g>
</svg>