<?xml version="1.0" encoding="UTF-8"?>
<svg width="18px" height="25px" viewBox="0 0 18 25" version="1.1" xmlns="http://www.w3.org/2000/svg" xmlns:xlink="http://www.w3.org/1999/xlink">
    <!-- Generator: Sketch 53.2 (72643) - https://sketchapp.com -->
    <title>pdf</title>
    <desc>Created with Sketch.</desc>
    <g id="Page-1" stroke="none" stroke-width="1" fill="none" fill-rule="evenodd">
        <g id="pdf" fill-rule="nonzero">
            <path d="M18,21.3513514 L18,8.55309405 C18,7.63575442 17.6846936,6.74628874 17.106923,6.03376285 L13.4149254,1.4806688 C12.655419,0.544020252 11.5138882,2.44301764e-15 10.3080025,2.66453526e-15 L2,1.77635684e-15 C0.8954305,1.97926296e-15 -1.3527075e-16,0.8954305 0,2 L0,21.3513514 C2.09738034e-15,22.4559209 0.8954305,23.3513514 2,23.3513514 L16,23.3513514 C17.1045695,23.3513514 18,22.4559209 18,21.3513514 Z" id="Shape-Copy-8" fill="#EEF0F2"></path>
            <path d="M0,13 L18,13 L18,22.027027 C18,23.1315965 17.1045695,24.027027 16,24.027027 L2,24.027027 C0.8954305,24.027027 1.3527075e-16,23.1315965 0,22.027027 L0,13 Z" id="Rectangle-path-Copy-8" fill="#940E1F"></path>
            <path d="M7.1875,18.9296875 C7.1875,19.5833366 7.03906398,20.1048158 6.7421875,20.4941406 C6.44531102,20.8834655 6.0468775,21.078125 5.546875,21.078125 C5.08333102,21.078125 4.71224098,20.9257828 4.43359375,20.6210938 L4.43359375,22.625 L3.484375,22.625 L3.484375,16.7734375 L4.359375,16.7734375 L4.3984375,17.203125 C4.67708473,16.8645816 5.05598719,16.6953125 5.53515625,16.6953125 C6.05078383,16.6953125 6.45507666,16.8873679 6.74804688,17.2714844 C7.04101709,17.6556009 7.1875,18.1887987 7.1875,18.8710938 L7.1875,18.9296875 Z M6.2421875,18.8476562 C6.2421875,18.4257791 6.15820396,18.0911471 5.99023438,17.84375 C5.82226479,17.5963529 5.58203281,17.4726562 5.26953125,17.4726562 C4.88150848,17.4726562 4.60286543,17.6328109 4.43359375,17.953125 L4.43359375,19.828125 C4.60546961,20.1562516 4.8867168,20.3203125 5.27734375,20.3203125 C5.57942859,20.3203125 5.81575436,20.1985689 5.98632812,19.9550781 C6.15690189,19.7115873 6.2421875,19.3424504 6.2421875,18.8476562 Z M7.6525,18.8554688 C7.6525,18.2044238 7.80354016,17.6816426 8.105625,17.2871094 C8.40770985,16.8925762 8.81265371,16.6953125 9.32046875,16.6953125 C9.76838766,16.6953125 10.1303632,16.8515609 10.4064063,17.1640625 L10.4064063,15 L11.355625,15 L11.355625,21 L10.49625,21 L10.449375,20.5625 C10.1655194,20.9062517 9.78661696,21.078125 9.31265625,21.078125 C8.81786211,21.078125 8.41747549,20.8789082 8.11148438,20.4804688 C7.80549327,20.0820293 7.6525,19.540368 7.6525,18.8554688 Z M8.60171875,18.9375 C8.60171875,19.3671896 8.68440022,19.7024728 8.84976563,19.9433594 C9.01513104,20.184246 9.25015473,20.3046875 9.55484375,20.3046875 C9.94286653,20.3046875 10.2267179,20.1315121 10.4064063,19.7851562 L10.4064063,17.9804688 C10.2319262,17.6419254 9.95067903,17.4726562 9.56265625,17.4726562 C9.25536305,17.4726562 9.01838625,17.5943998 8.85171875,17.8378906 C8.68505125,18.0813814 8.60171875,18.4479142 8.60171875,18.9375 Z M12.5198438,21 L12.5198438,17.4765625 L11.8753125,17.4765625 L11.8753125,16.7734375 L12.5198438,16.7734375 L12.5198438,16.3867188 C12.5198438,15.9179664 12.6500508,15.5559909 12.9104688,15.3007812 C13.1708867,15.0455716 13.5354664,14.9179688 14.0042188,14.9179688 C14.1708863,14.9179688 14.3479678,14.941406 14.5354688,14.9882812 L14.5120313,15.7304688 C14.4078641,15.7096353 14.2867715,15.6992188 14.14875,15.6992188 C13.6956227,15.6992188 13.4690625,15.9322893 13.4690625,16.3984375 L13.4690625,16.7734375 L14.3284375,16.7734375 L14.3284375,17.4765625 L13.4690625,17.4765625 L13.4690625,21 L12.5198438,21 Z" fill="#FFFFFF"></path>
        </g>
    </g>
</svg>