<?xml version="1.0" encoding="UTF-8"?>
<svg width="18px" height="25px" viewBox="0 0 18 25" version="1.1" xmlns="http://www.w3.org/2000/svg" xmlns:xlink="http://www.w3.org/1999/xlink">
    <!-- Generator: Sketch 53.2 (72643) - https://sketchapp.com -->
    <title>png</title>
    <desc>Created with Sketch.</desc>
    <g id="Page-1" stroke="none" stroke-width="1" fill="none" fill-rule="evenodd">
        <g id="png" fill-rule="nonzero">
            <path d="M18,21.3513514 L18,8.55309405 C18,7.63575442 17.6846936,6.74628874 17.106923,6.03376285 L13.4149254,1.4806688 C12.655419,0.544020252 11.5138882,2.44301764e-15 10.3080025,2.66453526e-15 L2,1.77635684e-15 C0.8954305,1.97926296e-15 -1.3527075e-16,0.8954305 0,2 L0,21.3513514 C2.09738034e-15,22.4559209 0.8954305,23.3513514 2,23.3513514 L16,23.3513514 C17.1045695,23.3513514 18,22.4559209 18,21.3513514 Z" id="Shape-Copy-5" fill="#EEF0F2"></path>
            <path d="M0,13 L18,13 L18,22.027027 C18,23.1315965 17.1045695,24.027027 16,24.027027 L2,24.027027 C0.8954305,24.027027 1.3527075e-16,23.1315965 0,22.027027 L0,13 Z" id="Rectangle-path-Copy-5" fill="#4A90E2"></path>
            <path d="M7.1875,17.9296875 C7.1875,18.5833366 7.03906398,19.1048158 6.7421875,19.4941406 C6.44531102,19.8834655 6.0468775,20.078125 5.546875,20.078125 C5.08333102,20.078125 4.71224098,19.9257828 4.43359375,19.6210938 L4.43359375,21.625 L3.484375,21.625 L3.484375,15.7734375 L4.359375,15.7734375 L4.3984375,16.203125 C4.67708473,15.8645816 5.05598719,15.6953125 5.53515625,15.6953125 C6.05078383,15.6953125 6.45507666,15.8873679 6.74804688,16.2714844 C7.04101709,16.6556009 7.1875,17.1887987 7.1875,17.8710938 L7.1875,17.9296875 Z M6.2421875,17.8476562 C6.2421875,17.4257791 6.15820396,17.0911471 5.99023438,16.84375 C5.82226479,16.5963529 5.58203281,16.4726562 5.26953125,16.4726562 C4.88150848,16.4726562 4.60286543,16.6328109 4.43359375,16.953125 L4.43359375,18.828125 C4.60546961,19.1562516 4.8867168,19.3203125 5.27734375,19.3203125 C5.57942859,19.3203125 5.81575436,19.1985689 5.98632812,18.9550781 C6.15690189,18.7115873 6.2421875,18.3424504 6.2421875,17.8476562 Z M8.59109375,15.7734375 L8.6184375,16.2617188 C8.93093906,15.8841127 9.34109121,15.6953125 9.84890625,15.6953125 C10.729119,15.6953125 11.1770312,16.1992137 11.1926562,17.2070312 L11.1926562,20 L10.2434375,20 L10.2434375,17.2617188 C10.2434375,16.9934882 10.1854954,16.7949225 10.0696094,16.6660156 C9.95372338,16.5371087 9.76427215,16.4726562 9.50125,16.4726562 C9.11843558,16.4726562 8.83328219,16.6458316 8.64578125,16.9921875 L8.64578125,20 L7.6965625,20 L7.6965625,15.7734375 L8.59109375,15.7734375 Z M11.7134375,17.8554688 C11.7134375,17.1992155 11.8677328,16.6751322 12.1763281,16.2832031 C12.4849234,15.8912741 12.8944245,15.6953125 13.4048437,15.6953125 C13.886617,15.6953125 14.2655195,15.8632796 14.5415625,16.1992188 L14.5845312,15.7734375 L15.44,15.7734375 L15.44,19.8710938 C15.44,20.425784 15.2674757,20.8632796 14.9224219,21.1835938 C14.5773681,21.5039079 14.1118779,21.6640625 13.5259375,21.6640625 C13.2160401,21.6640625 12.9133088,21.59961 12.6177344,21.4707031 C12.32216,21.3417962 12.0975528,21.1731781 11.9439062,20.9648438 L12.393125,20.3945312 C12.6847931,20.7408871 13.0441645,20.9140625 13.47125,20.9140625 C13.7863557,20.9140625 14.0350512,20.8287769 14.2173437,20.6582031 C14.3996363,20.4876294 14.4907812,20.2369808 14.4907812,19.90625 L14.4907812,19.6210938 C14.2173424,19.9257828 13.8527627,20.078125 13.3970312,20.078125 C12.9022371,20.078125 12.4979443,19.8815124 12.1841406,19.4882812 C11.870337,19.0950501 11.7134375,18.5507847 11.7134375,17.8554688 Z M12.65875,17.9375 C12.65875,18.3619813 12.7453377,18.6959623 12.9185156,18.9394531 C13.0916936,19.1829439 13.3319255,19.3046875 13.6392187,19.3046875 C14.0220332,19.3046875 14.3058845,19.1406266 14.4907812,18.8125 L14.4907812,16.953125 C14.3110928,16.6328109 14.0298457,16.4726562 13.6470312,16.4726562 C13.3345297,16.4726562 13.0916936,16.5963529 12.9185156,16.84375 C12.7453377,17.0911471 12.65875,17.4557268 12.65875,17.9375 Z" fill="#FFFFFF"></path>
        </g>
    </g>
</svg>