<?xml version="1.0" encoding="UTF-8"?>
<svg width="18px" height="25px" viewBox="0 0 18 25" version="1.1" xmlns="http://www.w3.org/2000/svg" xmlns:xlink="http://www.w3.org/1999/xlink">
    <!-- Generator: Sketch 53.2 (72643) - https://sketchapp.com -->
    <title>rtf</title>
    <desc>Created with Sketch.</desc>
    <g id="Page-1" stroke="none" stroke-width="1" fill="none" fill-rule="evenodd">
        <g id="rtf" fill-rule="nonzero">
            <path d="M18,21.3513514 L18,8.55309405 C18,7.63575442 17.6846936,6.74628874 17.106923,6.03376285 L13.4149254,1.4806688 C12.655419,0.544020252 11.5138882,2.44301764e-15 10.3080025,2.66453526e-15 L2,1.77635684e-15 C0.8954305,1.97926296e-15 -1.3527075e-16,0.8954305 0,2 L0,21.3513514 C2.09738034e-15,22.4559209 0.8954305,23.3513514 2,23.3513514 L16,23.3513514 C17.1045695,23.3513514 18,22.4559209 18,21.3513514 Z" id="Shape-Copy-11" fill="#EEF0F2"></path>
            <path d="M0,13 L18,13 L18,22.027027 C18,23.1315965 17.1045695,24.027027 16,24.027027 L2,24.027027 C0.8954305,24.027027 1.3527075e-16,23.1315965 0,22.027027 L0,13 Z" id="Rectangle-path-Copy-11" fill="#B7AB11"></path>
            <path d="M7.69921875,17.640625 C7.57421813,17.6197916 7.44531316,17.609375 7.3125,17.609375 C6.87760199,17.609375 6.58463617,17.77604 6.43359375,18.109375 L6.43359375,21 L5.484375,21 L5.484375,16.7734375 L6.390625,16.7734375 L6.4140625,17.2460938 C6.64323031,16.8789044 6.96093547,16.6953125 7.3671875,16.6953125 C7.50260484,16.6953125 7.61458289,16.7135415 7.703125,16.75 L7.69921875,17.640625 Z M9.48828125,15.7460938 L9.48828125,16.7734375 L10.234375,16.7734375 L10.234375,17.4765625 L9.48828125,17.4765625 L9.48828125,19.8359375 C9.48828125,19.9973966 9.52018197,20.1139319 9.58398438,20.1855469 C9.64778678,20.2571618 9.76171793,20.2929688 9.92578125,20.2929688 C10.0351568,20.2929688 10.1458328,20.279948 10.2578125,20.2539062 L10.2578125,20.9882812 C10.0416656,21.0481774 9.83333434,21.078125 9.6328125,21.078125 C8.90364219,21.078125 8.5390625,20.6757853 8.5390625,19.8710938 L8.5390625,17.4765625 L7.84375,17.4765625 L7.84375,16.7734375 L8.5390625,16.7734375 L8.5390625,15.7460938 L9.48828125,15.7460938 Z M11.2929688,21 L11.2929688,17.4765625 L10.6484375,17.4765625 L10.6484375,16.7734375 L11.2929688,16.7734375 L11.2929688,16.3867188 C11.2929688,15.9179664 11.4231758,15.5559909 11.6835938,15.3007812 C11.9440117,15.0455716 12.3085914,14.9179688 12.7773438,14.9179688 C12.9440113,14.9179688 13.1210928,14.941406 13.3085938,14.9882812 L13.2851562,15.7304688 C13.1809891,15.7096353 13.0598965,15.6992188 12.921875,15.6992188 C12.4687477,15.6992188 12.2421875,15.9322893 12.2421875,16.3984375 L12.2421875,16.7734375 L13.1015625,16.7734375 L13.1015625,17.4765625 L12.2421875,17.4765625 L12.2421875,21 L11.2929688,21 Z" fill="#FFFFFF"></path>
        </g>
    </g>
</svg>