<?xml version="1.0" encoding="UTF-8"?>
<svg width="18px" height="25px" viewBox="0 0 18 25" version="1.1" xmlns="http://www.w3.org/2000/svg" xmlns:xlink="http://www.w3.org/1999/xlink">
    <!-- Generator: Sketch 53.2 (72643) - https://sketchapp.com -->
    <title>txt</title>
    <desc>Created with Sketch.</desc>
    <g id="Page-1" stroke="none" stroke-width="1" fill="none" fill-rule="evenodd">
        <g id="txt" fill-rule="nonzero">
            <path d="M18,21.3513514 L18,8.55309405 C18,7.63575442 17.6846936,6.74628874 17.106923,6.03376285 L13.4149254,1.4806688 C12.655419,0.544020252 11.5138882,2.44301764e-15 10.3080025,2.66453526e-15 L2,1.77635684e-15 C0.8954305,1.97926296e-15 -1.3527075e-16,0.8954305 0,2 L0,21.3513514 C2.09738034e-15,22.4559209 0.8954305,23.3513514 2,23.3513514 L16,23.3513514 C17.1045695,23.3513514 18,22.4559209 18,21.3513514 Z" id="Shape-Copy-14" fill="#EEF0F2"></path>
            <path d="M0,13 L18,13 L18,22.027027 C18,23.1315965 17.1045695,24.027027 16,24.027027 L2,24.027027 C0.8954305,24.027027 1.3527075e-16,23.1315965 0,22.027027 L0,13 Z" id="Rectangle-path-Copy-14" fill="#9B9B9B"></path>
            <path d="M5.67578125,15.7460938 L5.67578125,16.7734375 L6.421875,16.7734375 L6.421875,17.4765625 L5.67578125,17.4765625 L5.67578125,19.8359375 C5.67578125,19.9973966 5.70768197,20.1139319 5.77148438,20.1855469 C5.83528678,20.2571618 5.94921793,20.2929688 6.11328125,20.2929688 C6.2226568,20.2929688 6.33333277,20.279948 6.4453125,20.2539062 L6.4453125,20.9882812 C6.22916559,21.0481774 6.02083434,21.078125 5.8203125,21.078125 C5.09114219,21.078125 4.7265625,20.6757853 4.7265625,19.8710938 L4.7265625,17.4765625 L4.03125,17.4765625 L4.03125,16.7734375 L4.7265625,16.7734375 L4.7265625,15.7460938 L5.67578125,15.7460938 Z M8.8840625,18.1640625 L9.68875,16.7734375 L10.7434375,16.7734375 L9.45046875,18.8554688 L10.7864062,21 L9.73953125,21 L8.89578125,19.5546875 L8.0559375,21 L7.00125,21 L8.3371875,18.8554688 L7.048125,16.7734375 L8.095,16.7734375 L8.8840625,18.1640625 Z M12.799375,15.7460938 L12.799375,16.7734375 L13.5454687,16.7734375 L13.5454687,17.4765625 L12.799375,17.4765625 L12.799375,19.8359375 C12.799375,19.9973966 12.8312757,20.1139319 12.8950781,20.1855469 C12.9588805,20.2571618 13.0728117,20.2929688 13.236875,20.2929688 C13.3462505,20.2929688 13.4569265,20.279948 13.5689062,20.2539062 L13.5689062,20.9882812 C13.3527593,21.0481774 13.1444281,21.078125 12.9439062,21.078125 C12.2147359,21.078125 11.8501562,20.6757853 11.8501562,19.8710938 L11.8501562,17.4765625 L11.1548437,17.4765625 L11.1548437,16.7734375 L11.8501562,16.7734375 L11.8501562,15.7460938 L12.799375,15.7460938 Z" fill="#FFFFFF"></path>
        </g>
    </g>
</svg>