<?xml version="1.0" encoding="UTF-8"?>
<svg width="18px" height="25px" viewBox="0 0 18 25" version="1.1" xmlns="http://www.w3.org/2000/svg" xmlns:xlink="http://www.w3.org/1999/xlink">
    <!-- Generator: Sketch 53.2 (72643) - https://sketchapp.com -->
    <title>xlsx</title>
    <desc>Created with Sketch.</desc>
    <g id="Page-1" stroke="none" stroke-width="1" fill="none" fill-rule="evenodd">
        <g id="xlsx" fill-rule="nonzero">
            <path d="M18,21.3513514 L18,8.55309405 C18,7.63575442 17.6846936,6.74628874 17.106923,6.03376285 L13.4149254,1.4806688 C12.655419,0.544020252 11.5138882,2.44301764e-15 10.3080025,2.66453526e-15 L2,1.77635684e-15 C0.8954305,1.97926296e-15 -1.3527075e-16,0.8954305 0,2 L0,21.3513514 C2.09738034e-15,22.4559209 0.8954305,23.3513514 2,23.3513514 L16,23.3513514 C17.1045695,23.3513514 18,22.4559209 18,21.3513514 Z" id="Shape-Copy-13" fill="#EEF0F2"></path>
            <path d="M0,13 L18,13 L18,22.027027 C18,23.1315965 17.1045695,24.027027 16,24.027027 L2,24.027027 C0.8954305,24.027027 1.3527075e-16,23.1315965 0,22.027027 L0,13 Z" id="Rectangle-path-Copy-13" fill="#8BD33C"></path>
            <path d="M4.00390625,18.1640625 L4.80859375,16.7734375 L5.86328125,16.7734375 L4.5703125,18.8554688 L5.90625,21 L4.859375,21 L4.015625,19.5546875 L3.17578125,21 L2.12109375,21 L3.45703125,18.8554688 L2.16796875,16.7734375 L3.21484375,16.7734375 L4.00390625,18.1640625 Z M7.23953125,21 L6.2903125,21 L6.2903125,15 L7.23953125,15 L7.23953125,21 Z M10.361875,19.8515625 C10.361875,19.6822908 10.2922142,19.5533859 10.1528906,19.4648438 C10.013567,19.3763016 9.78244953,19.2981774 9.45953125,19.2304688 C9.13661297,19.1627601 8.86708441,19.0768234 8.6509375,18.9726562 C8.17697679,18.7434884 7.94,18.4114605 7.94,17.9765625 C7.94,17.6119773 8.09364429,17.3072929 8.4009375,17.0625 C8.7082307,16.8177071 9.09885179,16.6953125 9.5728125,16.6953125 C10.0780234,16.6953125 10.4862224,16.8203112 10.7974219,17.0703125 C11.1086213,17.3203138 11.2642187,17.6445293 11.2642187,18.0429688 L10.315,18.0429688 C10.315,17.8606762 10.2472923,17.708985 10.111875,17.5878906 C9.97645765,17.4667963 9.79677195,17.40625 9.5728125,17.40625 C9.36447812,17.40625 9.19455795,17.4544266 9.06304687,17.5507812 C8.9315358,17.6471359 8.86578125,17.7760409 8.86578125,17.9375 C8.86578125,18.0833341 8.92697855,18.1966142 9.049375,18.2773438 C9.17177144,18.3580733 9.4191648,18.4394527 9.7915625,18.5214844 C10.1639602,18.603516 10.456275,18.7011713 10.6685156,18.8144531 C10.8807563,18.9277349 11.0383068,19.0638013 11.1411719,19.2226562 C11.244037,19.3815112 11.2954687,19.5742176 11.2954687,19.8007812 C11.2954687,20.1809915 11.1379182,20.4889311 10.8228125,20.7246094 C10.5077068,20.9602876 10.0949505,21.078125 9.58453125,21.078125 C9.23817535,21.078125 8.92958469,21.0156256 8.65875,20.890625 C8.38791531,20.7656244 8.17697992,20.5937511 8.0259375,20.375 C7.87489508,20.1562489 7.799375,19.9205742 7.799375,19.6679688 L8.72125,19.6679688 C8.7342709,19.8919282 8.81890547,20.0644525 8.97515625,20.1855469 C9.13140703,20.3066412 9.33843621,20.3671875 9.59625,20.3671875 C9.84625125,20.3671875 10.0363535,20.3196619 10.1665625,20.2246094 C10.2967715,20.1295568 10.361875,20.0052091 10.361875,19.8515625 Z M13.3592187,18.1640625 L14.1639062,16.7734375 L15.2185937,16.7734375 L13.925625,18.8554688 L15.2615625,21 L14.2146875,21 L13.3709375,19.5546875 L12.5310937,21 L11.4764062,21 L12.8123437,18.8554688 L11.5232812,16.7734375 L12.5701562,16.7734375 L13.3592187,18.1640625 Z" fill="#FFFFFF"></path>
        </g>
    </g>
</svg>