<?xml version="1.0" encoding="UTF-8"?>
<svg width="18px" height="25px" viewBox="0 0 18 25" version="1.1" xmlns="http://www.w3.org/2000/svg" xmlns:xlink="http://www.w3.org/1999/xlink">
    <!-- Generator: Sketch 53.2 (72643) - https://sketchapp.com -->
    <title>zip</title>
    <desc>Created with Sketch.</desc>
    <g id="Page-1" stroke="none" stroke-width="1" fill="none" fill-rule="evenodd">
        <g id="zip" fill-rule="nonzero">
            <path d="M18,21.3513514 L18,8.55309405 C18,7.63575442 17.6846936,6.74628874 17.106923,6.03376285 L13.4149254,1.4806688 C12.655419,0.544020252 11.5138882,2.44301764e-15 10.3080025,2.66453526e-15 L2,1.77635684e-15 C0.8954305,1.97926296e-15 -1.3527075e-16,0.8954305 0,2 L0,21.3513514 C2.09738034e-15,22.4559209 0.8954305,23.3513514 2,23.3513514 L16,23.3513514 C17.1045695,23.3513514 18,22.4559209 18,21.3513514 Z" id="Shape" fill="#EEF0F2"></path>
            <path d="M0,13 L18,13 L18,22.027027 C18,23.1315965 17.1045695,24.027027 16,24.027027 L2,24.027027 C0.8954305,24.027027 1.3527075e-16,23.1315965 0,22.027027 L0,13 Z" id="Rectangle-path" fill="#9E7120"></path>
            <path d="M5.5,20.2421875 L7.75,20.2421875 L7.75,21 L4.3203125,21 L4.3203125,20.3789062 L6.46484375,17.5390625 L4.359375,17.5390625 L4.359375,16.7734375 L7.66796875,16.7734375 L7.66796875,17.375 L5.5,20.2421875 Z M9.35953125,21 L8.4103125,21 L8.4103125,16.7734375 L9.35953125,16.7734375 L9.35953125,21 Z M8.35171875,15.6757812 C8.35171875,15.5299472 8.39794225,15.4088546 8.49039063,15.3125 C8.58283901,15.2161454 8.71499914,15.1679688 8.886875,15.1679688 C9.05875086,15.1679688 9.19156203,15.2161454 9.2853125,15.3125 C9.37906297,15.4088546 9.4259375,15.5299472 9.4259375,15.6757812 C9.4259375,15.8190111 9.37906297,15.9381506 9.2853125,16.0332031 C9.19156203,16.1282557 9.05875086,16.1757812 8.886875,16.1757812 C8.71499914,16.1757812 8.58283901,16.1282557 8.49039063,16.0332031 C8.39794225,15.9381506 8.35171875,15.8190111 8.35171875,15.6757812 Z M13.9339063,18.9296875 C13.9339063,19.5833366 13.7854702,20.1048158 13.4885938,20.4941406 C13.1917173,20.8834655 12.7932838,21.078125 12.2932813,21.078125 C11.8297373,21.078125 11.4586472,20.9257828 11.18,20.6210938 L11.18,22.625 L10.2307813,22.625 L10.2307813,16.7734375 L11.1057813,16.7734375 L11.1448438,17.203125 C11.423491,16.8645816 11.8023934,16.6953125 12.2815625,16.6953125 C12.7971901,16.6953125 13.2014829,16.8873679 13.4944531,17.2714844 C13.7874233,17.6556009 13.9339063,18.1887987 13.9339063,18.8710938 L13.9339063,18.9296875 Z M12.9885938,18.8476562 C12.9885938,18.4257791 12.9046102,18.0911471 12.7366406,17.84375 C12.568671,17.5963529 12.3284391,17.4726562 12.0159375,17.4726562 C11.6279147,17.4726562 11.3492717,17.6328109 11.18,17.953125 L11.18,19.828125 C11.3518759,20.1562516 11.6331231,20.3203125 12.02375,20.3203125 C12.3258349,20.3203125 12.5621606,20.1985689 12.7327344,19.9550781 C12.9033082,19.7115873 12.9885938,19.3424504 12.9885938,18.8476562 Z" fill="#FFFFFF"></path>
        </g>
    </g>
</svg>