<?xml version="1.0" encoding="UTF-8"?>
<svg width="18px" height="25px" viewBox="0 0 18 25" version="1.1" xmlns="http://www.w3.org/2000/svg" xmlns:xlink="http://www.w3.org/1999/xlink">
    <!-- Generator: Sketch 53.2 (72643) - https://sketchapp.com -->
    <title>bmp</title>
    <desc>Created with Sketch.</desc>
    <g id="Page-1" stroke="none" stroke-width="1" fill="none" fill-rule="evenodd">
        <g id="bmp" fill-rule="nonzero">
            <path d="M18,21.3513514 L18,8.55309405 C18,7.63575442 17.6846936,6.74628874 17.106923,6.03376285 L13.4149254,1.4806688 C12.655419,0.544020252 11.5138882,2.44301764e-15 10.3080025,2.66453526e-15 L2,1.77635684e-15 C0.8954305,1.97926296e-15 -1.3527075e-16,0.8954305 0,2 L0,21.3513514 C2.09738034e-15,22.4559209 0.8954305,23.3513514 2,23.3513514 L16,23.3513514 C17.1045695,23.3513514 18,22.4559209 18,21.3513514 Z" id="Shape-Copy-7" fill="#EEF0F2"></path>
            <path d="M0,13 L18,13 L18,22.027027 C18,23.1315965 17.1045695,24.027027 16,24.027027 L2,24.027027 C0.8954305,24.027027 1.3527075e-16,23.1315965 0,22.027027 L0,13 Z" id="Rectangle-path-Copy-7" fill="#50E3C2"></path>
            <path d="M6.1953125,18.9296875 C6.1953125,19.5859408 6.04882959,20.108071 5.75585938,20.4960938 C5.46288916,20.8841165 5.0598984,21.078125 4.546875,21.078125 C4.05208086,21.078125 3.66666805,20.8997414 3.390625,20.5429688 L3.34375,21 L2.484375,21 L2.484375,15 L3.43359375,15 L3.43359375,17.1796875 C3.70703262,16.8567692 4.07551852,16.6953125 4.5390625,16.6953125 C5.05469008,16.6953125 5.45963395,16.8867168 5.75390625,17.2695312 C6.04817855,17.6523457 6.1953125,18.1874966 6.1953125,18.875 L6.1953125,18.9296875 Z M5.24609375,18.8476562 C5.24609375,18.3893206 5.16536539,18.0455741 5.00390625,17.8164062 C4.84244711,17.5872384 4.60807445,17.4726562 4.30078125,17.4726562 C3.88932086,17.4726562 3.60026125,17.652342 3.43359375,18.0117188 L3.43359375,19.7539062 C3.60286543,20.1210956 3.89452918,20.3046875 4.30859375,20.3046875 C4.60547023,20.3046875 4.83463461,20.1940115 4.99609375,19.9726562 C5.15755289,19.751301 5.24088539,19.4166689 5.24609375,18.96875 L5.24609375,18.8476562 Z M7.40281251,16.7734375 L7.43015626,17.2148438 C7.72703275,16.8684879 8.13327868,16.6953125 8.64890626,16.6953125 C9.21401325,16.6953125 9.60072814,16.9114562 9.80906251,17.34375 C10.1163557,16.9114562 10.5486431,16.6953125 11.1059375,16.6953125 C11.5720857,16.6953125 11.9190874,16.8242175 12.1469531,17.0820312 C12.3748189,17.339845 12.4913542,17.7200496 12.4965625,18.2226562 L12.4965625,21 L11.5473438,21 L11.5473438,18.25 C11.5473438,17.9817695 11.4887506,17.7851569 11.3715625,17.6601562 C11.2543744,17.5351556 11.0603659,17.4726562 10.7895313,17.4726562 C10.5733843,17.4726562 10.3969538,17.5305984 10.2602344,17.6464844 C10.123515,17.7623704 10.0278128,17.9140616 9.97312501,18.1015625 L9.97703126,21 L9.02781251,21 L9.02781251,18.21875 C9.01479161,17.7213517 8.7608879,17.4726562 8.26609376,17.4726562 C7.88588353,17.4726562 7.61635497,17.6276026 7.45750001,17.9375 L7.45750001,21 L6.50828126,21 L6.50828126,16.7734375 L7.40281251,16.7734375 Z M16.6923438,18.9296875 C16.6923438,19.5833366 16.5439078,20.1048158 16.2470313,20.4941406 C15.9501548,20.8834655 15.5517213,21.078125 15.0517188,21.078125 C14.5881748,21.078125 14.2170847,20.9257828 13.9384375,20.6210938 L13.9384375,22.625 L12.9892188,22.625 L12.9892188,16.7734375 L13.8642188,16.7734375 L13.9032813,17.203125 C14.1819285,16.8645816 14.560831,16.6953125 15.04,16.6953125 C15.5556276,16.6953125 15.9599204,16.8873679 16.2528906,17.2714844 C16.5458609,17.6556009 16.6923438,18.1887987 16.6923438,18.8710938 L16.6923438,18.9296875 Z M15.7470313,18.8476562 C15.7470313,18.4257791 15.6630477,18.0911471 15.4950781,17.84375 C15.3271086,17.5963529 15.0868766,17.4726562 14.774375,17.4726562 C14.3863522,17.4726562 14.1077092,17.6328109 13.9384375,17.953125 L13.9384375,19.828125 C14.1103134,20.1562516 14.3915606,20.3203125 14.7821875,20.3203125 C15.0842724,20.3203125 15.3205981,20.1985689 15.4911719,19.9550781 C15.6617457,19.7115873 15.7470313,19.3424504 15.7470313,18.8476562 Z" fill="#FFFFFF"></path>
        </g>
    </g>
</svg>