<?xml version="1.0" encoding="UTF-8"?>
<svg width="20px" height="20px" viewBox="0 0 20 20" version="1.1" xmlns="http://www.w3.org/2000/svg" xmlns:xlink="http://www.w3.org/1999/xlink">
    <!-- Generator: sketchtool 52.4 (67378) - http://www.bohemiancoding.com/sketch -->
    <title>8AC20C97-12AD-4D48-B930-C929EC2EF842</title>
    <desc>Created with sketchtool.</desc>
    <g id="Colors" stroke="none" stroke-width="1" fill="none" fill-rule="evenodd">
        <g id="color1" transform="translate(-1012.000000, -236.000000)" fill="#0747A6" fill-rule="nonzero">
            <path d="M1023.42857,247.810806 C1024.28257,248.30482 1024.85714,249.228168 1024.85714,250.285714 C1024.85714,251.343261 1024.28257,252.266609 1023.42857,252.760622 L1023.42857,254.571429 C1023.42857,255.360407 1022.78898,256 1022,256 C1021.21102,256 1020.57143,255.360407 1020.57143,254.571429 L1020.57143,252.760622 C1019.71743,252.266609 1019.14286,251.343261 1019.14286,250.285714 C1019.14286,249.228168 1019.71743,248.30482 1020.57143,247.810806 L1020.57143,237.428571 C1020.57143,236.639593 1021.21102,236 1022,236 C1022.78898,236 1023.42857,236.639593 1023.42857,237.428571 L1023.42857,247.810806 Z M1016.28571,239.239378 C1017.13972,239.733391 1017.71429,240.656739 1017.71429,241.714286 C1017.71429,242.771832 1017.13972,243.69518 1016.28571,244.189194 L1016.28571,254.571429 C1016.28571,255.360407 1015.64612,256 1014.85714,256 C1014.06816,256 1013.42857,255.360407 1013.42857,254.571429 L1013.42857,244.189194 C1012.57457,243.69518 1012,242.771832 1012,241.714286 C1012,240.656739 1012.57457,239.733391 1013.42857,239.239378 L1013.42857,237.428571 C1013.42857,236.639593 1014.06816,236 1014.85714,236 C1015.64612,236 1016.28571,236.639593 1016.28571,237.428571 L1016.28571,239.239378 Z M1030.57143,239.239378 C1031.42543,239.733391 1032,240.656739 1032,241.714286 C1032,242.771832 1031.42543,243.69518 1030.57143,244.189194 L1030.57143,254.571429 C1030.57143,255.360407 1029.93184,256 1029.14286,256 C1028.35388,256 1027.71429,255.360407 1027.71429,254.571429 L1027.71429,244.189194 C1026.86028,243.69518 1026.28571,242.771832 1026.28571,241.714286 C1026.28571,240.656739 1026.86028,239.733391 1027.71429,239.239378 L1027.71429,237.428571 C1027.71429,236.639593 1028.35388,236 1029.14286,236 C1029.93184,236 1030.57143,236.639593 1030.57143,237.428571 L1030.57143,239.239378 Z M1027.71429,241.714286 C1027.71429,242.503264 1028.35388,243.142857 1029.14286,243.142857 C1029.93184,243.142857 1030.57143,242.503264 1030.57143,241.714286 C1030.57143,240.925308 1029.93184,240.285714 1029.14286,240.285714 C1028.35388,240.285714 1027.71429,240.925308 1027.71429,241.714286 Z M1013.42857,241.714286 C1013.42857,242.503264 1014.06816,243.142857 1014.85714,243.142857 C1015.64612,243.142857 1016.28571,242.503264 1016.28571,241.714286 C1016.28571,240.925308 1015.64612,240.285714 1014.85714,240.285714 C1014.06816,240.285714 1013.42857,240.925308 1013.42857,241.714286 Z M1020.57143,250.285714 C1020.57143,251.074692 1021.21102,251.714286 1022,251.714286 C1022.78898,251.714286 1023.42857,251.074692 1023.42857,250.285714 C1023.42857,249.496736 1022.78898,248.857143 1022,248.857143 C1021.21102,248.857143 1020.57143,249.496736 1020.57143,250.285714 Z" id="Combined-Shape"></path>
        </g>
    </g>
</svg>