<?xml version="1.0" encoding="UTF-8"?>
<svg width="18px" height="25px" viewBox="0 0 18 25" version="1.1" xmlns="http://www.w3.org/2000/svg" xmlns:xlink="http://www.w3.org/1999/xlink">
    <!-- Generator: Sketch 53.2 (72643) - https://sketchapp.com -->
    <title>csv</title>
    <desc>Created with Sketch.</desc>
    <g id="Page-1" stroke="none" stroke-width="1" fill="none" fill-rule="evenodd">
        <g id="csv" fill-rule="nonzero">
            <path d="M18,21.3513514 L18,8.55309405 C18,7.63575442 17.6846936,6.74628874 17.106923,6.03376285 L13.4149254,1.4806688 C12.655419,0.544020252 11.5138882,2.44301764e-15 10.3080025,2.66453526e-15 L2,1.77635684e-15 C0.8954305,1.97926296e-15 -1.3527075e-16,0.8954305 0,2 L0,21.3513514 C2.09738034e-15,22.4559209 0.8954305,23.3513514 2,23.3513514 L16,23.3513514 C17.1045695,23.3513514 18,22.4559209 18,21.3513514 Z" id="Shape-Copy-15" fill="#EEF0F2"></path>
            <path d="M0,13 L18,13 L18,22.027027 C18,23.1315965 17.1045695,24.027027 16,24.027027 L2,24.027027 C0.8954305,24.027027 1.3527075e-16,23.1315965 0,22.027027 L0,13 Z" id="Rectangle-path-Copy-15" fill="#E4A536"></path>
            <path d="M5.22265625,20.3203125 C5.4596366,20.3203125 5.65624922,20.2513028 5.8125,20.1132812 C5.96875078,19.9752597 6.05208328,19.8046885 6.0625,19.6015625 L6.95703125,19.6015625 C6.94661453,19.8645846 6.8645841,20.1100249 6.7109375,20.3378906 C6.5572909,20.5657563 6.34895965,20.7460931 6.0859375,20.8789062 C5.82291535,21.0117194 5.53906402,21.078125 5.234375,21.078125 C4.64322621,21.078125 4.1744809,20.8867207 3.828125,20.5039062 C3.4817691,20.1210918 3.30859375,19.5924513 3.30859375,18.9179688 L3.30859375,18.8203125 C3.30859375,18.1770801 3.48046703,17.6621113 3.82421875,17.2753906 C4.16797047,16.8886699 4.63671578,16.6953125 5.23046875,16.6953125 C5.73307543,16.6953125 6.14257654,16.8417954 6.45898438,17.1347656 C6.77539221,17.4277358 6.94140617,17.8124976 6.95703125,18.2890625 L6.0625,18.2890625 C6.05208328,18.0468738 5.96940182,17.847657 5.81445312,17.6914062 C5.65950443,17.5351555 5.46224078,17.4570312 5.22265625,17.4570312 C4.91536305,17.4570312 4.67838625,17.5683583 4.51171875,17.7910156 C4.34505125,18.013673 4.26041668,18.3515602 4.2578125,18.8046875 L4.2578125,18.9570312 C4.2578125,19.4153669 4.34049396,19.7571603 4.50585938,19.9824219 C4.67122479,20.2076834 4.91015469,20.3203125 5.22265625,20.3203125 Z M9.96296875,19.8515625 C9.96296875,19.6822908 9.89330799,19.5533859 9.75398438,19.4648438 C9.61466076,19.3763016 9.38354328,19.2981774 9.060625,19.2304688 C8.73770672,19.1627601 8.46817817,19.0768234 8.25203125,18.9726562 C7.77807055,18.7434884 7.54109375,18.4114605 7.54109375,17.9765625 C7.54109375,17.6119773 7.69473805,17.3072929 8.00203125,17.0625 C8.30932445,16.8177071 8.69994555,16.6953125 9.17390625,16.6953125 C9.67911711,16.6953125 10.0873162,16.8203112 10.3985156,17.0703125 C10.7097151,17.3203138 10.8653125,17.6445293 10.8653125,18.0429688 L9.91609375,18.0429688 C9.91609375,17.8606762 9.8483861,17.708985 9.71296875,17.5878906 C9.57755141,17.4667963 9.3978657,17.40625 9.17390625,17.40625 C8.96557188,17.40625 8.7956517,17.4544266 8.66414063,17.5507812 C8.53262955,17.6471359 8.466875,17.7760409 8.466875,17.9375 C8.466875,18.0833341 8.52807231,18.1966142 8.65046875,18.2773438 C8.7728652,18.3580733 9.02025856,18.4394527 9.39265625,18.5214844 C9.76505395,18.603516 10.0573687,18.7011713 10.2696094,18.8144531 C10.48185,18.9277349 10.6394005,19.0638013 10.7422656,19.2226562 C10.8451307,19.3815112 10.8965625,19.5742176 10.8965625,19.8007812 C10.8965625,20.1809915 10.739012,20.4889311 10.4239063,20.7246094 C10.1088005,20.9602876 9.69604422,21.078125 9.185625,21.078125 C8.8392691,21.078125 8.53067844,21.0156256 8.25984375,20.890625 C7.98900906,20.7656244 7.77807367,20.5937511 7.62703125,20.375 C7.47598883,20.1562489 7.40046875,19.9205742 7.40046875,19.6679688 L8.32234375,19.6679688 C8.33536465,19.8919282 8.41999922,20.0644525 8.57625,20.1855469 C8.73250078,20.3066412 8.93952996,20.3671875 9.19734375,20.3671875 C9.447345,20.3671875 9.63744727,20.3196619 9.76765625,20.2246094 C9.89786524,20.1295568 9.96296875,20.0052091 9.96296875,19.8515625 Z M13.1329688,19.796875 L14.0275,16.7734375 L15.0079688,16.7734375 L13.543125,21 L12.7189063,21 L11.2423438,16.7734375 L12.2267188,16.7734375 L13.1329688,19.796875 Z" fill="#FFFFFF"></path>
        </g>
    </g>
</svg>