<?xml version="1.0" encoding="UTF-8"?>
<svg width="18px" height="25px" viewBox="0 0 18 25" version="1.1" xmlns="http://www.w3.org/2000/svg" xmlns:xlink="http://www.w3.org/1999/xlink">
    <!-- Generator: Sketch 53.2 (72643) - https://sketchapp.com -->
    <title>doc</title>
    <desc>Created with Sketch.</desc>
    <g id="Page-1" stroke="none" stroke-width="1" fill="none" fill-rule="evenodd">
        <g id="doc" fill-rule="nonzero">
            <path d="M18,21.3513514 L18,8.55309405 C18,7.63575442 17.6846936,6.74628874 17.106923,6.03376285 L13.4149254,1.4806688 C12.655419,0.544020252 11.5138882,2.44301764e-15 10.3080025,2.66453526e-15 L2,1.77635684e-15 C0.8954305,1.97926296e-15 -1.3527075e-16,0.8954305 0,2 L0,21.3513514 C2.09738034e-15,22.4559209 0.8954305,23.3513514 2,23.3513514 L16,23.3513514 C17.1045695,23.3513514 18,22.4559209 18,21.3513514 Z" id="Shape-Copy-9" fill="#EEF0F2"></path>
            <path d="M0,13 L18,13 L18,22.027027 C18,23.1315965 17.1045695,24.027027 16,24.027027 L2,24.027027 C0.8954305,24.027027 1.3527075e-16,23.1315965 0,22.027027 L0,13 Z" id="Rectangle-path-Copy-9" fill="#0F63C5"></path>
            <path d="M2.30859375,18.8554688 C2.30859375,18.2044238 2.45963391,17.6816426 2.76171875,17.2871094 C3.06380359,16.8925762 3.46874746,16.6953125 3.9765625,16.6953125 C4.42448141,16.6953125 4.78645695,16.8515609 5.0625,17.1640625 L5.0625,15 L6.01171875,15 L6.01171875,21 L5.15234375,21 L5.10546875,20.5625 C4.82161316,20.9062517 4.4427107,21.078125 3.96875,21.078125 C3.47395586,21.078125 3.07356924,20.8789082 2.76757812,20.4804688 C2.46158701,20.0820293 2.30859375,19.540368 2.30859375,18.8554688 Z M3.2578125,18.9375 C3.2578125,19.3671896 3.34049396,19.7024728 3.50585938,19.9433594 C3.67122479,20.184246 3.90624848,20.3046875 4.2109375,20.3046875 C4.59896027,20.3046875 4.8828116,20.1315121 5.0625,19.7851562 L5.0625,17.9804688 C4.88801996,17.6419254 4.60677277,17.4726562 4.21875,17.4726562 C3.9114568,17.4726562 3.67448,17.5943998 3.5078125,17.8378906 C3.341145,18.0813814 3.2578125,18.4479142 3.2578125,18.9375 Z M6.82421875,18.8476562 C6.82421875,18.4335917 6.90624918,18.0605485 7.0703125,17.7285156 C7.23437582,17.3964827 7.46484227,17.1412769 7.76171875,16.9628906 C8.05859523,16.7845043 8.39973766,16.6953125 8.78515625,16.6953125 C9.3554716,16.6953125 9.8183576,16.8789044 10.1738281,17.2460938 C10.5292987,17.6132831 10.721354,18.1002574 10.75,18.7070312 L10.7539062,18.9296875 C10.7539062,19.3463562 10.6738289,19.7187484 10.5136719,20.046875 C10.3535148,20.3750016 10.1243504,20.6289054 9.82617188,20.8085938 C9.5279933,20.9882821 9.1835957,21.078125 8.79296875,21.078125 C8.1966116,21.078125 7.71940283,20.8795593 7.36132812,20.4824219 C7.00325342,20.0852845 6.82421875,19.5559929 6.82421875,18.8945312 L6.82421875,18.8476562 Z M7.7734375,18.9296875 C7.7734375,19.3645855 7.86328035,19.7050769 8.04296875,19.9511719 C8.22265715,20.1972669 8.47265465,20.3203125 8.79296875,20.3203125 C9.11328285,20.3203125 9.36262932,20.1953138 9.54101562,19.9453125 C9.71940193,19.6953112 9.80859375,19.3294295 9.80859375,18.8476562 C9.80859375,18.4205708 9.71679779,18.0820325 9.53320312,17.8320312 C9.34960846,17.58203 9.10026199,17.4570312 8.78515625,17.4570312 C8.47525887,17.4570312 8.22916758,17.5800769 8.046875,17.8261719 C7.86458242,18.0722669 7.7734375,18.4401017 7.7734375,18.9296875 Z M13.2929688,20.3203125 C13.5299491,20.3203125 13.7265617,20.2513028 13.8828125,20.1132812 C14.0390633,19.9752597 14.1223958,19.8046885 14.1328125,19.6015625 L15.0273438,19.6015625 C15.016927,19.8645846 14.9348966,20.1100249 14.78125,20.3378906 C14.6276034,20.5657563 14.4192721,20.7460931 14.15625,20.8789062 C13.8932279,21.0117194 13.6093765,21.078125 13.3046875,21.078125 C12.7135387,21.078125 12.2447934,20.8867207 11.8984375,20.5039062 C11.5520816,20.1210918 11.3789062,19.5924513 11.3789062,18.9179688 L11.3789062,18.8203125 C11.3789062,18.1770801 11.5507795,17.6621113 11.8945312,17.2753906 C12.238283,16.8886699 12.7070283,16.6953125 13.3007812,16.6953125 C13.8033879,16.6953125 14.212889,16.8417954 14.5292969,17.1347656 C14.8457047,17.4277358 15.0117187,17.8124976 15.0273438,18.2890625 L14.1328125,18.2890625 C14.1223958,18.0468738 14.0397143,17.847657 13.8847656,17.6914062 C13.7298169,17.5351555 13.5325533,17.4570312 13.2929688,17.4570312 C12.9856755,17.4570312 12.7486988,17.5683583 12.5820312,17.7910156 C12.4153637,18.013673 12.3307292,18.3515602 12.328125,18.8046875 L12.328125,18.9570312 C12.328125,19.4153669 12.4108065,19.7571603 12.5761719,19.9824219 C12.7415373,20.2076834 12.9804672,20.3203125 13.2929688,20.3203125 Z" fill="#FFFFFF"></path>
        </g>
    </g>
</svg>