<?xml version="1.0" encoding="UTF-8"?>
<svg width="18px" height="25px" viewBox="0 0 18 25" version="1.1" xmlns="http://www.w3.org/2000/svg" xmlns:xlink="http://www.w3.org/1999/xlink">
    <!-- Generator: Sketch 53.2 (72643) - https://sketchapp.com -->
    <title>docx</title>
    <desc>Created with Sketch.</desc>
    <g id="Page-1" stroke="none" stroke-width="1" fill="none" fill-rule="evenodd">
        <g id="docx" fill-rule="nonzero">
            <path d="M18,21.3513514 L18,8.55309405 C18,7.63575442 17.6846936,6.74628874 17.106923,6.03376285 L13.4149254,1.4806688 C12.655419,0.544020252 11.5138882,2.44301764e-15 10.3080025,2.66453526e-15 L2,1.77635684e-15 C0.8954305,1.97926296e-15 -1.3527075e-16,0.8954305 0,2 L0,21.3513514 C2.09738034e-15,22.4559209 0.8954305,23.3513514 2,23.3513514 L16,23.3513514 C17.1045695,23.3513514 18,22.4559209 18,21.3513514 Z" id="Shape-Copy-10" fill="#EEF0F2"></path>
            <path d="M0,13 L18,13 L18,22.027027 C18,23.1315965 17.1045695,24.027027 16,24.027027 L2,24.027027 C0.8954305,24.027027 1.3527075e-16,23.1315965 0,22.027027 L0,13 Z" id="Rectangle-path-Copy-10" fill="#0F63C5"></path>
            <path d="M1.30859375,18.8554688 C1.30859375,18.2044238 1.45963391,17.6816426 1.76171875,17.2871094 C2.06380359,16.8925762 2.46874746,16.6953125 2.9765625,16.6953125 C3.42448141,16.6953125 3.78645695,16.8515609 4.0625,17.1640625 L4.0625,15 L5.01171875,15 L5.01171875,21 L4.15234375,21 L4.10546875,20.5625 C3.82161316,20.9062517 3.4427107,21.078125 2.96875,21.078125 C2.47395586,21.078125 2.07356924,20.8789082 1.76757812,20.4804688 C1.46158701,20.0820293 1.30859375,19.540368 1.30859375,18.8554688 Z M2.2578125,18.9375 C2.2578125,19.3671896 2.34049396,19.7024728 2.50585938,19.9433594 C2.67122479,20.184246 2.90624848,20.3046875 3.2109375,20.3046875 C3.59896027,20.3046875 3.8828116,20.1315121 4.0625,19.7851562 L4.0625,17.9804688 C3.88801996,17.6419254 3.60677277,17.4726562 3.21875,17.4726562 C2.9114568,17.4726562 2.67448,17.5943998 2.5078125,17.8378906 C2.341145,18.0813814 2.2578125,18.4479142 2.2578125,18.9375 Z M5.32421875,18.8476562 C5.32421875,18.4335917 5.40624918,18.0605485 5.5703125,17.7285156 C5.73437582,17.3964827 5.96484227,17.1412769 6.26171875,16.9628906 C6.55859523,16.7845043 6.89973766,16.6953125 7.28515625,16.6953125 C7.8554716,16.6953125 8.3183576,16.8789044 8.67382812,17.2460938 C9.02929865,17.6132831 9.22135402,18.1002574 9.25,18.7070312 L9.25390625,18.9296875 C9.25390625,19.3463562 9.17382893,19.7187484 9.01367188,20.046875 C8.85351482,20.3750016 8.62435045,20.6289054 8.32617188,20.8085938 C8.0279933,20.9882821 7.6835957,21.078125 7.29296875,21.078125 C6.6966116,21.078125 6.21940283,20.8795593 5.86132812,20.4824219 C5.50325342,20.0852845 5.32421875,19.5559929 5.32421875,18.8945312 L5.32421875,18.8476562 Z M6.2734375,18.9296875 C6.2734375,19.3645855 6.36328035,19.7050769 6.54296875,19.9511719 C6.72265715,20.1972669 6.97265465,20.3203125 7.29296875,20.3203125 C7.61328285,20.3203125 7.86262932,20.1953138 8.04101562,19.9453125 C8.21940193,19.6953112 8.30859375,19.3294295 8.30859375,18.8476562 C8.30859375,18.4205708 8.21679779,18.0820325 8.03320312,17.8320312 C7.84960846,17.58203 7.60026199,17.4570312 7.28515625,17.4570312 C6.97525887,17.4570312 6.72916758,17.5800769 6.546875,17.8261719 C6.36458242,18.0722669 6.2734375,18.4401017 6.2734375,18.9296875 Z M11.2929688,20.3203125 C11.5299491,20.3203125 11.7265617,20.2513028 11.8828125,20.1132812 C12.0390633,19.9752597 12.1223958,19.8046885 12.1328125,19.6015625 L13.0273438,19.6015625 C13.016927,19.8645846 12.9348966,20.1100249 12.78125,20.3378906 C12.6276034,20.5657563 12.4192721,20.7460931 12.15625,20.8789062 C11.8932279,21.0117194 11.6093765,21.078125 11.3046875,21.078125 C10.7135387,21.078125 10.2447934,20.8867207 9.8984375,20.5039062 C9.5520816,20.1210918 9.37890625,19.5924513 9.37890625,18.9179688 L9.37890625,18.8203125 C9.37890625,18.1770801 9.55077953,17.6621113 9.89453125,17.2753906 C10.238283,16.8886699 10.7070283,16.6953125 11.3007812,16.6953125 C11.8033879,16.6953125 12.212889,16.8417954 12.5292969,17.1347656 C12.8457047,17.4277358 13.0117187,17.8124976 13.0273438,18.2890625 L12.1328125,18.2890625 C12.1223958,18.0468738 12.0397143,17.847657 11.8847656,17.6914062 C11.7298169,17.5351555 11.5325533,17.4570312 11.2929688,17.4570312 C10.9856755,17.4570312 10.7486988,17.5683583 10.5820312,17.7910156 C10.4153637,18.013673 10.3307292,18.3515602 10.328125,18.8046875 L10.328125,18.9570312 C10.328125,19.4153669 10.4108065,19.7571603 10.5761719,19.9824219 C10.7415373,20.2076834 10.9804672,20.3203125 11.2929688,20.3203125 Z M14.7617188,18.1640625 L15.5664062,16.7734375 L16.6210938,16.7734375 L15.328125,18.8554688 L16.6640625,21 L15.6171875,21 L14.7734375,19.5546875 L13.9335938,21 L12.8789062,21 L14.2148438,18.8554688 L12.9257812,16.7734375 L13.9726562,16.7734375 L14.7617188,18.1640625 Z" fill="#FFFFFF"></path>
        </g>
    </g>
</svg>