<?xml version="1.0" encoding="UTF-8"?>
<svg width="18px" height="25px" viewBox="0 0 18 25" version="1.1" xmlns="http://www.w3.org/2000/svg" xmlns:xlink="http://www.w3.org/1999/xlink">
    <!-- Generator: Sketch 53.2 (72643) - https://sketchapp.com -->
    <title>rar</title>
    <desc>Created with Sketch.</desc>
    <g id="Page-1" stroke="none" stroke-width="1" fill="none" fill-rule="evenodd">
        <g id="rar" fill-rule="nonzero">
            <path d="M18,21.3513514 L18,8.55309405 C18,7.63575442 17.6846936,6.74628874 17.106923,6.03376285 L13.4149254,1.4806688 C12.655419,0.544020252 11.5138882,2.44301764e-15 10.3080025,2.66453526e-15 L2,1.77635684e-15 C0.8954305,1.97926296e-15 -1.3527075e-16,0.8954305 0,2 L0,21.3513514 C2.09738034e-15,22.4559209 0.8954305,23.3513514 2,23.3513514 L16,23.3513514 C17.1045695,23.3513514 18,22.4559209 18,21.3513514 Z" id="Shape-Copy" fill="#EEF0F2"></path>
            <path d="M0,13 L18,13 L18,22.027027 C18,23.1315965 17.1045695,24.027027 16,24.027027 L2,24.027027 C0.8954305,24.027027 1.3527075e-16,23.1315965 0,22.027027 L0,13 Z" id="Rectangle-path-Copy" fill="#F5A623"></path>
            <path d="M6.69921875,17.640625 C6.57421813,17.6197916 6.44531316,17.609375 6.3125,17.609375 C5.87760199,17.609375 5.58463617,17.77604 5.43359375,18.109375 L5.43359375,21 L4.484375,21 L4.484375,16.7734375 L5.390625,16.7734375 L5.4140625,17.2460938 C5.64323031,16.8789044 5.96093547,16.6953125 6.3671875,16.6953125 C6.50260484,16.6953125 6.61458289,16.7135415 6.703125,16.75 L6.69921875,17.640625 Z M9.82421875,21 C9.78255187,20.9192704 9.74609391,20.7877613 9.71484375,20.6054688 C9.41275891,20.9205745 9.04297094,21.078125 8.60546875,21.078125 C8.18098746,21.078125 7.83463676,20.9570325 7.56640625,20.7148438 C7.29817574,20.472655 7.1640625,20.1731789 7.1640625,19.8164062 C7.1640625,19.3658832 7.33137854,19.0201835 7.66601562,18.7792969 C8.00065271,18.5384103 8.47916355,18.4179688 9.1015625,18.4179688 L9.68359375,18.4179688 L9.68359375,18.140625 C9.68359375,17.9218739 9.62239645,17.7467454 9.5,17.6152344 C9.37760355,17.4837233 9.1914075,17.4179688 8.94140625,17.4179688 C8.72525934,17.4179688 8.54817777,17.4720047 8.41015625,17.5800781 C8.27213473,17.6881516 8.203125,17.82552 8.203125,17.9921875 L7.25390625,17.9921875 C7.25390625,17.7604155 7.3307284,17.5436208 7.484375,17.3417969 C7.6380216,17.1399729 7.84700389,16.9817714 8.11132812,16.8671875 C8.37565236,16.7526036 8.67057129,16.6953125 8.99609375,16.6953125 C9.49088789,16.6953125 9.8854152,16.8196602 10.1796875,17.0683594 C10.4739598,17.3170585 10.625,17.6666644 10.6328125,18.1171875 L10.6328125,20.0234375 C10.6328125,20.4036477 10.6861974,20.7070301 10.7929688,20.9335938 L10.7929688,21 L9.82421875,21 Z M8.78125,20.3164062 C8.96875094,20.3164062 9.14518146,20.2708338 9.31054688,20.1796875 C9.47591229,20.0885412 9.60026,19.9661466 9.68359375,19.8125 L9.68359375,19.015625 L9.171875,19.015625 C8.82031074,19.015625 8.55599047,19.0768223 8.37890625,19.1992188 C8.20182203,19.3216152 8.11328125,19.4947905 8.11328125,19.71875 C8.11328125,19.9010426 8.17382752,20.0462234 8.29492188,20.1542969 C8.41601623,20.2623703 8.57812398,20.3164062 8.78125,20.3164062 Z M13.8398438,17.640625 C13.7148431,17.6197916 13.5859382,17.609375 13.453125,17.609375 C13.018227,17.609375 12.7252612,17.77604 12.5742188,18.109375 L12.5742188,21 L11.625,21 L11.625,16.7734375 L12.53125,16.7734375 L12.5546875,17.2460938 C12.7838553,16.8789044 13.1015605,16.6953125 13.5078125,16.6953125 C13.6432298,16.6953125 13.7552079,16.7135415 13.84375,16.75 L13.8398438,17.640625 Z" fill="#FFFFFF"></path>
        </g>
    </g>
</svg>