<?xml version="1.0" encoding="UTF-8"?>
<svg width="18px" height="25px" viewBox="0 0 18 25" version="1.1" xmlns="http://www.w3.org/2000/svg" xmlns:xlink="http://www.w3.org/1999/xlink">
    <!-- Generator: Sketch 53.2 (72643) - https://sketchapp.com -->
    <title>TAR</title>
    <desc>Created with Sketch.</desc>
    <g id="Page-1" stroke="none" stroke-width="1" fill="none" fill-rule="evenodd">
        <g id="TAR" fill-rule="nonzero">
            <path d="M18,21.3513514 L18,8.55309405 C18,7.63575442 17.6846936,6.74628874 17.106923,6.03376285 L13.4149254,1.4806688 C12.655419,0.544020252 11.5138882,2.44301764e-15 10.3080025,2.66453526e-15 L2,1.77635684e-15 C0.8954305,1.97926296e-15 -1.3527075e-16,0.8954305 0,2 L0,21.3513514 C2.09738034e-15,22.4559209 0.8954305,23.3513514 2,23.3513514 L16,23.3513514 C17.1045695,23.3513514 18,22.4559209 18,21.3513514 Z" id="Shape-Copy-3" fill="#EEF0F2"></path>
            <path d="M0,13 L18,13 L18,22.027027 C18,23.1315965 17.1045695,24.027027 16,24.027027 L2,24.027027 C0.8954305,24.027027 1.3527075e-16,23.1315965 0,22.027027 L0,13 Z" id="Rectangle-path-Copy-3" fill="#9B9B9B"></path>
            <path d="M6.6875,16.109375 L4.9140625,16.109375 L4.9140625,21 L3.93359375,21 L3.93359375,16.109375 L2.17578125,16.109375 L2.17578125,15.3125 L6.6875,15.3125 L6.6875,16.109375 Z M9.9328125,19.6757812 L7.7296875,19.6757812 L7.26875,21 L6.24140625,21 L8.38984375,15.3125 L9.2765625,15.3125 L11.4289062,21 L10.3976562,21 L9.9328125,19.6757812 Z M8.00703125,18.8789062 L9.65546875,18.8789062 L8.83125,16.5195312 L8.00703125,18.8789062 Z M13.9632812,18.8085938 L12.8617187,18.8085938 L12.8617187,21 L11.8734375,21 L11.8734375,15.3125 L13.8734375,15.3125 C14.5296908,15.3125 15.0361961,15.4596339 15.3929687,15.7539062 C15.7497414,16.0481786 15.928125,16.4739555 15.928125,17.03125 C15.928125,17.4114602 15.836329,17.7298164 15.6527344,17.9863281 C15.4691397,18.2428398 15.2132829,18.4401035 14.8851562,18.578125 L16.1625,20.9492188 L16.1625,21 L15.1039062,21 L13.9632812,18.8085938 Z M12.8617187,18.015625 L13.8773437,18.015625 C14.2106787,18.015625 14.4710928,17.9316415 14.6585937,17.7636719 C14.8460947,17.5957023 14.9398437,17.3658869 14.9398437,17.0742188 C14.9398437,16.7695297 14.8532561,16.533855 14.6800781,16.3671875 C14.5069002,16.20052 14.2484392,16.1145834 13.9046875,16.109375 L12.8617187,16.109375 L12.8617187,18.015625 Z" fill="#FFFFFF"></path>
        </g>
    </g>
</svg>