<?xml version="1.0" encoding="UTF-8"?>
<svg width="18px" height="25px" viewBox="0 0 18 25" version="1.1" xmlns="http://www.w3.org/2000/svg" xmlns:xlink="http://www.w3.org/1999/xlink">
    <!-- Generator: Sketch 53.2 (72643) - https://sketchapp.com -->
    <title>xls</title>
    <desc>Created with Sketch.</desc>
    <g id="Page-1" stroke="none" stroke-width="1" fill="none" fill-rule="evenodd">
        <g id="xls" fill-rule="nonzero">
            <path d="M18,21.3513514 L18,8.55309405 C18,7.63575442 17.6846936,6.74628874 17.106923,6.03376285 L13.4149254,1.4806688 C12.655419,0.544020252 11.5138882,2.44301764e-15 10.3080025,2.66453526e-15 L2,1.77635684e-15 C0.8954305,1.97926296e-15 -1.3527075e-16,0.8954305 0,2 L0,21.3513514 C2.09738034e-15,22.4559209 0.8954305,23.3513514 2,23.3513514 L16,23.3513514 C17.1045695,23.3513514 18,22.4559209 18,21.3513514 Z" id="Shape-Copy-12" fill="#EEF0F2"></path>
            <path d="M0,13 L18,13 L18,22.027027 C18,23.1315965 17.1045695,24.027027 16,24.027027 L2,24.027027 C0.8954305,24.027027 1.3527075e-16,23.1315965 0,22.027027 L0,13 Z" id="Rectangle-path-Copy-12" fill="#8BD33C"></path>
            <path d="M6.00390625,18.1640625 L6.80859375,16.7734375 L7.86328125,16.7734375 L6.5703125,18.8554688 L7.90625,21 L6.859375,21 L6.015625,19.5546875 L5.17578125,21 L4.12109375,21 L5.45703125,18.8554688 L4.16796875,16.7734375 L5.21484375,16.7734375 L6.00390625,18.1640625 Z M9.43953125,21 L8.4903125,21 L8.4903125,15 L9.43953125,15 L9.43953125,21 Z M12.761875,19.8515625 C12.761875,19.6822908 12.6922142,19.5533859 12.5528906,19.4648438 C12.413567,19.3763016 12.1824495,19.2981774 11.8595313,19.2304688 C11.536613,19.1627601 11.2670844,19.0768234 11.0509375,18.9726562 C10.5769768,18.7434884 10.34,18.4114605 10.34,17.9765625 C10.34,17.6119773 10.4936443,17.3072929 10.8009375,17.0625 C11.1082307,16.8177071 11.4988518,16.6953125 11.9728125,16.6953125 C12.4780234,16.6953125 12.8862224,16.8203112 13.1974219,17.0703125 C13.5086214,17.3203138 13.6642188,17.6445293 13.6642188,18.0429688 L12.715,18.0429688 C12.715,17.8606762 12.6472923,17.708985 12.511875,17.5878906 C12.3764577,17.4667963 12.196772,17.40625 11.9728125,17.40625 C11.7644781,17.40625 11.594558,17.4544266 11.4630469,17.5507812 C11.3315358,17.6471359 11.2657813,17.7760409 11.2657813,17.9375 C11.2657813,18.0833341 11.3269786,18.1966142 11.449375,18.2773438 C11.5717714,18.3580733 11.8191648,18.4394527 12.1915625,18.5214844 C12.5639602,18.603516 12.856275,18.7011713 13.0685156,18.8144531 C13.2807563,18.9277349 13.4383068,19.0638013 13.5411719,19.2226562 C13.644037,19.3815112 13.6954688,19.5742176 13.6954688,19.8007812 C13.6954688,20.1809915 13.5379182,20.4889311 13.2228125,20.7246094 C12.9077068,20.9602876 12.4949505,21.078125 11.9845313,21.078125 C11.6381754,21.078125 11.3295847,21.0156256 11.05875,20.890625 C10.7879153,20.7656244 10.5769799,20.5937511 10.4259375,20.375 C10.2748951,20.1562489 10.199375,19.9205742 10.199375,19.6679688 L11.12125,19.6679688 C11.1342709,19.8919282 11.2189055,20.0644525 11.3751563,20.1855469 C11.531407,20.3066412 11.7384362,20.3671875 11.99625,20.3671875 C12.2462513,20.3671875 12.4363535,20.3196619 12.5665625,20.2246094 C12.6967715,20.1295568 12.761875,20.0052091 12.761875,19.8515625 Z" fill="#FFFFFF"></path>
        </g>
    </g>
</svg>