<?xml version="1.0" standalone="yes"?>
<svg width="256" height="256" xmlns="http://www.w3.org/2000/svg">
<path style="fill:#0d51b6; stroke:none;" d="M78 0.638123C44.3468 10.3108 49.5115 67.5883 64.2091 90C72.0422 101.944 84.9088 111.699 100 107.362C133.072 97.8562 127.705 41.1836 113.934 19C106.39 6.84677 93.1589 -3.7189 78 0.638123M174 1.59491C139.71 2.95757 129.389 52.386 134.807 79C137.861 94.0033 147.447 110.746 165 109.895C199.259 108.234 208.928 58.4724 203.905 32C201.042 16.9125 191.197 0.911499 174 1.59491M23 78.598C4.58276 79.4601 -0.394705 97.3558 1.17052 113C3.48835 136.166 23.8159 166.896 50 164.906C66.5367 163.649 72.8059 145.409 70.561 131C67.0213 108.281 49.8161 77.3427 23 78.598M226 81.5177C202.404 86.5518 188.299 115.734 188.019 138C187.789 156.193 198.13 172.155 218 168.671C243.486 164.202 255.108 131.273 254.999 109C254.918 92.4482 243.797 77.7207 226 81.5177M121 132.439C87.0141 137.789 67.38 175.555 52.3056 203C45.2509 215.844 39.1877 235.863 52.1049 247.671C75.2088 268.792 107.315 243.975 133 245.104C152.388 245.957 172.773 258.935 192 255.536C223.544 249.96 223.467 222.581 210.691 199C193.093 166.518 162.939 125.838 121 132.439z"/>
</svg>
