<?xml version="1.0" encoding="UTF-8"?>
<svg width="674px" height="238px" viewBox="0 0 674 238" version="1.1" xmlns="http://www.w3.org/2000/svg" xmlns:xlink="http://www.w3.org/1999/xlink">
    <!-- Generator: sketchtool 52.4 (67378) - http://www.bohemiancoding.com/sketch -->
    <title>909E96A8-F44B-47EC-BFB6-9FBC28218F8F</title>
    <desc>Created with sketchtool.</desc>
    <g id="ЛК" stroke="none" stroke-width="1" fill="none" fill-rule="evenodd">
        <g id="404-corvet" transform="translate(-303.000000, -465.000000)">
            <g id="Group-3" transform="translate(303.000000, 465.000000)">
                <g id="Group-2" transform="translate(181.000000, 0.000000)" fill="#0D51B6">
                    <g id="Group" transform="translate(0.351388, 0.000000)">
                        <path d="M121.962615,214.488145 C150.431082,184.521101 171.585101,147.256887 181.598304,107.167358 C185.747919,90.5410377 188.713541,72.9604717 185.672745,55.903805 C183.248377,42.3048742 176.309799,28.0510692 162.101876,23.7663208 C146.691166,19.1185849 131.566118,27.6469182 120.060707,37.1669182 C107.375062,47.6673585 97.0235753,60.8172327 87.4087957,74.0718868 C76.9107193,88.5427358 66.7170984,103.211918 58.4253847,119.078585 C49.6450386,135.877044 42.6087339,154.351981 42.0712384,173.481792 C41.8231636,182.305755 43.1875752,191.279403 46.5779315,199.459717 C49.9570115,207.613836 55.0838917,215.045723 61.1579667,221.44478 C67.1643849,227.768994 74.4637992,233.116509 82.7479956,236.042862 C89.9910293,238.602484 97.3129959,238.250723 104.586099,236.095252 C128.634324,228.977704 144.011206,206.270409 152.870485,184.217987 C163.037795,158.921132 166.7514,130.241384 163.353527,103.208176 C161.861319,91.3194025 158.854351,79.4493396 153.227562,68.7992138 C146.195016,55.4809434 134.219767,46.0881761 119.515695,42.4358491 C102.887163,38.3007862 84.7814576,41.6200629 69.7691707,49.4635849 C62.0750918,53.4863836 55.1365136,58.6243396 49.4533444,65.2030189 C44.2174617,71.2577987 40.3121623,78.296761 37.4630603,85.7398742 C31.4416072,101.498019 30.5132059,118.876509 31.1822562,135.562704 C31.8174782,151.507956 34.4410576,167.127642 42.3418655,181.224277 C48.6452218,192.476887 58.1397227,202.053019 69.8706559,207.643774 C80.8310536,212.864057 93.2949352,214.143868 105.112319,211.359717 C131.50222,205.140283 149.250848,180.640503 157.482422,156.279182 C161.147164,145.434465 163.48884,134.151918 164.890839,122.805755 C166.349218,111.018019 166.679985,99.0169811 165.311814,87.2030503 C163.090417,68.0545283 155.306129,46.1330818 134.79485,40.1793396 C124.090044,37.0696226 111.494608,38.8172013 101.267159,42.8587107 C92.5544694,46.301478 85.1986743,52.981195 78.8276613,59.6459434 C70.4720495,68.3763522 63.3004312,78.2630818 57.0684904,88.5838994 C50.6561316,99.2003459 45.2210372,110.505346 41.4322578,122.315535 C35.9934047,139.267421 32.5128395,163.838302 50.4230916,174.843931 C58.7148053,179.940723 69.4571978,180.790189 78.9329052,179.622642 C90.0135816,178.260503 100.804837,174.653082 111.077391,170.413239 C123.255611,165.387547 134.948957,159.138176 145.837939,151.739969 C156.110493,144.760881 165.890656,136.64044 173.528354,126.809843 C179.764053,118.782956 184.687963,109.176887 184.620306,98.8074214 C184.548891,87.6408805 178.057599,78.0722327 169.871129,70.9434591 C141.154587,45.9422327 99.2111444,61.3785535 73.366256,82.8472013 C62.9132841,91.5364465 54.0089007,102.28761 45.8788114,113.10239 C36.3880693,125.732107 27.8783504,139.402138 22.2891489,154.213522 C17.587003,166.674843 14.9371126,181.134465 20.605247,193.730503 C25.2961167,204.156101 35.4859789,211.861164 46.220854,215.288962 C57.5496053,218.90761 69.9120017,218.110535 81.3760665,215.584591 C94.7457972,212.635786 107.517893,207.067484 119.399175,200.376541 C131.720225,193.434874 143.255705,185.018805 153.648538,175.450157 C162.804755,167.015377 171.273128,157.476667 177.467482,146.646918 C182.895059,137.156855 185.627641,126.809843 184.815759,115.860346 C183.943739,104.113774 179.019829,93.0594969 171.964731,83.7153774 C156.674299,63.4666667 132.088579,50.2718868 107.367545,45.545566 C84.0109221,41.081195 57.4218091,44.6549371 41.015041,63.3282075 C23.7437696,82.9856604 21.3081257,112.043365 26.2207593,136.670377 C31.3476395,162.360157 45.3300398,187.832893 67.525221,202.63305 C78.2149916,209.761824 90.7728409,213.765912 103.646422,213.911855 C113.975356,214.027862 125.582252,212.36261 133.186122,204.766069 C139.545859,198.408176 141.955192,189.266132 142.676864,180.573145 C143.616542,169.283113 141.801085,157.787264 139.203816,146.822799 C133.246261,121.686855 122.338486,97.2394654 108.547779,75.4153145 C102.951061,66.5539308 96.6965675,57.8459748 89.1039738,50.5562893 C81.4437233,43.2029874 70.7426766,37.5860377 59.7973137,39.4945283 C45.5705972,41.975566 40.9812126,59.2642453 38.7522977,71.2016667 C35.1138667,90.6907233 36.0272331,110.67 40.8910036,129.86717 C45.8299482,149.367453 54.9072323,167.950912 67.3147333,183.821321 C78.3803748,197.97783 94.2458888,209.484906 112.163658,212.95761 C120.880106,214.645314 129.95739,214.001667 138.166412,210.555157 C145.541001,207.460409 151.840599,202.270063 156.557779,195.867264 C165.736549,183.402201 168.036879,166.992925 167.709871,151.923333 C167.375346,136.505723 164.033853,121.38 159.098667,106.815597 C153.652297,90.7505975 145.259098,75.1720755 132.889184,63.3356918 C120.447855,51.4282075 103.871944,44.8270755 86.5518099,45.9347484 C78.857731,46.4249686 71.3027243,48.7600629 65.0557487,53.3254717 C59.3425098,57.5016981 55.1327549,63.339434 52.268618,69.7459748 C45.8600179,84.0708805 45.9840553,100.330472 47.5852657,115.628333 C49.2954786,132.003931 53.0617058,148.300943 59.4214427,163.52022 C65.608279,178.327862 74.5915954,192.379591 87.6831815,202.030566 C99.733605,210.914403 116.8207,216.785818 131.660086,212.269057 C145.852974,207.946887 154.08079,194.314277 157.674116,180.752767 C159.737648,172.957893 160.158623,164.669057 160.37287,156.649654 C161.008092,132.767327 158.403306,108.62305 153.851508,85.1972642 C151.45721,72.8856289 148.382586,60.6750314 144.251764,48.8236792 C140.680989,38.5889308 136.294575,28.4589623 130.19043,19.4516352 C125.446939,12.4500943 119.346553,5.80031447 111.434469,2.37625786 C103.439693,-1.08522013 94.644312,-0.333050314 86.8487479,3.31179245 C74.674287,9.00358491 66.5254042,21.2104403 60.7369912,32.8185535 C54.0352116,46.2603145 49.7089367,60.8883333 46.7019689,75.5537736 C40.9511429,103.638522 41.0225584,133.526981 47.698027,161.439591 C51.3740451,176.816038 57.5120182,191.971698 67.7093978,204.24217 C76.2980496,214.581698 88.4123712,222.503805 101.661823,225.362799 C111.802822,227.55195 122.18062,226.010189 131.393217,221.332516 C141.105723,216.404119 148.968944,208.414654 155.415132,199.796509 C170.416142,179.723679 179.004794,154.598962 183.131857,130.121635 C185.060075,118.681918 185.995994,106.976509 185.139008,95.3908491 C184.778172,90.522327 184.071535,85.6612893 182.827402,80.9387107 C181.132224,74.483522 178.065117,68.398805 174.787522,62.6172013 C166.51836,48.0153774 154.479213,35.0488679 138.970776,28.0510692 C124.172736,21.3713522 105.60471,20.4395597 90.551077,26.909717 C84.7062834,29.4169497 79.7222342,33.6755031 76.8580974,39.3822642 C73.5955373,45.8786164 73.6143308,53.1159119 74.3623141,60.1623585 C75.050158,66.6587107 77.43318,73.0914465 79.5606097,79.2210692 C87.2960344,101.471824 97.2453391,123.093899 108.356085,143.859025 C114.415125,155.175252 120.951522,166.26695 128.277247,176.816038 C134.452807,185.707358 141.23352,194.415314 149.35985,201.633899 C155.12947,206.756887 162.12067,211.595472 170.051547,212.227893 C178.068875,212.867799 185.736643,207.905723 188.28129,200.312925 C190.062918,194.999088 189.574286,189.079025 188.660919,183.652925 C187.514513,176.838491 185.293115,170.211164 182.793573,163.785912 C178.125256,151.781132 172.152666,140.303994 165.830516,129.085063 C157.666599,114.595503 148.454001,101.004057 136.738103,89.0853459 C123.443546,75.5612579 107.194644,64.2450314 88.7168267,59.1594654 C77.4707671,56.064717 64.0221035,54.279717 52.7647677,58.3212264 C45.0744476,61.0829245 39.5491442,66.9730503 36.9218061,74.6294654 C33.9712189,83.2363836 34.6139583,92.8237421 36.1174422,101.64022 C37.9967971,112.638365 41.68785,123.292233 46.0441947,133.538208 C50.6072683,144.259434 56.102502,154.602704 62.3532364,164.440786 C67.7018804,172.856855 73.6481592,181.044654 80.6280833,188.203365 C88.6266176,196.409874 98.8089624,202.337421 109.258176,206.914057 C122.161826,212.568428 137.978477,217.085189 151.900738,212.534748 C165.759101,208.003019 172.468398,193.610755 171.12278,179.791038 C169.626813,164.392138 159.985723,150.606101 150.149179,139.188836 C140.308877,127.76783 128.867364,117.697736 116.865804,108.585629 C106.495524,100.715912 95.4449172,93.5310063 83.9996459,87.3078302 C71.565834,80.5457862 57.0985601,73.7313522 42.5861817,74.1878931 C36.6060744,74.3787421 30.8778008,76.3134277 26.3823839,80.3137736 C21.6689618,84.5124528 20.0639927,90.9077673 20.0038534,96.985 C19.9324379,104.349528 21.9621412,111.710314 24.4015438,118.595849 C26.8898097,125.627327 30.0734369,132.415566 33.5765544,138.997987 C36.8879777,145.217421 40.5038565,151.212327 44.9353753,156.717013 C50.5396116,163.681132 57.3090479,169.664811 64.7400171,174.634371 C79.64706,184.603428 97.3280308,189.928491 115.118004,191.533868 C124.255428,192.357138 133.385334,191.994151 142.492687,191.002484 C150.404771,190.13805 158.189059,188.07239 165.341884,184.573491 C171.810624,181.407642 177.625348,176.831006 181.707306,170.881006 C185.853163,164.841195 187.510754,157.502862 187.018363,150.258082 C186.244069,138.84456 180.899184,129.388176 172.814199,121.582075 C164.826941,113.87327 155.167057,107.889591 145.292926,102.890094 C134.001762,97.1683648 122.037789,92.7264465 109.806947,89.4633019 C97.9219069,86.2937107 85.6234085,84.2542453 73.3061166,84.0708805 C62.9433538,83.9174528 52.2385484,85.1486164 42.7327714,89.4745283 C34.4711273,93.2316352 27.9460071,99.7466981 24.8789,108.319937 C23.0484083,113.43544 22.5672935,119.074843 22.6236741,124.471006 C22.6800547,129.900849 23.6046974,135.341918 25.4878109,140.446195 C33.1217505,161.128994 55.0124762,171.161667 75.399718,174.971164 C98.6210269,179.308302 123.808141,177.399811 146.112325,169.646101 C155.460236,166.397925 164.672834,161.911101 172.051181,155.235126 C177.99746,149.850189 184.263229,142.354686 184.654135,133.972296 C184.969866,127.236447 180.500761,121.87022 175.272395,118.180472 C168.051914,113.083679 159.143772,110.348176 150.64157,108.267547 C128.795949,102.920031 105.653573,101.774937 83.2441453,102.598208 C73.7872315,102.942484 64.2701783,103.694654 54.9711304,105.498365 C43.9468346,107.635126 33.9937712,112.803019 25.720851,120.440723 C19.3385618,126.338333 14.2755797,133.953585 12.4826751,142.51934 C10.6333899,151.343302 12.9976184,160.462893 18.0154959,167.853616 C26.419971,180.240094 41.4059468,184.943962 55.6852852,186.216289 C70.9869927,187.58217 86.5330163,185.404245 101.530268,182.474151 C113.915217,180.052987 126.176128,176.778616 138.072445,172.576195 C151.430899,167.857358 165.157707,161.832516 175.625714,152.080503 C180.068509,147.941698 183.748286,142.901038 185.586295,137.082013 C187.495719,131.042201 186.755254,124.837736 184.060259,119.164654 C180.993152,112.705723 175.682095,107.388145 170.201896,102.908805 C164.131579,97.9542138 157.384695,93.8490881 150.412289,90.2940566 C137.67778,83.8014465 124.157701,79.7225157 109.949778,78.0460377 C79.789891,74.4910063 38.6094667,80.785283 28.0700446,114.08283 C23.9504986,127.094245 25.7659555,145.082704 38.748539,152.701698 C45.2661418,156.526164 53.7608258,157.218459 61.1316557,157.723648 C72.3626805,158.490786 83.6914317,157.951918 94.8848694,156.896635 C107.416408,155.717862 119.895324,153.764465 132.182546,151.032704 C143.398536,148.532956 154.535593,145.363365 165.116361,140.854088 C172.573642,137.67327 180.699972,133.61305 185.819335,127.12044 C190.006538,121.806604 190.356098,115.620849 186.76653,109.891635 C179.899367,98.9383962 165.665133,94.0174843 153.783851,90.9227358 C139.391752,87.1731132 124.371948,85.6687736 109.53632,85.1037107 C97.1363366,84.6322013 84.8641492,85.2533962 72.5731682,86.978522 C57.3917395,89.1077987 42.0599623,92.7713522 28.3707413,99.8103145 C22.0335567,103.065975 16.0684843,107.230975 11.2723706,112.514874 C6.97992404,117.241195 4.14585688,122.828208 2.15749941,128.841824 C-0.236798715,136.086604 -1.16144132,144.42783 2.78144523,151.313365 C6.31839112,157.484151 13.0765513,160.885755 19.6956392,162.794245 C28.6263336,165.368836 38.1997674,165.683176 47.4349173,165.402516 C58.6170789,165.058239 69.7691707,163.587579 80.7746729,161.626698 C101.695652,157.895786 122.552732,152.383616 142.379926,144.708491 C148.243513,142.440755 154.445384,140.071981 159.632404,136.449591 C166.913025,131.371509 173.554665,124.650629 176.817225,116.290692 C179.568601,109.247987 178.78303,101.625252 175.648266,94.8632075 C171.833176,86.6342453 164.793112,80.1491195 157.591424,74.8539937 C150.551361,69.6748742 142.624242,65.7605975 134.524223,62.5199057 C117.038705,55.5258491 98.1399121,51.9558491 79.3952265,50.6311321 C63.0749086,49.4785535 45.9652618,49.9051572 30.0959891,54.2460377 C18.8386534,57.3220755 8.13008923,63.4591824 3.9616801,74.8914151 C1.56362326,81.4775786 1.81545682,88.7485535 2.94306975,95.5592453 C4.39017301,104.300881 7.26182727,113.36434 11.9639732,120.927201 C20.3083089,134.350252 34.7605479,142.586698 49.5585883,147.170818 C63.834168,151.594025 78.9629748,152.754088 93.8173958,151.579057 C109.900915,150.310472 125.976917,147.062296 141.263589,141.935566 C155.486547,137.16434 170.577767,130.391069 180.451897,118.723082 C185.232976,113.076195 188.762405,106.325377 188.138459,98.7550314 C187.567135,91.8021384 183.579144,85.6874843 178.884515,80.7328931 C169.743333,71.0931447 157.023859,64.4508491 144.556219,60.1586164 C143.112874,59.6646541 142.496446,61.9361321 143.928514,62.4263522 C151.145237,64.9111321 158.072539,68.2416352 164.533761,72.2906289 C171.100227,76.403239 177.403584,81.4850629 181.711065,87.9814151 C185.71785,94.0212264 187.003328,101.056447 184.469958,107.927013 C181.891483,114.909843 175.952722,120.758805 170.089134,125.137107 C156.971237,134.934025 140.658437,140.360126 124.894408,144.184591 C110.26551,147.732138 94.9863546,150.037296 79.8988936,149.655597 C64.1536583,149.258931 47.9836889,145.819906 34.1403608,138.159748 C27.1980239,134.316572 20.9059437,129.212296 16.136141,122.858145 C10.7048054,115.624591 7.75421825,106.781918 5.82224143,98.0477673 C4.23982462,90.8927987 3.73991622,83.2550943 6.00641821,76.1936792 C7.76173567,70.7338994 11.4603061,66.1946855 16.1436585,62.9315409 C21.1690534,59.4288994 27.0777452,57.3819497 32.9864369,55.9225157 C40.5790307,54.0439623 48.4196992,53.1757862 56.2227807,52.7491824 C75.0915038,51.7200943 94.2270952,53.6435535 112.577116,58.0742453 C130.468575,62.392673 148.566762,69.3792453 162.432643,81.7657233 C168.781103,87.4350629 174.313924,94.6012579 175.862513,103.129591 C177.369755,111.440881 173.701255,119.404151 168.348852,125.586164 C162.184568,132.707453 154.738564,137.074528 146.225086,140.644528 C127.299982,148.581604 107.108194,154.007704 87.0141312,158.056698 C75.8507631,160.301981 64.5520816,162.019623 53.1819845,162.771792 C43.540894,163.407956 33.6479699,163.441635 24.1497103,161.469528 C17.4141024,160.073711 10.0846183,157.439245 5.85231111,151.706289 C1.30427229,145.542987 1.9996336,137.546038 4.0782001,130.596887 C5.88989821,124.538365 8.71268924,118.925157 12.9412377,114.176384 C17.7636624,108.761509 23.9279464,104.693805 30.3666162,101.426918 C44.1685985,94.4291195 59.8085898,91.0050629 75.0727102,88.9880503 C87.3448976,87.3714465 99.5945328,86.9934906 111.95317,87.5548113 C126.972975,88.2358805 142.150645,89.9647484 156.625436,94.1409748 C163.278352,96.0569497 169.829784,98.5903774 175.655784,102.354969 C179.89185,105.090472 184.116639,108.873774 186.104997,113.611321 C188.627091,119.624937 185.214183,125.066006 180.730042,129.021447 C173.840327,135.102421 164.74049,138.780943 156.17815,141.827044 C144.826846,145.861069 133.032015,148.678899 121.192079,150.875535 C108.916133,153.150755 96.4823211,154.673805 84.0109221,155.362358 C73.7120573,155.931164 63.2027048,156.050912 52.9752555,154.516635 C49.3481006,153.974025 45.7059108,153.203145 42.296761,151.82978 C37.3578164,149.842704 33.7193853,145.520535 31.3852266,140.865314 C24.153469,126.424403 30.2651311,107.934497 41.0939739,97.0822956 C52.8211484,85.328239 70.3931166,80.9686478 86.4879118,79.8160692 C102.094075,78.7009119 118.177594,80.4971384 133.032015,85.4517296 C147.078313,90.1406289 161.083266,97.58 172.028629,107.59022 C177.15175,112.275377 181.805033,117.970912 183.661835,124.766635 C185.300633,130.783994 183.789632,137.025881 180.669902,142.294811 C173.671185,154.116226 159.775235,161.166415 147.570704,166.386698 C135.275965,171.644403 122.319692,175.371572 109.314556,178.425157 C95.2043597,181.73695 80.631842,184.068302 66.1157048,184.24044 C51.4153909,184.416321 34.9597596,182.12239 24.0219141,171.404906 C17.6734533,165.18173 13.9147436,156.335314 14.2342339,147.45522 C14.5612416,138.324403 19.5565669,130.035566 25.8073013,123.643994 C33.9073208,115.358899 44.2963946,109.981447 55.5988349,107.762358 C64.8978829,105.936195 74.4374883,105.258868 83.894402,104.922075 C95.3509494,104.514182 106.837566,104.791101 118.264044,105.707925 C129.340962,106.594811 140.421638,108.110377 151.209135,110.830912 C159.542195,112.930252 168.202262,115.736855 175.129564,120.972107 C180.072268,124.710503 183.323552,130.181509 181.962899,136.479528 C181.135982,140.307736 178.997277,143.799151 176.610496,146.86022 C173.637356,150.673459 170.126722,154.105 166.217663,156.952767 C157.760566,163.112327 147.75864,167.026604 137.722885,169.792044 C126.127265,172.98783 114.084359,174.559528 102.060246,174.761604 C80.1958316,175.132075 54.9222671,171.13173 38.4027377,155.605597 C30.8063853,148.46934 26.2094832,138.934371 25.202149,128.594843 C24.2361606,118.644497 25.6757464,107.672547 32.415113,99.8589623 C38.5643622,92.7301887 47.8070296,89.2687107 56.8655201,87.6296541 C68.1867539,85.5789623 80.0078961,86.248805 91.3253713,87.9701887 C103.939601,89.8936478 116.328309,93.3438994 128.232142,97.9018239 C139.515789,102.220252 150.472428,107.661321 160.410457,114.546855 C168.187227,119.931792 175.832443,126.529182 180.372964,134.952736 C183.744527,141.209591 185.210424,148.836069 184.627824,155.886258 C184.02643,163.217107 180.440621,169.851918 175.212256,174.941226 C163.282111,186.560566 145.39817,189.161352 129.449964,189.617893 C111.145048,190.13805 92.584539,186.627925 76.1364251,178.496258 C60.4813989,170.757516 47.6341289,158.734025 38.8876113,143.686887 C31.6145079,131.176918 24.8826587,117.383396 22.7815399,102.949969 C21.8568973,96.5883333 22.1500767,89.5531132 26.0441,84.164434 C29.618633,79.2210692 35.9595764,76.9570755 41.8381984,76.5753774 C48.7542244,76.1225786 55.7003201,77.8551887 62.1953706,80.0480818 C69.6413746,82.5665409 76.7528535,86.0242767 83.6388098,89.7888679 C95.0013894,96.0008176 105.946752,103.208176 116.245617,111.051698 C128.416319,120.317233 139.914212,130.69044 149.780826,142.377138 C159.52716,153.917893 169.036696,168.351321 168.957763,183.993459 C168.923934,191.227013 166.375529,198.554119 161.395239,203.882925 C156.685575,208.923585 150.010107,211.303585 143.244429,211.846195 C128.213349,213.051164 112.704912,206.824245 99.8651599,199.609403 C95.0427352,196.896352 90.2992435,193.86522 86.1345931,190.209151 C82.9171375,187.380094 80.0003787,184.217987 77.237727,180.954843 C70.3179424,172.774528 64.3979745,163.741006 59.0906763,154.460503 C53.2609174,144.266918 48.2129702,133.601824 44.2475314,122.558774 C40.6767571,112.619654 37.8727596,102.186572 37.3277467,91.6075472 C36.9105299,83.4721384 37.9441751,74.7492138 42.9808462,68.047044 C48.3482838,60.9033019 57.5721575,58.6280818 66.1044287,58.4634277 C82.8081349,58.1416038 99.2637663,63.9531447 113.197303,72.8182704 C140.789992,90.3726415 158.519826,118.479843 172.761577,147.088491 C178.910826,159.441289 184.954832,172.767044 186.728943,186.571792 C187.401752,191.788333 187.43558,197.554969 184.875899,202.311226 C182.992785,205.810126 179.448322,208.238774 175.670818,209.338962 C168.702171,211.367201 161.613244,207.920692 156.039077,203.98022 C147.743605,198.123774 140.981686,190.048239 134.922646,182.006384 C119.545764,161.600503 107.52541,138.578868 96.8920204,115.441226 C92.1372526,105.094214 87.6982163,94.5900314 83.7478124,83.9137107 C81.1467852,76.8784906 78.5232058,69.6823585 77.0685851,62.3066038 C76.0424573,57.1125157 75.8282109,51.1625157 77.0648264,45.7700943 C78.5344819,39.3635535 82.5111969,34.158239 88.130468,30.7790881 C94.8547997,26.7300943 103.150272,25.3642138 110.885697,25.0311635 C119.760011,24.6457233 128.679429,26.2249057 136.858381,29.6788994 C152.85545,36.429717 164.94722,49.8565094 173.269003,64.7240252 C176.441354,70.3858805 179.252869,76.3022013 180.820251,82.6151887 C182.015521,87.4200943 182.613155,92.3522327 182.906335,97.2881132 C184.342162,121.690597 178.737926,146.938805 169.514052,169.447767 C164.864528,180.793931 158.922008,191.810786 151.212894,201.401887 C144.575013,209.653302 136.324645,217.07022 126.364064,221.055597 C116.452346,225.018522 105.736265,224.771541 95.7418552,221.227736 C81.680522,216.243208 70.5021191,205.911164 62.8193164,193.356289 C54.2757691,179.398113 49.795387,163.205881 47.295845,147.167075 C44.9203405,131.929088 44.6722656,116.545157 45.5367689,101.176195 C46.273476,88.0936792 48.8181225,75.0261321 52.2611006,62.4001572 C56.1889523,48.0153774 61.6052531,33.6006604 70.257803,21.3264465 C76.8468212,11.9748428 86.3789092,3.56625786 98.2677082,2.51845912 C106.224897,1.81493711 113.543105,5.15292453 119.372864,10.3619811 C126.593345,16.8209119 131.64881,25.476478 135.757079,34.1245597 C140.872683,44.8906918 144.526149,56.3304088 147.514324,67.8374843 C153.791369,92.0004717 157.155414,117.084025 157.948502,142.021635 C158.587483,162.150597 158.85811,186.586761 143.763131,202.127862 C138.835463,207.205943 132.291549,210.386761 125.262762,211.236226 C117.354436,212.18673 109.382213,210.285723 102.086557,207.333176 C86.446566,201.00522 75.0388818,188.461572 67.03283,173.964528 C58.8914647,159.216761 54.1254207,142.672767 51.3702864,126.136258 C48.7805354,110.598899 47.4800218,94.0698742 51.5995677,78.6934277 C53.4977161,71.6058176 56.7414827,64.8026101 61.7668776,59.3802516 C66.9351036,53.8007233 73.8248186,50.4103459 81.2520291,48.9583962 C98.711236,45.545566 116.76056,52.034434 129.743144,63.6313208 C142.710693,75.2094969 151.25424,91.2071384 156.820889,107.440535 C161.850043,122.105975 165.093809,137.355189 165.368195,152.888805 C165.635063,168.201635 162.887447,184.78305 152.784035,196.89261 C147.273766,203.493742 139.666138,208.257484 131.318043,210.364308 C122.387349,212.620818 112.968022,211.385912 104.368094,208.418396 C85.9316227,202.056761 72.0958121,187.933931 61.7631189,171.940031 C50.6523728,154.733679 43.3266475,135.147327 40.2783339,114.932296 C38.7635738,104.880912 38.4553596,94.6424214 39.2935519,84.516195 C40.0039481,75.9317296 41.4773623,67.1713836 44.3076708,59.0097799 C46.4200656,52.9213208 49.7540412,46.6719497 55.5950762,43.435 C62.4133757,39.6591824 70.7840224,41.9418868 77.43318,44.894434 C84.9318059,48.2286792 90.9231893,55.3836478 95.926032,61.610566 C103.372036,70.8761006 109.615253,81.1220755 115.208213,91.5813522 C121.485258,103.316698 126.867731,115.546006 131.235352,128.112107 C135.332345,139.888616 138.598664,152.095472 139.959317,164.504403 C141.034308,174.316289 141.026791,184.779308 137.324461,194.086006 C134.118282,202.14283 127.578127,207.75978 119.1511,209.844151 C106.258725,213.032453 92.3890861,211.782579 80.1544858,206.753145 C68.160443,201.824748 57.9893743,193.16544 49.9494941,183.147736 C33.1104744,162.158082 24.6345838,133.826352 26.6154239,107.103742 C27.55886,94.3467925 31.2348782,81.6946226 38.2411132,70.9060377 C44.7662334,60.8546541 54.5200852,53.5874214 65.8563539,49.7217925 C89.8030938,41.5564465 117.4033,47.6898113 139.094814,59.3428302 C160.184934,70.670283 180.042198,90.2678616 182.39515,115.160566 C183.440072,126.196132 180.594728,136.51695 175.099495,146.03695 C168.79238,156.956509 160.072173,166.450314 150.761849,174.900063 C140.214909,184.468711 128.461424,192.753805 115.959955,199.594434 C104.011017,206.13195 91.1637467,211.363459 77.7338767,213.93805 C66.2735706,216.138428 54.0540052,216.157138 43.1274359,211.670314 C32.2309363,207.194717 23.0634431,197.618585 20.5300728,186.021698 C17.4554482,171.951258 23.0070625,156.87044 29.1112072,144.379182 C36.0272331,130.233899 45.1872088,117.140157 55.2304813,105.03434 C64.559599,93.792956 74.7870483,83.5469811 87.2133428,75.6884906 C102.556396,65.9851258 120.966557,59.1295283 139.376717,60.5066352 C154.757357,61.6554717 169.690711,70.3783962 177.756902,83.5844025 C183.101788,92.3260377 183.35738,102.426069 179.673844,111.830063 C175.52047,122.435283 167.341518,131.281698 158.910732,138.721069 C149.014049,147.45522 137.767989,154.670063 126.093437,160.803428 C115.095452,166.581289 103.50735,171.427358 91.4982719,174.690503 C81.8797336,177.306258 71.9868095,178.713302 62.1051615,176.744937 C53.0617058,174.944969 45.2435895,169.795786 41.7630242,161.069119 C38.139628,151.98695 39.1319274,141.565094 41.1804242,132.243428 C43.7776927,120.410786 48.5625302,109.079591 54.2193884,98.3957862 C60.0378711,87.4088679 66.9802081,76.9458491 75.0050534,67.4295912 C81.4963452,59.7320126 88.8746925,52.2103145 97.700143,47.1771384 C102.146697,44.6437107 107.093159,43.2890566 112.077208,42.245 C117.760377,41.0512579 123.706656,40.5909748 129.476275,41.432956 C139.015881,42.8250314 147.089589,48.1313836 152.543477,55.9823899 C158.482239,64.5331761 161.252408,74.97 162.688235,85.1448742 C164.342067,96.8802201 164.067681,108.899969 162.782203,120.654025 C161.530552,132.104969 159.166324,143.488553 155.603067,154.449277 C147.593257,179.087516 129.788248,203.707044 103.029993,209.421289 C91.043468,211.980912 78.4781013,209.836667 67.7996068,203.935314 C56.0386039,197.438962 47.2432231,186.710252 41.6352281,174.675535 C34.5763712,159.527358 33.3021686,142.654057 33.3660666,126.177421 C33.426206,109.491226 35.7716409,92.2549371 43.864143,77.4061321 C60.143115,47.5438679 104.131295,32.4480818 134.050625,51.0427673 C145.394411,58.092956 152.148813,69.6636478 156.279635,82.0089623 C160.357835,94.2045912 161.951528,107.156132 162.139463,119.965472 C162.537887,147.19327 156.565297,175.663459 142.95125,199.448491 C136.895969,210.023774 128.976367,219.813208 118.805298,226.713711 C114.050531,229.939434 108.825924,232.427956 103.296862,234.025849 C95.4524346,236.293585 87.8410473,235.885692 80.3386626,232.577642 C71.9717747,228.891635 64.909159,222.589874 59.1395395,215.625755 C53.4338181,208.74022 48.9008141,200.694623 46.5365857,192.061509 C41.4923971,173.627736 45.9577443,154.007704 52.8624942,136.674119 C60.0115602,118.726824 70.3705643,102.115472 81.4700342,86.3535849 C90.63001,73.3459119 100.007991,60.3794025 111.039804,48.8611006 C121.808507,37.6159748 136.065294,25.1471698 152.56603,24.8290881 C159.933101,24.6868868 167.01451,27.3101258 172.265427,32.4667925 C177.418619,37.5299057 180.395517,44.4378931 182.237284,51.2972327 C186.680079,67.8524528 184.109122,85.2421698 180.466932,101.685126 C175.922652,122.18456 168.239849,141.94305 158.283027,160.42173 C148.021749,179.457987 135.204549,197.132107 120.293747,212.826635 C119.248826,213.926824 120.913935,215.592075 121.962615,214.488145" id="Fill-182"></path>
                        <path d="M104.657515,24.0095597 C101.609201,19.9306289 97.7941108,15.9040881 92.6860242,14.5681447 C88.6905157,13.5278302 84.6423853,14.7627358 81.3121684,17.0155031 C77.2038987,19.7921698 74.0540999,23.8449057 71.3403114,27.9238365 C68.0326468,32.9008805 65.3639629,38.297044 62.9659061,43.7568239 C58.5945266,53.6959434 55.0876504,64.0654088 52.3776206,74.5695912 C50.3591935,82.3944025 50.0021161,90.3838679 50.1148774,98.4369497 C50.287778,110.209717 51.5281522,121.982484 53.4826813,133.590597 C55.5800414,146.044434 58.6058027,158.423428 63.1726351,170.22239 C69.8856907,187.563459 82.7254433,209.350189 104.571064,206.124465 C115.911092,204.45173 126.183646,196.89261 132.411828,187.522296 C139.230127,177.261352 141.590597,164.609182 142.082988,152.507107 C142.643036,138.642484 140.665954,124.695535 137.662745,111.182673 C134.779815,98.2124214 130.780548,85.4666981 125.882949,73.1101572 C121.763403,62.718239 116.771836,52.6930503 111.25405,42.9672327 C107.672,36.6505031 103.642663,30.3225472 98.309054,25.3118239 C93.9752616,21.2366352 88.2732989,18.2653774 82.2217762,19.9643082 C76.7115077,21.5135535 73.3587386,26.1725157 71.0959953,31.1083962 C68.3183088,37.1669182 66.8448945,43.7942453 65.6947293,50.3242767 C63.2628441,64.1439937 62.5787589,78.2219182 62.0525396,92.2175157 C61.4699396,107.724937 61.8984325,123.052736 66.6945461,137.972642 C71.9041179,154.187327 82.1428433,168.15673 96.4785624,177.515818 C108.863511,185.602579 127.134599,192.600377 141.192174,184.610912 C148.672006,180.359843 153.00204,172.430252 155.738381,164.594214 C158.861868,155.646761 159.801546,146.014497 159.508366,136.595535 C158.463445,102.908805 141.898811,72.2831447 122.391108,45.6466038 C117.805482,39.378522 112.881572,33.3012893 107.284853,27.8938994 C102.751849,23.5118553 97.5272424,19.3244025 91.4306151,17.3672642 C85.6008563,15.496195 79.4290548,16.9818239 74.6968392,20.7089937 C69.4308869,24.855283 66.4276778,31.4414465 64.2401087,37.5860377 C61.9059499,44.1497484 60.5302621,51.0090881 59.210955,57.8272642 C57.3767046,67.3098428 56.6512736,76.8148742 57.1962866,86.4621069 C58.3727627,107.182327 64.7324996,127.535818 74.1067218,145.988302 C81.6504523,160.837107 91.6147919,175.596101 107.085641,183.091604 C118.312907,188.528931 131.156419,188.775912 142.590414,183.832547 C154.19731,178.81434 163.10921,168.759214 168.153399,157.364403 C174.261302,143.555912 174.622138,127.951195 170.919809,113.457893 C168.108294,102.452264 162.376262,92.6740566 155.907523,83.4197484 C148.104441,72.2569497 139.094814,61.88 129.231959,52.4797484 C119.406692,43.1206604 108.476364,34.51 96.2267288,28.5113522 C86.1458692,23.5792138 74.5502496,20.3983962 63.3643293,23.0665409 C50.8515845,26.0527673 41.8795442,36.377327 37.3014357,47.9031132 C31.107082,63.4966038 31.2875001,81.5823585 34.0163234,97.8868553 C35.2792499,105.423522 37.2901596,112.874119 40.3647842,119.886887 C44.0859069,128.377799 49.5473122,136.20261 55.5274194,143.252799 C68.0025771,157.959403 84.1875814,169.481447 101.586649,177.721635 C123.838211,188.259497 156.884787,197.951635 177.163026,178.204371 C192.509838,163.262013 192.370766,138.556415 186.552283,119.467767 C183.098029,108.144057 177.302099,97.5388365 169.626813,88.5090566 C159.128737,76.16 144.492321,67.3135849 129.495069,61.4795912 C110.242958,53.9915723 89.205459,52.6780818 68.9685656,56.4052516 C60.0679408,58.0443082 51.2424903,60.6301258 43.0447443,64.4807862 C36.5647286,67.5231447 29.9869865,71.7891824 26.4462819,78.188239 C20.2444108,89.4071698 28.3970523,101.95456 36.9894628,109.277925 C45.6344953,116.649937 55.843151,122.266887 66.0292545,127.206509 C78.5044122,133.257547 91.5696874,138.208396 104.954453,141.853239 C117.331884,145.221164 130.333261,147.608648 143.21436,147.021132 C153.00204,146.57956 163.552738,144.102264 170.408625,136.636698 C175.238567,131.375252 177.858388,124.246478 173.851603,117.783805 C169.626813,110.965629 161.297512,106.983994 154.16724,103.986541 C143.541367,99.5184277 132.272755,96.6182704 121.004144,94.2831761 C108.72068,91.7422642 96.2643159,89.9834591 83.7741233,88.8570755 C73.249736,87.9103145 62.6125873,87.3602201 52.0543716,87.9402516 C48.4159405,88.1385849 44.7511985,88.4791195 41.1917004,89.2687107 C37.4968887,90.0919811 34.0576692,91.8956918 30.8251788,93.8041824 C25.6719877,96.8465409 19.6993979,101.834811 21.2667799,108.51827 C22.7514702,114.846226 29.6787723,119.202075 34.8845854,122.244434 C43.540894,127.303805 53.0692232,130.926195 62.5186196,134.20805 C82.0413581,140.992547 102.191801,146.051918 122.376073,150.456415 C128.183279,151.725 133.994245,152.840157 139.839038,153.902925 C152.528442,156.20434 165.29678,158.472075 178.2305,158.63673 C189.64946,158.782673 203.688241,157.424277 211.49884,148.016541 C220.410741,137.284088 217.042937,121.477296 209.679624,110.980597 C201.102249,98.7550314 187.615998,90.1294025 174.336477,83.7340881 C158.294303,76.0103145 140.677231,72.5376101 122.87974,72.616195 C101.939968,72.7060063 81.2257181,78.2368868 62.8305925,88.1273585 C47.2845689,96.4835535 32.1068988,108.084182 22.0335567,122.689748 C17.3351695,129.492956 14.0011939,137.373899 13.7080145,145.700157 C13.4148352,153.962799 16.6999475,161.899874 21.770447,168.313899 C31.1446691,180.168994 46.7245211,183.600535 61.1504492,183.735252 C68.8821152,183.806352 76.6025051,182.956887 84.2402033,181.823019 C90.3518654,180.913679 96.3996294,179.487925 102.518809,178.672138 C113.546863,177.20522 124.856821,177.411038 135.956291,176.969465 C149.716928,176.423113 163.579049,175.693396 177.147991,173.204874 C182.782297,172.168302 188.386534,170.768742 193.656245,168.501006 C197.610407,166.798333 201.451809,164.407107 203.92504,160.814654 C210.499023,151.253491 201.673573,139.77261 195.261214,132.860881 C185.762954,122.614906 174.148541,114.356006 162.737098,106.377767 C157.504974,102.714214 152.41944,98.8672956 147.202351,95.1887736 C138.861774,89.3061321 130.028806,84.0708805 120.662101,79.9694969 C102.146697,71.860283 81.8759749,69.2931761 62.1653009,74.3712579 C45.8374656,78.5774214 29.1300007,87.6857862 18.7146159,101.138774 C13.9974352,107.230975 11.0393306,114.644151 11.2761293,122.401604 C11.5204454,130.334937 15.3505707,137.624623 19.9813011,143.888962 C30.2313027,157.768553 44.6722656,168.897673 59.2071963,178.006038 C71.798874,185.898208 85.4204382,192.525535 100.53421,193.023239 C114.892482,193.502233 129.156785,189.187547 141.81612,182.683711 C155.230955,175.794434 167.270102,165.997516 176.749568,154.303333 C185.71785,143.230346 192.502321,130.046792 194.494437,115.852862 C196.569245,101.093868 192.750396,86.2862264 184.116639,74.1392453 C174.073367,60.012673 158.068781,51.2710377 140.955375,49.1380189 C132.731318,48.112673 124.135149,48.7114151 116.140373,50.8930818 C111.95317,52.0381761 107.87497,53.6697484 103.860668,55.2975786 C91.626068,60.2633962 79.5192639,66.1123585 68.6415578,73.6190881 C63.9431706,76.8597799 59.3838556,80.5008805 55.9032904,85.0550629 C53.3849549,88.3481447 51.62212,92.4981761 52.7083871,96.6669182 C54.471222,103.447673 61.2481757,105.981101 67.5966365,106.594811 C76.8768909,107.496667 86.5217402,105.296289 95.3810191,102.766604 C106.202345,99.6793396 116.715456,95.3908491 126.739935,90.3090252 C135.55035,85.8371698 144.266798,80.6655346 151.637628,74.0419497 C155.862418,70.2399371 161.398997,64.5182075 160.248832,58.2763208 C159.745165,55.5632704 157.63277,53.5050943 155.370027,52.1092767 C151.024959,49.4299057 145.330513,49.1642138 140.372775,49.3887421 C125.657426,50.0548428 111.047321,55.5595283 97.609934,61.1727358 C85.5407169,66.2133962 73.5166044,71.9388679 62.4810325,78.9890566 C48.5662889,87.8803774 36.0911312,101.550409 30.7800743,117.327264 C28.1489775,125.133365 27.8745916,133.676667 30.9792859,141.38173 C33.8396641,148.476824 39.2071016,154.583994 46.2809934,157.675 C53.0654645,160.638774 60.7294737,160.863302 67.991301,160.084937 C76.072527,159.216761 83.973335,157.02761 91.6561377,154.434308 C102.484981,150.778239 113.084542,146.298899 123.458581,141.512704 C135.422554,135.99305 147.172281,129.97195 158.56493,123.355849 C170.634147,116.343082 182.598121,108.62305 192.799259,99.0469182 C199.591247,92.6703145 207.664956,83.6367925 206.695209,73.5928931 C206.059987,67.0254403 201.82768,62.1980818 195.746087,59.8966667 C188.243703,57.0563836 179.534772,57.797327 171.780554,58.9798428 C160.857743,60.6488365 150.201801,64.0354717 139.92173,68.0058805 C116.501209,77.0581132 93.9978139,89.6803459 74.5652844,105.573208 C66.2096726,112.410094 58.3126234,120.059025 52.178409,128.969057 C47.4198824,135.880786 43.7175533,143.960063 44.0144914,152.499623 C44.3790862,163.056195 46.9124566,174.353711 54.7456078,181.991415 C61.3308673,188.40544 70.6186391,190.646981 79.5944381,190.646981 C90.6976667,190.650723 101.740756,187.578428 112.047138,183.686604 C123.796865,179.25217 135.009096,173.403208 145.646245,166.75717 C155.610584,160.530252 165.157707,153.517484 173.814016,145.576667 C181.587028,138.444151 187.943006,130.63805 192.615082,121.159214 C198.790642,108.634277 202.737288,91.6599371 190.762038,81.1744654 C178.805582,70.7077044 160.974263,72.7883333 147.05952,77.4697484 C130.664028,82.9894025 115.74195,92.6516038 102.056488,103.028553 C91.2727493,111.201384 81.2820988,120.24239 71.6034211,129.672579 C61.1654841,139.847453 50.9154825,150.628553 43.2289211,163.067421 C37.0157738,173.118805 31.6220253,186.624182 38.6959171,197.626069 C46.5779315,209.889057 63.2440506,211.191321 76.4145696,210.162233 C92.0921481,208.938553 107.495341,204.41805 122.221966,199.11544 C135.524039,194.329245 148.017991,188.35305 159.523401,180.094151 C171.09271,171.786604 181.481784,161.738962 189.739669,150.142075 C197.031566,139.903585 202.632044,128.104623 204.026525,115.527296 C205.345832,103.653491 201.932924,92.0416352 194.547059,82.6563522 C184.913486,70.4120755 169.480223,62.448805 154.685942,58.3511635 C137.606365,53.6211006 119.158617,54.0439623 102.142938,58.8189308 C85.371575,63.530283 69.2203991,73.0091195 58.1923446,86.6043082 C47.9160321,99.2751887 41.1766655,114.995912 36.5233828,130.488365 C31.8249956,146.130503 28.893202,163.482799 32.2159014,179.686258 C33.6968331,186.901101 36.9293235,193.786635 42.0674797,199.134151 C46.7696257,204.028868 53.0617058,207.052516 59.677035,208.373491 C73.9300624,211.225 89.1227673,206.884119 101.966279,200.844308 C117.673927,193.457327 130.972242,181.624686 140.256255,167.026604 C149.822171,151.98695 154.689701,134.455031 156.505157,116.866981 C157.271934,109.450063 157.550079,101.943333 157.903397,94.496478 C158.267992,86.761478 158.395788,79.0040252 157.944743,71.2690252 C157.136621,57.5054403 154.607009,41.3394025 143.774407,31.5986164 C137.94089,26.3558805 129.927321,23.7887736 122.131757,24.2752516 C113.682177,24.7991509 105.800163,28.8069811 99.0532785,33.6642767 C84.413104,44.2058805 74.0691347,59.3353459 65.6045203,74.97 C55.9220839,92.8499371 48.4347341,112.151887 44.5782979,132.127421 C40.9473842,150.965346 40.8571752,170.776226 47.5476786,188.963019 C52.2009613,201.611447 61.5451138,214.630346 76.6588857,213.256981 C89.2919093,212.111887 100.023026,202.756541 108.86727,194.404088 C118.147524,185.643742 126.52193,175.936635 134.2987,165.844088 C143.075287,154.449277 151.028717,142.380881 157.768084,129.680063 C164.07144,117.798774 169.408808,105.184025 172.182736,91.9929874 C174.498101,80.9911006 174.93787,69.1472327 170.818324,58.5045912 C166.631121,47.6898113 157.801912,39.7003459 147.315112,35.0002201 C137.162837,30.4497799 125.894225,29.6863836 115.27587,33.0617925 C104.360577,36.5344969 94.9901133,43.7979874 87.2584473,52.0456604 C78.339029,61.554434 71.2914482,72.7696226 65.6458661,84.463805 C59.8048311,96.5696226 55.4447278,109.423868 52.8061135,122.592453 C50.4343677,134.421352 49.445827,146.673113 51.0959006,158.662925 C52.7008697,170.353365 57.7375408,180.56566 65.6157964,189.378396 C72.8362779,197.457673 82.6540278,202.939906 93.7196694,202.576918 C104.548512,202.225157 114.60682,196.746667 123.007536,190.313931 C133.302642,182.425503 141.940157,172.516321 149.525233,162.06827 C157.380937,151.246006 164.116545,139.566792 169.574191,127.371164 C173.990675,117.506887 177.809524,107.066321 179.117555,96.2889623 C179.944471,89.4558176 179.403217,82.3233019 178.245535,75.565 C177.012678,68.3763522 174.659726,61.2101572 170.62663,55.0805346 C166.815298,49.2839623 161.293754,44.8495283 154.565663,42.9298113 C148.093165,41.0849371 141.210967,41.7734906 135.103064,44.4827987 C122.199413,50.2045283 113.937769,63.9119811 108.081699,76.0589623 C102.270734,88.1011635 98.3240889,100.801981 95.0352178,113.716101 C90.97957,129.642642 87.4990047,145.887264 86.6871234,162.341447 C85.9917621,176.520409 87.0629944,194.202013 98.7525818,204.122421 C103.871944,208.470786 110.145231,209.200503 115.835918,205.521981 C122.030271,201.517893 126.255061,194.613648 129.972425,188.450346 C151.242964,153.150755 168.642031,112.211761 162.47023,70.2174843 C161.346376,62.557327 159.831616,53.7595597 154.888912,47.5101887 C152.795311,44.8644969 150.081522,43.0869811 146.698684,42.6566352 C142.39872,42.110283 138.068686,44.3855031 134.636984,46.6944025 C133.385334,47.5363836 134.565568,49.5721069 135.828495,48.7226415 C138.861774,46.6831761 142.278441,44.8495283 146.040909,44.9580503 C148.792285,45.0366352 151.070063,46.6420126 152.79907,48.6515409 C156.990031,53.5200629 158.422099,60.772327 159.545954,66.8907233 C163.327216,87.4612579 160.966746,108.57066 155.084365,128.516258 C149.138086,148.678899 139.530824,167.460692 128.946297,185.557673 C125.18007,191.997893 120.977833,199.216478 114.644407,203.49 C112.126071,205.192673 109.175484,206.094528 106.145964,205.462107 C102.34215,204.665031 98.9367585,201.607704 96.6552217,198.613994 C92.3402229,192.955881 90.4270396,185.767233 89.5362254,178.821824 C88.4950628,170.663962 88.8446228,162.348931 89.6677803,154.187327 C91.2727493,138.309434 95.0728049,122.719686 99.1359702,107.317044 C102.609018,94.1484591 107.517893,81.0921384 114.317399,69.2594969 C120.925211,57.7524214 131.028623,45.137673 145.413205,44.273239 C152.68255,43.8354088 159.692543,46.5409748 164.8307,51.6377673 C170.04403,56.8094025 173.005893,63.8970126 174.828867,70.8798428 C178.004977,83.0492767 177.745626,95.6378302 174.35527,107.687516 C171.021294,119.538868 165.777894,130.862579 159.786511,141.595031 C153.174941,153.435157 145.375618,164.702736 136.24947,174.765346 C122.567767,189.849906 100.143304,207.853333 78.7600045,196.877642 C73.3963257,194.123428 68.9610481,189.906038 65.1985797,185.265786 C61.3947654,180.573145 58.1284466,175.330409 56.1062607,169.62739 C52.3362748,158.995975 52.1069935,147.301792 53.1519148,136.187642 C54.3885304,123.037767 57.7826453,110.071258 62.4772738,97.7409119 C67.2433178,85.2272013 73.5880199,73.2186792 81.6091065,62.4675157 C94.9262152,44.6137736 115.85847,28.4327673 139.448132,34.6709119 C150.649088,37.6346855 161.079507,44.8794654 166.66495,55.1067296 C172.073733,65.0084277 172.366913,76.8410692 170.589043,87.7306918 C168.435302,100.925472 163.327216,113.570157 157.305763,125.451447 C150.799436,138.290723 142.936215,150.445189 134.306217,161.963491 C126.514412,172.362893 118.000934,182.290786 108.660541,191.346761 C99.9365753,199.803994 89.2505635,209.556006 76.6588857,210.906918 C60.5077099,212.64327 52.0430955,196.226509 48.1152438,183.215094 C42.3418655,164.085283 44.0107327,143.514748 48.6978438,124.347516 C53.5428207,104.536635 61.8570867,85.545283 72.2574366,68.0171069 C81.188131,52.9624843 93.2084849,38.0388365 109.307039,30.2252516 C117.095085,26.4456918 125.871673,25.315566 134.080695,28.4215409 C141.004238,31.0410377 146.01084,36.429717 149.277158,42.9148428 C152.656239,49.6244969 154.163481,57.2434906 155.016708,64.6454403 C155.918799,72.4665094 155.990214,80.3736478 155.779726,88.2321384 C155.347475,104.33456 154.693459,120.766289 150.690433,136.430881 C146.247638,153.816855 137.606365,169.990377 124.593711,182.50783 C112.889089,193.771667 97.8241805,201.787327 81.939873,205.331132 C68.1754778,208.399686 52.4603122,207.39305 42.5749056,196.211541 C31.9152046,184.154371 32.182073,165.799182 34.3546073,150.864308 C36.8767015,133.56066 42.7929107,116.440377 51.3139058,101.161226 C55.0989265,94.3729874 59.5454802,88.0263208 65.0933358,82.5515723 C71.5883863,76.1375472 79.2185671,70.9546855 87.405037,66.9318868 C103.668974,58.9424214 122.338486,56.0085849 140.316394,57.9769497 C167.833909,60.9893711 201.59464,78.7794969 201.947958,109.966478 C202.090789,122.461478 197.042842,134.514906 190.431272,144.906824 C182.77478,156.941541 172.494709,167.340943 161.165957,175.970314 C149.73948,184.670786 137.185389,191.088553 123.740484,196.065597 C109.141656,201.472987 93.9076049,206.045881 78.3615813,207.636289 C65.115888,208.990943 47.4499521,208.287421 40.0039481,195.238585 C33.4111711,183.686604 41.5750888,169.384151 48.164107,159.822987 C56.3242659,147.982862 66.6231307,137.677013 76.9783761,127.756604 C87.3373802,117.832453 98.1812579,108.495818 109.893398,100.177044 C123.819417,90.2828302 139.267714,81.1445283 156.114252,77.3574843 C170.0741,74.2215723 190.096747,76.051478 195.234903,92.0229245 C197.508922,99.0880818 195.783674,106.864245 193.310443,113.630031 C191.0477,119.819528 187.841521,125.900503 183.921186,131.221824 C178.023771,139.23 170.265794,145.973333 162.481506,152.106698 C152.742689,159.778082 142.225819,166.521415 131.272939,172.347925 C120.496718,178.077138 109.130379,182.934434 97.2566153,185.894465 C87.6455944,188.293176 77.121207,189.550535 67.4650816,186.67283 C58.4329021,183.978491 52.1069935,177.115409 49.0624386,168.355063 C45.8600179,159.130692 45.0969998,148.64522 48.9609535,139.540597 C52.7910787,130.51456 59.4364776,122.805755 66.3863319,116.010031 C84.1274421,98.6539937 106.277519,85.4180503 128.810984,75.2057547 C139.568411,70.3297484 150.724262,66.1684906 162.20712,63.3169811 C170.85967,61.1689937 180.200064,59.4925157 189.130758,60.7049686 C195.035691,61.5095283 201.207493,64.016761 203.45896,69.9592767 C206.819246,78.8244025 200.519649,87.5697799 194.738753,93.7742453 C185.398359,103.799434 173.592252,111.564371 161.928976,118.625786 C150.276975,125.679717 138.166412,131.98522 125.852879,137.807987 C115.94492,142.496887 105.845267,146.800346 95.550161,150.576164 C87.8899105,153.382767 80.0379658,155.796447 71.9792921,157.173553 C64.4581138,158.457107 56.478373,158.734025 49.1639238,156.282925 C41.4472926,153.700849 35.7415712,147.268113 32.8811931,139.802547 C29.7840162,131.719528 30.9943208,122.921761 34.1178086,115.052044 C40.0941571,99.9974214 52.8061135,87.5061635 66.5254042,79.2547484 C78.5307232,72.0324214 91.393028,66.0075786 104.447027,60.933239 C111.682543,58.1191509 119.072167,55.6493396 126.630932,53.8531132 C132.93053,52.3562579 139.493237,51.2860063 145.988287,51.8173899 C151.7767,52.2888994 159.73013,55.3537107 157.681634,62.1793711 C156.813372,65.0832704 154.71977,67.5905031 152.671273,69.7534591 C149.731962,72.8631761 146.337847,75.538805 142.849765,78.0086164 C134.058143,84.2280503 124.353154,89.2163208 114.463989,93.4524214 C104.450786,97.7409119 93.9715029,101.262264 83.2366278,103.226887 C76.0011115,104.551604 66.9087926,105.782767 60.0754582,102.253931 C57.5120182,100.932956 55.779253,98.8036792 54.9824065,96.0419811 C53.7984129,91.9368553 56.5234775,87.8130189 59.0869176,84.8492453 C63.0335628,80.2875786 68.0890275,76.6951258 73.1369747,73.4469497 C78.9329052,69.7160377 85.0370498,66.4678616 91.2389209,63.4629245 C100.849942,58.8077044 111.043563,54.0664151 121.620572,52.0718553 C139.16247,48.763805 157.959778,53.2319182 171.836935,64.4695597 C184.31961,74.5808176 192.179072,90.0021698 192.701532,106.026006 C193.667521,135.847107 171.205471,162.363899 146.946758,177.111667 C134.471601,184.696981 120.184745,189.928491 105.503225,190.635755 C98.6548553,190.965063 91.7876926,190.182956 85.2400201,188.150975 C77.7789813,185.838333 70.7351591,182.12239 64.0296209,178.181918 C48.8970554,169.290597 34.2080176,158.052956 23.2288264,144.281887 C18.2147075,137.991352 14.0312636,130.581918 13.636599,122.401604 C13.2494519,114.299874 16.9856094,106.748239 22.0974547,100.667264 C27.6189994,94.1072956 34.7793415,89.006761 42.2554152,84.8791824 C50.6223032,80.2576415 59.6958286,76.9832704 69.1038791,75.2431761 C89.5587777,71.4561321 110.077574,76.6801572 128.198314,86.2076415 C137.249287,90.9676415 145.522207,96.8315723 153.723712,102.890094 C157.877086,105.958648 162.180809,108.821384 166.383047,111.815094 C177.805766,119.96173 189.826119,128.72956 198.268182,140.079465 C201.372876,144.255692 204.30467,149.356226 203.759657,154.741164 C203.338681,158.846289 200.324196,161.982201 196.997738,164.107736 C192.581254,166.929308 187.394234,168.478553 182.342528,169.705975 C175.960239,171.258962 169.423843,172.160818 162.898723,172.849371 C149.254606,174.290094 135.524039,174.638113 121.819784,175.128333 C116.504968,175.31544 111.178876,175.498805 105.875337,175.96283 C100.763491,176.408145 95.7568901,177.523302 90.7127016,178.402704 C75.7342431,181.014717 59.8048311,183.147736 44.8075792,179.566509 C37.6697893,177.863836 31.0055969,174.548302 25.81106,169.328019 C19.8685398,163.351824 16.1586933,155.115377 16.0572081,146.68434 C15.9519643,138.058711 19.8121592,129.934528 24.6759296,123.004088 C29.8930188,115.568459 36.6586964,109.225535 43.7438643,103.574906 C59.4853408,91.0200314 77.9142948,82.0239308 97.636245,77.7316981 C107.976456,75.4789308 118.594811,74.6481761 129.164303,75.078522 C139.590963,75.5051258 150.427324,77.106761 160.331524,80.4746855 C173.829051,85.0662893 187.010846,92.1875786 197.783308,101.520472 C208.73243,111.00305 217.700711,124.804057 213.27671,139.757642 C209.649555,152.013145 196.061819,155.448428 184.736826,156.144465 C171.419718,156.960252 158.023676,154.793553 144.96216,152.450975 C138.587388,151.305881 132.227651,150.164528 125.897984,148.813616 C106.254966,144.622421 86.6946408,139.746415 67.61543,133.455881 C57.7901627,130.215189 47.9724128,126.607767 38.8237132,121.742987 C33.4337234,118.876509 25.9689258,114.864937 23.7888741,108.724088 C21.6200986,102.613176 28.2767736,97.9429874 32.9939544,95.2673585 C36.2264448,93.4337107 39.24093,92.0304088 42.8718436,91.3156604 C46.5816902,90.5859434 50.3855045,90.3427044 54.1554904,90.1892767 C64.9956093,89.7514465 75.8958677,90.4250314 86.679606,91.4803145 C99.2299379,92.7077358 111.723889,94.6237107 124.037422,97.3330189 C134.99782,99.742956 146.025875,102.729182 156.230772,107.451761 C162.436401,110.318239 170.547697,114.490723 173.009652,121.383742 C175.576851,128.579874 168.984074,135.951887 163.293387,139.424591 C154.046961,145.063994 142.143127,145.269811 131.667603,144.420346 C118.087385,143.316415 104.698861,139.77261 91.8553493,135.34566 C79.1321168,130.956132 66.7321332,125.462673 55.053822,118.77173 C50.2915367,116.043711 45.6232192,113.087421 41.274392,109.734465 C38.0907648,107.279623 34.914655,104.574057 32.5053221,101.333365 C27.9873529,95.2561321 24.6759296,87.4163522 28.1264252,80.0742767 C31.3138111,73.293522 38.5906732,69.1060692 45.1308282,66.0899057 C53.6405471,62.1681447 62.9245602,59.7731761 72.1371579,58.2239308 C82.5187143,56.4763522 93.1483455,56.2181447 103.605076,57.4305975 C123.330785,59.7207862 142.725727,68.047044 158.117644,80.5270755 C176.238384,95.226195 187.495719,118.764245 187.811451,142.002925 C187.946765,152.05805 185.808059,162.363899 180.200064,170.851069 C174.550723,179.405597 165.518543,184.614654 155.512858,186.429591 C140.677231,189.116447 125.157518,184.809245 111.438227,179.439277 C93.2573481,172.32173 76.3544303,161.484497 62.6727267,147.578711 C55.8619446,140.655755 49.9607703,132.872107 45.262383,124.384937 C41.4021881,117.409591 38.9214397,109.91783 37.233779,102.152893 C33.6442111,85.6500629 33.2307531,67.3884277 38.5981906,51.2223899 C42.646321,39.0342453 51.6296374,28.1521069 64.6084622,25.1883333 C75.9484896,22.6025157 87.818495,26.6814465 97.7640411,31.9279245 C110.013676,38.3943396 120.842519,47.4241195 130.630199,57.1237421 C140.192357,66.5988365 148.897529,77.024434 156.343533,88.2321384 C159.305396,92.6965094 162.06053,97.3143082 164.379654,102.137925 C167.232515,108.076698 169.021661,114.505692 170.100411,120.987075 C172.502226,135.427987 170.149274,150.680943 162.406332,163.228333 C155.900005,173.766195 145.450792,181.864182 133.178605,184.371415 C119.880289,187.084465 106.664666,182.025094 96.6815327,173.328365 C89.8820267,167.408302 84.7100421,160.025063 80.2146252,152.286321 C74.9637076,143.249057 70.6374327,133.680409 67.2207655,123.81239 C60.3460853,103.960346 57.2075627,82.2933648 60.9098918,61.4721069 C62.0976441,54.7736792 63.4620557,48.0527987 65.427861,41.5339937 C67.4049423,34.9815094 70.1638353,28.1595912 75.2343347,23.3509434 C79.8349955,18.9876101 86.1834563,17.8799371 92.0583197,20.0690881 C98.335365,22.4079245 103.597559,27.3774843 108.156874,32.1000629 C118.560982,42.8736792 126.852696,55.6493396 134.629467,68.3688679 C143.552644,82.9669497 150.4386,98.4070126 154.268725,115.126887 C158.516067,133.661698 159.414399,155.478365 149.626718,172.531289 C145.571071,179.600189 138.997087,184.614654 130.776789,185.572642 C122.729391,186.508176 114.535404,183.952296 107.273577,180.719088 C91.0509854,173.496761 78.5156884,160.350629 71.5169708,144.173365 C64.9279526,128.939119 63.6387151,112.189308 64.2776958,95.8062264 C64.8076738,82.3008491 65.3188584,68.7730189 67.2621113,55.3799057 C68.2656868,48.4831447 69.6150636,41.5527044 72.0281553,34.996478 C73.922545,29.858522 76.7265425,24.5072642 82.1541194,22.4603145 C88.4311647,20.095283 94.2797171,24.4099686 98.4067805,28.7246541 C103.537419,34.0983648 107.360027,40.6920126 110.893214,47.1696541 C116.196754,56.8805031 120.977833,66.774717 124.920719,77.1105031 C129.728109,89.7252516 133.573269,102.736667 136.272023,115.961384 C139.034674,129.489214 140.575745,143.443648 139.429339,157.240912 C138.43704,169.204528 135.039166,181.512421 127.018079,190.755503 C120.015603,198.823553 108.859752,204.926981 97.9181482,204.047579 C88.5326499,203.291667 81.0490588,196.63066 75.7793477,189.340975 C68.9535307,179.903302 64.6836364,168.721792 61.3910067,157.641321 C57.7713692,145.453176 55.4146581,132.875849 53.9562787,120.257358 C52.7234219,109.633428 52.0656477,98.852327 52.6595239,88.1610377 C53.1068103,80.1566038 55.196653,72.6087107 57.5871924,64.9822327 C61.1504492,53.6173585 65.4541719,42.271195 71.565834,31.9990252 C74.9261205,26.3521384 79.4252961,19.6462264 85.8940356,17.2362893 C92.8250965,14.6504717 98.7525818,20.0241824 102.620294,25.1958176 C103.518626,26.397044 105.567123,25.2294969 104.657515,24.0095597" id="Fill-183"></path>
                    </g>
                    <path d="M95.0975444,58.9408814 C86.8960397,64.1050324 80.092775,71.1402525 74.3231555,78.8565418 C68.4520508,86.7000638 63.7085591,95.4903468 60.5662778,104.763366 C55.2364273,120.480347 52.597813,141.054624 67.7566895,152.243617 C83.2388151,163.672108 97.3114245,141.260441 105.836178,131.478491 C111.117165,125.423712 116.270357,119.230473 120.705634,112.524561 C124.949217,106.110536 128.865793,98.8096236 129.403288,91.0072651 C129.910714,83.6389946 125.738546,76.6561645 118.82252,73.8757556 C112.541716,71.3498122 105.084436,72.0009443 99.1419161,75.1443406 C90.1059778,79.9267934 83.3515764,89.2110387 78.1908679,97.7318877 C72.5828729,106.986196 67.8920031,117.625095 66.9936715,128.503491 C66.3171037,136.687548 69.1211012,145.111102 77.9390343,147.17302 C83.5958925,148.493995 90.1360475,147.333932 95.5147612,145.451636 C103.419328,142.686196 109.940689,136.878397 115.112674,130.471856 C120.453801,123.855756 124.543277,116.266699 127.523934,108.333366 C128.914656,104.636133 130.057304,100.789215 130.918049,96.9348122 C131.620927,93.791416 132.154664,90.4160072 131.66979,87.2015104 C131.327748,84.9262902 130.320414,82.6847494 128.121568,81.674372 C125.396504,80.4244978 122.107633,81.431133 119.514123,82.5350638 C115.15402,84.3874223 111.887701,87.0181456 108.903285,90.6480198 C102.100021,98.9218877 97.3941161,108.995724 93.5527147,118.908649 C89.6211043,129.038617 86.3810964,139.958177 86.0428126,150.885221 C85.8398422,157.407768 87.1140449,166.576007 94.9058502,168.05041 C99.0554658,168.836259 103.475708,167.328177 107.17052,165.554403 C110.925471,163.754435 113.887335,160.169466 116.371842,156.954969 C123.908055,147.199215 129.395771,135.542454 132.928958,123.784655 C134.61286,118.17519 135.815647,112.311259 135.860752,106.439844 C135.890822,101.908114 135.105251,97.0283657 132.320047,93.3124223 C125.779892,84.5782714 111.447932,86.8871707 103.607263,92.384372 C93.406125,99.5355984 88.3732126,112.419781 85.8248074,124.117705 C83.3478177,135.490064 82.5209015,148.370504 85.9751558,159.641825 C86.0014668,159.731636 86.0277777,159.821447 86.0578474,159.907517 C86.5126513,161.34824 88.7904294,160.734529 88.3318668,159.28258 C84.7610925,147.970095 85.764668,134.969907 88.3619365,123.571353 C91.0080682,111.952014 96.4055754,98.9069192 107.365973,92.8034915 C112.380092,90.0081141 118.732311,89.1736173 124.298961,90.6442777 C128.598925,91.7818877 131.376611,95.089938 132.609468,99.2362273 C134.094158,104.246951 133.575456,109.7928 132.669607,114.855913 C131.545753,121.112768 129.527326,127.208712 127.117993,133.083869 C124.704901,138.962768 121.76559,144.654561 118.360199,150.020787 C115.699033,154.20824 112.688306,158.358271 108.876974,161.591479 C104.17107,165.580598 94.2142476,168.686573 90.3766049,162.089183 C88.5047675,158.870944 88.3281081,154.780787 88.3957649,151.158397 C88.4934913,146.024183 89.4369275,140.919907 90.6359559,135.93912 C93.3535031,124.652831 97.6835367,113.628491 103.272738,103.449875 C107.877158,95.0712273 113.733227,85.7271078 123.844157,83.6090575 C131.226263,82.0598122 129.534843,92.1448751 128.64027,96.3098751 C126.911264,104.381668 123.825363,112.221447 119.765957,119.406353 C111.929047,133.267234 99.1343987,145.664938 82.1600654,145.328146 C78.228455,145.249561 74.1728071,143.995944 71.7973025,140.691636 C69.4593851,137.44346 69.1023076,133.207359 69.2977605,129.337988 C69.8502909,118.500756 74.8719271,107.760819 80.4122653,98.6150324 C85.4902822,90.2289003 92.2860295,80.9745921 101.408418,76.6337116 C108.012471,73.4940575 116.995788,73.9019506 122.532367,78.9463531 C128.692892,84.5520764 127.508899,93.222611 124.750006,100.160536 C121.588931,108.093869 116.25908,115.2189 110.92923,121.820032 C106.06546,127.844875 100.968649,133.712548 95.9808412,139.636353 C90.9404114,145.623775 83.9943157,153.725504 75.2778678,152.894749 C70.5155825,152.438208 66.313345,148.535158 63.6033152,144.894058 C60.9496661,141.335284 59.54015,136.994403 58.9763435,132.63107 C57.8524893,123.938083 59.8596403,115.024309 62.4080455,106.754183 C65.3172869,97.3239946 70.1923335,88.4962902 75.9957814,80.5367619 C81.5286021,72.9439632 88.3017971,65.9985544 96.2890554,60.9691204 C97.5707754,60.1608185 96.3905406,58.1250953 95.0975444,58.9408814" id="Fill-184"></path>
                    <path d="M130.377498,94.1039811 C118.094034,94.1301761 105.633911,95.9002075 93.8315626,99.2756163 C82.8448539,102.422755 70.4072833,107.545742 64.2129296,117.716874 C63.7957128,118.401686 64.2129296,119.202503 64.9158083,119.445742 C73.5270124,122.398289 82.8598887,123.850239 91.8018593,125.388258 C104.013907,127.487597 116.541687,129.291308 128.967981,129.006906 C134.113655,128.890899 147.261622,128.460553 146.220459,120.358824 C145.551409,115.160994 139.560026,112.627566 135.196164,111.250459 C128.858979,109.255899 122.018127,108.645931 115.406557,108.413918 C112.230447,108.301654 109.031785,108.301654 105.863193,108.57483 C101.503089,108.945302 97.1354684,110.273761 93.02344,111.695774 C83.5101455,114.981371 73.0646911,120.385019 67.9904329,129.467189 C67.5281116,130.290459 68.1219877,131.169862 69.0090432,131.23722 C74.5531402,131.667566 80.1686525,131.297094 85.6977146,130.818101 C93.0723032,130.178195 100.416822,129.130396 107.689925,127.772 C115.113377,126.383667 122.487966,124.624862 129.652067,122.229893 C135.29389,120.340113 141.093579,118.046182 145.859623,114.416308 C147.363107,113.271214 148.704966,111.980176 149.810027,110.445899 C150.302418,109.761088 149.74237,108.982723 149.107148,108.717031 C140.037382,104.967409 129.723482,106.168635 120.446986,108.473792 C113.331749,110.243824 106.302962,112.833384 99.7327369,116.089044 C93.8729084,118.992943 88.2348437,122.387063 82.8786823,126.125459 C77.2631699,130.043478 71.8055233,134.447975 67.6333555,139.907755 C64.6339051,143.829516 62.2546418,149.117157 64.336967,153.985679 C65.5848586,156.912031 68.7947968,158.042157 71.7228317,158.39766 C76.0227957,158.914075 80.5482822,157.933635 84.6903804,156.87461 C90.4111367,155.415176 95.9702684,153.327063 101.409121,151.063069 C113.113744,146.183321 124.419943,140.278226 135.241268,133.692063 C139.747961,130.949075 144.17948,128.063887 148.389235,124.890553 C151.095506,122.851088 153.91078,120.699358 155.948,117.963855 C156.335147,117.443698 156.026933,116.665333 155.523266,116.358478 C150.554252,113.331088 144.506488,112.934421 138.834595,113.484516 C131.640424,114.188038 124.634189,116.429579 117.98879,119.18005 C104.994931,124.553761 91.7755483,132.30373 82.2284255,142.75178 C77.4360705,148.002 66.6410561,164.134358 77.6127299,168.587503 C81.9051765,170.33134 87.3214772,169.298509 91.6778219,168.385428 C97.2782994,167.214138 102.743463,165.335585 108.031968,163.172629 C116.203403,159.827157 123.987691,155.448855 131.576526,150.969516 C136.278672,148.192849 140.924437,145.277723 145.280782,141.980899 C148.073503,139.862849 151.610449,137.329421 153.050035,134.006402 C157.218444,124.366654 133.414535,128.823541 130.411326,129.564484 C112.572489,133.976465 96.4137962,145.045711 82.3562216,156.444264 C76.0378305,161.567252 70.00886,167.060711 64.3971064,172.943352 C63.9197502,173.441057 63.9122328,174.473887 64.6339051,174.788226 C72.2979143,178.11873 80.848979,176.629358 88.5768863,174.290522 C97.1843317,171.689736 105.25804,167.666937 113.564789,164.299013 C126.945796,158.876654 142.322677,154.764044 151.659312,142.935145 C159.954785,132.430962 160.432141,113.907377 146.445982,108.058415 C140.428288,105.543698 133.328085,106.026434 127.118696,107.470899 C119.496033,109.244673 112.613835,113.222566 106.404447,117.862818 C97.4624762,124.550019 89.7759147,132.816402 83.0290307,141.659075 C76.485117,150.228572 70.786913,159.62134 66.926718,169.698918 C66.5658819,170.634453 67.5920097,171.263132 68.37758,171.147126 C71.9671478,170.604516 75.3913324,168.643635 78.4697157,166.836182 C83.2695881,164.018352 87.7687637,160.699075 92.128867,157.26005 C102.750981,148.885145 112.621353,139.380113 121.232557,128.962 C127.994476,120.781686 135.470549,110.958572 136.898859,100.136308 C137.917469,92.4050503 132.519962,84.393132 124.325975,84.0825346 C120.157566,83.9253648 116.056813,85.7328176 112.534902,87.7760251 C107.855309,90.4853333 103.683141,94.074044 99.8003937,97.8049559 C90.8546644,106.40439 83.1718617,116.410868 76.3836318,126.761623 C73.4405621,131.248447 70.670393,135.862503 68.2648187,140.656182 C66.7387825,143.691057 65.0323283,147.025302 64.5662483,150.430648 C64.4647631,151.164107 64.8594277,151.927503 65.7013786,151.916277 C69.19322,151.878855 72.5422304,150.000302 75.410126,148.200333 C79.8040577,145.442377 83.7958075,142.025805 87.5808282,138.500711 C96.6994581,130.017283 104.870893,120.325145 111.771884,109.97439 C114.78637,105.450145 117.530228,100.727566 119.638864,95.7131006 C121.101002,92.2329119 122.424068,88.2475346 121.984299,84.419327 C121.615945,81.227283 119.762901,78.8323144 116.710829,77.7583207 C110.843483,75.6851761 104.382261,77.6947044 99.1501369,80.5162767 C92.5536012,84.067566 86.9155366,89.3926289 81.9089352,94.8786037 C77.0038189,100.256057 72.5948524,106.131214 68.7384161,112.294516 C65.5623064,117.368855 63.1492147,122.723855 61.2360314,128.385711 C59.5897166,133.269201 57.3833539,139.630836 58.8154223,144.81744 C62.1832263,157.016811 83.491352,132.573163 86.2389688,129.197755 C96.9400155,116.051623 106.355584,100.566654 110.877311,84.1461509 C112.689009,77.5824402 113.978247,69.4245786 110.978797,63.0180377 C108.467978,57.6592956 102.660772,59.9008365 98.9622014,62.5053648 C93.230169,66.5468742 88.6031973,72.1002075 83.9198449,77.2493899 C78.0562577,83.6970943 72.3505362,90.2832578 67.0845838,97.2286666 C57.0150004,110.505774 46.8251382,126.881371 49.2156776,144.233667 C50.1102505,150.718792 53.9666867,156.253415 60.6120856,157.660459 C67.2274148,159.060019 74.2975479,156.56027 80.1085132,153.570302 C86.4344217,150.310899 91.9446903,145.431151 96.8686001,140.368038 C102.615667,134.455459 107.610993,127.798195 111.937268,120.796654 C120.135014,107.530774 126.569925,91.8137924 126.366954,76.0107421 C126.355678,75.2323773 125.62273,74.6935094 124.870988,74.8768742 C120.770235,75.8909937 117.432501,79.0605849 114.699919,82.1066855 C110.681858,86.5897673 107.438092,91.7614025 104.517574,96.9929119 C97.6955162,109.214736 92.4558748,122.562943 89.1181405,136.139421 C86.7200837,145.906402 84.2581288,157.67917 90.5426915,166.488163 C93.4030696,170.492252 97.7594143,172.60656 102.604391,171.038604 C107.791411,169.358384 111.910957,164.867818 115.25245,160.792629 C119.247958,155.924107 122.630797,150.55788 125.664076,145.053195 C127.554707,141.621654 129.38144,138.081591 130.708264,134.447975 C134.233934,124.774547 136.8951,114.708195 139.315709,104.716686 C140.804159,98.5795786 142.123466,92.3938239 143.033073,86.1444528 C143.717159,81.4293585 144.299759,76.54961 143.649502,71.7970943 C143.262355,68.9455849 141.991911,66.0865912 138.785731,65.8321258 C135.557,65.5739182 132.70038,68.4216855 130.790956,70.6407736 C127.45698,74.5101446 124.953679,79.0867798 122.675901,83.6259937 C119.792971,89.3701761 117.342292,95.3351446 115.102101,101.352503 C110.888587,112.683698 107.171224,124.501371 105.382078,136.479956 C104.90848,139.627094 104.318363,143.212063 105.164073,146.355459 C105.321938,146.939233 106.013541,147.392031 106.618693,147.174987 C110.317264,145.85027 113.000982,142.41873 115.233656,139.365145 C118.755567,134.556497 121.533254,129.194013 124.051589,123.812818 C129.727241,111.688289 134.282797,98.6656478 136.462849,85.4371887 C137.849813,77.036088 138.981184,65.3681006 129.084501,61.6858365 C124.754468,60.0729748 120.150048,62.2508993 116.740899,64.8479434 C112.057546,68.4142012 108.385287,73.2191069 105.130244,78.0614339 C101.897754,82.8588553 99.0937562,87.9556478 96.63556,93.1871572 C94.9666929,96.7347044 93.1850645,100.503038 92.4182877,104.368667 C92.1251083,105.850553 94.3991277,106.479233 94.6960658,104.993604 C95.5079471,100.884736 97.4512001,96.9031006 99.251622,93.1572201 C101.950376,87.5477547 105.081381,82.1216541 108.689742,77.0435723 C113.406923,70.4050188 123.837343,57.7827861 132.245576,66.6292012 C135.094678,69.6303962 135.109713,74.0386352 134.940571,77.9342012 C134.677462,83.9029119 133.358154,89.8304591 131.835877,95.58961 C128.407934,108.544893 123.435161,121.440302 116.583033,132.996025 C114.95927,135.73527 113.185159,138.414641 111.095317,140.820836 C109.708353,142.41873 108.031968,144.177535 105.990989,144.910994 C106.472104,145.18417 106.956977,145.457346 107.441851,145.730522 C106.581106,142.538478 107.38547,138.63917 107.922965,135.424673 C108.866402,129.770302 110.302229,124.190774 111.880887,118.682346 C115.459179,106.221025 119.917008,93.7971258 126.002359,82.3125031 C128.197446,78.1699559 130.651883,73.9039182 134.049757,70.6033522 C135.072126,69.6116855 136.259878,68.6761509 137.658118,68.2907107 C138.650418,68.0137924 139.537473,68.1859308 140.146384,68.8370629 C142.247503,71.086088 141.627316,76.250239 141.450657,79.0531006 C141.086062,84.9132893 139.981001,90.7285723 138.774455,96.4615283 C136.383916,107.815176 133.309291,119.07527 129.70093,130.103352 C126.945796,138.538132 122.544346,146.527597 117.342292,154.090459 C112.813047,160.680365 101.484296,175.824799 93.0459922,165.896906 C89.8022257,162.076182 88.9151702,157.529484 88.9978618,152.683415 C89.099347,146.789547 90.3246863,140.91439 91.7830657,135.222597 C95.0756955,122.360868 100.119884,109.798509 106.554795,98.1791698 C109.317447,93.1946415 112.403348,88.3111509 116.162057,84.0039497 C118.639047,81.1674088 121.713672,78.0801446 125.498692,77.14461 C125.002543,76.7666541 124.502634,76.3886981 124.006485,76.0107421 C124.243283,94.4632264 115.357693,112.646277 104.746856,127.304233 C99.3719008,134.732377 93.02344,141.655333 85.6901972,147.212409 C79.8754732,151.620648 72.7602356,155.239296 65.3405425,155.650931 C62.3110224,155.815585 59.2965372,155.24678 56.7518907,153.559075 C53.8802364,151.654327 52.4669615,148.305113 51.7528067,145.075648 C49.9260737,136.805522 52.2188867,128.112535 55.5528623,120.538447 C62.7658263,104.155365 75.1733273,90.3131949 87.1373005,77.2157107 C91.6815806,72.2386666 96.2897587,66.6292012 102.209727,63.2126289 C103.923698,62.2247044 106.33679,61.2330377 107.99814,62.8122201 C110.396197,65.0874402 110.362368,70.0345471 110.305987,73.0095471 C110.163157,80.658478 107.426816,88.2812138 104.408572,95.2228805 C100.845315,103.414421 96.3085523,111.194327 91.2568464,118.562597 C86.599805,125.354579 81.3902332,131.858415 75.410126,137.546465 C72.6888201,140.136025 69.7419916,142.639516 66.4643967,144.506843 C65.2352986,145.206623 62.5478211,146.662314 61.4540366,145.015774 C60.3301824,143.320585 60.7774688,140.536434 61.048096,138.672849 C61.5028998,135.518226 62.393714,132.423478 63.3860134,129.39983 C65.2653683,123.648163 67.768669,118.289421 70.9786072,113.15895 C74.917735,106.864673 79.4845674,100.940868 84.540032,95.4960566 C89.6180489,90.0287924 95.3839097,84.8833522 102.164622,81.6127232 C106.562313,79.4946729 113.282886,77.7845157 117.680576,80.849327 C120.063598,82.5108365 119.890697,86.0284465 119.432135,88.5244528 C118.593943,93.0823773 116.462754,97.3895786 114.241357,101.416119 C111.354668,106.651371 107.945518,111.598478 104.333398,116.358478 C97.0302246,125.994484 88.6595779,135.181434 79.1274899,142.688163 C75.526646,145.520962 70.5651491,149.513824 65.7013786,149.566214 C66.0810083,150.063918 66.460638,150.55788 66.8402677,151.055585 C67.2837955,147.833604 68.8662123,144.720145 70.3020394,141.84244 C72.6437156,137.146057 75.3687802,132.640522 78.2291583,128.243509 C85.0023533,117.829138 92.7490541,107.852597 101.728612,99.2194843 C105.596324,95.5035409 109.768492,92.0158679 114.466879,89.3814025 C117.789579,87.5215597 121.803881,85.9124402 125.690387,86.5598302 C129.419027,87.1810251 132.313233,90.0961509 133.839269,93.4266541 C135.489343,97.0340754 134.538389,101.416119 133.339361,104.993604 C131.584043,110.213887 128.607145,115.026277 125.479899,119.535553 C121.687361,125.00656 117.353568,130.09961 112.820564,134.971874 C103.908663,144.551748 94.0232568,153.454296 83.2658294,160.946057 C78.7478603,164.093195 73.3578704,168.033667 67.7498755,168.87939 C68.234749,169.362126 68.7158639,169.844862 69.2007374,170.323855 C72.5008846,161.716937 77.2631699,153.697535 82.5967791,146.194547 C88.3701573,138.074107 95.0719368,130.544925 102.581839,123.97373 C113.452028,114.464956 129.039397,105.259296 144.085512,109.71244 C150.918847,111.733195 154.651245,117.469893 155.124843,124.370396 C155.662338,132.240113 152.392261,139.376371 146.795542,144.79873 C135.884007,155.37027 119.774177,159.003887 106.1902,164.89027 C99.5260079,167.775459 92.8505393,170.683101 85.8443043,172.636497 C79.4357041,174.425239 72.1287724,175.495491 65.8254161,172.759987 C65.904349,173.373698 65.9870406,173.987409 66.0659735,174.604862 C78.5524073,161.518604 93.0459922,149.917975 108.855126,141.060333 C116.70707,136.659579 125.100269,132.973572 133.959548,131.173604 C137.549116,130.443887 141.232651,130.166969 144.893635,130.219358 C146.667746,130.241811 148.75383,130.290459 150.358799,131.143667 C151.212026,131.596465 151.272165,131.98939 150.990262,132.842597 C150.584321,134.077503 149.381534,135.286214 148.434339,136.236717 C145.006396,139.664516 140.837987,142.392535 136.77858,145.008289 C128.693596,150.213604 120.206429,154.988572 111.505016,159.104925 C107.081014,161.19678 102.465319,162.914421 97.7894839,164.355145 C92.711467,165.919358 87.2838901,167.307692 81.92397,167.053226 C77.9585312,166.862377 74.9853918,165.092346 75.3462279,160.815082 C75.6130963,157.638006 77.2556525,154.528289 78.7628951,151.785302 C80.2212745,149.128384 81.8675894,146.669799 83.8972926,144.413289 C88.1032889,139.743101 93.1963406,135.851277 98.4021536,132.352377 C104.585231,128.194862 111.185526,124.628604 118.033895,121.691025 C124.393632,118.963006 131.159309,116.770113 138.049024,115.92439 C143.521706,115.250805 149.501813,115.445396 154.331755,118.386717 C154.192683,117.851591 154.049852,117.316465 153.91078,116.777597 C151.911146,119.464453 148.806452,121.687283 146.085146,123.689327 C141.61604,126.978667 136.917653,129.957409 132.155367,132.805176 C120.905549,139.537283 109.125753,145.580836 96.9024284,150.363289 C91.6778219,152.406497 86.3216604,154.225176 80.8151506,155.362786 C77.184237,156.111214 73.0383801,156.739893 69.4375362,155.519956 C65.878038,154.314987 65.4194754,150.453101 66.3328419,147.234862 C68.0129852,141.307314 73.4518382,136.532346 78.0186706,132.737818 C85.8104759,126.263918 94.8464142,120.725553 104.119151,116.609201 C110.508958,113.776402 117.237048,111.523635 124.074141,110.041748 C132.076434,108.309138 140.774089,107.796465 148.479444,110.984767 C148.242645,110.408478 148.005846,109.832189 147.772806,109.259641 C144.758321,113.454579 139.37209,115.913163 134.737601,117.836623 C128.047098,120.617031 120.984482,122.514296 113.921866,124.09722 C100.454409,127.120868 86.3442127,129.24266 72.508402,129.044327 C71.3394433,129.029358 70.1704846,128.976969 69.0090432,128.887157 C69.3473271,129.474673 69.685611,130.065931 70.0276536,130.653447 C74.2336498,123.124264 82.4577068,118.442849 90.2194425,115.254547 C96.3649329,112.732346 102.87126,110.909925 109.539211,110.730302 C115.966604,110.558163 122.487966,110.966057 128.813874,112.126119 C133.696438,113.020491 140.980818,114.464956 143.491636,119.340962 C147.257863,126.660585 129.994109,126.683038 126.686445,126.683038 C114.102284,126.690522 101.465502,124.767063 89.1143818,122.536748 C81.2661958,121.118478 73.1097956,119.77505 65.5435128,117.178006 C65.7803116,117.754296 66.0133516,118.330585 66.2501503,118.903132 C72.2941556,108.978981 84.7354849,104.275113 95.406462,101.273918 C106.708902,98.0931006 118.635288,96.4764968 130.377498,96.454044 C131.899775,96.454044 131.903534,94.1039811 130.377498,94.1039811" id="Fill-185"></path>
                </g>
                <path d="M507.525937,218.937031 C501.795462,220.179782 496.35376,222.47205 490.623285,223.718589 C485.181584,224.900718 479.728631,225.654704 474.151919,225.654704 C464.483617,225.654704 455.126591,223.104792 445.874574,220.524569 C440.616637,219.058275 435.34745,217.459371 429.980755,216.443953 C424.749071,215.455057 419.401128,215.292135 414.098188,215.686178 C403.63107,216.462897 393.497729,219.54704 383.289383,221.805208 C376.205045,223.370013 368.79068,225.044695 361.567581,223.510201 C356.763433,222.490995 352.364318,220.225248 348.133967,217.777636 C338.784441,212.359547 329.888704,206.83537 318.832787,206.092751 C307.266827,205.319821 295.84713,209.487582 285.605031,214.500261 C284.236167,215.167103 285.432516,217.216883 286.793879,216.55383 C300.231244,209.980135 315.288743,205.596409 329.884953,210.817476 C339.395742,214.223673 347.20764,221.104267 356.692177,224.571086 C361.627586,226.37459 366.911774,226.920187 372.113456,226.207879 C382.640579,224.764318 392.822673,221.755953 403.222286,219.653128 C408.483972,218.584666 413.805664,217.895091 419.176109,217.857203 C424.944088,217.815525 430.487047,218.861254 436.048759,220.304815 C445.574549,222.778949 454.972828,225.93508 464.738638,227.325597 C471.290432,228.261448 477.845975,228.197038 484.397769,227.295286 C488.305593,226.757266 492.194665,225.90098 495.98248,224.787052 C500.040316,223.589768 504.011896,222.131052 508.152239,221.233089 C509.637362,220.911034 509.00731,218.614977 507.525937,218.937031" id="Fill-186" fill="#0D51B6"></path>
                <path d="M515.796827,217.736159 C522.879175,214.487293 530.436673,213.036637 538.207426,213.471078 C545.256102,213.867742 552.132676,215.847283 558.807219,218.057268 C572.575333,222.613235 586.107743,228.283639 600.863569,227.988974 C602.37881,227.958752 602.37881,225.586325 600.863569,225.616547 C585.606404,225.922544 571.66993,219.693034 557.415442,215.110622 C550.666073,212.942193 543.73712,211.279983 536.636065,211.026874 C529.003741,210.758653 521.536036,212.51153 514.610824,215.688618 C513.234013,216.32328 514.427499,218.367043 515.796827,217.736159" id="Fill-187" fill="#0D51B6"></path>
                <path d="M608.792293,227.799547 C612.73578,225.681602 616.913908,223.98649 621.391015,223.454172 C624.751683,223.05399 628.116136,223.439071 631.408683,224.129952 C638.599302,225.632523 645.426605,227.841075 652.851866,227.999638 C654.384603,228.033616 654.380819,225.662725 652.851866,225.628747 C645.017876,225.462634 637.846179,222.861449 630.224123,221.487239 C622.185767,220.037522 614.711308,221.928949 607.592595,225.753332 C606.241516,226.478191 607.441214,228.524406 608.792293,227.799547" id="Fill-188" fill="#0D51B6"></path>
                <path d="M672.5394,224.043238 C668.124221,225.162279 663.656614,226.185401 659.117854,226.760908 C657.638638,226.945639 657.616169,229.180167 659.117854,228.988332 C663.87007,228.387958 668.536155,227.368387 673.164791,226.192506 C674.629027,225.823045 674.007382,223.670224 672.5394,224.043238" id="Fill-189" fill="#0D51B6"></path>
                <path d="M230.713959,217.504051 C229.460254,214.822995 226.835071,212.862333 223.959147,212.093664 C220.984446,211.299002 219.726942,215.799612 222.690245,216.590561 C224.479625,217.069586 225.824509,218.209593 226.591928,219.858331 C227.131402,221.016904 228.822004,221.28798 229.855361,220.697554 C231.063477,220.006866 231.253433,218.662624 230.713959,217.504051" id="Fill-191" fill="#E5E6E3"></path>
                <path d="M240.874555,216.987311 C239.58673,212.767948 236.380083,210.480341 232.317347,210.011089 C231.059042,209.862492 230,211.235056 230,212.466844 C230,213.913706 231.062732,214.774003 232.317347,214.922599 C234.254619,215.145494 235.800747,216.314715 236.405913,218.293397 C237.324734,221.292703 241.800755,220.010079 240.874555,216.987311" id="Fill-192" fill="#E5E6E3"></path>
                <path d="M202.880726,175.59188 C200.036273,177.991822 195.897181,179.004298 192.26844,179.281791 C189.255121,179.510535 189.232606,184.224171 192.26844,183.991677 C197.248109,183.609186 202.336602,182.19172 206.213014,178.9218 C208.539611,176.956847 205.18856,173.645677 202.880726,175.59188" id="Fill-193" fill="#E5E6E3"></path>
                <path d="M205.904629,186.770176 C203.279459,189.631762 199.366686,190.516252 195.74987,191.116585 C192.682687,191.620865 193.989507,196.467552 197.033629,195.963272 C201.484503,195.226864 206.116026,193.818083 209.317735,190.324146 C211.462457,187.978846 208.057038,184.420873 205.904629,186.770176" id="Fill-194" fill="#E5E6E3"></path>
                <path d="M210.394925,197.338675 C207.412534,199.023071 204.202803,200.092296 200.765733,200.531703 C199.455639,200.700143 198.76206,202.278348 199.07417,203.36222 C199.459492,204.687767 200.746467,205.134498 202.052708,204.966058 C205.8751,204.475386 209.524098,203.179134 212.837865,201.311652 C215.515852,199.799357 213.084471,195.822719 210.394925,197.338675" id="Fill-195" fill="#E5E6E3"></path>
                <path d="M178.201169,147.59333 C173.544655,145.93013 168.251984,145.193074 163.610264,147.261462 C162.23809,147.875032 163.421637,149.962715 164.782715,149.356862 C168.795676,147.562459 173.607531,148.511756 177.583506,149.927984 C179.003761,150.437363 179.60663,148.094991 178.201169,147.59333" id="Fill-196" fill="#0A0B09"></path>
                <path d="M178.004099,149.383976 C179.245486,146.659501 180.763505,144.256692 182.68264,142.082538 C183.668142,140.966395 182.132834,139.245674 181.147332,140.361817 C179.103712,142.675489 177.450835,145.256571 176.129916,148.155443 C175.493662,149.550622 177.367845,150.783031 178.004099,149.383976" id="Fill-197" fill="#0A0B09"></path>
                <path d="M183.146863,139.80969 C187.931806,149.062638 192.746844,158.304154 197.798871,167.412287 C198.543697,168.757547 200.586326,167.553292 199.837739,166.204221 C194.785711,157.096088 189.970673,147.854572 185.18573,138.601623 C184.478521,137.233498 182.439654,138.441564 183.146863,139.80969" id="Fill-198" fill="#0A0B09"></path>
                <path d="M200.17895,170.7729 C204.68048,178.390133 209.609692,186.041678 210.794877,195.130509 C210.990596,196.65548 213.18337,196.003555 212.987652,194.493833 C211.78072,185.214381 206.739151,177.341715 202.143386,169.56436 C201.371384,168.256697 199.3997,169.457612 200.17895,170.7729" id="Fill-199" fill="#0A0B09"></path>
                <path d="M169.824517,223.578191 C168.530383,225.875033 166.635533,227.754266 164.165925,228.650224 C164.644272,228.927364 165.12262,229.204503 165.600967,229.481643 C165.330274,227.815009 165.130036,226.144579 165.600967,224.496928 C166.023693,223.020116 163.776572,222.393705 163.353846,223.862924 C162.764255,225.931979 163.016407,228.027609 163.353846,230.115647 C163.453965,230.726873 164.232671,231.148277 164.785181,230.950862 C167.833256,229.842304 170.228702,227.636577 171.834318,224.78166 C172.587066,223.449113 170.573557,222.24944 169.824517,223.578191" id="Fill-200" fill="#0A0B09"></path>
                <path d="M155.280202,221.826166 C154.612521,224.092885 153.792227,226.453116 154.047853,228.84327 C154.135606,229.639988 154.742242,230.122507 155.566351,229.972889 C158.47744,229.445484 161.327485,226.89449 162.819275,224.481893 C163.620492,223.180213 161.544958,222.001968 160.747556,223.296167 C159.557176,225.229985 157.256538,227.287238 154.929192,227.70991 C155.432815,228.087697 155.940252,228.465483 156.443875,228.84327 C156.207325,226.65136 156.978019,224.526779 157.592286,222.450823 C158.023417,220.995784 155.711333,220.374868 155.280202,221.826166" id="Fill-201" fill="#0A0B09"></path>
                <path d="M136.020284,208.525002 C137.632709,218.126804 145.969131,224.769146 154.894922,225.987747 C156.377612,226.192782 156.359078,223.759448 154.894922,223.558283 C146.932879,222.471213 139.682527,216.339522 138.266559,207.87895 C138.007088,206.339257 135.76452,206.993046 136.020284,208.525002" id="Fill-202" fill="#0A0B09"></path>
                <path d="M146.415512,166.205225 C149.91776,157.808153 154.082182,149.560143 158.816915,141.782245 C159.624537,140.45599 157.546154,139.25204 156.742359,140.570651 C151.896626,148.528186 147.682445,156.974944 144.09599,165.56694 C143.502713,166.996392 145.82989,167.611744 146.415512,166.205225" id="Fill-203" fill="#0A0B09"></path>
                <path d="M164.893389,145.209084 C163.804144,142.616076 161.884178,140.142286 159.888377,138.29812 C158.833602,137.322016 157.29625,138.972452 158.357919,139.952281 C160.236522,141.688405 161.997928,143.94611 163.02168,146.390096 C163.597326,147.764837 165.462141,146.572649 164.893389,145.209084" id="Fill-204" fill="#0A0B09"></path>
                <path d="M170.118801,227.215406 C176.624721,227.966341 183.231712,228.044847 189.782552,227.983407 C200.503471,227.877594 211.213159,227.167619 221.874184,226.150445 C223.367776,226.010498 223.382749,223.863508 221.874184,224.006868 C211.381609,225.006976 200.847858,225.693057 190.299133,225.833004 C183.579842,225.921751 176.793172,225.843244 170.118801,225.07183 C168.617723,224.897749 168.636439,227.044739 170.118801,227.215406" id="Fill-205" fill="#0A0B09"></path>
                <path d="M211.775313,197.447673 C213.333969,204.336751 212.625133,210.974915 209.151446,217.247777 C208.419113,218.572458 210.541704,219.742162 211.274037,218.417481 C215.064938,211.576372 215.848182,204.347821 214.144627,196.831456 C213.815664,195.373938 211.442435,195.993845 211.775313,197.447673" id="Fill-206" fill="#0A0B09"></path>
                <path d="M212.148788,214.999996 C224.727783,214.96628 236.84159,212.61745 249.140716,210.291097 C250.645959,210.006391 250.006798,207.739976 248.509119,208.024683 C236.418004,210.309828 224.51599,212.613704 212.148788,212.64742 C210.617071,212.651166 210.617071,215.003742 212.148788,214.999996" id="Fill-207" fill="#0A0B09"></path>
                <path d="M227.474198,224.981873 C238.542779,223.236137 249.708485,220.996127 260.209254,217.199677 C261.606368,216.694886 260.997465,214.567051 259.585409,215.078853 C249.088375,218.871797 237.918934,221.111808 226.850353,222.861049 C225.359849,223.095917 225.994901,225.216741 227.474198,224.981873" id="Fill-208" fill="#0A0B09"></path>
                <path d="M253.518932,210.387629 C255.692124,210.013691 257.661097,210.493945 258.755399,212.425957 C259.495209,213.734739 261.583631,212.572599 260.843821,211.263817 C259.210074,208.37863 256.092854,207.61609 252.875451,208.165998 C251.341887,208.429954 251.993074,210.647919 253.518932,210.387629" id="Fill-209" fill="#0A0B09"></path>
                <path d="M137.370516,206.867864 C136.381661,194.126328 140.780115,182.136726 144.923381,170.4291 C145.430213,169.000424 143.27529,168.387597 142.775546,169.801234 C138.564939,181.700604 134.138131,193.919546 135.144707,206.867864 C135.261668,208.371734 137.487477,208.383013 137.370516,206.867864" id="Fill-210" fill="#0A0B09"></path>
                <path d="M175.98056,189.498002 C174.825991,182.44921 174.818886,175.2634 174.236274,168.146099 C174.108383,166.623681 171.877402,166.612263 172.005293,168.146099 C172.605668,175.480344 172.637641,182.867874 173.827734,190.133611 C174.07641,191.652223 176.225683,191.005195 175.98056,189.498002" id="Fill-211" fill="#0D51B6"></path>
                <path d="M164.278091,167.180339 C155.673499,172.509402 156.361274,183.738632 150.008593,190.832924 C147.017138,194.170542 142.598364,196.495749 138.083449,196.592169 C136.815131,196.621837 135.136367,196.42158 134.426405,195.216329 C133.453905,193.566062 135.495046,190.944178 136.375103,189.735219 C137.258858,188.518842 135.243601,187.358093 134.370939,188.559636 C132.292821,191.411445 130.229494,196.239865 134.489266,198.242436 C138.397755,200.078126 143.585655,198.249853 147.050418,196.239865 C152.046036,193.339846 155.011607,188.400172 157.00098,183.134152 C158.99405,177.871842 160.362206,172.342521 165.450268,169.194035 C166.722283,168.404132 165.557502,166.390436 164.278091,167.180339" id="Fill-212" fill="#0D51B6"></path>
                <path d="M170.50857,166.853686 C170.364752,167.2783 169.565765,167.37659 169.18225,167.443427 C168.594994,167.549581 167.939824,167.49847 167.54033,167.372658 C165.994289,166.889071 165.339118,169.275556 166.873175,169.755213 C168.978508,170.415723 172.16647,169.763076 172.929504,167.510265 C173.440856,165.996596 171.019923,165.351812 170.50857,166.853686" id="Fill-213" fill="#0A0B09"></path>
                <path d="M179.091961,159.579817 C178.545566,159.419089 178.010963,159.50506 177.47636,159.654575 C177.346641,159.691954 177.12651,159.688216 177.60608,159.650837 C177.845865,159.632148 178.211439,159.819041 178.427639,160.114333 C178.325435,159.976032 178.549497,160.43579 178.490533,160.248896 C178.463017,160.166663 178.435501,159.96108 178.490533,160.338605 C178.466948,160.174139 178.466948,160.005935 178.463017,159.837731 C178.407984,160.035838 178.352952,160.233945 178.297919,160.428314 C178.333297,160.368508 178.376537,160.308702 178.415846,160.248896 C178.592737,159.987245 178.25861,160.417101 178.43157,160.222731 C178.459086,160.192828 178.490533,160.162925 178.521981,160.13676 C178.466948,160.177877 178.411915,160.218993 178.356883,160.256372 C178.466948,160.200304 178.404053,160.222731 178.17213,160.327392 C177.99917,160.375984 177.82228,160.375984 177.645389,160.334867 C177.566771,160.304964 177.488153,160.271324 177.409535,160.241421 C177.209059,160.08443 177.150095,160.043313 177.240506,160.121809 C177.452775,160.31244 177.110786,159.946129 177.197266,160.062003 C177.60608,160.59278 178.034549,160.970305 178.765697,161.011422 C179.437881,161.048801 180,160.450741 180,159.837731 C180,159.168652 179.43395,158.701418 178.765697,158.664039 C179.021205,158.67899 178.974034,158.660301 179.198096,158.772437 C179.036929,158.693942 179.461466,158.985496 179.323885,158.862146 C179.292437,158.832243 179.268852,158.80234 179.241336,158.772437 C179.524361,159.10137 179.367125,158.92569 179.30423,158.843457 C179.017274,158.46967 178.765697,158.252873 178.30185,158.069717 C177.763316,157.860397 177.177612,158.159426 176.77666,158.477145 C176.580115,158.634136 176.43074,158.862146 176.285297,159.063991 C176.049443,159.389186 175.986548,159.729332 176.002272,160.118071 C176.017995,160.525499 176.08089,160.936665 176.29709,161.299238 C176.564391,161.751521 177.051823,161.968317 177.578564,161.99822 C177.826211,162.013172 178.089581,161.930938 178.325435,161.863657 C178.368675,161.852443 178.411915,161.841229 178.455155,161.830016 C178.726387,161.766472 178.152476,161.856181 178.356883,161.837492 C178.404053,161.833754 178.455155,161.833754 178.502326,161.837492 C178.101374,161.82254 178.30185,161.803851 178.435501,161.841229 C179.080169,162.028123 179.779869,161.628171 179.952829,161.022636 C180.137582,160.394673 179.73663,159.762973 179.091961,159.579817" id="Fill-214" fill="#0A0B09"></path>
                <path d="M156.912757,158.723068 C156.973435,159.276649 157.264689,159.569937 157.661118,159.94388 C157.843152,160.119853 157.479084,159.67992 157.596395,159.87789 C157.503356,159.731246 157.454813,159.57727 157.454813,159.408629 C157.470994,159.324309 157.479084,159.239988 157.495265,159.155668 C157.81079,158.745064 157.891694,158.609419 157.737977,158.756063 C157.940237,158.624083 157.980689,158.591088 157.867423,158.653412 C158.186994,158.488437 158.009005,158.59842 157.895739,158.631415 C157.673254,158.693739 157.442678,158.726734 157.212101,158.756063 C157.69348,158.932036 158.170813,159.108009 158.648146,159.283981 C158.571287,159.188663 158.502519,159.089678 158.437796,158.983361 C158.510609,159.148336 158.530835,159.177665 158.490383,159.067681 C158.502519,159.130005 158.510609,159.195995 158.5187,159.261985 C158.522745,159.141003 158.514654,159.192329 158.490383,159.419627 C158.385208,159.621263 158.364982,159.668922 158.421615,159.569937 C158.522745,159.401297 158.203174,159.797236 158.352847,159.657924 C158.567242,159.459954 158.093954,159.819232 158.348801,159.657924 C158.955581,159.265651 159.404597,158.873378 159.45314,158.151156 C159.493592,157.524253 158.842315,157 158.182948,157 C157.458858,157 156.953209,157.527919 156.912757,158.151156 C156.912757,157.99718 156.957254,157.854202 157.046248,157.722222 C156.965345,157.887197 157.272779,157.487592 157.135243,157.619571 C156.932983,157.813875 157.402226,157.450931 157.151424,157.612239 C156.920847,157.762549 156.67409,157.905527 156.488011,158.099831 C155.812464,158.800056 155.873142,159.712915 156.45565,160.446136 C156.823763,160.911731 157.272779,161.062041 157.887649,160.977721 C158.809954,160.849407 160.088235,160.44247 159.995196,159.3793 C159.954744,158.939368 159.760575,158.605753 159.424823,158.286802 C159.368191,158.235476 159.307513,158.184151 159.246835,158.132825 C159.222564,158.107163 159.198292,158.085166 159.169976,158.059503 C159.307513,158.191483 159.412688,158.36379 159.45314,158.723068 C159.380326,158.099831 158.927264,157.571912 158.182948,157.571912 C157.543807,157.571912 156.839943,158.099831 156.912757,158.723068" id="Fill-215" fill="#0A0B09"></path>
                <path d="M187.752803,165.842121 C191.992664,163.455925 197.162773,163.06205 201.888142,163.620358 C203.378023,163.800088 203.363198,161.394772 201.888142,161.222691 C196.755094,160.61467 191.169893,161.18445 186.577947,163.769496 C185.25855,164.511358 186.433406,166.583983 187.752803,165.842121" id="Fill-216" fill="#0A0B09"></path>
                <path d="M188.711811,160.833154 C191.872958,158.943069 195.277829,157.758412 198.904599,157.413366 C200.359672,157.275347 200.370585,154.867694 198.904599,155.005712 C194.866771,155.389096 191.083581,156.650431 187.558666,158.755211 C186.278201,159.518146 187.427709,161.599923 188.711811,160.833154" id="Fill-217" fill="#0A0B09"></path>
                <path d="M152.399475,158.763093 C148.00018,156.33779 143.263075,154.796154 138.176512,155.021853 C136.611715,155.09071 136.603949,157.493061 138.176512,157.424204 C142.851491,157.217632 147.126534,158.606252 151.168604,160.83646 C152.543141,161.593889 153.774012,159.516697 152.399475,158.763093" id="Fill-218" fill="#0A0B09"></path>
                <path d="M152.373364,163.944974 C147.828955,162.013947 143.157886,161.039477 138.164409,161.000068 C136.609945,160.985738 136.613783,163.235617 138.164409,163.249948 C142.716495,163.285774 147.011422,164.124105 151.15666,165.886749 C152.561435,166.485045 153.785816,164.546853 152.373364,163.944974" id="Fill-219" fill="#0A0B09"></path>
                <path d="M166.363141,159.861156 C165.532843,162.590072 166.096532,165.236414 168.362711,166.974427 C170.743152,168.80288 174.1329,167.906348 176.42955,166.463247 C177.747362,165.637494 176.543811,163.4984 175.225999,164.332018 C173.60349,165.350446 171.664859,165.987456 169.870959,165.035874 C168.198937,164.147206 168.176085,162.133942 168.671217,160.517826 C169.135879,158.996081 166.827803,158.347275 166.363141,159.861156" id="Fill-220" fill="#0A0B09"></path>
                <path d="M165.788453,164.674331 C165.094281,166.326042 163.113953,166.401983 161.873605,165.221737 C160.894011,164.285134 159.333005,165.693202 160.309074,166.626641 C162.782723,168.980804 166.672906,168.180262 167.923826,165.202752 C168.427717,164.000357 166.285297,163.484593 165.788453,164.674331" id="Fill-221" fill="#0A0B09"></path>
                <path d="M169.221365,158.533541 C168.462334,158.94694 167.669148,158.908403 167.035357,158.323338 C165.949944,157.321369 164.264897,158.876873 165.35031,159.882344 C166.731745,161.154073 168.758356,161.343256 170.424428,160.435879 C171.748935,159.714182 170.549668,157.811843 169.221365,158.533541" id="Fill-222" fill="#0A0B09"></path>
                <path d="M14.2547435,226.391014 C9.81642863,226.656825 5.27923097,225.988605 0.882751094,226.741737 C1.33152672,227.310278 1.78030235,227.878819 2.23288116,228.447359 C3.68950036,225.959071 5.68997477,224.020864 8.641245,223.40433 C11.649563,222.77672 14.7149287,224.371587 16.9169718,226.206423 C18.0769427,227.177372 19.7769657,225.545587 18.6055852,224.567254 C15.840671,222.263557 12.4862633,220.664997 8.76294686,221.060022 C4.91032219,221.466123 2.01229653,224.131619 0.167752636,227.277051 C-0.38370894,228.222158 0.517645498,229.152497 1.5178827,228.978982 C5.67856522,228.262768 10.0484228,228.960522 14.2547435,228.709479 C15.7836232,228.620875 15.7950328,226.30241 14.2547435,226.391014" id="Fill-223" fill="#0A0B09"></path>
                <path d="M19.1333695,228.423043 C21.1806253,228.355913 23.1867866,227.818876 25.2153631,227.550358 C27.7109231,227.222607 29.78433,228.043958 32.1453988,228.715254 C34.5662415,229.398397 36.7666679,228.699459 39.1538878,228.213757 C40.6370275,227.913648 40.0056658,225.520674 38.5299978,225.824731 C37.558672,226.018223 36.5910821,226.215663 35.6234922,226.413103 C34.0469558,226.732956 32.6908356,226.330178 31.1553937,225.824731 C29.1454966,225.161333 27.318657,224.849377 25.2153631,225.07051 C23.1793149,225.283745 21.1806253,225.876066 19.1333695,225.947144 C17.6240787,225.99453 17.6203428,228.474378 19.1333695,228.423043" id="Fill-224" fill="#0A0B09"></path>
                <path d="M3.30617808,222.925885 C3.30985027,222.413139 3.31719466,221.900393 3.43837711,221.398255 C3.48978785,221.179012 3.48244346,221.207302 3.54119858,221.104752 C3.59628152,220.998667 3.45306589,221.161331 3.37962199,221.186085 C3.27312832,221.21791 3.18132343,221.182548 3.30985027,221.21791 C3.43470492,221.256808 3.4493937,221.263881 3.35391662,221.228519 C3.47877126,221.285098 3.59260932,221.355821 3.70644738,221.423009 C4.19852157,221.720048 4.61715185,222.137317 5.02476554,222.526297 C6.08603002,223.534108 7.71648479,221.964044 6.65522031,220.956233 C5.63434998,219.983783 4.3343928,218.753193 2.76636535,219.043159 C1.08449984,219.354343 1.00738374,221.684686 1.00003934,222.925885 C0.989022758,224.358038 3.29516149,224.358038 3.30617808,222.925885" id="Fill-225" fill="#0A0B09"></path>
            </g>
        </g>
    </g>
</svg>