<?xml version="1.0" encoding="UTF-8"?>
<svg width="64px" height="64px" viewBox="0 0 64 64" version="1.1" xmlns="http://www.w3.org/2000/svg" xmlns:xlink="http://www.w3.org/1999/xlink">
    <!-- Generator: sketchtool 52.2 (67145) - http://www.bohemiancoding.com/sketch -->
    <title>025D0108-F95C-4031-AF7D-D4CBFCAC5C2E</title>
    <desc>Created with sketchtool.</desc>
    <g id="List" stroke="none" stroke-width="1" fill="none" fill-rule="evenodd" opacity="0.3">
        <g id="02.3_user_list_empty" transform="translate(-698.000000, -443.000000)" fill="#241F20" fill-rule="nonzero">
            <path d="M759.504357,453.790615 C757.870493,452.138623 755.739365,451.29907 753.592229,451.247853 C753.568216,451.245845 753.558211,451.239819 753.532197,451.235802 C751.96937,451.067088 751.620186,449.301616 751.620186,449.301616 L751.602176,449.352833 C751.299016,447.900687 750.62566,446.510805 749.505067,445.377006 C746.391419,442.226674 741.321737,442.20458 738.185077,445.329807 C735.343574,448.157775 735.082436,452.579489 737.361642,455.73183 L737.353637,455.768988 C737.353637,455.768988 738.664331,457.213099 737.318619,458.551765 L713.312917,482.446894 C712.12629,483.628897 711.098746,482.483047 711.098746,482.483047 L711.089741,482.529243 C707.956083,479.918192 703.31963,480.037698 700.366067,482.978143 C697.229408,486.100357 697.208397,491.189897 700.321043,494.339225 C701.364596,495.395697 702.637269,496.051472 703.972976,496.393921 L703.922949,496.425053 C703.922949,496.425053 705.869979,496.815706 706.131118,498.657501 C706.131118,498.66654 706.134119,498.66654 706.13612,498.672565 C706.210159,500.767431 707.034596,502.841208 708.619434,504.443991 C711.966205,507.833335 717.412086,507.854425 720.786872,504.492195 C723.435273,501.861059 723.970556,497.945488 722.477767,494.739921 L722.527793,494.76101 C722.527793,494.76101 721.208095,492.26344 722.966025,490.511024 L746.043235,467.5388 C746.043235,467.5388 747.170832,466.341734 749.214913,467.395192 C749.352986,467.46549 749.461043,467.507668 749.553092,467.532775 C752.76179,469.15966 756.758905,468.683645 759.454331,466.002297 C762.829116,462.644085 762.851128,457.175942 759.504357,453.790615 Z M757.050059,463.735705 C755.095024,465.682946 752.056417,465.814502 749.92729,464.1836 C749.891271,464.162511 749.862256,464.153473 749.823235,464.129371 C746.705585,462.190163 742.880562,465.728137 742.880562,465.728137 L718.834839,489.662432 C715.45405,493.030687 717.964378,495.177774 717.964378,495.177774 C719.900403,497.134054 719.886395,500.298446 717.937364,502.239662 C715.985331,504.178869 712.835665,504.165814 710.900641,502.209534 C709.82107,501.115906 709.363828,499.653718 709.4999,498.23672 L709.490895,498.242746 C709.490895,498.242746 709.743029,494.929725 707.747973,494.208673 C707.53386,494.121303 707.374776,494.065065 707.374776,494.065065 C703.343643,492.800714 702.599249,491.693026 702.599249,491.693026 C700.8063,489.875333 700.818307,486.943927 702.626263,485.143306 C704.437221,483.342686 707.357767,483.354737 709.151716,485.170421 C709.337814,485.35922 709.501901,485.568104 709.649979,485.775984 L709.65098,485.772971 C709.65098,485.772971 709.659985,485.785022 709.662986,485.79406 C709.703007,485.853311 709.733023,485.913566 709.769042,485.972817 C710.210276,486.667758 711.889164,488.864053 714.33846,486.426738 L740.182134,460.697848 C743.801049,457.095602 740.711414,454.810933 740.711414,454.810933 L740.753436,454.791852 C740.632372,454.691427 740.497301,454.624142 740.386242,454.511666 C738.500244,452.602587 738.515252,449.523556 740.413256,447.632552 C742.31126,445.742554 745.383886,445.754605 747.265882,447.661676 C748.164357,448.569518 748.611594,449.739469 748.64261,450.922476 L748.657618,450.946578 C748.657618,450.946578 749.24693,454.428314 752.772796,454.424297 C752.773796,454.425301 752.773796,454.428314 752.774797,454.430322 C754.319614,454.297761 755.903452,454.813946 757.082076,456.005991 C759.200196,458.151069 759.185188,461.610711 757.050059,463.735705 Z" id="Shape"></path>
        </g>
    </g>
</svg>