<?xml version="1.0" encoding="UTF-8"?>
<svg width="12px" height="12px" viewBox="0 0 12 12" version="1.1" xmlns="http://www.w3.org/2000/svg" xmlns:xlink="http://www.w3.org/1999/xlink">
    <!-- Generator: sketchtool 51.2 (57519) - http://www.bohemiancoding.com/sketch -->
    <title>96EAEB24-6C63-46A8-9E1C-8E989B6994AB</title>
    <desc>Created with sketchtool.</desc>
    <defs></defs>
    <g id="Профиль-животного" stroke="none" stroke-width="1" fill="none" fill-rule="evenodd">
        <g id="01.2_animal_prof_mer_open" transform="translate(-905.000000, -302.000000)" fill="#5E6777">
            <g id="Group-2-Copy" transform="translate(443.000000, 282.000000)">
                <path d="M462.137373,30.0867705 L465.896034,26.328109 C466.079197,26.1449457 466.079197,25.8479792 465.896034,25.6648158 L462.144448,21.9132295 C461.961284,21.7300661 461.961284,21.4330997 462.144448,21.2499363 L463.249936,20.1444476 C463.4331,19.9612843 463.730066,19.9612843 463.91323,20.1444476 L467.664816,23.896034 C467.847979,24.0791973 468.144946,24.0791973 468.328109,23.896034 L472.08677,20.1373725 C472.269934,19.9542092 472.5669,19.9542092 472.750064,20.1373725 L473.862627,21.2499363 C474.045791,21.4330997 474.045791,21.7300661 473.862627,21.9132295 L470.103966,25.671891 C469.920803,25.8550543 469.920803,26.1520208 470.103966,26.3351842 L473.862627,30.0938456 C474.045791,30.277009 474.045791,30.5739755 473.862627,30.7571388 L472.757139,31.8626275 C472.573975,32.0457908 472.277009,32.0457908 472.093846,31.8626275 L468.335184,28.103966 C468.152021,27.9208027 467.855054,27.9208027 467.671891,28.103966 L463.91323,31.8626275 C463.730066,32.0457908 463.4331,32.0457908 463.249936,31.8626275 L462.137373,30.7500637 C461.954209,30.5669003 461.954209,30.2699339 462.137373,30.0867705 Z" id="+-copy"></path>
            </g>
        </g>
    </g>
</svg>