<?xml version="1.0" encoding="UTF-8"?>
<svg width="12px" height="12px" viewBox="0 0 12 12" version="1.1" xmlns="http://www.w3.org/2000/svg" xmlns:xlink="http://www.w3.org/1999/xlink">
    <!-- Generator: sketchtool 51.2 (57519) - http://www.bohemiancoding.com/sketch -->
    <title>8B91ACBD-D49E-4BF2-94F8-17B4944546C9</title>
    <desc>Created with sketchtool.</desc>
    <defs></defs>
    <g id="Профиль-животного" stroke="none" stroke-width="1" fill="none" fill-rule="evenodd">
        <g id="01.0_animal_prof" transform="translate(-1088.000000, -431.000000)" fill="#E1464B">
            <path d="M1088.13737,441.08677 L1091.89603,437.328109 C1092.0792,437.144946 1092.0792,436.847979 1091.89603,436.664816 L1088.14445,432.91323 C1087.96128,432.730066 1087.96128,432.4331 1088.14445,432.249936 L1089.24994,431.144448 C1089.4331,430.961284 1089.73007,430.961284 1089.91323,431.144448 L1093.66482,434.896034 C1093.84798,435.079197 1094.14495,435.079197 1094.32811,434.896034 L1098.08677,431.137373 C1098.26993,430.954209 1098.5669,430.954209 1098.75006,431.137373 L1099.86263,432.249936 C1100.04579,432.4331 1100.04579,432.730066 1099.86263,432.91323 L1096.10397,436.671891 C1095.9208,436.855054 1095.9208,437.152021 1096.10397,437.335184 L1099.86263,441.093846 C1100.04579,441.277009 1100.04579,441.573975 1099.86263,441.757139 L1098.75714,442.862627 C1098.57398,443.045791 1098.27701,443.045791 1098.09385,442.862627 L1094.33518,439.103966 C1094.15202,438.920803 1093.85505,438.920803 1093.67189,439.103966 L1089.91323,442.862627 C1089.73007,443.045791 1089.4331,443.045791 1089.24994,442.862627 L1088.13737,441.750064 C1087.95421,441.5669 1087.95421,441.269934 1088.13737,441.08677 Z" id="+-copy"></path>
        </g>
    </g>
</svg>