<?xml version="1.0" encoding="UTF-8"?>
<svg width="16px" height="20px" viewBox="0 0 16 20" version="1.1" xmlns="http://www.w3.org/2000/svg" xmlns:xlink="http://www.w3.org/1999/xlink">
    <!-- Generator: sketchtool 53.2 (72643) - https://sketchapp.com -->
    <title>42532ED9-9B49-4600-BE4A-C3A992CD1AD3</title>
    <desc>Created with sketchtool.</desc>
    <g id="Администрирование" stroke="none" stroke-width="1" fill="none" fill-rule="evenodd">
        <g id="07.0_administration_vaccine_list" transform="translate(-743.000000, -449.000000)" fill="#9A9AA9" fill-rule="nonzero">
            <path d="M755.363636,457.571429 C755.765298,457.571429 756.090909,457.891225 756.090909,458.285714 C756.090909,458.680203 755.765298,459 755.363636,459 L746.636364,459 C746.234702,459 745.909091,458.680203 745.909091,458.285714 C745.909091,457.891225 746.234702,457.571429 746.636364,457.571429 L755.363636,457.571429 Z M755.363636,460.428571 C755.765298,460.428571 756.090909,460.748368 756.090909,461.142857 C756.090909,461.537346 755.765298,461.857143 755.363636,461.857143 L746.636364,461.857143 C746.234702,461.857143 745.909091,461.537346 745.909091,461.142857 C745.909091,460.748368 746.234702,460.428571 746.636364,460.428571 L755.363636,460.428571 Z M755.363636,463.285714 C755.765298,463.285714 756.090909,463.605511 756.090909,464 C756.090909,464.394489 755.765298,464.714286 755.363636,464.714286 L746.636364,464.714286 C746.234702,464.714286 745.909091,464.394489 745.909091,464 C745.909091,463.605511 746.234702,463.285714 746.636364,463.285714 L755.363636,463.285714 Z M755.363636,451.142857 L754.433455,451.142857 L753.871273,449.488571 C753.772396,449.197005 753.494719,449.000233 753.181818,449 L748.818182,449 C748.505281,449.000233 748.227604,449.197005 748.128727,449.488571 L747.566545,451.142857 L743.727273,451.142857 C743.325611,451.142857 743,451.462654 743,451.857143 L743,468.285714 C743,468.680203 743.325611,469 743.727273,469 L758.272727,469 C758.674389,469 759,468.680203 759,468.285714 L759,451.857143 C759,451.462654 758.674389,451.142857 758.272727,451.142857 L755.363636,451.142857 Z M748.090909,452.571429 C748.40381,452.571195 748.681487,452.374424 748.780364,452.082857 L749.342545,450.428571 L752.657455,450.428571 L753.219636,452.082857 C753.318513,452.374424 753.59619,452.571195 753.909091,452.571429 L754.636364,452.571429 L754.636364,454 L747.363636,454 L747.363636,452.571429 L748.090909,452.571429 Z M757.545455,467.571429 L744.454545,467.571429 L744.454545,452.571429 L745.909091,452.571429 L745.909091,454.714286 C745.909091,455.108775 746.234702,455.428571 746.636364,455.428571 L755.363636,455.428571 C755.765298,455.428571 756.090909,455.108775 756.090909,454.714286 L756.090909,452.571429 L757.545455,452.571429 L757.545455,467.571429 Z" id="Shape"></path>
        </g>
    </g>
</svg>