<?xml version="1.0" encoding="UTF-8"?>
<svg width="19px" height="18px" viewBox="0 0 19 18" version="1.1" xmlns="http://www.w3.org/2000/svg" xmlns:xlink="http://www.w3.org/1999/xlink">
    <!-- Generator: sketchtool 51.3 (57544) - http://www.bohemiancoding.com/sketch -->
    <title>AEECA78F-AD91-4EFB-931C-59C0EE3369DF</title>
    <desc>Created with sketchtool.</desc>
    <defs></defs>
    <g id="Профиль-владельца" stroke="none" stroke-width="1" fill="none" fill-rule="evenodd">
        <g id="03.3_user_fiz_schet_open-copy" transform="translate(-845.000000, -119.000000)" fill="#0D51B6">
            <path d="M856.899495,121.909312 L856.899495,135.890522 L854.753936,139.419069 C854.466997,139.890963 853.85184,140.040899 853.379946,139.75396 C853.24311,139.670756 853.128258,139.555905 853.045054,139.419069 L850.899495,135.890522 L850.899495,121.909312 L856.899495,121.909312 Z M854.899495,134.949661 L854.899495,123.915519 L852.899495,123.915519 L852.899495,134.949661 L854.899495,134.949661 Z M856.899495,120.906208 L850.899495,120.902275 L850.899495,118.899495 C850.899495,118.34721 851.34721,117.899495 851.899495,117.899495 C851.899495,117.899495 851.899495,117.899495 851.899495,117.899495 L855.899495,117.899495 C856.45178,117.899495 856.899495,118.34721 856.899495,118.899495 L856.899495,120.906208 Z" id="Shape" transform="translate(853.899495, 128.899495) rotate(45.000000) translate(-853.899495, -128.899495) "></path>
        </g>
    </g>
</svg>