<?xml version="1.0" encoding="UTF-8"?>
<svg width="65px" height="91px" viewBox="0 0 65 91" version="1.1" xmlns="http://www.w3.org/2000/svg" xmlns:xlink="http://www.w3.org/1999/xlink">
    <!-- Generator: Sketch 52 (66869) - http://www.bohemiancoding.com/sketch -->
    <title>Group 4</title>
    <desc>Created with Sketch.</desc>
    <g id="Авторизация" stroke="none" stroke-width="1" fill="none" fill-rule="evenodd">
        <g id="01_login" transform="translate(-688.000000, -43.000000)">
            <g id="Group-4" transform="translate(688.000000, 43.000000)">
                <path d="M37.6792321,79.3824011 C37.6792321,79.6102802 37.8603843,79.7970434 38.0899841,79.804709 C39.1431945,79.8416435 40.1935963,79.9419939 40.7447763,78.8465022 C41.3001693,77.7440417 41.4202352,76.4847836 40.7026479,75.4053201 C40.072126,74.4575664 39.0680655,74.5760356 38.0864734,74.6171514 C37.8582779,74.6262108 37.6792321,74.812974 37.6792321,75.0394593 L37.6792321,79.3824011 Z M37.67853,87.708696 C37.67853,87.9400594 37.8667035,88.1282163 38.0998141,88.1317007 C38.3764573,88.1351851 38.62993,88.1379726 38.8834026,88.124732 C40.187277,88.0585286 40.8669487,87.4898764 41.0087811,86.198562 C41.0972507,85.3922745 41.0565266,84.5650806 40.998249,83.7525212 C40.9413756,82.9518087 40.4070469,82.437513 39.6634804,82.272353 C39.1677694,82.1622463 38.6453771,82.1692151 38.1138569,82.1594588 C37.8744271,82.1552775 37.67853,82.3448283 37.67853,82.5824636 L37.67853,87.708696 Z M35.0792068,89.9463703 L35.0792068,72.7056158 C35.0792068,72.4721618 35.2694868,72.2819142 35.5047038,72.2826111 C37.2551394,72.2937611 38.9950429,72.0888791 40.6998394,72.5516059 C42.5022333,73.040814 43.5336773,74.3537316 43.6691904,76.2373921 C43.6993824,76.6576093 43.6818289,77.0820078 43.7000846,77.5036188 C43.7548515,78.76218 43.4339734,79.8437342 42.44536,80.6465373 C42.2368243,80.8165755 42.2298029,81.1259892 42.4334236,81.3016023 C42.4348279,81.3022992 42.4362322,81.303693 42.4369343,81.3050867 C43.1601387,81.9280954 43.6375941,82.6953578 43.6727011,83.6591396 C43.7085103,84.6577654 43.7218509,85.6619661 43.667084,86.6591981 C43.5603587,88.620212 42.2880806,90.1338304 40.3213858,90.3303499 C38.7380596,90.4885411 37.1287542,90.3861001 35.5025974,90.3686782 C35.2680825,90.3658907 35.0792068,90.1784306 35.0792068,89.9463703 Z M18.1012454,81.3542863 L18.1047561,81.3542863 C18.1047561,80.2873665 18.114586,79.2197499 18.1012454,78.1521332 C18.0921176,77.4427117 18.0949261,76.7277152 18.0099672,76.0252625 C17.9102632,75.201553 17.2572728,74.6607759 16.406981,74.58621 C15.3987076,74.4977066 14.5729907,74.8963206 14.3265395,75.6823987 C14.1896222,76.1179472 14.163643,76.6008835 14.1608344,77.0629134 C14.1474937,79.931262 14.1517066,82.7996107 14.1566216,85.6679593 C14.1573237,86.00037 14.1882179,86.3341744 14.2233249,86.6651913 C14.299156,87.3864597 14.7316744,87.8366427 15.3923884,88.0714905 C16.8416058,88.5857862 18.0527977,87.715386 18.0928197,86.0902672 C18.1314374,84.5125361 18.1012454,82.9334112 18.1012454,81.3542863 Z M20.6886321,81.4121271 C20.6886321,83.0776649 20.7103985,84.7432026 20.6844193,86.4087403 C20.6317588,89.7600252 17.7859844,90.9948925 15.4878794,90.7105664 C13.1511567,90.4206652 11.6429595,88.8735967 11.585384,86.4686718 C11.5032336,83.0727867 11.5144679,79.6727204 11.5832776,76.2768353 C11.625406,74.2203492 12.7038934,72.7847812 14.5140109,72.2642135 C16.4491094,71.7067113 18.234652,71.9882499 19.6845716,73.5241684 C20.4562237,74.3416059 20.6612487,75.3597443 20.683015,76.4162109 C20.7160156,78.0810517 20.6914407,79.7465894 20.6914407,81.4121271 L20.6886321,81.4121271 Z M9.70779084,90.088394 C9.76606848,90.2842166 9.61510833,90.4807361 9.4086791,90.4793424 C8.71777311,90.4744642 8.07952764,90.4612235 7.44268645,90.4911893 C7.029828,90.5107018 6.92099626,90.3176667 6.82620733,89.9761966 C6.18445116,87.6660471 5.50337513,85.3663506 4.88478959,83.050626 C4.74576582,82.5286646 4.51616597,82.3676859 4.00851858,82.4129829 C3.65534204,82.4443424 3.29795267,82.4304049 2.89492417,82.4234361 C2.72289982,82.4213454 2.58106749,82.5593272 2.58106749,82.7293654 L2.58106749,90.1434473 C2.58106749,90.3120917 2.44274587,90.4486797 2.27282793,90.4486797 L0.307537421,90.4486797 C0.137619485,90.4486797 -1.13686838e-13,90.3120917 -1.13686838e-13,90.1434473 L-1.13686838e-13,72.6295168 C-1.13686838e-13,72.4608724 0.137619485,72.3235875 0.307537421,72.3235875 L2.2566787,72.3235875 C2.42659664,72.3235875 2.56491827,72.4608724 2.56491827,72.6295168 L2.56491827,79.7620601 C2.56491827,79.927917 2.69902705,80.0638082 2.86613642,80.0679894 C3.33657038,80.0784426 3.77751445,80.1063177 4.20792641,80.0505675 C4.94096081,79.9557921 5.25341321,79.3766867 5.35943639,78.7411343 C5.5707806,77.47212 5.70278296,76.1891681 5.88744584,74.9145788 C6.188664,72.8239457 7.25381073,71.944486 9.3440822,72.092921 C9.50557445,72.1047679 9.63195969,72.2378715 9.63195969,72.3988503 L9.63195969,74.064388 C9.63195969,74.2142167 9.52242582,74.3445328 9.37286995,74.3654392 C8.40602285,74.5006334 8.27893547,75.3229491 8.18625296,76.1745337 C8.07742122,77.1682813 8.01914358,78.1717852 7.82956572,79.1508984 C7.71090402,79.7613632 7.36685531,80.3251373 7.17376674,80.9265428 C7.10285058,81.1488467 7.12251051,81.432476 7.19061811,81.6617487 C8.01984572,84.4722565 8.8659247,87.2778862 9.7070887,90.0856064 L9.70779084,90.088394 Z M53.7904014,74.7332512 L49.7994363,74.7332512 C49.497516,74.7332512 49.2531712,74.9757647 49.2531712,75.2754221 L49.2531712,79.5375261 C49.2531712,79.8364867 49.497516,80.079697 49.7994363,80.079697 L53.1795394,80.079697 C53.4814597,80.079697 53.7258045,80.3222104 53.7258045,80.6218678 L53.7258045,81.8936696 C53.7258045,82.1933271 53.4814597,82.4358405 53.1795394,82.4358405 L49.802947,82.4358405 C49.5010267,82.4358405 49.2566819,82.6783539 49.2566819,82.9780114 L49.2566819,87.4547537 C49.2566819,87.7544111 49.5010267,87.9969246 49.802947,87.9969246 L53.8613176,87.9969246 C54.1625357,87.9969246 54.4075827,88.239438 54.4075827,88.5390954 L54.4075827,89.88616 C54.4075827,90.1851206 54.1625357,90.4283309 53.8613176,90.4283309 L47.1909854,90.4283309 C46.8890651,90.4283309 46.6447203,90.1851206 46.6447203,89.88616 L46.6447203,72.8600439 C46.6447203,72.5603865 46.8890651,72.3178731 47.1909854,72.3178731 L53.7904014,72.3178731 C54.0916196,72.3178731 54.3366665,72.5603865 54.3366665,72.8600439 L54.3366665,74.1910804 C54.3366665,74.4900409 54.0916196,74.7332512 53.7904014,74.7332512 Z M65,72.774328 L65,74.2712213 C65,74.5227941 64.7942729,74.7276762 64.5400981,74.7276762 L62.2391846,74.7276762 C61.9850098,74.7276762 61.7792828,74.9318614 61.7792828,75.1841311 L61.7792828,89.9955698 C61.7792828,90.2478396 61.5735557,90.4520247 61.3193809,90.4520247 L59.6216058,90.4520247 C59.3674311,90.4520247 59.161704,90.2478396 59.161704,89.9955698 L59.161704,75.2022499 C59.161704,74.9499802 58.9559769,74.745795 58.7018021,74.745795 L56.3994843,74.745795 C56.1460117,74.745795 55.9402846,74.5416098 55.9402846,74.2893401 L55.9402846,72.774328 C55.9402846,72.5220583 56.1460117,72.3178731 56.3994843,72.3178731 L64.5400981,72.3178731 C64.7942729,72.3178731 65,72.5220583 65,72.774328 Z M26.388115,80.3712009 C26.388115,80.6778271 26.638077,80.9259156 26.9470187,80.9273093 C27.1506393,80.9280062 27.3423236,80.9280062 27.5333058,80.9231281 C27.5424336,80.9231281 27.5508593,80.9231281 27.5592849,80.9231281 C28.9158199,80.8882842 29.9922008,79.7872174 30.0034351,78.4408497 C30.0104565,77.7230656 29.9907966,77.0045847 29.9634131,76.2881944 C29.9346253,75.538354 29.4894684,74.9787612 28.8083924,74.8073293 C28.2214032,74.6595912 27.6028176,74.6345036 26.9842321,74.5975691 C26.6612476,74.5780566 26.388115,74.83172 26.388115,75.1529807 L26.388115,80.3712009 Z M26.3733701,83.8263206 L26.3733701,89.8766128 C26.3733701,90.183239 26.122706,90.4327212 25.8130622,90.4327212 L24.3483977,90.4327212 C24.0387538,90.4327212 23.7873876,90.183239 23.7873876,89.8766128 L23.7873876,72.8226216 C23.7873876,72.5166923 24.0380517,72.267907 24.3469934,72.2665132 C24.6271473,72.2658163 24.9037906,72.2651194 25.181136,72.2693007 C26.3670508,72.284632 27.5550721,72.2651194 28.7374762,72.3327166 C30.5819986,72.4400357 32.1140686,73.6846593 32.3886055,75.4902695 C32.5922261,76.8338497 32.6624401,78.2401489 32.5093736,79.5872135 C32.2566031,81.8200097 30.6325527,83.1566211 28.3534055,83.2611528 C27.8892908,83.2820591 27.424474,83.2750903 26.9399973,83.2695153 C26.6275449,83.2660309 26.3733701,83.51621 26.3733701,83.8263206 Z" id="Fill-11" fill="#211300"></path>
                <path d="M26.7292903,15.8238717 C26.0890391,16.2395331 25.1283962,19.5664207 24.9149791,20.2088064 C24.2752601,20.1704868 24.0613108,19.8687198 23.8478938,19.8304002 C23.6339445,19.7926128 23.5275021,19.3769515 23.2065781,19.4147389 C22.8867186,19.4525263 22.8867186,19.0368649 22.8345619,18.8096083 C22.779744,18.5834161 22.4604167,19.2258019 22.3002209,19.0741201 C21.7664121,18.8479279 21.9798292,17.9782856 22.5673914,17.1464306 C21.6067484,18.0916477 20.8057692,17.2981124 21.2852923,17.0336006 C20.8595226,16.9958132 20.752548,16.6557267 21.1266931,16.352363 C21.0191862,16.2395331 20.5385987,16.1267031 20.913276,15.8994465 C21.2852923,15.6721899 23.4737486,14.9547616 24.4886772,14.5763554 C25.5025413,14.1984814 25.3423455,13.89565 25.4482557,13.7445004 C25.5557625,13.5938831 25.609516,13.4422012 25.0214215,13.1404343 C24.4343915,12.8376029 24.6478086,12.4219415 24.1145321,12.1196424 C23.5807233,11.8178754 24.2752601,11.7795558 23.6339445,11.2883196 C22.9936933,10.7965512 23.6876979,10.7209764 23.3678384,10.4186773 C23.0474467,10.1163781 22.8345619,9.92690888 22.9936933,9.51177973 C23.1538891,9.09558615 22.1937784,8.67992478 22.4604167,8.30205081 C22.7265228,7.92364462 22.4604167,7.01621487 22.7265228,6.79002271 C21.9266079,5.95763554 21.8733867,5.3535694 21.8733867,5.3535694 C21.8733867,5.3535694 22.140025,5.69312376 22.5131057,5.69312376 C21.4454882,4.55950185 21.9266079,3.87986091 21.9266079,3.87986091 C21.9266079,3.87986091 22.3539743,4.25720267 23.3678384,4.40888447 C22.6733016,3.87986091 22.3539743,3.38756032 22.5673914,2.97243117 C22.779744,3.50145473 23.7936081,3.72817911 23.7936081,3.72817911 C23.7936081,3.72817911 23.314085,2.74517457 23.5275021,2.2539384 C23.5807233,2.85906898 24.3811703,3.35030514 24.3811703,3.35030514 C24.3811703,3.35030514 23.9021794,2.29225802 24.1677533,1.80048964 C24.7547833,3.72817911 27.4765161,4.86233324 28.1167673,5.50471899 C28.7575508,6.14710474 30.1450278,6.79002271 30.3584449,7.28125887 C30.5723942,8.71771218 31.7991431,9.6623971 31.7991431,9.6623971 C34.5746294,8.30205081 35.6954682,9.47346012 35.6954682,9.47346012 C35.6954682,9.47346012 36.9765028,9.51177973 36.9765028,9.6623971 C34.8939567,10.4186773 34.7348253,11.2122126 34.5219404,11.7795558 C34.3079912,12.3463667 33.1339312,13.8589271 31.5330371,14.160694 C29.9316107,14.4629932 27.3700737,15.4076781 26.7292903,15.8238717 M47.2716145,41.7774269 C47.8256473,38.4015754 42.4194364,31.3486375 42.4194364,31.3486375 C41.0633599,33.0086219 37.9605631,32.0900156 37.9605631,32.0900156 L35.476729,32.5594309 C33.8598685,32.4535197 33.4995609,33.5062447 33.4995609,33.5062447 C31.9125043,34.0757167 30.9896485,33.6089625 30.5548312,33.2470551 C30.5197052,33.1661581 30.4356156,33.006493 30.2642433,32.7185637 C29.5532079,31.5061737 30.5063999,29.6551235 30.4744671,29.5284559 C30.4744671,29.5284559 34.9413236,25.4718989 34.95729,25.2233537 C34.9737886,24.9753406 35.1126959,23.7980769 35.1126959,23.7980769 C36.4347109,23.6352186 37.8892467,21.4211964 37.8892467,21.4211964 C36.570425,19.7388589 37.2559142,18.5530798 37.6454935,18.0990988 C37.3788552,18.7398879 39.2469198,20.6979137 39.2469198,20.6979137 L40.245882,20.7016392 L40.8180101,17.6797119 L42.3646185,21.7128513 C47.5685888,23.2403137 59.1718779,32.8622623 59.1718779,32.8622623 C59.4071157,32.8532146 59.6907847,32.86652 60,32.8995175 L60,19.6345444 C60,18.0240562 58.682775,16.7073517 57.0733654,16.7073517 L43.2927965,16.7073517 L43.2927965,2.92666052 C43.2927965,1.31723673 41.9755715,0 40.366162,0 L19.6343703,0 C18.0244285,0 16.7072035,1.31723673 16.7072035,2.92666052 L16.7072035,16.7073517 L2.92716677,16.7073517 C1.31722505,16.7073517 0,18.0240562 0,19.6345444 L0,33.8245104 C1.13574071,33.7111482 2.1480082,33.5615952 2.92237686,33.3795771 C4.43013385,33.0251206 6.37909471,31.7978286 7.95071716,30.6216293 C8.92998749,29.8892989 9.76289949,29.1761283 10.2504058,28.7072452 C10.5165119,28.4512489 10.707576,28.1276611 10.9098167,27.7854456 C11.154102,27.3708487 11.4319168,26.9009012 11.8779105,26.5123829 L12.671971,25.820501 L12.9583012,26.8338419 L13.4213257,28.4714732 C14.0131456,29.0143344 15.2941803,30.2655762 15.667261,30.9883267 C15.8950478,31.4311311 16.2356635,31.6535978 16.5086884,31.8324227 C16.7817132,32.0117797 17.1563905,32.2560673 17.157455,32.7297403 C17.160116,33.7558544 15.845552,34.697346 15.1499508,35.0518024 C14.6603156,35.3014121 14.1775992,35.3376029 13.7284121,35.3386673 C13.6209053,35.3386673 13.512334,35.3370707 13.4011017,35.335474 L13.3952473,35.3349418 C13.2909338,35.3333452 13.1844913,35.3312163 13.0764523,35.3312163 C12.7901221,35.3322807 12.4484419,35.3471828 12.0907954,35.4504329 C11.7437931,35.5515541 11.2381915,36.123155 10.8023098,38.27544 C10.7128982,38.7145189 10.5660076,39.2339625 10.4100695,39.7821459 C10.1578009,40.6725447 9.87253519,41.6784346 9.88371165,42.2287468 C9.88371165,42.2367301 9.88371165,42.2452455 9.88424386,42.253761 C9.89542031,42.5539313 10.0194257,42.9121133 10.1934591,43.2926483 L16.6177919,43.2926483 C17.0025812,42.8572949 17.2527209,42.4528101 17.3410681,42.1020792 L17.353309,42.0541797 L17.3719365,42.008409 C17.6151574,41.4187127 17.9759972,40.8758515 18.35919,40.3021218 C18.8397775,39.5793713 19.3368637,38.8337355 19.6003087,37.9688831 C19.7972272,37.3227718 19.9265547,36.5962958 20.052689,35.8932373 C20.2570585,34.7521643 20.4688789,33.5711751 20.9824636,32.6552299 C21.4039756,31.9037397 21.894143,31.5024482 22.438596,31.4635964 C22.5402485,31.4566775 22.6419011,31.4625319 22.7419569,31.4816917 L23.1980627,31.570572 L23.2842811,32.0277462 L23.3172783,32.2028456 C23.5706112,33.5493542 23.7206951,34.3450185 24.1134676,35.3285552 C24.4780329,35.4206287 24.8532425,35.4695927 25.2454828,35.5206855 C26.0198515,35.6218067 26.8202986,35.7261212 27.6345831,36.1699901 C28.0465153,36.3951178 28.3355065,36.6846438 28.5904361,36.9395756 C28.8996514,37.2493259 29.0880545,37.4276185 29.3690625,37.4893557 C29.6644402,37.5526895 30.0364565,37.5654627 30.5409936,37.5298041 C30.8624498,37.5058544 31.2004045,37.4659381 31.4979111,37.4292152 L31.5261183,37.4265541 C31.8550254,37.3866378 32.1658373,37.3493826 32.4660049,37.328094 C33.0759201,37.28392 33.7646026,37.2897743 34.2521089,37.6655194 C35.0520237,38.2823588 34.6943772,39.6171587 34.2388036,40.8407252 C33.8939301,41.7683792 33.3665079,42.9126455 32.6703744,44.2431876 C32.2344927,45.0766392 30.855531,45.3241201 29.109343,45.6375958 C28.2003246,45.8009864 27.2615024,45.9686347 26.6026238,46.21239 C25.7404401,47.012312 24.5413662,49.9320536 23.8894063,55.6943656 C23.6871657,57.4783565 22.6983155,58.8232685 21.7206418,60 L40.366162,60 C41.9755715,60 43.2927965,58.6832955 43.2927965,57.0728073 L43.2927965,43.2926483 L47.3211102,43.2926483 C47.2742755,42.3745742 47.2716145,41.7774269 47.2716145,41.7774269" id="Fill-1" fill="#0D51B6"></path>
            </g>
        </g>
    </g>
</svg>