<svg width="48" height="48" viewBox="0 0 48 48" fill="none" xmlns="http://www.w3.org/2000/svg">
<path d="M41.6 0H6.39998C5.95818 0 5.59998 0.3582 5.59998 0.8V47.2C5.59998 47.6418 5.95818 48 6.39998 48H41.6C42.0418 48 42.4 47.6418 42.4 47.2V0.8C42.4 0.3582 42.0418 0 41.6 0ZM40.8 46.4H7.19998V1.6H40.8V46.4Z" fill="#45474B"/>
<path d="M38.1647 38.6767C37.8807 38.3693 37.4079 38.3328 37.08 38.5928L32.3832 42.6176L31.9584 41.3472C31.8188 40.9275 31.3653 40.7004 30.9456 40.84C30.5259 40.9796 30.2988 41.4331 30.4384 41.8528L31.2384 44.2528C31.3224 44.5055 31.5266 44.6998 31.7832 44.7712C31.8538 44.7905 31.9268 44.8002 32 44.8C32.1909 44.8003 32.3755 44.7318 32.52 44.6072L38.12 39.8072C38.4445 39.5074 38.4646 39.0012 38.1647 38.6767Z" fill="#45474B"/>
<path d="M24 3.20001C22.2327 3.20001 20.8 4.63271 20.8 6.40001C20.8 8.16731 22.2327 9.60001 24 9.60001C25.7674 9.60001 27.2001 8.16731 27.2001 6.40001C27.2001 4.63271 25.7674 3.20001 24 3.20001ZM24 8.00001C23.1163 8.00001 22.4 7.28371 22.4 6.40001C22.4 5.51631 23.1163 4.80001 24 4.80001C24.8837 4.80001 25.6 5.51631 25.6 6.40001C25.6 7.28371 24.8837 8.00001 24 8.00001Z" fill="#45474B"/>
<path d="M36.8 12.8H11.2C10.7582 12.8 10.4 13.1582 10.4 13.6C10.4 14.0418 10.7582 14.4 11.2 14.4H36.8C37.2418 14.4 37.6 14.0418 37.6 13.6C37.6 13.1582 37.2418 12.8 36.8 12.8Z" fill="#45474B"/>
<path d="M36.8 17.6H11.2C10.7582 17.6 10.4 17.9582 10.4 18.4C10.4 18.8418 10.7582 19.2 11.2 19.2H36.8C37.2418 19.2 37.6 18.8418 37.6 18.4C37.6 17.9582 37.2418 17.6 36.8 17.6Z" fill="#45474B"/>
<path d="M36.8 21.6H11.2C10.7582 21.6 10.4 21.9582 10.4 22.4C10.4 22.8418 10.7582 23.2 11.2 23.2H36.8C37.2418 23.2 37.6 22.8418 37.6 22.4C37.6 21.9582 37.2418 21.6 36.8 21.6Z" fill="#45474B"/>
<path d="M36.8 26.4H11.2C10.7582 26.4 10.4 26.7582 10.4 27.2C10.4 27.6418 10.7582 28 11.2 28H36.8C37.2418 28 37.6 27.6418 37.6 27.2C37.6 26.7582 37.2418 26.4 36.8 26.4Z" fill="#45474B"/>
<path d="M36.8 30.4H11.2C10.7582 30.4 10.4 30.7582 10.4 31.2C10.4 31.6418 10.7582 32 11.2 32H36.8C37.2418 32 37.6 31.6418 37.6 31.2C37.6 30.7582 37.2418 30.4 36.8 30.4Z" fill="#45474B"/>
<path d="M17.6 40H11.2C10.7582 40 10.4 40.3582 10.4 40.8C10.4 41.2418 10.7582 41.6 11.2 41.6H17.6C18.0418 41.6 18.4 41.2418 18.4 40.8C18.4 40.3582 18.0418 40 17.6 40Z" fill="#45474B"/>
<path d="M16.8 43.2H12C11.5582 43.2 11.2 43.5582 11.2 44C11.2 44.4418 11.5582 44.8 12 44.8H16.8C17.2418 44.8 17.6 44.4418 17.6 44C17.6 43.5582 17.2418 43.2 16.8 43.2Z" fill="#45474B"/>
</svg>
