<svg width="28" height="28" viewBox="0 0 28 28" fill="none" xmlns="http://www.w3.org/2000/svg">
<path d="M18.3874 19.5V9.61111C18.3874 9.31643 18.2704 9.03381 18.062 8.82544C17.8536 8.61706 17.571 8.5 17.2763 8.5H11.7208C11.4261 8.5 11.1435 8.61706 10.9351 8.82544C10.7267 9.03381 10.6096 9.31643 10.6096 9.61111V19.5M18.3874 19.5H10.6096M18.3874 19.5H19.4985M18.3874 19.5H15.6096M10.6096 19.5H9.49854M10.6096 19.5H13.3874M15.6096 19.5V16.7222C15.6096 16.5749 15.5511 16.4336 15.4469 16.3294C15.3427 16.2252 15.2014 16.1667 15.0541 16.1667H13.943C13.7956 16.1667 13.6543 16.2252 13.5501 16.3294C13.446 16.4336 13.3874 16.5749 13.3874 16.7222V19.5M15.6096 19.5H13.3874M12.8319 10.7222H13.3874M12.8319 12.9444H13.3874M15.6096 10.7222H16.1652M15.6096 12.9444H16.1652" stroke="#F3F3F3" stroke-width="1.2" stroke-linecap="round" stroke-linejoin="round"/>
<path fill-rule="evenodd" clip-rule="evenodd" d="M18.5165 23.6998C21.1953 22.5902 23.1707 20.4998 24.1991 18.0172L25.5849 18.5912C24.4096 21.4285 22.152 23.8175 19.0905 25.0856C13.2004 27.5254 6.48037 24.9274 3.72015 19.2754C3.53838 18.9032 3.72201 18.4627 4.10469 18.3042C4.48737 18.1457 4.92396 18.3295 5.10903 18.7001C7.54957 23.5871 13.392 25.8224 18.5165 23.6998ZM4.7976 9.98085C5.82594 7.49821 7.80138 5.40788 10.4802 4.29829C15.6047 2.17563 21.4471 4.41099 23.8876 9.29794C24.0727 9.66851 24.5093 9.85235 24.892 9.69383C25.2747 9.53532 25.4583 9.09481 25.2765 8.72261C22.5163 3.07069 15.7963 0.472677 9.90613 2.91247C6.84467 4.18057 4.58703 6.56952 3.41178 9.40682L4.7976 9.98085Z" fill="#F3F3F3"/>
<path d="M3.70235 6.9023C3.58623 6.5047 3.16978 6.2765 2.77217 6.39262C2.37457 6.50874 2.14638 6.92519 2.26249 7.3228L3.70235 6.9023ZM6.84282 9.83254C7.24042 9.71642 7.46861 9.29997 7.3525 8.90236C7.23638 8.50475 6.81993 8.27656 6.42232 8.39268L6.84282 9.83254ZM2.26249 7.3228L3.05951 10.0519L4.49936 9.63141L3.70235 6.9023L2.26249 7.3228ZM4.11371 10.6295L6.84282 9.83254L6.42232 8.39268L3.69321 9.18969L4.11371 10.6295ZM3.05951 10.0519C3.19111 10.5025 3.66309 10.7611 4.11371 10.6295L3.69321 9.18969C4.0378 9.08906 4.39873 9.28682 4.49936 9.63141L3.05951 10.0519Z" fill="#F3F3F3"/>
<path d="M25.2786 21.0354C25.3947 21.433 25.8112 21.6612 26.2088 21.5451C26.6064 21.429 26.8346 21.0126 26.7185 20.6149L25.2786 21.0354ZM22.1381 18.1052C21.7405 18.2213 21.5123 18.6378 21.6285 19.0354C21.7446 19.433 22.161 19.6612 22.5586 19.5451L22.1381 18.1052ZM26.7185 20.6149L25.9215 17.8858L24.4816 18.3063L25.2786 21.0354L26.7185 20.6149ZM24.8673 17.3082L22.1381 18.1052L22.5586 19.5451L25.2877 18.7481L24.8673 17.3082ZM25.9215 17.8858C25.7899 17.4352 25.3179 17.1766 24.8673 17.3082L25.2877 18.7481C24.9432 18.8487 24.5822 18.6509 24.4816 18.3063L25.9215 17.8858Z" fill="#F3F3F3"/>
</svg>
