<svg width="13" height="13" viewBox="0 0 13 13" fill="none" xmlns="http://www.w3.org/2000/svg">
<path fill-rule="evenodd" clip-rule="evenodd" d="M5.03236 2.33334H7.96569V1.65625C7.96569 1.58837 7.91066 1.53334 7.84277 1.53334H5.15527C5.08739 1.53334 5.03236 1.58837 5.03236 1.65625V2.33334ZM9.16569 1.65625V2.33334H9.96569H11.1657V2.33667H11.834C12.2013 2.33667 12.499 2.6344 12.499 3.00167C12.499 3.36894 12.2013 3.66667 11.834 3.66667H11.1657V11.6771C11.1657 12.4077 10.5734 13 9.84277 13H3.15527C2.42464 13 1.83236 12.4077 1.83236 11.6771V3.66667H1.16402C0.796754 3.66667 0.499023 3.36894 0.499023 3.00167C0.499023 2.6344 0.796754 2.33667 1.16402 2.33667H1.83236V2.33334H3.03236H3.83236V1.65625C3.83236 0.925626 4.42465 0.333336 5.15527 0.333336H7.84277C8.5734 0.333336 9.16569 0.925625 9.16569 1.65625ZM3.03236 3.66667V11.6771C3.03236 11.745 3.08739 11.8 3.15527 11.8H4.56569V6.33334C4.56569 6.00197 4.83432 5.73334 5.16569 5.73334C5.49706 5.73334 5.76569 6.00197 5.76569 6.33334V11.8H7.23236V6.33334C7.23236 6.00197 7.50098 5.73334 7.83236 5.73334C8.16373 5.73334 8.43236 6.00197 8.43236 6.33334V11.8H9.84277C9.91066 11.8 9.96569 11.745 9.96569 11.6771V3.66667L9.16569 3.66667H7.96569H5.03236H3.83236H3.03236Z" fill="#828286"/>
</svg>
