<svg width="48" height="48" viewBox="0 0 48 48" fill="none" xmlns="http://www.w3.org/2000/svg">
<path d="M47.6184 31.9281L41.5301 28.3L47.6184 24.6719C47.855 24.5309 47.9999 24.2757 47.9999 24.0003C47.9999 23.725 47.855 23.4698 47.6184 23.3288L41.5301 19.7007L47.6184 16.0726C47.9892 15.8515 48.1107 15.3717 47.8897 15.0008C47.8232 14.8892 47.7299 14.796 47.6184 14.7295L24.4003 0.892469C24.1537 0.745499 23.8463 0.745499 23.5998 0.892469L0.38171 14.7295C0.0108656 14.9506 -0.110599 15.4304 0.110442 15.8013C0.176891 15.9129 0.270212 16.0061 0.38171 16.0726L6.47001 19.7007L0.381612 23.3288C0.0107679 23.5499 -0.110697 24.0297 0.110344 24.4006C0.176793 24.5122 0.270115 24.6054 0.381612 24.6719L6.46991 28.3L0.381612 31.9281C0.0107679 32.1492 -0.110697 32.629 0.110344 32.9999C0.176793 33.1115 0.270115 33.2047 0.381612 33.2712L23.5997 47.1082C23.8465 47.2542 24.1534 47.2542 24.4002 47.1082L47.6183 33.2712C47.9891 33.0501 48.1106 32.5703 47.8896 32.1994C47.8231 32.0879 47.7299 31.9947 47.6184 31.9281ZM2.30864 15.401L24 2.47396L45.6913 15.401L24 28.3281L2.30864 15.401ZM2.30864 24.0003L7.99668 20.6114L23.5997 29.9143C23.8463 30.0613 24.1536 30.0613 24.4002 29.9143L40.0032 20.6114L45.6913 24.0003L24 36.9274L2.30864 24.0003ZM24 45.5267L2.30864 32.5996L7.99668 29.2107L23.5997 38.5136C23.8463 38.6606 24.1536 38.6606 24.4002 38.5136L40.0032 29.2107L45.6913 32.5996L24 45.5267Z" fill="#45474B"/>
</svg>
