<svg xmlns="http://www.w3.org/2000/svg" width="24" height="24" fill="none" viewBox="0 0 32 32">
  <path fill="#fff" fill-rule="evenodd" d="M21.9117 10.7455c-.5003-.4365-1.2198-.4266-1.6326-.2997.2704-.3306.9003-.60157 1.0859-.63447.1413.05274.5467.46737.5467.93417Zm1.5973-1.80779c-.3291-1.75193-4.4192-.59111-6.4789-1.33522-.0395.51069.6341 1.32896 1.2784 1.63182-1.1014.95139-2.0902 2.86839-2.2896 5.21039-.199-2.342-1.1878-4.259-2.2891-5.21039.6443-.30286 1.3184-1.12113 1.2784-1.63182-2.0597.74411-6.14985-.41671-6.47945 1.33522-.06933.37075.10986.93576.30346 1.09819.03467-.11752.21547-.50185.7856-.58801 2.88159-.43342 5.28749 3.98741 3.11569 5.77481-.033.0272-.0144.0773.0304.0773h6.511c.0442 0 .0629-.0501.0304-.0773-2.1723-1.7874.2336-6.20823 3.1152-5.77481.5706.08616.7509.47049.7856.58801.1936-.16243.3728-.72744.3029-1.09819Zm.7008-4.02082c-.0517-.16553 1.6379-.16971 1.6379.88302 0 .70547-1.0107 1.03966-1.0107 1.77177 0 .34098.3685.59111.4816.59111-.2603-1.17544.816-.5603 1.1067-.34046-.5776-1.58066.7226-1.57073.5946-2.29553-.089-.50652-1.2192-.35352-1.6282-.60991-.7259-.45482-1.5846-2.22451-2.1504-.45482 1.0549.97492.441 2.40988-.8982 2.40988 0 0-.0074.21044.0048.22715 1.5974-.0778 2.1542-1.24645 1.8619-2.18221ZM5.57408 7.82233c.29067-.21984 1.36694-.83498 1.1072.34046.11254 0 .48107-.25013.48107-.59111 0-.73211-1.01067-1.0663-1.01067-1.77177 0-1.05273 1.6896-1.04855 1.63787-.88302-.29173.93576.26507 2.10441 1.8624 2.18221.01173-.01671.00426-.22715.00426-.22715-1.33866 0-1.95253-1.43496-.89813-2.40988-.56587-1.76969-1.42453 0-2.1504.45482-.40906.25639-1.5392.10339-1.62826.60991-.12747.7248 1.17226.71487.59466 2.29553Zm4.53542 2.92317c.5008-.4365 1.2203-.4266 1.6326-.2997-.2694-.3306-.9003-.60157-1.0854-.63447-.1413.05274-.5472.46737-.5472.93417ZM16.7789.945676 15.9997 0l-.7792.945676.7792.995284.7792-.995284Zm4.448 2.859484-.5542-.67205-.5536.67205.5536.65691.5542-.65691Zm4.4944 19.42634-.7024-.74-.7024.74.7024.6491.7024-.6491ZM11.8807 3.80516l-.5541-.67205-.5536.67205.5536.65691.5541-.65691ZM10.2935 7.0991h2.0667c1.7376 0 2.5195-1.0616 2.7557-1.98221h1.768c.2363.92061 1.0176 1.98221 2.7558 1.98221h2.0666s.3616-.48824.4523-.73001c.3264-.86996-.0907-1.2757-.6992-1.2757l-.7867.70965-.7866-.70965c-.6086 0-1.0256.40574-.6992 1.2757.0416.11122.1413.27467.2357.41827-.7333-.10026-1.6693-.59999-1.8747-1.67047 0 0 .5419-.85691.6779-1.20364.4885-1.24698-.1355-1.75663-1.048-1.75663l-1.1781 1.37857-1.1782-1.37857c-.9125 0-1.5365.50965-1.0474 1.75663.1354.34673.6778 1.20364.6778 1.20364-.2058 1.07048-1.1418 1.57021-1.8752 1.67047.095-.1436.1942-.30705.2358-.41827.3258-.86996-.0902-1.2757-.6992-1.2757l-.7867.70965-.7867-.70965c-.60902 0-1.02502.40574-.69915 1.2757.09066.24177.45275.73001.45275.73001Zm21.367 6.3769c-.399.2011-2.7392 1.2924-5.7371.8888.0315-.1426.0571-.2862.0789-.4298 1.9952-.2376 3.6171-.5744 4.6507-1.1467 1.1781-.6527 1.6933-2.2109 1.0987-3.37018-.0155-.02924-.0582-.03446-.0795-.00992-.3259.37336-2.3749 2.5921-5.6032 3.2819-.0085-.1676-.0235-.3331-.0459-.4976 1.568-.8851 3.0987-1.9049 3.8278-2.83756 1.1018-1.4099 1.0005-3.2083-.048-4.12526-.0224-.01984-.0587-.0141-.0742.01044-.3317.54464-3.4368 5.54038-6.8458 7.69698-.0342.022-.08.0502-.1259.0778-.0976.059-.1083.1854-.0251.2606.3931.3546.6374.848.6374 1.3958 0 .9525-.7376 1.7446-1.7126 1.9164-.4954.0956-1.2106.0679-1.8976-.1582-.0309-.0099-.0629.0104-.0629.0412v3.0167c0 .0486.0741.0606.0917.0141.4176-1.1013 1.6678-1.3352 2.2144-1.3352.1968 1.177.5483 2.1519 1.0048 2.6767.7435.8527 1.9574.8407 2.4838.2512.0181-.0204.0128-.0522-.0118-.0658-.3093-.177-2.0789-1.2585-2.433-3.0308.1397-.048.2762-.1023.4069-.1666.5712.941 1.4027 1.7791 2.072 2.0992 1.1243.5368 2.1536.2757 2.6101-.5102.0166-.0276-.0037-.0621-.0373-.0652-.6955-.0554-2.8299-.6642-3.7387-2.1478.104-.095.2059-.1942.3008-.2997.951.7206 2.2955 1.3577 3.2582 1.4877 1.1264.1525 2.4026-.2052 2.4336-1.5091.0005-.0261-.023-.0475-.0507-.046-.4005.0241-3.0517.1389-4.9408-.9404.0656-.1238.1264-.2501.1835-.3791 0 0 2.8544.6715 4.2069.4491 1.344-.2209 2.1312-1.2183 1.9792-2.459-.0043-.0308-.0405-.0491-.0693-.0345ZM6.45568 15.5204c.05707.129.1184.2553.184.3791-1.88853 1.0788-4.53866.965-4.94079.9404-.02827-.0015-.05173.0209-.0512.0465.03147 1.3034 1.3072 1.6611 2.4336 1.5086.96213-.13 2.30719-.7671 3.25813-1.4877.09546.1055.1968.2047.3008.2997-.90934 1.4836-3.0432 2.0924-3.73867 2.1478-.0336.0031-.05333.0376-.03733.0652.45653.7859 1.48586 1.047 2.61066.5102.6688-.3201 1.50027-1.1582 2.07147-2.0992.1312.0643.26773.1186.40693.1666-.35413 1.7723-2.12373 2.8538-2.43306 3.0308-.024.0136-.02987.0454-.01174.0658.5264.5895 1.7408.6015 2.48427-.2512.45653-.5248.80746-1.4997 1.00426-2.6767.54719 0 1.79679.2339 2.21439 1.3352.0181.0465.0923.0345.0923-.0141v-3.0167c0-.0308-.0326-.0511-.0635-.0412-.6869.2261-1.4021.2538-1.8971.1582-.97542-.1718-1.71302-.9639-1.71302-1.9164 0-.5478.2448-1.0418.63733-1.3963.08374-.0747.07254-.2011-.02453-.2601-.0464-.0276-.09227-.0558-.12693-.0778-3.40693-2.1556-6.5104-7.14764-6.8448-7.69593-.01546-.02559-.0528-.03081-.07573-.01097-1.04693.91748-1.1488 2.71536-.04693 4.12474.72906.93266 2.25973 1.95246 3.82719 2.83756-.02186.1645-.03733.33-.04533.4976C2.70475 12.0008.65729 9.78574.328224 9.40977c-.021867-.02559-.0656-.02037-.080534.00887-.593599 1.15976-.0784 2.71696 1.09867 3.36966 1.03359.5723 2.65546.9091 4.65066 1.1467.02186.1436.04746.2872.07893.4298-2.99466.4031-5.33386-.6857-5.735993-.8883-.029867-.0151-.066133.0037-.069867.035-.151466 1.2407.6352 2.2371 1.9792 2.458 1.352.2224 4.20639-.4491 4.20639-.4491Zm18.56322 9.3131-1.04-.8146c-.415.246-.72.6366-.8384 1.0945-.6256.0872-2.3312-.2898-2.1654-.5399 1.8694-2.6172.4395-4.1754-1.2789-4.0887v1.7577c0 .5644-.4949 1.0219-1.1045 1.0219H17.405c-.8512 0-1.4053.8517-1.4053.8517s-.5542-.8517-1.4054-.8517h-1.1866c-.6102 0-1.104-.4575-1.104-1.0219v-1.7577c-1.7184-.0867-3.14935 1.4715-1.2795 4.0887.1643.2475-1.58879.6438-2.41119.5436-.21653-.2235-.52906-.3645-.87893-.3645-.15413 0-.3008.0282-.43573.0778 0 0-3.23146-3.0454-3.29066-3.0751l.02666-.0617c.184-.3425-.0976-.7159-.27573-.6898.20693-.247.21653-1.3284-.9312-1.5785.0336.2172.05067.6605.05067.6605s-.88587-.4767-1.33067-.0652c-.39093.4605.15147 1.296.15147 1.296s-.45333.011-.6768-.0078c.32853 1.106 1.4304 1.0276 1.6688.8094-.01547.176.38293.4266.72053.2256l.14827-.0716c.02613.035 3.17333 2.9948 3.17333 2.9948-.14454.2135-.21334.4757-.16587.755.07467.4366.44.7984.90667.8924.3296.0658.63946.0021.88799-.1425l.83307.7697c.07414.0668.1744.1086.2864.1008.20373-.0136.35627-.1781.3408-.3666-.0064-.0851-.05013-.1582-.1104-.2136-.01333-.0146-.84853-.7864-.84853-.7864.68906-.4809 1.97275-.8198 3.03835-.8198.1872 0 .2752-.1577.2107-.3123-.4827-1.1556.5552-1.9926 1.6288-1.3112.4683.2971.944.8825 1.3024 1.859-1.7616.4245-3.9733 1.5942-4.4208 2.871-.1723.4929.3968 1.165 1.088 1.3002.0261.0057.0512-.0115.056-.036.3611-1.906 2.4203-3.3264 3.4917-3.5676.0539.1436.0363.0971.0902.2402-1.167.5493-2.2987 1.7081-2.6219 3.0856-.1483.6308.5584 1.1995 1.1419 1.3551.0293.0078.0581-.0126.0597-.0408.1109-1.742.8837-3.2213 1.576-3.8944.0187.1295.0331.2621.0427.3963 0 0-.7088 1.966-.7088 3.4005 0 .6673.9962 1.1331 1.1434 1.1984.184-.0653 1.1798-.5311 1.1798-1.1984 0-1.4345-.7088-3.4005-.7088-3.4005.0101-.1342.024-.2668.0432-.3963.6917.6731 1.465 2.1519 1.5754 3.8939.0016.0282.031.0491.0598.0413.584-.1556 1.2901-.7243 1.1424-1.3551-.3238-1.3775-1.455-2.5363-2.6219-3.0856.0533-.1431.0357-.0966.0896-.2402 1.072.2412 3.1307 1.6616 3.4917 3.5676.0048.0245.0304.0417.056.036.6907-.1352 1.2608-.8073 1.0875-1.3002-.4464-1.2768-2.6587-2.4465-4.4203-2.871.359-.9765.8347-1.5619 1.303-1.859 1.073-.6814 2.1109.1556 1.6282 1.3112-.0645.1546.023.3123.2107.3123 1.2053 0 2.6901.4334 3.2779 1.0146.3754.5608 1.0693.9196 1.8522.8428.8896-.0867 1.615-.752 1.7152-1.5744.0875-.7206-.2869-1.3676-.8837-1.7201l-1.0405.8146Zm-7.6656-5.2495c.3706-.1368.9514-.0261.9317.5065-.0048.1207.1653.1207.1776-.0026.1109-.7974-.4304-1.0271-.9968-.9336-.0704-.2742-.128-.5139-.1936-.7515-.0523-.1921-.0715-.553.152-.553.1205 0 .072.3358.0608.4804-.0101.1269.0357.2037.1392.2074.0645.0026.1451-.0794.1931-.1337.3242-.365.3994-.93.0197-1.2026-.3179-.2287-1.1136-.0585-1.3323.2673-.033-.1227-.1909-.3253-.2666-.4135-.0736-.0862-.0928-.1452.009-.2209.048-.0366.1931-.1802.1931-.3285 0-.0877-.0683-.2496-.2853-.2496-.1712 0-.3616.118-.3616.3812 0 .0585.0144.1212.0522.1885-.1082-.0177-.4021-.0104-.553.0267l2.0869 5.7007c.5973-.2935 1.0352-.7583 1.0352-1.2569 0-.4251-.6288-.2841-.9344.0475-.0981-.5389-.1856-1.0366-.2811-1.5326-.0261-.1368.0438-.1859.1542-.2272Zm-2.951-3.8725.4384 1.2125c-.3754.0888-.9792.3614-.9792.7222 0 .4804.8539.7932 1.3478.7556-.0246.1096.0037.2073.0805.2966-.1792 0-.5173.083-.6283.2021-.2618-.2428-.6714-.3311-.8661-.1833-.1957.1488-.2016.401.0027.6861.1424.1974.1957.3922.0357.6209.5952 0 .376-.7702.6091-.7702-.0304.1493-.0118.3222.056.5138.0448.1274.0448.2178-.032.3405-.192.3055-.4907 1.0073-.4502 1.6417-.1952-.001-.2944-.0485-.2256-.3138.0256-.0987-.0357-.1692-.1168-.0475-.0896.1342-.1328.3634-.1328.4616 0 .565.6763.6788.9344.5593.7467.7192 2.2134.5274 2.7046.2861l-2.5824-7.0531c-.0528-.1332-.2422-.0695-.1958.0689Zm-.0896 5.8098c-.0533-.2903.3526-.8094.8688-1.3101-.1098.3263-.0416.8887.1739 1.0824-.3744 0-.8192.07-1.0427.2277Z" clip-rule="evenodd"/>
</svg>
