<svg width="15" height="18" viewBox="0 0 15 18" fill="none" xmlns="http://www.w3.org/2000/svg">
<path fill-rule="evenodd" clip-rule="evenodd" d="M6.77032 13.1693L2.15982 8.53044C1.90025 8.26927 1.47811 8.26798 1.21695 8.52755C0.955778 8.78712 0.954482 9.20926 1.21405 9.47042L6.96478 15.2566L7.43768 15.7324L7.91057 15.2565L13.6608 9.4704C13.9203 9.20922 13.919 8.78708 13.6578 8.52753C13.3967 8.26797 12.9745 8.26928 12.715 8.53046L8.10376 13.1705L8.10376 1.28577C8.10376 0.917549 7.80526 0.619049 7.43704 0.619049C7.06882 0.619049 6.77032 0.917549 6.77032 1.28577L6.77032 13.1693ZM14.813 16.7142C14.813 17.0825 14.5145 17.381 14.1463 17.381H0.7285C0.360283 17.381 0.0617828 17.0825 0.0617828 16.7142C0.0617828 16.346 0.360283 16.0475 0.7285 16.0475H14.1463C14.5145 16.0475 14.813 16.346 14.813 16.7142Z" fill="#828286"/>
</svg>
