<svg xmlns="http://www.w3.org/2000/svg" width="48" height="48" fill="none">
  <path fill="#45474B" d="M45.5998 43.0785v-.7999c-.0066-1.0111-.6465-1.9095-1.6-2.2462v-.9538c-.0031-1.0137-.6438-1.9157-1.6-2.2526V24.5313c.9562-.3367 1.5968-1.2388 1.6-2.2526v-1.4109l1.4578-2.9156 2.3078-2.3078c.3123-.3119.3128-.818.0009-1.1304-.0452-.0452-.0955-.0848-.1501-.118L24.4165.23867c-.2557-.15628-.5772-.15628-.8328 0L.383916 14.396c-.37705821.2295-.496776.7212-.267278 1.0983.033187.0545.072843.105.11803.1501l2.307722 2.3078 1.4578 2.9156v1.4109c.0031 1.0137.64387 1.9158 1.60002 2.2525v12.2947c-.95615.3368-1.59683 1.2388-1.60002 2.2526v.9538c-.95343.3367-1.59336 1.2351-1.60001 2.2462v.7999c-1.32486.0014-2.39857216 1.0752-2.3999784 2.4v1.6c-.00009374.4418.3578404.7999.7995854.8H47.1999c.4417.0001.7998-.3579.7999-.7996v-1.6004c-.0014-1.3248-1.0751-2.3985-2.4-2.3999Zm-3.1999-20.7998c-.0005.4417-.3583.7996-.8.8H36.8c-.4417-.0005-.7996-.3583-.8-.8v-.8h6.4v.8h-.0001ZM20.0002 36.826V24.5313c.9561-.3367 1.5968-1.2388 1.6-2.2526v-.8h4.7999v.8c.0031 1.0137.6439 1.9158 1.6 2.2525v12.2947c-.9561.3368-1.5968 1.2388-1.6 2.2526v.8h-4.7999v-.8c-.0032-1.0137-.644-1.9157-1.6-2.2525ZM6.40026 23.0788c-.44165-.0005-.79958-.3583-.79996-.8v-.8h6.4v.8c-.0005.4417-.3583.7996-.8.8H6.40026Zm3.99994 1.5999v11.9999H7.20022V24.6787h3.19998Zm1.6-.1474c.2954-.1049.5672-.2669.7999-.4768.2328.2099.5047.3719.8.4767v12.2947c-.2954.1049-.5672.2669-.8.4768-.2327-.2099-.5046-.3719-.7999-.4768V24.5313Zm1.6 14.5472c.0005-.4416.3584-.7995.8-.7999h4.7999c.4417.0004.7996.3583.8.7999v.8h-6.3999v-.8Zm1.5999-2.3999V24.6787H18.4v11.9999h-3.1999Zm4-13.5998h-4.7999c-.4417-.0005-.7996-.3583-.8-.8v-.8h6.4v.8c-.0005.4416-.3584.7995-.8001.8ZM28 39.0785c.0005-.4416.3584-.7995.8-.7999h4.8c.4416.0004.7995.3583.7999.7999v.8H28v-.8Zm1.6-2.3999V24.6787h3.1999v11.9999H29.6Zm4-13.5998h-4.8c-.4416-.0005-.7996-.3583-.8-.8v-.8h6.4v.8c-.0005.4416-.3584.7995-.8.8Zm.7999 1.4525c.2954-.1049.5672-.2669.8-.4768.2328.2099.5046.3719.7999.4767v12.2947c-.2954.1049-.5671.2669-.7999.4768-.2328-.2099-.5047-.3719-.8-.4768V24.5313Zm1.6 14.5472c.0005-.4416.3584-.7995.8-.7999h4.7999c.4417.0004.7996.3583.8.7999v.8h-6.4v-.8h.0001Zm1.6-2.3999V24.6787h3.2v11.9999h-3.2ZM3.31901 16.4663l-1.23439-1.2344L24.0001 1.85856 45.9155 15.2319l-1.2344 1.2344L24.4196 3.99763c-.2573-.15862-.5818-.15862-.8391 0L3.31901 16.4663Zm38.65429.2125H6.02677L24.0001 5.61837 41.9733 16.6788ZM5.29477 19.8787l-.79996-1.6H43.5054l-.8 1.6H5.29477Zm.30544 19.1998c.00047-.4416.35831-.7995.79996-.7999h4.79993c.4417.0004.7996.3583.8.7999v.8H5.60021v-.8Zm40.79959 7.2H1.60031v-.8c.00047-.4416.35831-.7996.79996-.8H19.2001c.4418 0 .8-.3581.8-.7999 0-.4419-.3583-.8-.8-.8H4.00029v-.7999c.00928-.4502.38099-.8081.83127-.8H43.1686c.4502-.008.822.3498.8313.8v.7999H28.8c-.4418 0-.8.3581-.8.8 0 .4418.3582.7999.8.7999h16.7998c.4417.0005.7996.3584.8.8v.8Z"/>
  <path fill="#45474B" d="M24 8.27887c-1.7665.00187-3.198 1.43343-3.1999 3.19993 0 1.7673 1.4327 3.2 3.1999 3.2 1.7673 0 3.2-1.4327 3.2-3.2 0-1.76725-1.4327-3.19993-3.2-3.19993Zm0 4.79993c-.8836 0-1.6-.7163-1.6-1.6s.7164-1.60001 1.6-1.60001c.8833.00103 1.599.71671 1.6001 1.60001 0 .8837-.7164 1.6-1.6001 1.6Z"/>
</svg>
