<svg xmlns="http://www.w3.org/2000/svg" width="48" height="48" fill="none">
  <g fill="#45474B" clip-path="url(#a)">
    <path d="M34.0912 24.5875c-.0828-.2827-.2953-.5136-.5778-.6169-.057-.0209-.5191-.1844-1.2369-.2894 3.0664-3.2627 2.054-7.0747 1.8147-7.8192-.0828-.2828-.2953-.5137-.5778-.617-.1316-.0482-2.4267-.8575-5.0416.0526.1477-.6058.234-1.2717.234-2.0024 0-4.67498-3.5403-6.72979-4.2507-7.09457-.2585-.14157-.5723-.1545-.8449-.02775-.1758.08165-4.3058 2.05818-4.3058 7.12232 0 .7322.0867 1.3995.2349 2.0062-2.6195-.9161-4.9207-.1047-5.0526-.0564-.2824.1033-.495.3342-.5777.617-.2394.7445-1.2518 4.5565 1.8146 7.8192-.7178.105-1.1799.2685-1.2369.2894-.2824.1033-.495.3343-.5778.617-.2443.7601-1.2949 4.7167 2.0109 8.0225 1.9131 1.9131 4.0363 2.3694 5.6271 2.3694.5889 0 1.1037-.0627 1.509-.1371v6.1343c0 .5177.4197.9375.9375.9375.5177 0 .9375-.4198.9375-.9375V34.84c.4071.0754.927.1394 1.5223.1394 1.5906 0 3.7142-.4565 5.627-2.3694 3.3058-3.3059 2.2553-7.2624 2.011-8.0225Zm-11.0353 7.3324c-.0208.4255-.0806.7832-.1377 1.0403-1.0021.2227-3.5093.4873-5.6725-1.676-2.1306-2.1305-1.9073-4.5962-1.6715-5.6721.6301-.1369 1.8597-.2896 3.2209.1522.0896.0335.179.0652.2679.0948.7209.2733 1.4694.7196 2.1788 1.4289 1.3518 1.3518 1.7555 2.8377 1.8141 4.0064v.6255Zm0-8.7254c-.0208.4255-.0806.7832-.1377 1.0402-.6209.1381-1.8196.2914-3.1561-.1258-.1355-.0522-.2702-.0997-.404-.1427-.6992-.2762-1.4232-.7184-2.1125-1.4075-2.1305-2.1306-1.9072-4.5962-1.6714-5.672 1.0012-.2177 3.5155-.4762 5.6676 1.6759.0137.0137.0261.0275.0395.0411.0822.0922.1647.1804.2471.2652 1.1221 1.2666 1.4733 2.6191 1.5275 3.7001v.6255Zm.9507-4.7038c-.2938-.1885-.7172-.499-1.1472-.948-.0439-.0481-.0883-.0962-.1338-.1441-.7833-.8701-1.5463-2.2048-1.5463-4.1034 0-3.0559 1.9556-4.64151 2.821-5.19351.9268.59306 2.8304 2.17861 2.8304 5.19351 0 1.7916-.6723 3.0771-1.4028 3.946-.1519.152-.294.3056-.4279.4599-.3749.3644-.7338.6242-.9934.7896Zm.9301 4.4c-.0013-1.1007.2834-2.5572 1.4491-3.925.1381-.1372.2769-.2849.4145-.4436 2.1513-2.116 4.6293-1.8576 5.6251-1.6373.236 1.0749.4608 3.5421-1.6711 5.6739-.6879.688-1.4105 1.1298-2.1085 1.4061-.136.0437-.273.092-.4108.1452-1.3364.4165-2.5344.2627-3.1528.125-.0694-.3124-.1429-.7713-.1456-1.3204 0-.008.0001-.016.0001-.0239Zm5.8176 8.3935c-2.1635 2.1636-4.6709 1.8986-5.6706 1.6768-.218-.9973-.4815-3.5169 1.6745-5.673.6898-.6898 1.4144-1.132 2.1142-1.4082.1335-.043.2678-.0902.4029-.1423 1.3337-.4163 2.5297-.2644 3.1501-.1273.236 1.075.4608 3.5422-1.6711 5.674Z"/>
    <path d="M29.0021.522281C27.368.175781 25.685 0 24 0 17.5894 0 11.5625 2.49638 7.02947 7.02947 2.49647 11.5625 0 17.5894 0 24c0 5.3417 1.79719 10.556 5.0715 14.7545-.36834.5698-.56663 1.2335-.56663 1.9282 0 .9516.3706 1.8461 1.04344 2.5191.67285.6728 1.5675 1.0434 2.51907 1.0434.95156 0 1.84621-.3706 2.51902-1.0434.673-.673 1.0435-1.5675 1.0435-2.5191 0-.9515-.3706-1.8461-1.0435-2.519-.67281-.673-1.56746-1.0436-2.51902-1.0436-.564 0-1.10766.1312-1.59732.3774C3.50269 33.6455 1.875 28.8807 1.875 24 1.875 11.8002 11.8002 1.875 24 1.875c1.5546 0 3.1066.162 4.6132.4815.5068.10734 1.0041-.21619 1.1116-.72263.1074-.50653-.2161-1.004151-.7227-1.111589ZM6.87412 39.4894c.32897-.3291.76107-.4935 1.19326-.4935.43218 0 .86428.1645 1.19324.4935.31876.3186.49426.7425.49426 1.1932 0 .4508-.1755.8745-.49426 1.1933-.65793.6581-1.72856.6579-2.3865 0-.31875-.3187-.49424-.7425-.49424-1.1933 0-.4507.17549-.8745.49424-1.1932ZM42.9285 9.24553c.3684-.56981.5667-1.23356.5667-1.92825 0-.95156-.3706-1.84621-1.0435-2.51906-.6728-.67294-1.5675-1.04344-2.519-1.04344-.9516 0-1.8463.3706-2.5191 1.04344-.6728.67285-1.0434 1.5675-1.0434 2.51906 0 .95157.3706 1.84622 1.0434 2.51907.6728.67295 1.5675 1.04345 2.5191 1.04345.5641 0 1.1076-.1312 1.5974-.3774C44.4974 14.3545 46.125 19.1193 46.125 24c0 12.1998-9.9252 22.125-22.125 22.125-1.3124 0-2.6273-.1157-3.9082-.344-.5094-.0906-.9967.2487-1.0874.7586-.0909.5097.2487.9965.7584 1.0874C21.1521 47.8745 22.5777 48 24 48c6.4107 0 12.4376-2.4965 16.9707-7.0294C45.5038 36.4377 48 30.4106 48 24c0-5.3417-1.7971-10.556-5.0715-14.75447Zm-1.8025-.735c-.3186.31875-.7425.49425-1.1932.49425-.4508 0-.8746-.1754-1.1933-.49425-.658-.65793-.658-1.72847 0-2.3865.3187-.31875.7425-.49425 1.1933-.49425.4507 0 .8745.1755 1.1932.49425.3188.31866.4943.7425.4943 1.19325 0 .45075-.1755.8745-.4943 1.19325Z"/>
  </g>
  <defs>
    <clipPath id="a">
      <path fill="#fff" d="M0 0h48v48H0z"/>
    </clipPath>
  </defs>
</svg>
