<svg width="20" height="20" viewBox="0 0 20 20" fill="none" xmlns="http://www.w3.org/2000/svg">
<path fill-rule="evenodd" clip-rule="evenodd" d="M18.6192 11.875C18.6192 11.5989 18.3954 11.375 18.1192 11.375C17.8431 11.375 17.6192 11.5989 17.6192 11.875V12.7781C15.9581 11.0042 13.1127 11.0395 11.4988 12.8841L12.2514 13.5426C13.4984 12.1173 15.7155 12.1173 16.9625 13.5426L17.0174 13.6053H16.1679C15.8917 13.6053 15.6679 13.8292 15.6679 14.1053C15.6679 14.3814 15.8917 14.6053 16.1679 14.6053H18.1192C18.3954 14.6053 18.6192 14.3814 18.6192 14.1053V11.875ZM11.875 18.6198C11.5989 18.6198 11.375 18.396 11.375 18.1198V15.8895C11.375 15.6134 11.5989 15.3895 11.875 15.3895H13.8263C14.1025 15.3895 14.3263 15.6134 14.3263 15.8895C14.3263 16.1657 14.1025 16.3895 13.8263 16.3895H12.9765L13.0317 16.4525C14.2787 17.8778 16.4958 17.8778 17.7428 16.4525L18.4954 17.111C16.8815 18.9556 14.0361 18.9909 12.375 17.217V18.1198C12.375 18.396 12.1511 18.6198 11.875 18.6198Z" fill="#45474B"/>
<path fill-rule="evenodd" clip-rule="evenodd" d="M10 17.5V15.4341L10.0344 14.2007C10.3562 11.3931 12.7615 9.27047 15.625 9.26708H16.2156C16.1731 9.63792 16.0942 9.99681 15.9828 10.3404L17.099 10.9322C17.3577 10.2191 17.499 9.45099 17.5 8.65038C17.5 8.30981 17.2202 8.03368 16.875 8.03368H15.625C13.383 8.03607 11.2832 9.11807 10 10.9322V6.80028H10.625C13.3852 6.7972 15.6219 4.59019 15.625 1.8667C15.625 1.52613 15.3452 1.25 15 1.25H13.75C11.9298 1.25108 10.2541 2.22808 9.375 3.80066C8.49586 2.22808 6.82016 1.25108 5 1.25H3.75C3.40484 1.25 3.125 1.52613 3.125 1.8667C3.12812 4.59019 5.36484 6.7972 8.125 6.80028H8.75V10.9322C7.4668 9.11807 5.36703 8.03607 3.125 8.03368H1.875C1.52984 8.03368 1.25 8.30981 1.25 8.65038C1.25445 12.395 4.32992 15.4297 8.125 15.4341H8.75V17.5H10ZM4.42687 2.4834C4.7343 4.26257 6.29586 5.56465 8.125 5.56689H8.69812C8.3907 3.78771 6.82914 2.48563 5 2.4834H4.42687ZM8.125 14.2007C5.26148 14.1973 2.85625 12.0747 2.53438 9.26708H3.125C5.98852 9.27047 8.39375 11.3931 8.71562 14.2007H8.125ZM14.3231 2.4834H13.75C11.9209 2.48563 10.3593 3.78771 10.0519 5.56689H10.625C12.4541 5.56465 14.0157 4.26257 14.3231 2.4834Z" fill="#BE8A32"/>
</svg>
