<svg width="18" height="18" viewBox="0 0 18 18" fill="none" xmlns="http://www.w3.org/2000/svg">
<rect width="18" height="18" rx="4" fill="#D19B3F"/>
<path fill-rule="evenodd" clip-rule="evenodd" d="M15.1835 10.8125C15.1835 10.5364 14.9596 10.3125 14.6835 10.3125C14.4073 10.3125 14.1835 10.5364 14.1835 10.8125V11.0955C12.9407 10.0455 11.0443 10.1537 9.93627 11.4201L10.6889 12.0786C11.4371 11.2234 12.7209 11.1551 13.5546 11.8737H13.3175C13.0414 11.8737 12.8175 12.0976 12.8175 12.3737C12.8175 12.6499 13.0414 12.8737 13.3175 12.8737H14.6835C14.9596 12.8737 15.1835 12.6499 15.1835 12.3737V10.8125ZM10.3125 15.6839C10.0364 15.6839 9.8125 15.46 9.8125 15.1839V13.6227C9.8125 13.3465 10.0364 13.1227 10.3125 13.1227H11.6784C11.9546 13.1227 12.1784 13.3465 12.1784 13.6227C12.1784 13.8988 11.9546 14.1227 11.6784 14.1227H11.4411C12.2748 14.8415 13.5588 14.7732 14.3071 13.918L15.0597 14.5765C13.9517 15.8429 12.0553 15.9511 10.8125 14.9011V15.1839C10.8125 15.46 10.5886 15.6839 10.3125 15.6839Z" fill="#45474B"/>
<path fill-rule="evenodd" clip-rule="evenodd" d="M9 14.75V13.3038L9.02406 12.4405C9.24938 10.4751 10.933 8.98933 12.9375 8.98695H13.3509C13.3212 9.24654 13.266 9.49776 13.1879 9.73831L13.9693 10.1525C14.1504 9.6534 14.2493 9.11569 14.25 8.55527C14.25 8.31687 14.0541 8.12358 13.8125 8.12358H12.9375C11.3681 8.12525 9.89824 8.88265 9 10.1525V7.2602H9.4375C11.3696 7.25804 12.9353 5.71313 12.9375 3.80669C12.9375 3.56829 12.7416 3.375 12.5 3.375H11.625C10.3509 3.37576 9.1779 4.05966 8.5625 5.16046C7.9471 4.05966 6.77411 3.37576 5.5 3.375H4.625C4.38339 3.375 4.1875 3.56829 4.1875 3.80669C4.18969 5.71313 5.75539 7.25804 7.6875 7.2602H8.125V10.1525C7.22676 8.88265 5.75692 8.12525 4.1875 8.12358H3.3125C3.07089 8.12358 2.875 8.31687 2.875 8.55527C2.87812 11.1765 5.03095 13.3008 7.6875 13.3038H8.125V14.75H9ZM5.09881 4.23838C5.31401 5.4838 6.4071 6.39526 7.6875 6.39682H8.08869C7.87349 5.1514 6.7804 4.23994 5.5 4.23838H5.09881ZM7.6875 12.4405C5.68304 12.4381 3.99938 10.9523 3.77406 8.98695H4.1875C6.19196 8.98933 7.87563 10.4751 8.10094 12.4405H7.6875ZM12.0262 4.23838H11.625C10.3446 4.23994 9.25151 5.1514 9.03631 6.39682H9.4375C10.7179 6.39526 11.811 5.4838 12.0262 4.23838Z" fill="white"/>
</svg>
