<svg xmlns="http://www.w3.org/2000/svg" width="48" height="48" fill="none">
  <g fill="#45474B" clip-path="url(#a)">
    <path d="M38.4357 6.40064H9.63612c-.34461 0-.64929-.21973-.75916-.54712L7.27699 1.05359c-.09192-.276853-.02637-.582273.17212-.796873.19848-.2142332.49694-.3039548.78149-.2325437l3.0055.7518307L14.242.0249057c.127-.03222654.2607-.03222654.3878 0l3.0055.7510983 3.0055-.7510983c.1274-.03222654.2611-.03222654.3881 0l3.0055.7510983 3.0055-.7510983c.1275-.03222654.2608-.03222654.3882 0l3.0055.7510983 3.0055-.7510983c.1271-.03222654.2607-.03222654.3878 0l3.0059.7510983 3.0055-.7510983c.283-.0721435.5822.0183106.7815.2329103.1984.214233.264.519653.1721.796504l-1.6 4.79993c-.1066.32556-.4113.54639-.7562.54639ZM10.2129 4.80066h27.6467l.9569-2.87036-1.7856.44641c-.1271.03223-.2607.03223-.3878 0l-3.0055-.7511-3.0055.7511c-.1275.03223-.2611.03223-.3882 0l-3.0055-.7511-3.0055.7511c-.1274.03223-.2607.03223-.3882 0l-3.0055-.7511-3.0054.7511c-.1271.03223-.2608.03223-.3879 0l-3.0058-.7511-3.0095.7511c-.1271.03223-.2608.03223-.3879 0L9.25636 1.9303l.95654 2.87036ZM40.0357 48c-.0649 0-.1297-.0081-.1945-.0238l-3.0055-.7515-3.0055.7515c-.1271.0318-.2607.0318-.3878 0l-3.0055-.7515-3.0059.7515c-.127.0318-.2607.0318-.3878 0l-3.0055-.7515-3.0055.7515c-.1274.0318-.2611.0318-.3881 0l-3.0055-.7515-3.0055.7515c-.1275.0318-.2608.0318-.3882 0l-3.0055-.7515-3.0055.7515c-.28492.0685-.58301-.0194-.7815-.2329-.19848-.2146-.26404-.5201-.17212-.7969l1.59998-4.8c.10876-.3263.41455-.5471.75915-.5471H38.439c.3449 0 .6496.2201.7591.5471l1.6 4.8c.0919.2768.0264.5823-.1721.7969-.1568.1655-.3703.2567-.5903.2567Zm-9.5999-2.3998c.0656 0 .1304.0077.1945.0238l3.0055.7511 3.0058-.7511c.1271-.0319.2608-.0319.3878 0l1.7857.4464-.9569-2.8704H10.2129l-.95654 2.8704 1.78564-.4464c.1271-.0319.2607-.0319.3878 0l3.0055.7511 3.0055-.7511c.1274-.0319.2611-.0319.3882 0l3.0055.7511 3.0055-.7511c.1274-.0319.2607-.0319.3882 0l3.0055.7511 3.0054-.7511c.0663-.0169.1311-.0238.1967-.0238Z"/>
    <path d="M9.63601 43.2001c-.31421 0-.59985-.1839-.72949-.4702-7.18799-15.9207-.40942-37.11479.14795-37.69157.22815-.23584.58154-.31019.8833-.18567.21423.08825.37683.26733.45113.4801.2985.78552 7.4975 20.17644-.0208 37.38834-.1264.2893-.41202.4775-.72806.4797-.00073-.0007-.0022-.0007-.00403-.0007Zm.02271-34.98819C8.16348 13.6813 5.04995 28.1558 9.62832 40.2891c4.83178-12.9167 1.63988-26.7107.0304-32.07719ZM38.4356 43.2001c-.312 0-.5951-.1817-.7262-.4648-6.7167-14.5404-1.3601-33.94185-.0784-37.22017.0095-.10876.0454-.19665.1062-.30469l.0176.00953c.0425-.09046.0754-.14869.0978-.17212.2256-.23841.5749-.31494.8793-.19263.2926.11682.4885.39771.502.71045.0304.1333.1081.39038.2161.76062 5.1464 17.65431 2.688 29.53491-.2805 36.39221-.1249.2897-.4091.4783-.724.4823-.0033-.0007-.0066-.0007-.0099-.0007Zm-.0392-34.70804c-1.5359 5.72384-4.5088 20.02034.0187 31.80174 2.4053-6.5662 3.9686-16.9797-.0187-31.80174Z"/>
    <path d="M37.0742 11.2006H11.1044c-.3655 0-.6849-.248-.7753-.6014-.74159-2.90328-1.4319-4.69039-1.43922-4.70797-.09595-.24646-.06372-.52405.08569-.74158.14978-.21753.39587-.349.65991-.349H38.1864c.1062-.02636.2161-.01281.3398.00183.4032.04725.709.39185.709.79834 0 .14136-.037.27503-.1018.39038-.1384.36329-.6888 2.06946-1.2806 4.5927-.085.3607-.4065.6167-.7786.6167ZM11.7229 9.60058h24.7185c.3497-1.46228.62-2.48547.8434-3.19995H10.7685c.2461.73608.5878 1.82263.9544 3.19995ZM9.66168 43.2055c-.05017 0-.1029-.0047-.16003-.0142-.38379-.0663-.66541-.4014-.66541-.7911 0-.1402.03589-.2713.09925-.3848.00952-.0264.0216-.0594.03515-.0993.64014-1.4945 1.17516-3.0033 1.61206-4.5344.0981-.3439.412-.5808.7694-.5808h25.3403c.3593 0 .6746.2395.7706.5855.4639 1.6689 1.0352 3.2432 1.6992 4.6795.1142.2479.0952.5365-.052.7661-.1472.2303-.401.3688-.6735.3688H9.75763c-.0304.0033-.06226.0047-.09595.0047Zm1.16972-1.6054h26.3829c-.4186-1.0166-.7954-2.0871-1.125-3.2H11.9505c-.327 1.084-.7017 2.1552-1.1191 3.2ZM24.0136 24.0004h-3.683c-1.9391 0-3.5167-1.5777-3.5167-3.5168v-3.683c0-.4416.3582-.8001.7998-.8001h3.6834c1.939 0 3.5167 1.5776 3.5167 3.5167v3.6833c0 .4417-.3585.7999-.8002.7999Zm-5.5997-6.4v2.8832c0 1.0569.8598 1.9168 1.9167 1.9168h2.8832v-2.8832c0-1.0565-.8602-1.9168-1.9167-1.9168h-2.8832Z"/>
    <path d="M24.0136 24.0004c-.2047 0-.4094-.0784-.5654-.2344l-3.2-3.2c-.3127-.3127-.3127-.8185 0-1.1312.3128-.3127.8185-.3127 1.1313 0l3.1999 3.2c.3128.3127.3128.8184 0 1.1312-.1567.156-.3618.2344-.5658.2344Z"/>
    <path d="M27.6958 24.0004h-3.683c-.4416 0-.7998-.3582-.7998-.7999v-3.6833c0-1.9391 1.5773-3.5167 3.5167-3.5167h3.683c.4417 0 .8002.3585.8002.8001v3.683c.0007 1.9384-1.5776 3.5168-3.5171 3.5168Zm-2.8821-1.6h2.8832c1.0565 0 1.9167-.8599 1.9167-1.9168v-2.8832h-2.8831c-1.0569 0-1.9168.8603-1.9168 1.9168v2.8832Z"/>
    <path d="M24.0135 24.0004c-.2047 0-.4094-.0784-.5654-.2344-.3127-.3128-.3127-.8185 0-1.1312l3.2-3.2c.3127-.3127.8185-.3127 1.1312 0s.3127.8185 0 1.1312l-3.2 3.2c-.1567.156-.3618.2344-.5658.2344Z"/>
    <path d="M24.0135 28.8003c-.4416 0-.7998-.3582-.7998-.7998v-4.8c0-.4416.3582-.8001.7998-.8001.4417 0 .8002.3585.8002.8001v4.8c0 .4416-.3585.7998-.8002.7998Z"/>
    <path d="M28.0137 32.0002h-7.9998c-.4417 0-.8002-.3581-.8002-.7998 0-2.2057 1.7944-4.0001 4.0001-4.0001h1.6c2.2053 0 3.9997 1.7944 3.9997 4.0001 0 .4417-.3581.7998-.7998.7998Zm-7.0631-1.6h6.1253c-.3304-.9312-1.2199-1.5999-2.2629-1.5999h-1.5999c-1.0426 0-1.9322.6687-2.2625 1.5999Z"/>
  </g>
  <defs>
    <clipPath id="a">
      <path fill="#fff" d="M0 0h48v48H0z"/>
    </clipPath>
  </defs>
</svg>
