<svg xmlns="http://www.w3.org/2000/svg" width="48" height="48" fill="none">
  <path fill="#45474B" d="M27.2 17.6232h-6.4c-.4418 0-.8.3582-.8.8v22.4c0 .4418.3582.8.8.8h6.4c.4418 0 .8-.3582.8-.8v-22.4c0-.4419-.3582-.8-.8-.8Zm-.8 22.4h-4.8v-20.8h4.8v20.8ZM46.4 14.4232H40c-.4418 0-.8.3582-.8.8v25.6c0 .4418.3582.8.8.8h6.4c.4418 0 .8-.3582.8-.8v-25.6c0-.4419-.3582-.8-.8-.8Zm-.8 25.6h-4.8v-24h4.8v24ZM36.8001 32.0232h-6.4c-.4418 0-.8.3582-.8.8v8c0 .4418.3582.8.8.8h6.4c.4418 0 .8-.3582.8-.8v-8c0-.4419-.3582-.8-.8-.8Zm-.8 8h-4.8v-6.4h4.8v6.4ZM8.00005 20.8232h-6.4c-.4418 0-.800001.3582-.800001.8v19.2c0 .4418.358201.8.800001.8h6.4c.4418 0 .8-.3582.8-.8v-19.2c0-.4419-.3582-.8-.8-.8Zm-.8 19.2h-4.8v-17.6h4.8v17.6ZM17.5999 25.6232h-6.4c-.4418 0-.8.3582-.8.8v14.4c0 .4418.3582.8.8.8h6.4c.4418 0 .8-.3582.8-.8v-14.4c0-.4419-.3582-.8-.8-.8Zm-.8 14.4h-4.8v-12.8h4.8v12.8Z"/>
  <path fill="#45474B" d="M43.2464.776922C41.4663.764121 40.0129 2.19672 40.0001 3.97682c-.0065.8988.3626 1.7595 1.0183 2.3743l-6.64 12.17838c-.6015-.1665-1.2404-.137-1.824.084l-6.1769-9.26947c1.1835-1.3125 1.0789-3.33601-.2337-4.51941-1.3126-1.1834-3.336-1.0789-4.5194.2337-.8695.9644-1.0701 2.35861-.5077 3.52901l-4.8568 4.04227c-1.3324-.9719-3.1884-.7544-4.26.4992L7.92711 11.092c.3694-1.72827-.7323-3.42877-2.4605-3.79807-1.7283-.3694-3.4288.7322-3.7981 2.4605-.3694 1.72827.7322 3.42877 2.4605 3.79807.2205.0471.4454.0708.6709.0707.9225-.003 1.7982-.4064 2.4-1.1056l4.07279 2.0368c-.3843 1.725.7026 3.435 2.4276 3.8193 1.725.3843 3.435-.7026 3.8193-2.4276.1563-.7015.0719-1.4352-.2397-2.0829l4.8568-4.04237c.8371.61947 1.9299.77587 2.9072.41597l6.1752 9.2696c-1.1803 1.3154-1.0707 3.3386.2448 4.5189 1.3154 1.1803 3.3386 1.0707 4.5189-.2448 1.1658-1.2993 1.0752-3.2931-.2036-4.4813l6.64-12.17837c.255.0666.5173.101.7808.1024 1.7801.0128 3.2335-1.41981 3.2463-3.19991.0128-1.7801-1.4199-3.233498-3.1999-3.246398ZM4.79991 12.0232c-.8837 0-1.6-.7163-1.6-1.6 0-.88367.7163-1.59997 1.6-1.59997s1.6.7163 1.6 1.59997c0 .8837-.7163 1.6-1.6 1.6Zm9.59999 4.8c-.8837 0-1.6-.7163-1.6-1.6s.7163-1.6 1.6-1.6 1.6.7163 1.6 1.6-.7163 1.6-1.6 1.6Zm9.6-7.99997c-.8837 0-1.6-.7163-1.6-1.6s.7163-1.60001 1.6-1.60001 1.6.71631 1.6 1.60001c0 .8837-.7163 1.6-1.6 1.6Zm9.6 14.39997c-.8837 0-1.6-.7163-1.6-1.6s.7163-1.6 1.6-1.6 1.6.7163 1.6 1.6-.7163 1.6-1.6 1.6Zm9.6-17.59998c-.8837 0-1.6-.7163-1.6-1.6s.7163-1.6 1.6-1.6 1.6.7163 1.6 1.6-.7163 1.6-1.6 1.6ZM47.2 42.4232H.8c-.4418 0-.8.3582-.8.8v3.2c0 .4418.3582.8.8.8h46.4c.4418 0 .8-.3582.8-.8v-3.2c0-.4419-.3582-.8-.8-.8Zm-.8 3.2H1.6v-1.6h44.8v1.6Z"/>
</svg>
