<svg xmlns="http://www.w3.org/2000/svg" width="48" height="48" fill="none">
  <path fill="#45474B" d="M16 34.4h-1.6c-.4418 0-.8.3582-.8.8s.3582.8.8.8H16c.4418 0 .8-.3582.8-.8s-.3582-.8-.8-.8ZM38.4 34.4H19.2c-.4418 0-.8.3582-.8.8s.3582.8.8.8h19.2c.4418 0 .8-.3582.8-.8s-.3582-.8-.8-.8ZM16 29.6h-1.6c-.4418 0-.8.3582-.8.8s.3582.8.8.8H16c.4418 0 .8-.3582.8-.8s-.3582-.8-.8-.8ZM38.4 29.6H19.2c-.4418 0-.8.3582-.8.8s.3582.8.8.8h19.2c.4418 0 .8-.3582.8-.8s-.3582-.8-.8-.8ZM16 24.8h-1.6c-.4418 0-.8.3582-.8.8s.3582.8.8.8H16c.4418 0 .8-.3582.8-.8s-.3582-.8-.8-.8ZM38.4 24.8H19.2c-.4418 0-.8.3582-.8.8s.3582.8.8.8h19.2c.4418 0 .8-.3582.8-.8s-.3582-.8-.8-.8ZM16 20h-1.6c-.4418 0-.8.3582-.8.8s.3582.8.8.8H16c.4418 0 .8-.3582.8-.8s-.3582-.8-.8-.8ZM38.4 20H19.2c-.4418 0-.8.3582-.8.8s.3582.8.8.8h19.2c.4418 0 .8-.3582.8-.8s-.3582-.8-.8-.8ZM16 15.2h-1.6c-.4418 0-.8.3582-.8.8s.3582.8.8.8H16c.4418 0 .8-.3582.8-.8s-.3582-.8-.8-.8ZM38.4 15.2H19.2c-.4418 0-.8.3582-.8.8s.3582.8.8.8h19.2c.4418 0 .8-.3582.8-.8s-.3582-.8-.8-.8Z"/>
  <path fill="#45474B" d="M43.9896 11.9496c-.004-.0701-.0177-.1393-.0408-.2056-.0088-.0256-.0152-.0504-.0264-.0752-.0389-.087-.0931-.1664-.16-.2344l-11.2-11.2c-.068-.0669-.1474-.1211-.2344-.16-.0248-.0112-.0496-.0176-.0744-.0264-.0669-.023-.1366-.037-.2072-.0416C32.0328.0088 32.0176 0 32 0H9.6c-.4418 0-.8.3582-.8.8v2.4h-4c-.4418 0-.8.3582-.8.8v43.2c0 .4418.3582.8.8.8h33.6c.4418 0 .8-.3582.8-.8v-4h4c.4418 0 .8-.3582.8-.8V12c0-.0176-.0088-.0328-.0104-.0504ZM32.8 2.7312 41.2688 11.2H32.8V2.7312ZM37.6 46.4h-32V4.8h3.2v37.6c0 .4418.3582.8.8.8h28v3.2Zm4.8-4.8h-32v-40h20.8V12c0 .4418.3582.8.8.8h10.4v28.8Z"/>
  <path fill="#45474B" d="M19.2 7.2h-4.8c-.4418 0-.8.3582-.8.8v4.8c0 .4418.3582.8.8.8h4.8c.4418 0 .8-.3582.8-.8V8c0-.4418-.3582-.8-.8-.8Zm-.8 4.8h-3.2V8.8h3.2V12Z"/>
</svg>
