<svg width="17" height="16" viewBox="0 0 17 16" fill="none" xmlns="http://www.w3.org/2000/svg">
<path d="M8.49902 14.4C10.1964 14.4 11.8243 13.7257 13.0245 12.5255C14.2247 11.3253 14.899 9.69739 14.899 8C14.899 6.30261 14.2247 4.67475 13.0245 3.47452C11.8243 2.27428 10.1964 1.6 8.49902 1.6C6.80164 1.6 5.17377 2.27428 3.97354 3.47452C2.77331 4.67475 2.09902 6.30261 2.09902 8C2.09902 9.69739 2.77331 11.3253 3.97354 12.5255C5.17377 13.7257 6.80164 14.4 8.49902 14.4ZM8.49902 16C4.08062 16 0.499023 12.4184 0.499023 8C0.499023 3.5816 4.08062 0 8.49902 0C12.9174 0 16.499 3.5816 16.499 8C16.499 12.4184 12.9174 16 8.49902 16ZM7.69902 7.2V12H9.29902V7.2H7.69902ZM7.69902 4H9.29902V5.6H7.69902V4Z" fill="#828286"/>
</svg>
