<svg width="48" height="48" viewBox="0 0 48 48" fill="none" xmlns="http://www.w3.org/2000/svg">
<path d="M41.9276 6.36139H37.8794V2.31328C37.8795 1.0409 36.8384 0 35.5667 0H6.07223C4.79995 0 3.75905 1.0409 3.75905 2.31328V39.3252C3.75905 40.5975 4.79995 41.6385 6.07233 41.6385H10.1205V45.6867C10.1205 46.959 11.161 48 12.4338 48H32.0959C33.3676 48 35.1673 47.2864 36.0932 46.4149L42.5553 40.3322C43.4823 39.4607 44.2398 37.7061 44.2398 36.4338L44.241 8.67486C44.2409 7.40239 43.1999 6.36139 41.9276 6.36139ZM10.1203 8.67476V39.9036H6.07223C5.75883 39.9036 5.49398 39.6387 5.49398 39.3253V2.31328C5.49398 1.99987 5.75883 1.73503 6.07223 1.73503H35.5668C35.8796 1.73503 36.145 1.99987 36.145 2.31328V6.36149H12.4336C11.1608 6.36149 10.1203 7.40239 10.1203 8.67476ZM41.3661 39.069L34.9041 45.1512C34.7717 45.2756 34.5993 45.3976 34.409 45.5138V40.1927C34.409 39.7954 34.5692 39.4379 34.8335 39.172C35.1001 38.9077 35.4575 38.747 35.8548 38.747H41.6408C41.5511 38.8689 41.4592 38.9811 41.3661 39.069ZM42.5047 36.4336C42.5047 36.6054 42.4734 36.8043 42.4261 37.0119H35.8547C34.0996 37.0153 32.6775 38.4374 32.6739 40.1926V46.1949C32.4675 46.2366 32.2686 46.2648 32.0957 46.2648H12.4336V46.2649C12.1196 46.2649 11.8554 46 11.8554 45.6866V8.67467C11.8554 8.36127 12.1197 8.09642 12.4336 8.09642H41.9275C42.2409 8.09642 42.5058 8.36127 42.5058 8.67467L42.5047 36.4336Z" fill="#45474B"/>
<path d="M35.5667 14.4577H18.7957C18.3163 14.4577 17.9283 14.8458 17.9283 15.3252C17.9283 15.8046 18.3164 16.1927 18.7957 16.1927H35.5667C36.0456 16.1927 36.4342 15.8046 36.4342 15.3252C36.4342 14.8458 36.0456 14.4577 35.5667 14.4577Z" fill="#45474B"/>
<path d="M35.5667 26.024H18.7957C18.3163 26.024 17.9283 26.412 17.9283 26.8915C17.9283 27.3709 18.3164 27.7589 18.7957 27.7589H35.5667C36.0456 27.7589 36.4342 27.3709 36.4342 26.8915C36.4342 26.4119 36.0456 26.024 35.5667 26.024Z" fill="#45474B"/>
<path d="M28.0488 31.8072H18.7958C18.3164 31.8072 17.9284 32.1952 17.9284 32.6746C17.9284 33.1541 18.3164 33.5421 18.7958 33.5421H28.0488C28.5276 33.5421 28.9157 33.1541 28.9157 32.6746C28.9157 32.1952 28.5276 31.8072 28.0488 31.8072Z" fill="#45474B"/>
<path d="M35.5667 20.2409H18.7957C18.3163 20.2409 17.9283 20.6289 17.9283 21.1083C17.9283 21.5878 18.3164 21.9758 18.7957 21.9758H35.5667C36.0456 21.9758 36.4342 21.5878 36.4342 21.1083C36.4342 20.6289 36.0456 20.2409 35.5667 20.2409Z" fill="#45474B"/>
</svg>
