<svg id="Layer_1" enable-background="new 0 0 512.001 512.001" height="512" viewBox="0 0 512.001 512.001" width="512" xmlns="http://www.w3.org/2000/svg">
<g>
<g>
<path fill="#45474B" d="m416.001 432.001h-33.002v-18.5c0-19.365-7.145-37.858-19.892-52.159 1.607-1.457 3.184-2.959 4.729-4.504 24.609-24.61 38.163-57.225 38.163-91.837 0-17.307-3.375-34.099-10.028-49.96.771-3.482 1.189-7.095 1.189-10.805 0-14.867-6.529-28.23-16.862-37.397l3.022-5.235c6.518-11.29 4.835-25.096-3.18-34.49l12.202-21.135c1.724-.005 3.46-.232 5.172-.691 5.167-1.384 9.481-4.69 12.146-9.307l15-25.981c2.762-4.783 1.123-10.899-3.66-13.66l-95.263-55c-2.297-1.327-5.029-1.685-7.588-.999-2.563.687-4.746 2.362-6.072 4.659l-15 25.981c-3.691 6.394-3.423 13.992.013 19.977l-12.21 21.147c-4.339-.803-8.844-.635-13.242.544-7.756 2.078-14.228 7.034-18.223 13.954l-55 95.264c-3.996 6.92-5.052 15.002-2.974 22.758 1.179 4.4 3.286 8.385 6.15 11.741l-10.856 18.803c-2.666 4.617-3.371 10.006-1.986 15.174 1.385 5.167 4.69 9.481 9.307 12.146l60.622 35c3.142 1.814 6.575 2.676 9.966 2.676 6.917 0 13.654-3.587 17.354-9.996l10.86-18.811c1.775.328 3.577.504 5.39.504 2.615 0 5.251-.344 7.849-1.041 7.756-2.078 14.228-7.034 18.223-13.954l3.011-5.215c4.371 1.463 9.006 2.34 13.817 2.532.561 3.569.851 7.186.851 10.818 0 18.589-7.312 36.137-20.587 49.413s-30.824 20.586-49.413 20.586h-35.002c-5.522 0-10 4.477-10 10s4.478 10 10 10h35.002c5.514 0 10 4.486 10 10s-4.486 10-10 10h-159.996c-5.514 0-10-4.486-10-10s4.486-10 10-10h34.994c5.522 0 10-4.477 10-10s-4.478-10-10-10h-34.994c-16.542 0-30 13.458-30 30s13.458 30 30 30h25.282v37h-45.284c-16.542 0-30 13.458-30 30v40c0 5.523 4.478 10 10 10h360c5.522 0 10-4.477 10-10v-40c0-16.542-13.458-30-30-30zm-53.002-18.5v18.5h-20v-18.5c0-11.974-5.496-22.687-14.096-29.754 6.359-2.85 12.492-6.225 18.353-10.097 10.07 10.793 15.743 24.978 15.743 39.851zm-87-18.5h28.5c10.201 0 18.5 8.299 18.5 18.5v18.5h-71.715v-37zm71.161-160.766c-16.542 0-30-13.458-30-30s13.458-30 30-30 30 13.458 30 30-13.458 30-30 30zm-44.104-153.612 10.001-17.322 60.623 35-10.001 17.322zm21.341-56.963 77.942 45-9.999 17.32-77.943-45zm-116.341 221.509 10.001-17.321 60.622 35-10 17.321zm102.944 1.698c-1.324 2.294-3.483 3.94-6.079 4.636-2.594.695-5.286.349-7.581-.976l-77.934-44.995c-.003-.002-.005-.004-.008-.005-.001-.001-.003-.001-.005-.002-2.292-1.325-3.937-3.482-4.632-6.076-.695-2.595-.349-5.288.976-7.582l55-95.264c1.324-2.294 3.483-3.94 6.079-4.636 2.593-.695 5.286-.349 7.581.976l77.943 45c4.774 2.757 6.417 8.885 3.66 13.66l-3.01 5.214c-4.979-1.667-10.297-2.583-15.829-2.583-27.57 0-50 22.43-50 50 0 14.867 6.529 28.231 16.862 37.397zm-8.48 104.133c13.801-4.274 26.477-11.886 37.035-22.443 17.053-17.053 26.444-39.624 26.444-63.555 0-4.707-.378-9.396-1.111-14.024 6.857-2.609 12.993-6.684 18.029-11.842 2.047 8.412 3.082 17.059 3.082 25.865 0 29.27-11.473 56.862-32.306 77.695-13.669 13.669-30.248 23.308-48.301 28.321.397-1.944.606-3.956.606-6.016.001-5.054-1.261-9.818-3.478-14.001zm-141.235 44.001h69.999v37h-69.999zm264.716 97h-340v-30c0-5.514 4.486-10 10-10h320c5.514 0 10 4.486 10 10z"/>
<path fill="#45474B" d="m206.001 345.001c0-5.523-4.478-10-10-10h-.008c-5.522 0-9.996 4.477-9.996 10s4.481 10 10.004 10 10-4.477 10-10z"/>
</g>
</g>
</svg>