<svg xmlns="http://www.w3.org/2000/svg" width="88" height="88" fill="none">
  <path fill="#F0BE5F" d="M44 88c24.31 0 44-19.69 44-44S68.31 0 44 0 0 19.69 0 44s19.69 44 44 44Z"/>
  <g fill-rule="evenodd" clip-path="url(#a)" clip-rule="evenodd">
    <path fill="#fff" d="M44.5899 41.8199c0-3.9442 1.8335-6.2041 4.0934-7.7605 1.9401-1.3431 8.2295-4.0721 9.3168-7.6538V33.8249c0 3.8163-1.9614 5.9696-3.8802 7.2488-.7888.5117-2.1746 1.3645-3.7097 2.2599-2.6223 1.535-5.0315 2.9635-5.799 5.33v-6.8437h-.0213Z"/>
    <path fill="#435EA8" d="M44.5899 55.1235c0-3.9442 1.8335-6.2041 4.0934-7.7605 1.9401-1.3431 8.2295-4.0721 9.3168-7.6538V47.1285c0 3.8163-1.9614 5.9696-3.8802 7.2488-.7888.5117-2.1746 1.3432-3.7097 2.2386-2.6223 1.535-5.0315 2.9635-5.799 5.33v-6.8224h-.0213Z"/>
    <path fill="#E83D37" d="M44.5899 68.4058c0-3.9442 1.8335-6.2041 4.0934-7.7605 1.9401-1.3431 8.2295-4.0721 9.3168-7.6538V60.4108c0 3.8163-1.9614 5.9696-3.8802 7.2488-.7888.5117-2.1746 1.3431-3.7097 2.2386-2.6223 1.535-5.0315 2.9634-5.799 5.3299v-6.8223h-.0213Z"/>
    <path fill="#D19B3F" d="M42.8202 41.8199c0-3.9442-1.8335-6.2041-4.0934-7.7605-1.9401-1.3431-8.2295-4.0721-9.3168-7.6538V33.8249c0 3.8163 1.9614 5.9696 3.8802 7.2488.7888.5117 2.1746 1.3431 3.7097 2.2386 2.6223 1.535 5.0315 2.9634 5.799 5.3299v-6.8223h.0213ZM42.8202 75.2281v-6.801c0-3.9442-1.8335-6.2041-4.0934-7.7604-1.9401-1.3645-8.2295-4.0935-9.3168-7.6752V60.4108c0 3.8163 1.9614 5.9696 3.8802 7.2488.7888.5117 2.1746 1.3645 3.7097 2.2599 2.6436 1.5137 5.0315 2.9421 5.8203 5.3086ZM38.7268 47.3417c-1.9401-1.3218-8.2295-4.0508-9.3168-7.6538v7.4193c0 3.8163 1.9614 5.9696 3.8802 7.2488.7888.5116 2.1746 1.3644 3.7097 2.2599 2.6223 1.535 5.0315 2.9634 5.799 5.33v-6.8011c.0213-3.9868-1.8122-6.2254-4.0721-7.8031ZM49.7487 26.1924c0-4.9036-4.3493-7.398-6.0548-13.9006-1.7056 6.5026-6.0762 8.997-6.0762 13.9006 0 5.4792 4.3279 5.0741 6.0762 8.2721 1.7269-3.2193 6.0548-2.7929 6.0548-8.2721Z"/>
  </g>
  <defs>
    <clipPath id="a">
      <path fill="#fff" d="M0 0h28.59v62.9364H0z" transform="translate(29.41 12.2918)"/>
    </clipPath>
  </defs>
</svg>
