<svg width="17" height="17" viewBox="0 0 17 17" fill="none" xmlns="http://www.w3.org/2000/svg">
<path d="M16.4904 15.6554L12.0195 11.1608C13.0883 9.87118 13.6193 8.2194 13.5021 6.54853C13.385 4.87767 12.6287 3.31615 11.3903 2.18831C10.152 1.06048 8.52675 0.453017 6.85224 0.492101C5.17773 0.531185 3.58262 1.21381 2.39824 2.39819C1.21386 3.58257 0.531235 5.17768 0.492151 6.85219C0.453067 8.5267 1.06053 10.1519 2.18836 11.3903C3.3162 12.6286 4.87772 13.3849 6.54858 13.5021C8.21945 13.6193 9.87123 13.0883 11.1609 12.0195L15.6554 16.4903L16.4904 15.6554ZM1.68615 7.01562C1.68615 5.96154 1.99872 4.93113 2.58434 4.0547C3.16995 3.17826 4.00231 2.49517 4.97615 2.09179C5.95 1.68841 7.02158 1.58287 8.05541 1.78851C9.08924 1.99415 10.0389 2.50174 10.7842 3.24708C11.5296 3.99243 12.0371 4.94206 12.2428 5.97588C12.4484 7.00971 12.3429 8.0813 11.9395 9.05514C11.5361 10.029 10.853 10.8613 9.97659 11.447C9.10016 12.0326 8.06975 12.3451 7.01567 12.3451C5.6022 12.3451 4.24661 11.7836 3.24713 10.7842C2.24765 9.78468 1.68615 8.4291 1.68615 7.01562Z" fill="#C1C1C1"/>
</svg>
