<svg width="30" height="28" viewBox="0 0 30 28" fill="none" xmlns="http://www.w3.org/2000/svg">
<path d="M8 18C8.42453 19.1759 9.38365 20 10.5 20C11.6164 20 12.5754 19.1759 13 18H8Z" fill="#ffffff"/>
<path d="M18.6523 15.8438C18.5871 15.8028 18.1161 15.4797 17.6358 14.4964C16.7638 12.6939 16.5773 10.1539 16.5773 8.34229C16.5773 8.33315 16.5773 8.32858 16.5773 8.31945C16.5679 5.90696 15.0757 3.83584 12.9448 2.91637C12.7443 1.82845 11.7697 1 10.5993 1H10.4034C9.23301 1 8.25844 1.82845 8.05793 2.9118C5.9176 3.83584 4.42543 5.92067 4.42543 8.34229C4.42543 10.1539 4.24357 12.6939 3.36693 14.4964C2.89129 15.4797 2.41567 15.8028 2.35038 15.8438C2.08459 15.9621 1.95403 16.2398 2.01465 16.522C2.07527 16.8043 2.35038 17 2.64416 17H18.3539C18.6523 17 18.9228 16.8043 18.9834 16.522C19.0486 16.2398 18.9182 15.9621 18.6523 15.8438Z" fill="#ffffff"/>
</svg>
