<svg width="48" height="48" viewBox="0 0 48 48" fill="none" xmlns="http://www.w3.org/2000/svg">
<g clip-path="url(#clip0)">
<path d="M47.8769 23.5736C42.8772 15.5973 34.2108 10.6597 24.8 10.4256V3.99992H23.2V10.4256C13.7891 10.6597 5.1228 15.5973 0.123076 23.5736C-0.0410252 23.8342 -0.0410252 24.1658 0.123076 24.4264C5.1228 32.4027 13.7891 37.3404 23.2 37.5745V44.0001H24.8V37.5745C34.2108 37.3404 42.8772 32.4027 47.8769 24.4264C48.0411 24.1658 48.0411 23.8342 47.8769 23.5736ZM1.75108 24C5.0172 19.0059 9.87442 15.2614 15.5351 13.3736C12.5178 15.7764 10.6654 19.3494 10.4407 23.2H3.99989V24.8H10.4407C10.6654 28.6506 12.5178 32.2236 15.5351 34.6265C9.87442 32.7386 5.0172 28.9941 1.75108 24ZM23.2 31.2V35.9593C17.2134 35.5527 12.4473 30.7865 12.0407 24.8H16.7999V23.2H12.0407C12.4473 17.2135 17.2134 12.4474 23.2 12.0408V16.8H24.8V12.0408C30.7865 12.4474 35.5526 17.2134 35.9592 23.2H31.2V24.8H35.9592C35.5526 30.7865 30.7865 35.5527 24.8 35.9593V31.2H23.2ZM46.2489 24C42.9828 28.9941 38.1255 32.7386 32.4648 34.6265C35.4821 32.2236 37.3345 28.6506 37.5592 24.8H44.0001V23.2H37.5592C37.3345 19.3494 35.4821 15.7763 32.4648 13.3736C38.1256 15.2615 42.9828 19.0059 46.2489 24Z" fill="#45474B"/>
<path d="M23.9999 18.4C20.9071 18.4 18.3999 20.9072 18.3999 24C18.4034 27.0913 20.9086 29.5965 23.9999 29.6C27.0927 29.6 29.5999 27.0928 29.5999 24C29.5999 20.9072 27.0927 18.4 23.9999 18.4ZM23.9999 28C21.7908 28 19.9999 26.2091 19.9999 24C20.0025 21.792 21.7919 20.0026 23.9999 20C26.209 20 27.9999 21.7909 27.9999 24C27.9999 26.2091 26.2091 28 23.9999 28Z" fill="#45474B"/>
<path d="M4.79988 3.99992C4.35808 3.99992 3.99988 4.35813 3.99988 4.79993V11.2H5.59988V5.59993H11.1999V3.99992H4.79988Z" fill="#45474B"/>
<path d="M43.2001 3.99992H36.8V5.59993H42.4001V11.2H44.0001V4.79993C44.0001 4.35813 43.6419 3.99992 43.2001 3.99992Z" fill="#45474B"/>
<path d="M42.4001 36.8V42.4001H36.8V44.0001H43.2001C43.6419 44.0001 44.0001 43.6419 44.0001 43.2001V36.8H42.4001Z" fill="#45474B"/>
<path d="M5.59988 42.4001V36.8H3.99988V43.2001C3.99988 43.6419 4.35808 44.0001 4.79988 44.0001H11.1999V42.4001H5.59988Z" fill="#45474B"/>
</g>
<defs>
<clipPath id="clip0">
<rect width="48" height="48" fill="white"/>
</clipPath>
</defs>
</svg>
