<svg xmlns="http://www.w3.org/2000/svg" width="48" height="48" fill="none">
  <path fill="#45474B" d="M45 39.945V23.25c-.0024-2.5851-1.0304-5.0637-2.8583-6.8917-1.828-1.8279-4.3066-2.8559-6.8917-2.8583h-.8325c-.4625-.4521-1.004-.8156-1.5975-1.0725l.5925-2.2275c.0263-.0946.0335-.1934.0213-.29077-.0122-.09738-.0437-.19136-.0925-.27649-.0488-.08512-.1141-.1597-.192-.21939-.0779-.0597-.1669-.10332-.2618-.12835l-2.175-.585.585-2.175c.1625-.06687.3204-.14454.4725-.2325.4281-.2449.8032-.57266 1.1032-.96413.3001-.39147.5191-.8388.6443-1.31587.0506-.19091.0239-.39409-.0744-.5654-.0983-.17131-.2602-.29694-.4506-.3496l-7.245-1.9425c-.1929-.05135-.3984-.02414-.5713.07567-.1729.09981-.2992.26408-.3512.45683-.1283.4751-.1612.97089-.0968 1.45876.0644.48787.2247.95817.4718 1.38374.0914.14838.1915.29113.3.4275l-.585 2.19-2.175-.585c-.1919-.05033-.396-.02255-.5675.07725-.1715.09981-.2964.26351-.3475.45525l-3.885 14.49c-.026.0951-.0327.1943-.0199.292.0128.0977.0449.1919.0944.2771.0496.0851.1156.1596.1942.219.0787.0594.1683.1025.2638.1269l1.4475.39-.5775 2.175c-.0532.1915-.029.3962.0675.57.1031.1689.2667.2923.4575.345l.7275.195-.585 2.175c-.0506.1925-.0237.3972.075.57.0494.0851.1153.1595.1939.2188.0785.0592.1682.1021.2636.1262l2.895.78c.0639.0149.1294.0224.195.0225.1316.0025.2613-.0313.375-.0975.0861-.0492.1615-.1149.2221-.1935.0605-.0785.1048-.1682.1304-.264l.5775-2.175.7275.195c.0627.0215.1287.0316.195.03.1321-.0011.2615-.0374.375-.105.0851-.0476.1596-.112.2189-.1894.0594-.0774.1023-.1661.1261-.2606l.585-2.175 1.4475.3825c.063.0204.1288.0305.195.03.1655.0007.3266-.0533.4582-.1537s.2263-.2415.2693-.4013l.5925-2.2275c.2067.0235.4145.036.6225.0375 1.3659-.0075 2.6756-.5453 3.6525-1.5h.8475c.5962.0018 1.1675.2394 1.589.661.4216.4216.6592.9928.661 1.589v11.2275L30 34.5v-.75c0-.1989-.079-.3897-.2197-.5303C29.6397 33.079 29.4489 33 29.25 33h-13.5c-.1989 0-.3897.079-.5303.2197-.1407.1406-.2197.3314-.2197.5303v3c0 .1989.079.3897.2197.5303.1406.1407.3314.2197.5303.2197h13.5c.1989 0 .3897-.079.5303-.2197.1407-.1406.2197-.3314.2197-.5303V36l7.5-.0225V39H11.25c-1.3919.0016-2.72633.5552-3.71056 1.5394C6.55522 41.5237 6.00159 42.8581 6 44.25v1.5c0 .1989.07902.3897.21967.5303.14065.1407.33142.2197.53033.2197H46.5c.1989 0 .3897-.079.5303-.2197.1407-.1406.2197-.3314.2197-.5303v-1.5c-.0012-.8456-.2063-1.6785-.598-2.4279-.3917-.7495-.9584-1.3934-1.652-1.8771ZM31.755 4.32c-.1919.2767-.443.50726-.735.675-.2546.14885-.5362.24541-.8286.28404-.2923.03864-.5894.01857-.8739-.05904L27.87 4.83c-.4502-.11871-.8523-.37452-1.1506-.73198-.2984-.35745-.4781-.79884-.5144-1.26302l5.55 1.485ZM29.67 6.78l-.405 1.53-2.9025-.7725.4125-1.5225c.2271.10749.4629.19531.705.2625l1.4475.39c.2429.06307.4918.10077.7425.1125ZM23.1 28.4025l-1.4475-.39.39-1.4475 1.1625.3075.285.0825-.39 1.4475Zm2.2275-2.5125-4.3425-1.1625.3825-1.4475 4.35 1.1625-.39 1.4475Zm2.955-2.3175-8.7-2.325 3.495-13.0425 8.6925 2.3325-.3975 1.5075c-1.2528-.1498-2.5177.1567-3.563.8632-1.0454.7066-1.8014 1.766-2.1295 2.9843-.3258 1.2187-.202 2.5139.3489 3.6488.5509 1.1348 1.492 2.0334 2.6511 2.5312l-.3975 1.5Zm6.09-5.355c-.1915.7167-.5913 1.3604-1.1488 1.8498-.5574.4894-1.2475.8025-1.9829.8997-.7355.0971-1.4832-.0261-2.1486-.3539-.6654-.3279-1.2186-.8458-1.5897-1.4881-.2486-.425-.4098-.8953-.4742-1.3834-.0644-.4881-.0307-.9842.0992-1.4591.2131-.798.6837-1.5033 1.3387-2.0064.655-.5032 1.4578-.776 2.2838-.7761.3268-.0019.6523.041.9675.1275.7177.1902 1.3625.5897 1.8525 1.1475v.0075c.1633.1816.3066.3803.4275.5925.2486.425.4098.8953.4742 1.3834.0644.4881.0307.9842-.0992 1.4591ZM28.5 36h-12v-1.5h12V36Zm6.975-16.4775c.1459-.2924.2615-.599.345-.915.3282-1.1973.2137-2.4728-.3225-3.5925 2.1423.0643 4.1754.9597 5.6691 2.4968 1.4936 1.537 2.3305 3.595 2.3334 5.7382v15.9675c-.4874-.142-.9923-.2152-1.5-.2175h-3V23.25c-.0028-.9533-.3689-1.8696-1.0239-2.5622-.655-.6926-1.5495-1.1094-2.5011-1.1653ZM45.75 45H7.5v-.75c0-.9946.39509-1.9484 1.09835-2.6516C9.30161 40.8951 10.2554 40.5 11.25 40.5H42c.9946 0 1.9484.3951 2.6516 1.0984.7033.7032 1.0984 1.657 1.0984 2.6516V45Z"/>
  <path fill="#45474B" d="M30.75 19.5c-.445 0-.88-.132-1.25-.3792-.37-.2472-.6584-.5986-.8287-1.0098-.1703-.4111-.2149-.8635-.1281-1.3.0869-.4364.3011-.8373.6158-1.152.3147-.3147.7156-.529 1.1521-.6158.4364-.0868.8888-.0422 1.2999.1281.4112.1703.7626.4586 1.0098.8287.2472.37.3792.805.3792 1.25 0 .5967-.237 1.169-.659 1.591-.422.4219-.9943.659-1.591.659Zm0-3c-.1483 0-.2933.044-.4167.1264-.1233.0824-.2194.1995-.2762.3366-.0568.137-.0716.2878-.0427.4333.029.1455.1004.2791.2053.384.1049.1049.2385.1763.384.2053.1455.0289.2963.0141.4333-.0427.1371-.0568.2542-.1529.3366-.2762.0824-.1234.1264-.2684.1264-.4167 0-.1989-.079-.3897-.2197-.5303-.1406-.1407-.3314-.2197-.5303-.2197Z"/>
</svg>
