<svg xmlns="http://www.w3.org/2000/svg" width="48" height="48" fill="none">
  <g fill="#45474B" clip-path="url(#a)">
    <path d="M20.7808 40c-.2049-4.0003-2.412-7.6279-5.8704-9.6488l-5.5264-6.14c-.7433-.8422-1.8961-1.1964-2.984-.9168V12.8c0-1.7673-1.4327-3.19999-3.2-3.19999S0 11.0327 0 12.8v15.1416c.0008 1.2241.3127 2.4279.9064 3.4984L8 44.2072V47.2c0 .4418.3582.8.8.8H20c.4418 0 .8-.3582.8-.8V40h-.0192ZM19.2 46.4H9.6V44c0-.1361-.0347-.2699-.1008-.3888L2.3048 30.6616c-.4614-.8324-.7039-1.7683-.7048-2.72V12.8c0-.8837.7163-1.6 1.6-1.6s1.6.7163 1.6 1.6v11.4824c-1.001 1.1633-.978 2.8902.0536 4.0264L11.408 35.52l1.184-1.0768-6.5544-7.2104c-.5224-.5746-.5013-1.4583.048-2.0072.5674-.5679 1.4878-.5683 2.0557-.0008.0185.0185.0364.0374.0539.0568l5.6104 6.2336c.0714.0718.1521.1337.24.184 3.1839 1.8243 5.1497 5.2113 5.1544 8.8808v5.82ZM44.8 9.60001c-1.7673 0-3.2 1.43269-3.2 3.19999v10.4944c-.2593-.0656-.5261-.0973-.7936-.0944-.8386.0187-1.6318.3846-2.1904 1.0104l-5.5248 6.1384c-3.4631 2.0175-5.6721 5.6483-5.872 9.6512H27.2v7.2c0 .4418.3582.8.8.8h11.2c.4418 0 .8-.3582.8-.8v-2.9944l7.0056-12.6976c.6507-1.1065.994-2.3667.9944-3.6504V12.8c0-1.7673-1.4327-3.19999-3.2-3.19999Zm1.6 18.25759c-.0012 1.0057-.2719 1.9928-.784 2.8584l-7.12 12.8976c-.0641.1187-.0971.2516-.096.3864v2.4h-9.6v-5.82c.0098-3.6838 1.9923-7.0801 5.1952-8.9.0745-.0423.1418-.0963.1992-.16l5.6104-6.24c.5388-.5965 1.4591-.6432 2.0556-.1044s.6432 1.4591.1044 2.0556l-6.5568 7.2104 1.184 1.0784 6.5544-7.2096c1.0326-1.1365 1.0555-2.8645.0536-4.028V12.8c0-.8837.7163-1.6 1.6-1.6s1.6.7163 1.6 1.6v15.0576Z"/>
    <path d="M33.6 20H32c-2.8698.0031-5.5575 1.4067-7.2 3.76V18.4h.8c4.8577-.0057 8.7943-3.9423 8.8-8.8 0-.4418-.3582-.8-.8-.8H32c-2.8698.0031-5.5575 1.4067-7.2 3.76V7.2h.8c3.533-.004 6.396-2.867 6.4-6.4 0-.4418-.3582-.8-.8-.8h-1.6c-2.3298.0014-4.4747 1.2688-5.6 3.3088C22.8747 1.2688 20.7298.0014 18.4 0h-1.6c-.4418 0-.8.3582-.8.8.004 3.533 2.867 6.396 6.4 6.4h.8v5.36c-1.6425-2.3533-4.3302-3.7569-7.2-3.76h-1.6c-.4418 0-.8.3582-.8.8.0057 4.8577 3.9423 8.7943 8.8 8.8h.8v5.36c-1.6425-2.3533-4.3302-3.7569-7.2-3.76h-1.6c-.4418 0-.8.3582-.8.8.0057 4.8577 3.9423 8.7943 8.8 8.8h.8V36h1.6v-6.4h.8c4.8577-.0057 8.7943-3.9423 8.8-8.8 0-.4418-.3582-.8-.8-.8ZM32 10.4h.756c-.412 3.6421-3.4907 6.3956-7.156 6.4h-.756c.412-3.6421 3.4907-6.3956 7.156-6.4Zm-2.4-8.8h.7336c-.3935 2.308-2.3923 3.9971-4.7336 4h-.7336c.3935-2.308 2.3923-3.9971 4.7336-4Zm-7.2 4c-2.3413-.0029-4.3401-1.692-4.7336-4H18.4c2.3413.0029 4.3401 1.692 4.7336 4H22.4Zm0 11.2c-3.6653-.0044-6.744-2.7579-7.156-6.4H16c3.6653.0044 6.744 2.7579 7.156 6.4H22.4Zm0 11.2c-3.6653-.0044-6.744-2.7579-7.156-6.4H16c3.6653.0044 6.744 2.7579 7.156 6.4H22.4Zm3.2 0h-.756c.412-3.6421 3.4907-6.3956 7.156-6.4h.756c-.412 3.6421-3.4907 6.3956-7.156 6.4Z"/>
  </g>
  <defs>
    <clipPath id="a">
      <path fill="#fff" d="M0 0h48v48H0z"/>
    </clipPath>
  </defs>
</svg>
