<svg width="17" height="17" viewBox="0 0 17 17" fill="none" xmlns="http://www.w3.org/2000/svg">
<g clip-path="url(#clip0_205_13954)">
<path d="M16.4905 15.6553L12.0196 11.1607C13.0884 9.87109 13.6194 8.21931 13.5022 6.54844C13.3851 4.87757 12.6288 3.31606 11.3904 2.18822C10.1521 1.06039 8.52686 0.452926 6.85234 0.49201C5.17783 0.531094 3.58273 1.21372 2.39835 2.3981C1.21396 3.58248 0.531338 5.17759 0.492254 6.8521C0.45317 8.52661 1.06063 10.1518 2.18847 11.3902C3.3163 12.6285 4.87782 13.3848 6.54868 13.502C8.21955 13.6192 9.87134 13.0882 11.161 12.0194L15.6555 16.4902L16.4905 15.6553ZM1.68625 7.01553C1.68625 5.96145 1.99883 4.93104 2.58444 4.05461C3.17006 3.17817 4.00241 2.49507 4.97626 2.0917C5.9501 1.68832 7.02169 1.58277 8.05551 1.78842C9.08934 1.99406 10.039 2.50164 10.7843 3.24699C11.5297 3.99234 12.0372 4.94197 12.2429 5.97579C12.4485 7.00962 12.343 8.08121 11.9396 9.05505C11.5362 10.0289 10.8531 10.8612 9.9767 11.4469C9.10026 12.0325 8.06985 12.3451 7.01577 12.3451C5.6023 12.3451 4.24671 11.7835 3.24723 10.7841C2.24776 9.78459 1.68625 8.42901 1.68625 7.01553Z" fill="#C1C1C1"/>
</g>
<defs>
<clipPath id="clip0_205_13954">
<rect width="17" height="17" fill="white"/>
</clipPath>
</defs>
</svg>
