<svg xmlns="http://www.w3.org/2000/svg" width="18" height="20" fill="none">
  <path fill="#D19B3F" d="m1.2798 11.4086.837.4c.16869.0804.30198.2245.3731.4032.07112.1787.0748.3789.0103.5604l-.3276.8997c-.1233.3329-.16532.6926-.12228 1.0467.04305.3541.16981.6915.36888.9818.1938.296.45406.538.75808.705.30402.167.64256.2538.98612.2529.25855.0008.51496-.0489.756-.1465l.8622-.3418c.08161-.0347.16937-.0507.2574-.047.14043-.0012.27812.0405.39614.1199.11801.0794.21119.1931.26806.3271l.3834.8734c.16843.3869.44005.7149.78238.945.34234.2301.74093.3524 1.14812.3524.40719 0 .80578-.1223 1.1481-.3524.3424-.2301.614-.5581.7824-.945l.3924-.879c.0578-.1333.1512-.2463.269-.3256.1178-.0793.255-.1214.3952-.1214.0879-.0024.1755.0135.2574.0469l.8622.3531c.241.0991.497.1525.756.1578.3438-.0066.6811-.0982.9844-.2673.3032-.1692.5636-.411.7598-.7056.1958-.294.3205-.6331.3634-.9883.043-.3552.0029-.716-.1168-1.0515l-.3366-.8997c-.0625-.1808-.0578-.3794.0132-.5568.071-.1773.2031-.3204.3702-.4011l.837-.4001c.3707-.1757.6851-.4592.9056-.8164.2205-.3572.3377-.77313.3377-1.19802 0-.4249-.1172-.84082-.3377-1.19804s-.5349-.64065-.9056-.8164l-.837-.40007c-.1691-.08043-.3027-.22478-.3739-.40394-.0711-.17916-.0745-.37981-.0095-.56149l.3276-.89968c.1233-.33295.1653-.69267.1223-1.04677-.0431-.3541-.1698-.69148-.3689-.98175-.1938-.29601-.4541-.53806-.7581-.70502-.304-.16697-.6425-.25379-.9861-.2529-.2585-.00077-.515.04892-.756.14651l-.8622.34184c-.0816.03464-.1694.05065-.2574.04696-.1383-.00014-.2736-.04184-.3898-.12012-.1162-.07827-.2084-.18981-.2654-.32127l-.3924-.8734c-.1666-.388286-.4375-.717785-.7801-.948503C9.82502.165618 9.42568.0435993 9.018.0450879 8.60408.0446817 8.19876.168386 7.85029.401478c-.34847.233091-.62542.565753-.79789.958392l-.3924.86964c-.0578.13326-.1512.2463-.269.32559-.11781.07928-.25502.12144-.3952.12143-.08492.00116-.16926-.01479-.2484-.04695l-.8622-.34185c-.44349-.17768-.93142-.19425-1.38504-.04703-.45362.14721-.84648.44963-1.11516.85844-.1953.29208-.31976.62925-.36271.98257-.04296.35332-.00311.71224.11611 1.04595l.3276.89969c.0625.18077.0578.37942-.01318.55676-.07098.17733-.20307.32046-.37022.40115l-.837.40007c-.370991.17328-.686002.45488-.907024.81083C.117554 8.5521-.00003382 8.96718 0 9.39131c.00352437.42938.126299.84849.353449 1.20649.22715.3581.548929.6397.926351.8108Zm.5706-2.70849.837-.40007c.48892-.23296.87492-.65083 1.08005-1.16922.20513-.5184.21412-1.09871.02515-1.62375l-.3276-.89969c-.043-.1134-.05812-.23623-.04397-.35729.01415-.12105.05711-.23649.12497-.33578.09045-.14358.22595-.24983.38326-.30055.15732-.05072.32665-.04275.47894.02256l.8622.34185c.23787.09544.49035.14508.7452.1465.40769-.00289.80605-.12753 1.148-.3592.34195-.23166.61317-.56065.7816-.94807l.3834-.87339c.05816-.13412.1528-.24745.27217-.32592.11936-.07848.25819-.11863.39923-.11547.14043-.0012.27812.04048.39614.11991.11801.07943.21119.19313.26806.32711l.3762.86776c.1675.38911.4386.71986.7809.95293.3424.23307.7417.35866 1.1505.36185.255.00039.5078-.04931.7452-.1465l.8622-.34184c.1531-.05812.3202-.06241.4759-.01222.1556.05018.2913.15209.3863.2902.068.09922.1111.21467.1252.33576.0142.12109-.001.24395-.0442.35732l-.3276.89968c-.1838.52435-.1723 1.1016.0324 1.61746s.5876.93271 1.0728 1.168l.837.40007c.1271.06006.2348.15735.3099.28007.075.12271.1144.26554.1131.41113.0011.14654-.0388.29022-.1149.41337-.0761.12314-.1851.22032-.3135.27972l-.8316.4019c-.4889.233-.8749.6509-1.0801 1.1693-.2051.5184-.2141 1.0987-.0251 1.6237l.3276.8997c.043.1134.0581.2362.044.3573-.0142.1211-.0571.2365-.125.3358-.0904.1436-.2259.2498-.3833.3005-.1573.0507-.3266.0428-.4789-.0225l-.8622-.3419c-.2379-.0954-.4904-.1451-.7452-.1465-.4076.0022-.8061.1261-1.1483.3571-.3423.231-.614.5594-.7831.9464l-.3834.8734c-.05718.1318-.14958.2435-.26613.3218-.11654.0783-.25226.1198-.39087.1196-.14043.0012-.27812-.0405-.39614-.1199-.11801-.0794-.21119-.1931-.26806-.3271l-.3906-.8678c-.16961-.3863-.44156-.7139-.78378-.9442-.34221-.2303-.74041-.3537-1.14762-.3555-.25501-.0004-.50781.0493-.7452.1465l-.8622.3418c-.1531.0581-.32022.0624-.47587.0122-.15566-.0501-.29133-.1521-.38633-.2902-.06801-.0992-.11107-.2146-.12522-.3357-.01415-.1211.00105-.244.04422-.3573l.3276-.8997c.18591-.5253.17541-1.1044-.02939-1.6219-.20481-.5176-.5889-.9357-1.07581-1.1711l-.8352-.4038c-.12902-.0592-.23856-.15662-.31503-.28015-.07647-.12354-.11652-.26778-.11517-.41484-.00064-.14642.03973-.28985.11616-.41264.07643-.1228.18558-.21962.31404-.27856Z"/>
  <path fill="#D19B3F" d="M8.98549 12.5487c.59837-.0004 1.18321-.1859 1.68051-.5331.4974-.3471.8849-.8404 1.1137-1.4173.2287-.577.2884-1.21177.1714-1.82412-.1169-.61234-.4052-1.17475-.8285-1.61613-.4232-.44137-.9624-.7419-1.54927-.86357-.5869-.12168-1.1952-.05904-1.74798.17999-.55279.23903-1.02525.64371-1.35765 1.1629-.3324.51918-.50981 1.12955-.50981 1.75394.00284.83679.32279 1.63839.89001 2.22999.56722.5915 1.33566.9249 2.13759.9274Zm0-4.85534c.3204 0 .63361.09914.90002.28489.26639.18574.47409.44975.59669.75864.1226.30889.1547.64878.0922.97669-.0626.32792-.2168.62912-.4434.86552-.22656.2364-.51522.3974-.82947.4626-.31425.0653-.63997.0318-.93599-.0961-.29602-.128-.54903-.3447-.72703-.6227-.17801-.2779-.27302-.60477-.27302-.93911.00563-.44581.17834-.87159.48114-1.18615.30279-.31456.7116-.49288 1.13886-.49677v-.00751Z"/>
</svg>
