<svg width="17" height="12" viewBox="0 0 17 12" fill="none" xmlns="http://www.w3.org/2000/svg">
<path d="M8.5658 11.5C3.5658 11.5 0.765804 6.70001 0.632471 6.50001C0.499137 6.30001 0.499137 6.03334 0.632471 5.83334C0.765804 5.63334 3.5658 0.833344 8.5658 0.833344C13.5658 0.833344 16.3658 5.63334 16.4991 5.83334C16.6325 6.03334 16.6325 6.30001 16.4991 6.50001C16.3658 6.70001 13.5658 11.5 8.5658 11.5ZM2.03247 6.16668C2.69914 7.16668 5.03247 10.1667 8.5658 10.1667C12.0991 10.1667 14.4325 7.16668 15.0991 6.16668C14.4325 5.16668 12.0991 2.16668 8.5658 2.16668C5.03247 2.16668 2.69914 5.10001 2.03247 6.16668ZM8.5658 9.16668C6.89914 9.16668 5.5658 7.83334 5.5658 6.16668C5.5658 4.50001 6.89914 3.16668 8.5658 3.16668C10.2325 3.16668 11.5658 4.50001 11.5658 6.16668C11.5658 7.83334 10.2325 9.16668 8.5658 9.16668ZM8.5658 4.50001C7.63247 4.50001 6.89914 5.23334 6.89914 6.16668C6.89914 7.10001 7.63247 7.83334 8.5658 7.83334C9.49914 7.83334 10.2325 7.10001 10.2325 6.16668C10.2325 5.23334 9.49914 4.50001 8.5658 4.50001Z" fill="#828286"/>
</svg>
