<svg width="32" height="32" viewBox="0 0 32 32" fill="none" xmlns="http://www.w3.org/2000/svg">
<path fill-rule="evenodd" clip-rule="evenodd" d="M16 31.0005C24.2843 31.0005 31 24.2846 31 16.0002C31 7.71582 24.2843 1 16 1C7.71574 1 1 7.71582 1 16.0002C1 24.2846 7.71574 31.0005 16 31.0005ZM32 16.0002C32 24.8369 24.8366 32.0005 16 32.0005C7.16344 32.0005 0 24.8369 0 16.0002C0 7.16355 7.16344 0 16 0C24.8366 0 32 7.16355 32 16.0002ZM17.7066 7.72225L21.4728 5.88428V9.56023C21.4728 10.4382 20.9313 11.4146 20.2666 11.7428L16.5005 13.5808V9.90485C16.5005 9.02689 17.0338 8.05046 17.7066 7.72225ZM10.5272 5.88428L14.2933 7.72225C14.9662 8.04226 15.4995 9.01868 15.4995 9.89664V13.5644L11.7333 11.7264C11.0687 11.3982 10.5272 10.43 10.5272 9.55202V5.88428ZM17.7066 13.9903L21.4728 12.1523V15.8283C21.4728 16.7063 20.9313 17.6827 20.2666 18.0109L16.5005 19.8489V16.1729C16.5005 15.295 17.0338 14.3185 17.7066 13.9903ZM10.5272 12.1602L14.2933 13.9981C14.9662 14.3181 15.4995 15.2946 15.4995 16.1725V19.8403L11.7333 18.0023C11.0687 17.6741 10.5272 16.7059 10.5272 15.8279V12.1602ZM17.7066 20.2583L21.4728 18.4204V22.0963C21.4728 22.9743 20.9313 23.9507 20.2666 24.2789L16.5005 26.1169V22.4409C16.5005 21.5548 17.0338 20.5866 17.7066 20.2583ZM10.5272 18.4372L14.2933 20.2752C14.9662 20.6034 15.4995 21.5716 15.4995 22.4496V26.1173L11.7333 24.2794C11.0687 23.9511 10.5272 22.9829 10.5272 22.105V18.4372Z" fill="white"/>
</svg>
