<?xml version="1.0" standalone="yes"?>
<svg width="256" height="256" xmlns="http://www.w3.org/2000/svg">

<path style="fill:#0d51b6; stroke:none;" d="M111 39L107 29C117.256 23.0083 105.829 9.11734 96.0154 14.179C78.753 23.0824 96.4421 42.4643 111 39M146 39C149.341 39.7951 152.592 40.2897 156 39.4668C158.587 38.8421 160.94 37.5887 162.892 35.7755C178.055 21.689 152.645 3.49161 146.746 19.0154C145.11 23.3223 148.08 26.0146 148.663 30C149.102 33.0079 146.884 36.195 146 39z"/>

<path style="fill:#0d51b6; stroke:none;" d="M121 40.5293C84.7362 48.8538 100.105 104.18 136 95.9815C172.406 87.6664 157.206 32.2181 121 40.5293M115 99C97.7399 95.428 81.2382 87.6073 64 83.3742C50.3135 80.0133 31.3175 76.5925 18 82.9198C2.65717 90.2092 -7.45286 119.378 5.21373 132.895C11.5964 139.706 21.3619 139.516 30 138.91C51.328 137.416 74.6956 126.692 93 116.281C100.025 112.285 112.374 107.147 115 99M141 99C144.836 107.158 155.304 112.129 163 116.22C181.702 126.16 202.752 135.949 224 138.711C233.062 139.888 244.053 139.92 250.812 132.895C263.52 119.686 253.525 91.3244 239 83.4174C226.672 76.7064 208.998 79.9852 196 82.6003C177.368 86.3489 159.518 96.2653 141 99M92 127C115.205 131.5 142.229 136.378 164 124C147.96 105.929 104.052 101.226 92 127M84 136L79 165C103.032 170.496 126.325 173.76 151 170.95C157.557 170.203 173.014 168.565 176.972 162.582C182.149 154.757 174.963 139.791 171 133C152.738 139.535 136.951 145.761 117 143.83C105.537 142.721 95.2045 137.655 84 136M86 184C102.313 216.749 156.321 215.952 172 183L135 189.961L86 184M123 214L129 243L130 243L134 214L123 214z"/>
</svg>
