<?xml version="1.0" standalone="yes"?>
<svg width="256" height="256" xmlns="http://www.w3.org/2000/svg">

<path style="fill:#0d51b6; stroke:none;" d="M79 177L97 178L97 228C97 234.263 95.3485 243.428 98.858 248.956C103.542 256.334 115.317 255.473 119.312 247.96C125.679 235.988 128.417 212.532 129 199L142 201C139.613 213.667 132.272 232.295 134.887 244.999C137.019 255.353 150.946 258.162 157.348 249.892C163.036 242.543 163.611 228.888 165.651 220C171.021 196.602 180.046 171.929 182 148C209.051 146.597 220.541 115.336 223.285 93C223.988 87.2769 226.693 65.0709 218.867 63.3619C208.013 60.9919 199.601 78.5033 190 80.6782C185.9 81.607 166.998 80.1713 163.899 77.5123C158.881 73.2068 147.993 52.9833 139.225 57.1358C132.099 60.5103 132.368 77.4791 131.91 84C130.049 110.563 136.617 136.361 164 147L164 148C137.269 147.982 118.837 123.371 117.09 98C116.658 91.7352 122.151 75.4089 118.933 70.7022C116.87 67.6851 110.322 66.7253 107 66.0949C94.3165 63.6882 81.9533 65.3955 70 70C67.5533 64.0951 63.2311 58.7103 63.1836 52C63.0423 32.0168 87.6601 19.7839 105 24.7878C112.428 26.9313 118.36 33.5222 125.999 34.6551C133.221 35.726 136.071 29.2267 135.966 23C135.725 8.6429 109.505 1.32083 98 0.170532C67.9834 -2.83072 38.101 14.8163 33.2747 46C31.7552 55.8175 32.2195 65.472 35.3588 75C36.9036 79.6887 41.372 85.0715 41.4861 90C41.587 94.3595 37.6545 99.846 36.2284 104C33.6578 111.488 32.2067 120.083 32.054 128C31.5751 152.828 40.5517 179.764 45.3997 204C47.7992 215.995 49.9683 228.065 52.6505 240C53.8254 245.228 54.1382 251.024 59.044 254.258C65.902 258.779 77.2279 255.457 78.7716 247C82.7558 225.173 79 199.216 79 177z"/>

</svg>
