<?xml version="1.0" standalone="yes"?>
<svg width="256" height="256" xmlns="http://www.w3.org/2000/svg" >

<path style="fill:#0d51b6; stroke:none;" d="M46 43L46 51C42.5217 49.3284 38.6815 48.1899 35.2238 50.7423C31.2952 53.6422 29.5337 59.4112 25.9599 62.9105C19.0129 69.7126 -4.54444 78.2534 0.603395 90.8951C3.49452 97.9949 14.0451 96.7773 19.9606 98.5718C26.3285 100.503 37.3469 108.04 42.9414 112.105C49.6255 116.962 50.8742 130.763 55.2076 138C60.5148 146.864 69.8925 152.719 74.9869 161.285C82.5954 174.08 75.361 196.941 69 208L82.4853 206.397L84.9761 194.961L87 168L88 168L93.5162 200L87 213C90.6813 213 97.333 214.271 100.157 211.397C104.571 206.902 102.909 199.487 103.325 194C104.337 180.655 107.427 167.344 108 154C132.85 160.429 166.243 160.489 188 145C191.484 153.366 199.479 159.813 202.4 168C207.351 181.876 198.899 194.785 195 207C213.283 207 212.283 186.495 217 172L218 172L217.737 198.91L212 213C216.618 213 223.527 214.461 226.292 209.852C233.675 197.541 230.152 179.693 231.09 166C232.461 145.971 238.458 128.027 247 110C250.534 124.846 236.417 159.861 254 167C257.9 153.121 252.022 143.383 252 130C251.968 110.575 255.339 82.8024 241.671 67.0401C227.17 50.3172 203.481 56.5715 185 60.196C151.784 66.7102 112.756 69.2046 79 65.8295C72.0362 65.1332 61.3901 63.1731 56.5633 57.6096C52.0524 52.4102 53.852 45.2583 46 43z"/>

</svg>
