<?xml version="1.0" standalone="yes"?>
<svg width="256" height="256" xmlns="http://www.w3.org/2000/svg">

<path style="fill:#0d51b6; stroke:none;" d="M99 26C100.498 23.2992 102.228 20.7281 103.677 18C105.569 14.4364 108.136 0.778778 99.3897 6.04321C90.7734 11.2294 91.0107 23.5316 79.0394 26.6566C68.3127 29.4568 57.7657 22.6776 49 17.5386C46.1126 15.8458 41.3391 13.7273 39.6227 18.1481C35.3301 29.2045 54.7515 31.7945 59.3966 36.7022C61.7787 39.219 60.9996 43.8257 61 47L15 47C15.7572 50.1803 15.2722 54.7177 17.0278 57.4823C25.9 71.453 51.2891 73.2018 59.4421 88.0934C69.1499 105.825 72.3886 129.763 78.6698 149C80.5279 154.691 88.845 160.255 89.2176 165.093C89.8393 173.166 84.0314 184.296 81.7199 192C75.3954 213.08 67.4585 234.456 63 256L79 256L100 186L101 186C107.173 207.96 114.144 233.273 116 256L131 256C128.198 234.305 122.023 212.327 117.119 191C115.806 185.29 110.038 170.965 112.492 165.573C114.773 160.56 130.423 163 135 163C154.92 163 183.984 157.762 194.226 179C196.687 184.103 191.02 193.939 189.333 199C183.09 217.731 176.117 236.233 170 255L183.49 254.971L189.424 242L202.808 206L211.225 188.201L226 190L227 255L241 255L240 210L239.682 184L221.212 161L231.473 128L225.995 119L205 99.0278L182 98L131 98L108.039 97.3966L97.8596 86L79 60C87.7396 57.9183 94.4355 57.8563 95 47L72 47L72 36C92.8876 36 127.081 41.211 141.211 21.9853C145.912 15.5893 146.597 8.52924 148 1C139.087 -1.37323 138.856 13.5127 132.957 18.6713C124.022 26.4845 110.26 28.0905 99 26z"/>

</svg>
