<?xml version="1.0" standalone="yes"?>
<svg width="256" height="256" xmlns="http://www.w3.org/2000/svg">
<path style="fill:#0d51b6; stroke:none;" d="M7.21373 8.07098C-5.8234 14.9351 21.4735 26.3994 26 28.7415C53.8738 43.1641 81.3944 58.3769 109 73.3086C115.004 76.5564 132.009 89.8482 138.772 85.9568C151.021 78.9084 123.367 67.5247 119 65.2191C91.5836 50.7441 63.9607 36.3041 37 21C31.2396 17.7301 13.7262 4.64217 7.21373 8.07098M204 120C214.14 102.661 232.389 117.848 246.867 107.991C251.061 105.135 252.951 98.58 254.56 94C261.67 73.7628 235.754 62.5978 220 56.8542C217.214 55.8386 213.758 57.4783 211.313 56.1026C209.081 54.8467 208.581 51.6132 206.687 49.9043C203.339 46.8848 198.577 45.8285 195.394 42.6096C188.416 35.5537 189.901 15.8768 176.001 18.2323C161.306 20.7223 173.847 44.159 171.258 53C168.365 62.8788 151.904 73.4825 152.306 83.9066C152.474 88.282 160.839 91.8926 164 94C176.956 102.637 189.923 113.341 204 120M165 188L165 224C165 229.191 163.839 236.082 165.742 240.996C169.913 251.765 187.96 251.703 192.106 240.996C195.625 231.91 193 217.674 193 208C193 182.47 190.982 157.37 198 133C184.759 125.628 172.603 116.069 160 107.667C154.919 104.279 149.071 98.5251 143 97.2785C120.477 92.6542 93.8467 98 71 98C63.8311 98 52.7887 100.082 46.0934 97.3966C36.8179 93.6763 29.7462 74.0465 24.304 66.0154C20.9226 61.0255 13.9765 57.3177 8.41898 61.8935C3.6076 65.855 5.96467 72.2128 7.81096 77C12.7184 89.7243 17.9356 102.337 23 115C29.4116 131.031 31.8712 141.841 21.2785 157C17.9804 161.72 12.0019 165.969 9.73843 171.17C4.9751 182.113 5.3274 198.186 3.5787 210C2.04504 220.361 -5.89755 242.536 8.00386 247.297C16.2134 250.109 23.8969 244.99 25.9568 237C29.4442 223.473 29.2414 204.225 36.1644 192.093C40.7814 184.002 59.4301 173.458 68 169.933C74.2699 167.353 89.2384 176.694 96 178.576C118.017 184.703 142.17 187.997 165 188z"/>
</svg>
