<?xml version="1.0" standalone="yes"?>
<svg width="256" height="256" xmlns="http://www.w3.org/2000/svg">

<path style="fill:#0d51b6; stroke:none;" d="M187 8C177.51 4.79469 155.027 2.7475 168 19C162.813 19.9664 156.453 19.9728 152.279 23.6489C144.054 30.8914 153.242 38.5793 161 38.9599C177.281 39.7586 185.776 26.0019 203 26C202.999 19.0855 203.216 10.0389 199.157 4.05864C194.075 -3.42844 187.091 0.334122 187 8M50 58C19.4739 71.1539 8.69392 111.564 21.9035 141C32.5485 164.721 60.1113 185.511 86 189C86.1797 196.436 89.7067 201.096 97 203C90.5583 217.968 95.66 231.965 99.6304 247C101.202 252.95 108.299 260.589 114.258 253.566C118.04 249.108 114.084 242.372 112.139 238C106.406 225.115 95.6172 206.521 115 200C114.48 212.304 117.157 228.643 122.652 239.956C125.449 245.716 133.797 246.621 136.242 239.981C138.804 233.025 130.293 220.373 127.579 214C126.206 210.778 123.142 205.848 126.474 202.854C137.233 193.187 151.077 195.262 164 191.431C184.205 185.44 202.001 169.129 210.688 150C217.523 134.947 219.712 117.258 221.715 101C222.529 94.3945 221.31 83.0685 225.024 77.3904C227.603 73.4473 234.824 71.7134 239 70L239 68C234.89 66.2883 229.397 64.3208 226.603 60.6713C223.822 57.0381 225.201 51.2344 223.521 47C218.672 34.7798 205.221 30.3115 193 33.0154C172.288 37.5981 170.239 65.7641 157.711 79.9961C128.162 113.565 54.1772 110.857 50 58z"/>

</svg>
