<?xml version="1.0" standalone="yes"?>
<svg width="256" height="256" xmlns="http://www.w3.org/2000/svg">
<path style="fill:#0d51b6; stroke:none;" d="M8 176C12.929 175.785 26.9653 174.853 29.9329 170.436C32.9358 165.966 26.9486 152.148 26.081 147C22.9936 128.68 23.3493 117.66 37 104L31.0548 124L36.9992 163L30.0694 191L31.7407 206L30.2323 241.961L37 256L55 253C51.5785 247.052 44.237 241.697 42.6119 235C35.3139 204.926 61.8863 186.286 72 162C78.9444 165.605 83.856 172.112 84.8156 180C85.3557 184.44 84.0419 189.773 87.0093 193.585C89.9193 197.323 96.0565 199.183 100 201.695C110.899 208.637 128.429 221.122 132 234L151 230C140.069 214.525 114.588 203.921 107.742 186C104.151 176.599 108 160.195 108 150C126.753 150 145.5 146.751 163 140L163.961 189L162.148 207.985L172 225L190 221C186.299 214.598 176.407 209.285 175.243 201.996C172.872 187.142 181.395 164.19 185.721 150C187.183 145.204 189.601 137.593 194.21 134.893C198.885 132.153 209.416 135.362 215 134.83C220.065 134.348 228.683 132.122 233.467 134.452C237.563 136.447 236.87 142.281 237.039 146C237.537 156.954 236.556 166.244 225 171L229 186C248.749 180.147 249.518 160.073 251.17 143C251.843 136.038 254.077 126.125 249.486 120.055C241.935 110.071 219.254 111 208 111C212.934 90.2775 200.609 70.2848 205 49C218.311 52.6335 214.933 69.5098 225.108 74.4861C231.435 77.5804 241.79 74.9127 242.682 66.9992C244.629 49.7288 231.043 31.1939 233.368 14C234.071 8.8049 238.992 4.74918 241 0C233.198 0.340179 226.44 3.51151 219 5.3912C203.656 9.26772 192.729 9.05624 181.174 22C167.641 37.1575 163.268 57.7262 145 68.9313C125.548 80.8624 100.481 77.8194 79 81.615C63.7395 84.3115 52.8869 92.736 39 98.1605C34.3976 99.9583 29.5556 100.028 25 102.273C9.67153 109.829 6.14422 123.298 4.28549 139C2.81966 151.383 6.42724 163.821 8 176z"/>
</svg>
