<?xml version="1.0" standalone="yes"?>
<svg width="256" height="256" xmlns="http://www.w3.org/2000/svg">
<path style="fill:#0d51b6; stroke:none;" d="M16 63C20.8476 63.0005 34.7932 62.3471 34.7932 70.0154C34.7932 73.4002 30.4826 76.4695 28 78.1497C20.348 83.3284 11.5183 85.0982 5.78858 93.0039C-2.18542 104.006 -2.21947 119.725 7.18519 129.96C10.7855 133.878 15.7782 135.235 19.5015 138.698C27.1317 145.795 29.17 152.963 41 155C41 167.94 43.1143 175.7 38 188C56.4033 187.998 52.9388 169.662 63.6991 159.603C69.3807 154.292 90.7046 157.39 98 158.286C116.959 160.615 138.371 166.921 155 176.427C180.04 190.743 198.193 210.402 229 204.192C237.971 202.384 247.986 197.709 253.347 189.996C256.471 185.501 257.112 179.312 251.941 176.09C243.185 170.633 228.019 172.096 218 170.196C203.444 167.435 190.087 160.272 176 157.394C167.538 155.666 155.883 156.381 147 156L147 155C154.94 155 176.397 159.054 178 149C166.539 148.5 155.375 142.306 145 137.85C119.629 126.952 95.6528 111.974 70 101.927C57.1548 96.8958 34.9041 96.5104 28 111C21.1087 105.255 26.1682 98.1081 32.0039 93.5285C44.6285 83.6212 56.8439 74.6517 49 57C59.8116 60.1289 70.3688 66.1035 74 51C66.7249 49.288 58.371 50.9747 51 51.8449C39.3997 53.2144 23.1196 50.9261 16 63z"/>
<path style="fill:#0d51b6; stroke:none;" d="M66 187C77.8256 186.86 83.268 169.989 86 160L69.6073 161.179L69.4676 172L66 187z"/>
</svg>
