<?xml version="1.0" standalone="yes"?>
<svg width="256" height="256" xmlns="http://www.w3.org/2000/svg" >

<path style="fill:#0d51b6; stroke:none;" d="M21 69C17.1195 66.0434 6.69074 50.8392 1.6034 55.7469C-6.6462 63.7053 15.306 74.5129 14.5826 82.0039C11.288 116.119 30.2459 143.576 33.8264 177C34.8733 186.773 29.3351 207.284 40.0185 212.821C46.234 216.042 53.5738 211.562 54.7716 205C57.512 189.987 55 172.273 55 157C87.4614 171.371 117.484 172.482 152 171C152 181.375 148.984 197.294 152.742 206.996C156.216 215.963 168.657 215.899 172.106 206.996C175.334 198.664 173 185.859 173 177C173 173.276 171.96 167.541 174.603 164.499C179.147 159.272 187.777 157.381 192.91 151.985C202.289 142.124 204.786 129.702 218 123.489C227.626 118.964 247.708 122.894 254.397 115.362C260.536 108.448 250.457 104.001 250.457 98C250.457 94.0098 255.388 92.509 255.365 88.9151C255.311 80.4057 235.301 83.9858 231.225 77.8912C223.168 65.8458 223.007 52.86 207 47.5231C193.265 42.9441 177.4 45.8452 164 50.3557C157.956 52.3902 152.491 56.5949 146 56.9568C127.979 57.9614 110.068 48.8453 93 44.4784C73.9363 39.6009 51.3462 41.6929 35 53.2091C29.138 57.339 24.2023 62.5712 21 69M224 48C227.412 57.014 234.694 63.6922 233 74C238.402 72.9517 254.192 71.0046 255.079 63.9576C256.403 53.4326 231.141 48.0197 224 48z"/>

<path style="fill:#0d51b6; stroke:none;" d="M177 172C177 180.692 173.85 196.765 177.603 204.606C179.871 209.343 190.995 209.201 193.973 205.297C196.237 202.329 195.954 195.579 195.996 192C196.12 181.623 197 171.379 197 161L177 172M58 166L58 184C58 191.812 62.0066 216.848 75.4275 203.427C79.0345 199.82 78 193.633 78 189C78 173.885 75.0209 166.78 58 166z"/>
</svg>
