<?xml version="1.0" standalone="yes"?>
<svg width="256" height="256" xmlns="http://www.w3.org/2000/svg">

<path style="fill:#0d51b6; stroke:none;" d="M63 74L62 74C58.6079 59.8831 43.7497 50.458 32 43.4529C27.0769 40.5178 21.842 36.5892 16 38C21.4977 55.2529 47.9679 74.4134 44.2569 93.9961C42.7337 102.034 25.9064 105.999 20.3002 112.09C12.2017 120.888 2.51431 135.91 0.583333 147.961C-0.0157253 151.699 2.30535 155.108 2 159C27.2953 172.307 75.2563 162.81 86.2894 133C88.3968 127.306 88.6322 120.807 86.7762 115C85.2859 110.338 81.0531 106.124 83.1049 101C85.4913 95.0411 91.3071 90.5749 94.5355 85C100.321 75.0091 105.758 50.9624 99.6821 40.1335C96.1395 33.8201 87.4605 37.4295 83.0039 40.6381C73.2591 47.654 65.7305 62.5045 63 74M90 109C90.9827 114.781 93.5376 119.982 92.6991 126C89.0821 151.958 61.1667 161.776 40 169C43.1357 179.656 53.9971 189.878 65 192C58.2125 198.86 48.1165 200.063 46 211C67.04 213.659 85.411 209.598 105 202L90 219C100.964 219.007 114.56 222.526 124.985 217.566C131.678 214.382 133.951 206.095 139.464 201.564C146.633 195.671 156.224 198.921 164 201C162.125 204.331 157.652 212.621 160.118 216.411C163.653 221.845 182.542 219.202 188 218.421C206.948 215.707 224.072 208.145 230 188C248.264 194.84 263.209 173.781 254.682 157.019C250.767 149.324 240.373 151.163 237 158C224.025 117.056 188.161 75.1282 141 86.2361C122.839 90.5136 108.04 107.525 90 109z"/>

</svg>
