<?xml version="1.0" standalone="yes"?>
<svg width="256" height="256" xmlns="http://www.w3.org/2000/svg">

<path style="fill:#0d51b6; stroke:none;" d="M190 77C203.02 79.0321 201.37 91.4595 211 96C213.015 89.1845 213.013 78.7784 207.606 73.3943C201.772 67.5837 191.825 68.368 190 77M60 141C42.3539 141 27.8958 143.294 12 151.248C8.6244 152.938 -5.23746 159.993 2.31481 164.968C7.15263 168.154 14.0603 159.91 18 157.796C31.4175 150.593 46.3631 150.85 61 149C61.8102 167.537 84.4277 171.85 98 179.231C102.527 181.692 109.473 187.499 114.945 186.461C122.491 185.031 119.094 176.832 114 175L114 174C130.871 173.953 149.332 167.325 166 169.188C171.941 169.852 176.575 180.87 182.683 178.353C187.734 176.271 182.909 169.391 181 167C199.04 166.988 215.987 165.67 234 166.91C239.297 167.275 250.157 167.891 254.397 164.062C260.645 158.417 249.38 146.227 247.373 140.999C238.432 117.706 222.557 111.415 204.144 97.0455C198.455 92.6052 199.242 84.8463 190.999 82.5687C171.066 77.0611 168.365 98.1516 179 110C172.826 107.894 166.832 104.716 164.808 98C162.649 90.8376 168.454 85.7919 159.995 81.3742C115.814 58.2985 63.7142 93.9363 60 141z"/>

</svg>
