<?xml version="1.0" standalone="yes"?>
<svg width="256" height="256" xmlns="http://www.w3.org/2000/svg" >
<path style="fill:#0d51b6; stroke:none;" d="M18 86L18 87L7 88C12.127 94.643 33.832 110.04 42.9105 105.882C47.7529 103.664 51.8282 96.9198 55.2855 93C61.3672 86.1047 68.421 80.1756 76 75C72.0167 74.0582 68.0817 75.914 64 74.4815C48.2101 68.94 33.8244 57.8448 16 60.9244C8.13851 62.2827 -6.80586 73.0971 1.74228 82.436C5.03323 86.0313 13.4823 85.9068 18 86M142 61C135.245 61 128.64 61.2745 122 62.6651C115.254 64.0779 105.039 65.3364 99.3032 69.2785C89.6522 75.9116 96.1447 86.5191 103 90.9961C110.19 95.6915 129.873 93.9012 135.86 86.4367C140.177 81.0551 141.449 67.7426 142 61M149 61C146.75 68.9862 142.018 79.7155 142.318 88C142.494 92.8556 146.866 96.7573 150.014 100C152.474 102.534 155.615 107.24 159.17 108.212C173.25 112.063 184.408 97.8412 187.576 87C188.611 83.4565 192.189 76.1164 189.933 72.6489C187.978 69.6443 182.196 68.6731 179 67.7207C169.178 64.7934 159.057 62.8948 149 61z"/>
<path style="fill:#0d51b6; stroke:none;" d="M70 88C79.4572 85.3361 89.0414 85.6249 90 74C83.4614 76.4783 73.4112 81.7653 70 88M197 76C194.106 82.7254 189.002 94.6456 189.603 102C189.915 105.809 193.183 109.089 195.374 112C198.396 116.014 202.604 124.16 208.09 124.812C221.456 126.401 237.753 113.373 227.365 100C223.237 94.6859 218.153 90.0486 213 85.7546C208.126 81.693 203.15 77.8096 197 76M97 128L105 100C100.223 96.5785 93.9919 90.1182 88 89.3719C78.0284 88.13 57.573 98.8007 64.1211 111.671C68.0223 119.339 89.1068 125.744 97 128M104 131L145 143C146.818 135.068 154.638 120.895 152.306 113C147.559 96.9254 125.235 90.3784 112.703 101.854C107.37 106.738 104.613 123.97 104 131M152 144C158.391 146.164 165.344 147.156 172 148.246C177.803 149.196 188.001 152.176 193.57 149.397C197.087 147.641 197.734 140.403 198.709 137C204.421 117.065 175.53 98.5938 160.843 116.419C155.516 122.885 154.54 136.056 152 144M72 125C69.5703 120.324 55.6319 110.527 50.0154 112.302C42.7728 114.591 40.0344 127.503 40.5177 134C42.284 157.741 64.6883 177.081 84 188.127C88.8062 190.877 108.412 200.505 111.669 190.772C112.977 186.862 106.493 180.826 104.373 178C95.4961 166.163 86.5529 154.307 78.3333 142C75.3605 137.549 67.8106 130.015 72 125M235 111C232.253 122.984 234.386 129.366 245 137C247.102 127.456 242.497 117.379 235 111M224.996 127.498C214.403 128.239 207.523 130.805 204.341 141C203.554 143.523 201.091 148.795 203.643 150.972C208.41 155.041 229.782 152.612 235.981 151.891C250.955 150.151 233.718 126.888 224.996 127.498M209 158C209.546 164.671 212.945 168.972 215.29 175C217.26 180.065 218.082 185.844 222.133 189.787C231.894 199.285 250.019 196.311 255.106 183C258.211 174.877 254.385 159.735 244.985 157.318C234.144 154.53 220.167 158 209 158z"/>
</svg>
